<svg width="20" height="20" viewBox="0 0 20 20" fill="none" xmlns="http://www.w3.org/2000/svg">
<path fill-rule="evenodd" clip-rule="evenodd" d="M19.9995 10C19.9995 15.52 15.5095 20 9.99954 20L9.71978 19.9962C4.32896 19.8478 -0.000457764 15.4264 -0.000457764 10C-0.000457764 4.49 4.47954 0 9.99954 0C15.5095 0 19.9995 4.49 19.9995 10ZM8.01954 6C7.72954 6.3 7.72954 6.77 8.02954 7.06L10.9795 10L8.02954 12.94C7.72954 13.23 7.72954 13.71 8.01954 14C8.31954 14.3 8.78954 14.3 9.07954 14L12.5695 10.53C12.7095 10.39 12.7895 10.2 12.7895 10C12.7895 9.8 12.7095 9.61 12.5695 9.47L9.07954 6C8.93954 5.85 8.74954 5.78 8.55954 5.78C8.35954 5.78 8.16954 5.85 8.01954 6Z" fill="#082C4E"/>
</svg>
