<svg width="304" height="363" viewBox="0 0 304 363" fill="none" xmlns="http://www.w3.org/2000/svg">
<g opacity="0.1">
<circle cx="309.952" cy="236.955" r="94.1155" stroke="white" stroke-width="12.4166"/>
<path d="M239.623 -11.4753L417.859 56.9433C411.313 39.0652 405.387 24.3953 398.64 12.5752C390.45 -1.77335 381.292 -11.4732 368.796 -17.3768C356.156 -23.3485 339.372 -25.7827 315.299 -24.1113C295.275 -22.7211 270.586 -18.5216 239.623 -11.4753Z" stroke="white" stroke-width="12.4166"/>
<path d="M96.2358 86.1795L276.751 24.0232C260.245 14.5354 246.276 7.10671 233.509 2.3889C218.012 -3.33808 204.762 -4.88215 191.395 -1.37224C177.873 2.17816 163.452 11.1017 146.085 27.8559C131.639 41.7923 115.426 60.8791 96.2358 86.1795Z" stroke="white" stroke-width="12.4166"/>
<path d="M60.2313 249.033L158.561 85.3857C139.818 88.7277 124.342 92.0162 111.529 96.6082C95.9767 102.182 84.834 109.517 76.8501 120.798C68.7742 132.209 63.4625 148.315 60.9283 172.313C58.8203 192.274 58.6687 217.317 60.2313 249.033Z" stroke="white" stroke-width="12.4166"/>
<path d="M131.38 412.943L101.514 224.377C89.3042 238.985 79.5626 251.451 72.6996 263.205C64.3686 277.472 60.5471 290.253 61.6825 304.026C62.8309 317.959 69.1146 333.711 82.5986 353.723C93.8147 370.37 109.796 389.651 131.38 412.943Z" stroke="white" stroke-width="12.4166"/>
<path d="M285.948 480.209L141.862 354.956C141.898 373.995 142.449 389.807 144.747 403.222C147.536 419.506 152.823 431.753 162.547 441.575C172.382 451.51 187.321 459.537 210.514 466.2C229.806 471.743 254.443 476.24 285.948 480.209Z" stroke="white" stroke-width="12.4166"/>
</g>
</svg>
