<svg width="24" height="24" viewBox="0 0 24 24" fill="none" xmlns="http://www.w3.org/2000/svg">
<path opacity="0.1" fill-rule="evenodd" clip-rule="evenodd" d="M0 12C0 5.37258 5.37258 0 12 0C18.6274 0 24 5.37258 24 12C24 18.6274 18.6274 24 12 24C5.37258 24 0 18.6274 0 12Z" fill="white"/>
<path fill-rule="evenodd" clip-rule="evenodd" d="M12.0006 5.59998C10.2624 5.59998 10.0443 5.60758 9.36161 5.63864C8.68027 5.66984 8.2152 5.77771 7.80827 5.93598C7.38733 6.09945 7.03026 6.31812 6.67452 6.67399C6.31852 7.02972 6.09985 7.38679 5.93585 7.8076C5.77718 8.21467 5.66918 8.67987 5.63851 9.36095C5.60798 10.0436 5.59998 10.2619 5.59998 12C5.59998 13.7382 5.60771 13.9557 5.63864 14.6383C5.66998 15.3197 5.77784 15.7847 5.93598 16.1917C6.09958 16.6126 6.31825 16.9697 6.67412 17.3254C7.02972 17.6814 7.38679 17.9006 7.80747 18.0641C8.21467 18.2224 8.67987 18.3302 9.36108 18.3614C10.0438 18.3925 10.2618 18.4001 11.9998 18.4001C13.7381 18.4001 13.9555 18.3925 14.6382 18.3614C15.3195 18.3302 15.7851 18.2224 16.1924 18.0641C16.6132 17.9006 16.9697 17.6814 17.3253 17.3254C17.6813 16.9697 17.9 16.6126 18.064 16.1918C18.2213 15.7847 18.3293 15.3195 18.3613 14.6385C18.392 13.9558 18.4 13.7382 18.4 12C18.4 10.2619 18.392 10.0438 18.3613 9.36108C18.3293 8.67974 18.2213 8.21467 18.064 7.80773C17.9 7.38679 17.6813 7.02972 17.3253 6.67399C16.9693 6.31798 16.6133 6.09931 16.192 5.93598C15.7839 5.77771 15.3186 5.66984 14.6373 5.63864C13.9546 5.60758 13.7373 5.59998 11.9986 5.59998H12.0006ZM11.4264 6.7533C11.5968 6.75304 11.7869 6.7533 12.0005 6.7533C13.7094 6.7533 13.9119 6.75944 14.5867 6.7901C15.2107 6.81864 15.5494 6.9229 15.775 7.01051C16.0737 7.12651 16.2866 7.26517 16.5105 7.48918C16.7345 7.71318 16.8731 7.92652 16.9894 8.22518C17.077 8.45052 17.1814 8.78919 17.2098 9.4132C17.2405 10.0879 17.2471 10.2905 17.2471 11.9986C17.2471 13.7066 17.2405 13.9092 17.2098 14.5839C17.1813 15.2079 17.077 15.5466 16.9894 15.7719C16.8734 16.0706 16.7345 16.2833 16.5105 16.5071C16.2865 16.7311 16.0738 16.8698 15.775 16.9858C15.5497 17.0738 15.2107 17.1778 14.5867 17.2063C13.912 17.237 13.7094 17.2437 12.0005 17.2437C10.2916 17.2437 10.0891 17.237 9.41439 17.2063C8.79038 17.1775 8.45171 17.0733 8.22598 16.9857C7.92731 16.8697 7.71397 16.731 7.48997 16.507C7.26597 16.283 7.1273 16.0702 7.01103 15.7714C6.92343 15.5461 6.81903 15.2074 6.79063 14.5834C6.75996 13.9087 6.75383 13.706 6.75383 11.997C6.75383 10.2879 6.75996 10.0863 6.79063 9.4116C6.81916 8.78759 6.92343 8.44892 7.01103 8.22332C7.12703 7.92465 7.26597 7.71131 7.48997 7.48731C7.71397 7.26331 7.92731 7.12464 8.22598 7.00837C8.45158 6.92037 8.79038 6.81637 9.41439 6.7877C10.0048 6.76104 10.2336 6.75304 11.4264 6.7517V6.7533ZM15.4169 7.81598C14.9928 7.81598 14.6488 8.15959 14.6488 8.58372C14.6488 9.00773 14.9928 9.35173 15.4169 9.35173C15.8409 9.35173 16.1849 9.00773 16.1849 8.58372C16.1849 8.15972 15.8409 7.81598 15.4169 7.81598ZM12.0006 8.71332C10.1855 8.71332 8.71389 10.1849 8.71389 12C8.71389 13.8151 10.1855 15.2861 12.0006 15.2861C13.8157 15.2861 15.2868 13.8151 15.2868 12C15.2868 10.1849 13.8157 8.71332 12.0006 8.71332ZM12.0006 9.86667C13.1787 9.86667 14.1339 10.8217 14.1339 12C14.1339 13.1782 13.1787 14.1334 12.0006 14.1334C10.8223 14.1334 9.86721 13.1782 9.86721 12C9.86721 10.8217 10.8223 9.86667 12.0006 9.86667Z" fill="white"/>
</svg>
