<svg width="685" height="1050" viewBox="0 0 685 1050" fill="none" xmlns="http://www.w3.org/2000/svg">
<path d="M497 3.43323e-05L266.5 0C272.788 13.0807 351 97 362.5 97C374 97 445.882 141.23 487 136C528.118 130.77 556 137.5 585.5 149C615 160.5 621.5 206 621.5 206H686.718V127.5C686.718 127.5 629.5 66 585.5 40.5C541.5 15 504.5 29 497 3.43323e-05Z" fill="#1E1E1E"/>
<path d="M12.002 1039.53C8.45033 1039.56 5.54159 1036.71 5.51117 1033.16L0.0400962 394.35C0.0162047 391.56 1.79664 389.074 4.44551 388.199L549.959 207.953C551.966 207.29 554.171 207.657 555.855 208.936L838.993 423.886C840.599 425.106 841.539 427.009 841.531 429.026L839.105 1024C839.091 1027.51 836.264 1030.36 832.757 1030.4L12.002 1039.53Z" fill="#1A1A1A"/>
<g style="mix-blend-mode:darken" opacity="0.2">
<path d="M250.973 880.909C286.817 796.328 320.698 698.427 356.543 613.847C375.654 568.765 410 557.064 458.804 560.821C507.608 564.578 549.639 578.02 588.086 588.859C639.889 603.473 689.314 615.191 741.582 632.149C762.847 639.042 778.891 638.124 789.524 641.691C795.538 643.707 799.829 649.032 800.501 655.34C803.621 684.619 815.547 760.664 815.547 826.899C815.547 893.134 816.683 854.077 804.965 887.56C804.327 889.387 802.104 890.421 800.501 889.335C704.255 824.229 616.487 782.421 549.588 696.859C490.513 813.854 394.473 911.842 278.718 973.278C249.818 988.615 208.752 970.279 200.893 938.519C193.001 906.758 220.746 871.396 250.973 880.909Z" fill="black"/>
</g>
<path opacity="0.8" d="M234.645 866.732C270.49 782.152 304.37 684.25 340.215 599.67C359.326 554.589 393.672 542.887 442.476 546.644C491.28 550.401 533.312 563.843 571.759 574.682C623.561 589.296 672.986 601.014 725.254 617.972C746.52 624.865 778.608 630.948 789.24 634.516C795.255 636.532 799.546 641.857 800.218 648.164C803.337 677.443 807.818 767.658 803.854 796.403C798.357 836.108 800.356 839.9 788.637 873.384C788 875.21 785.777 876.244 784.174 875.158C687.927 810.052 600.159 768.244 533.26 682.682C474.185 799.678 378.145 897.665 262.39 959.101C233.49 974.438 192.424 956.102 184.566 924.342C176.673 892.581 204.418 857.219 234.645 866.732Z" fill="#48BACA"/>
<g style="mix-blend-mode:darken" opacity="0.2">
<path d="M295.298 559.787C307.224 584.913 336.604 622.842 358.49 652.276C381.824 604.523 405.175 573.142 428.508 525.389C449.257 482.944 503.706 460.754 546.141 473.375C546.141 483.267 545.021 481.738 539.834 485.495C544.418 484.753 548.347 490.216 548.743 494.852C549.14 499.471 544.608 502.693 539.972 502.728C543.694 501.849 543.733 506.44 543.475 510.249C543.216 514.057 540.61 517.927 537.042 516.566C540.334 520.788 539.8 530.936 537.042 535.537C523.687 543.119 500.956 543.742 484.567 528.663C467.541 562.509 446.689 624.273 422.166 749.574C419.392 763.723 407.156 775.234 393.232 778.957C379.308 782.662 361.782 786.005 351.787 775.614C332.692 755.761 311.444 732.272 291.609 713.144C271.773 694.015 236.673 651.796 234.088 624.361C231.537 596.926 262.883 571.868 295.298 559.787Z" fill="black"/>
</g>
<path d="M277.024 558.329C288.949 583.455 318.329 621.384 340.215 650.818C363.549 603.065 386.9 571.684 410.233 523.931C430.982 481.486 485.431 459.295 527.866 471.917C527.866 481.809 526.746 480.279 521.559 484.036C526.143 483.295 530.072 488.758 530.469 493.394C530.865 498.012 526.333 501.235 521.697 501.269C525.419 500.39 525.459 504.982 525.2 508.79C524.942 512.599 522.335 516.469 518.767 515.107C522.059 519.33 521.525 529.477 518.767 534.078C505.412 541.661 482.681 542.284 466.293 527.205C449.266 561.051 428.414 622.814 403.892 748.116C401.117 762.264 388.882 773.776 374.957 777.498C361.033 781.204 343.507 784.547 333.512 774.155C314.417 754.303 293.169 730.814 273.334 711.685C253.498 692.557 218.398 650.338 215.813 622.903C213.263 595.468 244.608 570.409 277.024 558.329Z" fill="#D0CECE"/>
<mask id="mask0" mask-type="alpha" maskUnits="userSpaceOnUse" x="215" y="468" width="316" height="314">
<path d="M277.024 558.329C288.949 583.455 318.329 621.384 340.215 650.818C363.549 603.065 386.9 571.684 410.233 523.931C430.982 481.486 485.431 459.295 527.866 471.917C527.866 481.809 526.746 480.279 521.559 484.036C526.143 483.295 530.072 488.758 530.469 493.394C530.865 498.012 526.333 501.235 521.697 501.269C525.419 500.39 525.459 504.982 525.2 508.79C524.942 512.599 522.335 516.469 518.767 515.107C522.059 519.33 521.525 529.477 518.767 534.078C505.412 541.661 482.681 542.284 466.293 527.205C449.266 561.051 428.414 622.814 403.892 748.116C401.117 762.264 388.882 773.776 374.957 777.498C361.033 781.204 343.507 784.547 333.512 774.155C314.417 754.303 293.169 730.814 273.334 711.685C253.498 692.557 218.398 650.338 215.813 622.903C213.263 595.468 244.608 570.409 277.024 558.329Z" fill="#FDFDFD"/>
</mask>
<g mask="url(#mask0)">
<path d="M443.947 565.352C437.791 527.02 462.366 473.37 475.423 451.336L540.825 445.041L539.076 544.368L458.985 609.07C456.537 610.469 450.102 603.684 443.947 565.352Z" fill="#EFEFEF"/>
<g style="mix-blend-mode:overlay">
<path d="M443.947 565.352C437.791 527.02 462.366 473.37 475.423 451.336L540.825 445.041L539.076 544.368L458.985 609.07C456.537 610.469 450.102 603.684 443.947 565.352Z" fill="#48BACA"/>
</g>
</g>
<path d="M493.388 993.965C483.273 994.581 474.566 1004.16 474.924 1014.28C475.281 1024.41 484.659 1033.35 494.78 1033.23C577.44 1032.33 660.1 1031.43 742.76 1030.53C750.933 1030.44 757.872 1021.82 756.213 1013.81C754.555 1005.81 744.746 1000.65 737.214 1003.82C713.601 1013.76 685.767 1013.2 662.57 1002.32C607.042 976.248 544.346 990.886 493.388 993.965Z" fill="white"/>
<path d="M226.219 347.326L165.679 369.316C163.301 370.177 148.372 376.77 149.268 379.148C156.851 399.208 183.154 413.398 199.267 427.546C200.249 428.408 201.731 428.425 202.765 427.615C219.498 414.311 238.093 403.368 257.842 395.182C249.053 384.119 248.433 367.334 256.239 355.598C258.652 351.962 257.101 346.826 253.017 345.293C249.415 343.931 245.382 344.845 241.626 345.758C239.178 346.344 236.593 346.913 234.543 346.637C231.734 346.223 228.873 346.361 226.219 347.326Z" fill="#DEDEDE"/>
<g style="mix-blend-mode:darken" opacity="0.2">
<path d="M237.28 469.851C247.103 505.73 265.25 539.3 289.876 567.184C303.593 582.711 309.763 583.59 284.688 624.501C273.866 642.165 262.699 656.641 249.947 673.598C244.69 680.577 236.763 687.712 232.558 680.06C213.843 646.008 194.749 610.801 190.734 572.164C186.718 533.51 201.625 490.169 237.28 469.851Z" fill="black"/>
</g>
<path d="M220.824 414.639C232.543 407.056 244.933 400.507 257.824 395.165C249.035 384.102 248.414 367.316 256.221 355.581C258.634 351.945 257.083 346.809 252.998 345.275C249.397 343.914 245.364 344.827 241.607 345.741C239.16 346.327 236.575 346.895 234.525 346.62C231.716 346.24 228.872 346.378 226.218 347.343L215.637 351.186C215.585 351.255 215.551 351.341 215.499 351.41C212.466 356.373 213.673 363.473 218.153 367.179C225.908 373.572 226.563 385.256 224.753 395.148C223.564 401.628 221.6 408.124 220.824 414.639Z" fill="#BABABA"/>
<path d="M227.615 448.501C237.438 484.381 255.584 517.951 280.21 545.834C293.928 561.361 300.097 562.24 275.023 603.151C264.201 620.815 253.034 635.291 240.281 652.248C235.025 659.227 227.098 666.362 222.893 658.71C204.178 624.658 185.084 589.451 181.068 550.814C177.053 512.16 191.96 468.819 227.615 448.501Z" fill="#FFE353"/>
<g style="mix-blend-mode:darken" opacity="0.2">
<path d="M261.219 806.395L538.31 582.586C580.876 548.201 644.432 571.281 655.53 625.163C682.155 754.408 708.78 883.67 735.388 1012.91C735.819 1015.04 734.509 1017.14 732.407 1017.63C660.82 1033.94 557.771 1014.85 486.305 997.042C480.343 995.564 476.603 989.546 477.896 983.493C499.144 883.555 541.171 849.198 562.919 745.277C516.976 818.9 490.471 845.928 438.789 915.586C387.124 985.243 312.505 1044.71 226.426 1049.47C140.346 1054.24 30.3131 987.261 33.8115 900.332C100.9 871.652 196.802 858.416 261.219 806.395Z" fill="black"/>
</g>
<path d="M232.975 800.788L510.066 582.207C552.632 548.625 616.187 571.166 627.285 623.79C653.91 750.015 680.536 876.258 707.143 1002.48C707.574 1004.56 706.265 1006.61 704.162 1007.09C632.576 1023.02 557.078 1015.27 485.612 997.881C479.649 996.437 475.91 990.559 477.202 984.648C498.451 887.044 512.926 842.591 534.675 741.098C488.731 813.001 462.227 839.398 410.545 907.428C358.88 975.459 284.261 1033.54 198.181 1038.19C112.102 1042.84 2.06875 977.429 5.56707 892.531C72.6555 864.521 168.558 851.594 232.975 800.788Z" fill="#48BACA"/>
<mask id="mask1" mask-type="alpha" maskUnits="userSpaceOnUse" x="180" y="448" width="113" height="215">
<path d="M227.615 448.501C237.438 484.381 255.584 517.951 280.21 545.834C293.928 561.361 300.097 562.24 275.023 603.151C264.201 620.815 253.034 635.291 240.281 652.248C235.025 659.227 227.098 666.362 222.893 658.71C204.178 624.658 185.084 589.451 181.068 550.814C177.053 512.16 191.96 468.819 227.615 448.501Z" fill="#FFD814"/>
</mask>
<g mask="url(#mask1)">
<path opacity="0.2" d="M233.34 457.235C233.54 454.475 233.791 451.834 234.098 449.328L237.514 458.588L233.34 457.235C228.905 518.421 249.653 638.275 251.084 658.308C252.579 679.246 201.194 686.886 182.625 651.617L169.467 436.53L233.34 457.235Z" fill="#1E1E1E"/>
</g>
<path d="M435.825 416.224C402.203 434.25 371.029 444.4 335.58 470.818C334.115 471.904 332.065 471.473 331.151 469.888C328.756 465.734 326.343 462.667 324.12 459.151C322.397 456.394 319.14 455.05 315.917 455.567C307.37 456.946 296.237 458.841 287.397 458.565C278.297 458.29 270.232 452.672 266.7 444.279L245.865 397.112C238.679 380.052 248.812 356.063 265.2 347.481C286.449 336.348 307.956 325.13 331.238 319.288C354.158 313.549 379.301 313.446 400.549 323.717C422.452 334.298 438.6 363.387 436.825 387.651C436.204 395.734 435.722 404.436 435.825 416.224Z" fill="white"/>
<g style="mix-blend-mode:multiply" opacity="0.4">
<path d="M512.691 480.764C507.286 479.925 491.103 482.046 483.687 483.21C485.667 481.308 490.909 477.293 496.034 476.454C502.441 475.406 519.447 481.813 512.691 480.764Z" fill="#48BACA"/>
</g>
<path d="M233.232 316.065C220.446 323.251 225.271 341.88 234.715 353.099C244.158 364.318 266.803 365.989 281.433 365.007C294.341 364.145 306.663 359.768 320.432 354.65C322.741 353.788 323.655 350.927 322.155 348.963C317.158 342.38 317.158 331.902 323.12 325.922C330.341 318.667 344.214 320.098 349.797 328.697C354.864 336.521 348.78 342.414 338.578 350.755C336.958 352.082 336.752 354.443 338.079 356.063C339.664 357.976 341.353 360.32 342.938 362.215C344.196 363.714 346.419 363.973 347.988 362.784C361.068 352.892 379.662 343.931 392.811 351.927C406.839 360.457 409.131 379.431 416.713 393.993C424.313 408.555 438.841 420.36 453.713 427.287C467.086 433.526 486.214 428.821 491.781 416.017C492.711 413.863 491.557 411.364 489.265 410.847C486.025 410.106 482.94 408.779 480.148 406.969C476.771 404.781 479.011 399.439 482.957 400.249C483.078 400.266 483.198 400.3 483.319 400.318C487.093 401.041 489.368 396.216 486.404 393.786C470.153 380.534 461.864 357.683 466.827 337.175C471.721 316.996 464.087 295.368 449.939 280.168C438.823 268.209 413.439 254.853 402.393 257.938C350.848 272.293 275.126 292.525 233.232 316.065Z" fill="#292929"/>
<g style="mix-blend-mode:darken" opacity="0.2">
<path d="M346.667 614.204C357.117 610.895 367.586 607.603 378.036 604.295C378.65 610.981 373.487 617.754 366.009 620.08C358.53 622.406 349.372 620.08 344.68 614.669C345.499 614.359 346.319 614.048 346.667 614.204Z" fill="black"/>
</g>
<path d="M343.892 609.579C354.341 606.27 364.811 602.979 375.26 599.67C375.875 606.356 370.712 613.129 363.233 615.456C355.755 617.782 346.596 615.456 341.904 610.044C342.724 609.734 343.543 609.424 343.892 609.579Z" fill="#F3F1F1"/>
<path d="M515.234 458.1L472.824 613.612C472.548 614.646 473.22 615.714 474.289 615.869L487.334 617.937C488.247 618.075 489.126 617.506 489.368 616.61L529.883 461.03C530.158 459.979 529.452 458.945 528.383 458.79C524.575 458.238 520.818 457.652 517.406 456.825C516.475 456.584 515.51 457.135 515.234 458.1Z" fill="#FFE353"/>
<g style="mix-blend-mode:darken" opacity="0.2">
<path d="M519.195 478.111C521.106 472.168 524.209 469.525 528.84 469.371L537.407 483.958L508.696 557.125C506.612 555.736 502.259 552.031 501.518 548.326C500.777 544.622 506.73 540.599 509.895 539.518C508.891 537.049 507.391 532.199 507.391 529.502C507.391 526.402 511.836 522.783 515.618 521.394C513.457 519.851 512.318 517.627 511.206 514.478C510.095 511.329 514.544 506.56 518.48 506.251C517.631 504.553 513.79 503.219 513.79 498.082C513.79 493.731 520.33 489.776 525.038 487.769C522.722 486.92 517.448 483.543 519.195 478.111Z" fill="black"/>
</g>
<path d="M525.937 469.349C528.229 467.918 532.278 468.526 533.812 470.767C535.346 473.007 534.777 476.402 532.606 478.022C531.365 478.935 530.383 480.142 529.194 481.124C528.005 482.106 526.505 482.864 524.989 482.692C523.455 482.502 522.042 481.038 522.387 479.521C521.714 473.622 523.007 471.175 525.937 469.349Z" fill="white"/>
<path d="M518.043 523.673C521.748 527.171 522.833 533.444 521.731 538.424C520.628 543.404 516.75 547.661 511.908 549.246C509.685 549.97 507.169 548.264 506.496 546.024C505.824 543.783 506.152 540.44 507.617 538.596C509.081 536.752 510.563 535.408 510.632 535.322C512.235 529.79 513.872 522.57 513.872 522.57C513.872 522.57 518.284 522.07 518.043 523.673Z" fill="white"/>
<g style="mix-blend-mode:multiply" opacity="0.4">
<path d="M510.636 535.152L513.617 523.682L518.672 521.738L521.134 527.7C521.113 528.564 520.447 530.201 517.959 529.838C515.471 529.475 512.04 533.23 510.636 535.152Z" fill="#C4C4C4"/>
</g>
<path d="M523.274 515.894C526.321 517.018 525.981 522.888 525.031 525.983C524.081 529.077 521.22 531.621 517.965 531.761C514.728 531.918 511.586 530.486 511.309 527.27C511.031 524.037 512.323 521.45 514.675 519.835C516.272 511.999 517.527 513.775 523.274 515.894Z" fill="white"/>
<g style="mix-blend-mode:multiply" opacity="0.4">
<path d="M514.651 519.891L517.319 508.344L522.314 506.103L524.938 511.996C524.94 512.86 527.151 517.067 524.654 516.772C522.157 516.477 516.002 517.931 514.651 519.891Z" fill="#C4C4C4"/>
</g>
<path d="M527.142 501.148C530.158 502.355 529.658 508.214 528.625 511.282C527.591 514.349 524.661 516.813 521.404 516.865C518.164 516.934 515.062 515.417 514.872 512.195C514.683 508.955 516.044 506.405 518.44 504.854C520.249 497.064 521.456 498.874 527.142 501.148Z" fill="white"/>
<g style="mix-blend-mode:multiply" opacity="0.4">
<path d="M518.415 504.909L521.396 493.439L526.45 491.335L528.913 497.297C528.891 498.161 530.988 502.426 528.499 502.063C526.011 501.7 519.819 502.986 518.415 504.909Z" fill="#C4C4C4"/>
</g>
<path d="M522.8 488.413C522.731 488.224 523.696 484.915 523.696 484.915C523.696 484.915 525.85 484.14 526.781 484.932C529.193 487.017 530.969 489.947 531.313 493.118C531.641 496.289 530.383 499.684 527.815 501.579C525.247 503.475 521.37 503.578 518.923 501.528C516.475 499.477 515.976 495.358 518.13 492.997C519.646 491.326 520.835 489.74 522.8 488.413Z" fill="white"/>
<g style="mix-blend-mode:multiply" opacity="0.4">
<path d="M522.632 488.482L523.992 483.56L528.498 483.751L533.13 480.87C533.109 481.734 532.196 491.274 530.32 489.6C527.955 487.489 524.036 486.56 522.632 488.482Z" fill="#C4C4C4"/>
</g>
<path d="M325.93 656.867C322.759 662.088 330.29 671.98 336.063 669.981C375.561 656.35 416.558 648.457 456.746 636.98C475.547 631.603 477.408 624.882 472.773 615.352C424.71 629.07 372.89 641.081 325.93 656.867Z" fill="#1C1C1C"/>
<mask id="mask2" mask-type="alpha" maskUnits="userSpaceOnUse" x="0" y="207" width="842" height="833">
<path d="M12.002 1039.53C8.45033 1039.56 5.54159 1036.71 5.51117 1033.16L0.0400962 394.35C0.0162047 391.56 1.79664 389.074 4.44551 388.199L549.959 207.953C551.966 207.29 554.171 207.657 555.855 208.936L838.993 423.886C840.599 425.106 841.539 427.009 841.531 429.026L839.105 1024C839.091 1027.51 836.264 1030.36 832.757 1030.4L12.002 1039.53Z" fill="#1A1A1A"/>
</mask>
<g mask="url(#mask2)">
<path d="M152.065 362.698C151.255 361.061 149.187 360.475 147.688 361.526C57.455 424.444 8.66817 534.408 -4.77365 643.752C-18.181 752.855 -0.827271 863.112 16.8539 971.646C17.1813 973.663 19.4044 974.766 21.2139 973.8C103.795 929.563 178.879 871.401 242.401 802.555C245.985 798.661 246.967 793.008 244.882 788.131C198.646 680.338 194.251 555.14 233.009 444.434C233.508 443.021 232.871 441.47 231.526 440.815C197.526 423.806 168.746 396.664 152.065 362.698Z" fill="#FFE353"/>
<path d="M540.016 484.57C538.43 483.519 537.121 483.347 537.999 481.658C552.165 454.567 609.655 494.324 633.815 494.324C658.407 494.324 665.903 479.504 670.884 456.773C679.897 415.672 711.226 377.139 752.896 371.245C778.994 367.543 811.682 395.868 833.836 414.846C839.115 419.369 856.902 453.668 856.189 460.583C852.228 498.951 845.77 529.642 842.555 570.3C842.107 575.959 834.258 578.616 828.595 578.233C810.121 576.985 792.735 610.819 763.908 602.272C719.895 589.21 711.795 570.942 682.585 564.67C651.186 557.931 632.437 579.8 595.506 555.519C570.208 538.854 577.256 509.076 540.016 484.57Z" fill="#48BACA"/>
</g>
<g style="mix-blend-mode:darken" opacity="0.2">
<path d="M42.8592 672.422C11.8741 778.526 38.8784 908.205 114.721 992.44C120.908 999.316 124.027 1001.85 139.175 996.473C219.481 967.935 279.763 835.981 300.787 693.67C319.33 686.363 331.445 679.211 343.904 662.53C359.776 669.458 381.844 668.941 397.198 660.927C379.655 656.464 361.172 651.845 344.421 647.313C362.705 651.845 380.972 656.395 399.257 660.927C409.818 660.789 413.012 656.866 410.2 652.966C406.001 649.855 361.602 638.335 336.718 634.802C213.415 680.314 232.957 790.727 150.118 885.819C119.564 792.588 127.836 720.433 129.628 667.028C100.538 671.422 71.4662 668.906 42.8592 672.422Z" fill="black"/>
</g>
<path d="M42.8592 646.321C11.8741 752.425 38.8784 882.104 114.721 966.339C120.908 973.215 124.027 975.748 139.175 970.372C219.481 941.834 279.763 809.88 300.787 667.569C319.33 660.262 331.445 653.11 343.904 636.429C359.776 643.356 381.844 642.84 397.198 634.826C379.655 630.363 361.172 625.744 344.421 621.212C362.705 625.744 380.972 630.294 399.257 634.826C409.818 634.688 413.012 630.764 410.2 626.864C406.001 623.753 361.602 612.233 336.718 608.701C213.415 654.213 232.957 764.626 150.118 859.718C119.564 766.487 127.836 694.332 129.628 640.927C100.538 645.321 71.4662 642.805 42.8592 646.321Z" fill="white"/>
<mask id="mask3" mask-type="alpha" maskUnits="userSpaceOnUse" x="30" y="608" width="382" height="366">
<path d="M42.8592 646.321C11.8741 752.425 38.8784 882.104 114.721 966.339C120.908 973.215 124.027 975.748 139.175 970.372C219.481 941.834 279.763 809.88 300.787 667.569C319.33 660.262 331.445 653.11 343.904 636.429C359.776 643.356 381.844 642.84 397.198 634.826C379.655 630.363 361.172 625.744 344.421 621.212C362.705 625.744 380.972 630.294 399.257 634.826C409.818 634.688 413.012 630.764 410.2 626.864C406.001 623.753 361.602 612.233 336.718 608.701C213.415 654.213 232.957 764.626 150.118 859.718C119.564 766.487 127.836 694.332 129.628 640.927C100.538 645.321 71.4662 642.805 42.8592 646.321Z" fill="white"/>
</mask>
<g mask="url(#mask3)">
<path opacity="0.1" d="M126.641 664.466C112.472 669.494 57.511 662.371 31.8015 658.181C22.8507 686.938 9.2913 744.794 26.6595 746.165C44.0277 747.536 107.787 717.408 137.496 702.173C139.781 687.509 140.81 659.438 126.641 664.466Z" fill="#1E1E1E"/>
</g>
<path d="M63.9718 469.187C41.5299 523.51 23.3004 580.525 13.1361 639.132C12.3359 643.748 14.3998 648.398 18.1858 650.59C58.8646 673.922 107.306 680.6 151.978 668.966C155.119 668.144 157.843 665.449 158.163 661.928C162.505 613.255 157.113 582.591 187.114 495.289" fill="#FFE353"/>
<mask id="mask4" mask-type="alpha" maskUnits="userSpaceOnUse" x="12" y="475" width="168" height="200">
<mask id="path-44-inside-1" mask-type="luminance" fill="white">
<path d="M84.6539 475.088C56.2338 526.38 23.3005 580.525 13.1362 639.132C12.336 643.748 14.3999 648.398 18.1859 650.589C58.8647 673.922 107.307 680.6 151.978 668.966C155.119 668.144 157.843 665.449 158.163 661.927C162.505 613.254 149.047 576.109 179.048 488.807"/>
</mask>
<path d="M84.6539 475.088C56.2338 526.38 23.3005 580.525 13.1362 639.132C12.336 643.748 14.3999 648.398 18.1859 650.589C58.8647 673.922 107.307 680.6 151.978 668.966C155.119 668.144 157.843 665.449 158.163 661.927C162.505 613.254 149.047 576.109 179.048 488.807" fill="#FFD814"/>
<path d="M85.3719 475.502C85.5901 475.108 85.4455 474.603 85.049 474.375C84.6524 474.146 84.1541 474.279 83.9359 474.673L85.3719 475.502ZM13.1362 639.132L12.3287 638.972L12.3287 638.972L13.1362 639.132ZM18.1859 650.589L17.79 651.302L17.7928 651.303L18.1859 650.589ZM151.978 668.966L152.2 669.765L152.201 669.764L151.978 668.966ZM158.163 661.927L158.98 662.022L158.98 662.02L158.163 661.927ZM179.823 489.092C179.97 488.665 179.742 488.191 179.314 488.033C178.886 487.875 178.42 488.094 178.273 488.521L179.823 489.092ZM83.9359 474.673C55.5474 525.909 22.5224 580.196 12.3287 638.972L13.9436 639.292C24.0787 580.854 56.9203 526.851 85.3719 475.502L83.9359 474.673ZM12.3287 638.972C11.4746 643.899 13.6687 648.917 17.79 651.302L18.5819 649.877C15.1311 647.879 13.1973 643.597 13.9436 639.292L12.3287 638.972ZM17.7928 651.303C58.6597 674.744 107.323 681.452 152.2 669.765L151.755 668.167C107.291 679.747 59.0697 673.1 18.579 649.875L17.7928 651.303ZM152.201 669.764C155.615 668.871 158.623 665.935 158.98 662.022L157.347 661.833C157.062 664.963 154.623 667.417 151.754 668.167L152.201 669.764ZM158.98 662.02C163.345 613.084 149.86 576.282 179.823 489.092L178.273 488.521C148.233 575.936 161.666 613.424 157.347 661.835L158.98 662.02Z" fill="#3E3E3E" mask="url(#path-44-inside-1)"/>
</mask>
<g mask="url(#mask4)">
<path opacity="0.1" d="M0.267766 616.886C75.1812 605.142 92.2256 519.574 189.09 495.656L167.68 673.136C156.794 677.518 128.178 687.298 100.793 691.369C66.562 696.457 -29.8283 621.604 0.267766 616.886Z" fill="#1E1E1E"/>
</g>
<path opacity="0.9" fill-rule="evenodd" clip-rule="evenodd" d="M762.653 365.93C764.167 364.006 764.823 360.809 764.459 356.114C761.522 328.011 760.964 307.074 760.391 285.576C759.936 268.475 759.47 251.019 757.791 229.32C757.549 226.27 730.752 225.97 730.752 225.97C730.752 225.97 644.692 225.679 626.323 229.32L624.755 231.353C624.461 239.874 624.572 246.203 624.684 252.511C624.734 255.369 624.784 258.223 624.797 261.274L762.653 365.93Z" fill="#48BACA"/>
<path opacity="0.9" d="M615.655 188.316C608.365 188.557 603.902 189.695 603.126 196.95C602.627 201.706 602.075 212.115 602.075 216.888C602.075 226.849 601.145 231.347 626.546 229.158C672.265 225.229 718.399 225.608 764.187 228.4C786.676 229.762 785.814 217.888 785.659 206.531C785.504 195.175 789.399 186.92 763.635 185.214C714.418 181.94 664.993 186.662 615.655 188.316Z" fill="#FFE353"/>
<path d="M593.301 189.08C445.88 97.25 361.979 85.1818 211 105.412" stroke="#60686C" stroke-width="1.28721"/>
</svg>
