<svg width="203" height="36" viewBox="0 0 203 36" fill="none" xmlns="http://www.w3.org/2000/svg">
<path d="M4.242 6.17C4.62933 6.17 4.97 6.11867 5.264 6.016C5.56267 5.91333 5.81233 5.771 6.013 5.589C6.21833 5.40233 6.37233 5.18067 6.475 4.924C6.57767 4.66733 6.629 4.385 6.629 4.077C6.629 3.43767 6.43067 2.93833 6.034 2.579C5.642 2.21967 5.04467 2.04 4.242 2.04H2.632V6.17H4.242ZM4.242 0.968999C4.87667 0.968999 5.42733 1.04367 5.894 1.193C6.36533 1.33767 6.755 1.54533 7.063 1.816C7.371 2.08667 7.59967 2.41333 7.749 2.796C7.903 3.17867 7.98 3.60567 7.98 4.077C7.98 4.54367 7.89833 4.97067 7.735 5.358C7.57167 5.74533 7.33133 6.079 7.014 6.359C6.70133 6.639 6.31167 6.85833 5.845 7.017C5.383 7.171 4.84867 7.248 4.242 7.248H2.632V11H1.281V0.968999H4.242ZM10.4415 5.33C10.6655 4.84467 10.9408 4.46667 11.2675 4.196C11.5942 3.92067 11.9932 3.783 12.4645 3.783C12.6138 3.783 12.7562 3.79933 12.8915 3.832C13.0315 3.86467 13.1552 3.916 13.2625 3.986L13.1715 4.917C13.1435 5.03367 13.0735 5.092 12.9615 5.092C12.8962 5.092 12.8005 5.078 12.6745 5.05C12.5485 5.022 12.4062 5.008 12.2475 5.008C12.0235 5.008 11.8228 5.04067 11.6455 5.106C11.4728 5.17133 11.3165 5.26933 11.1765 5.4C11.0412 5.526 10.9175 5.68467 10.8055 5.876C10.6982 6.06267 10.6002 6.27733 10.5115 6.52V11H9.25848V3.909H9.97248C10.1078 3.909 10.2012 3.93467 10.2525 3.986C10.3038 4.03733 10.3388 4.126 10.3575 4.252L10.4415 5.33ZM17.06 3.797C17.578 3.797 18.0447 3.88333 18.46 4.056C18.8753 4.22867 19.23 4.47367 19.524 4.791C19.818 5.10833 20.042 5.49333 20.196 5.946C20.3547 6.394 20.434 6.89567 20.434 7.451C20.434 8.011 20.3547 8.515 20.196 8.963C20.042 9.411 19.818 9.79367 19.524 10.111C19.23 10.4283 18.8753 10.6733 18.46 10.846C18.0447 11.014 17.578 11.098 17.06 11.098C16.5373 11.098 16.066 11.014 15.646 10.846C15.2307 10.6733 14.876 10.4283 14.582 10.111C14.288 9.79367 14.0617 9.411 13.903 8.963C13.749 8.515 13.672 8.011 13.672 7.451C13.672 6.89567 13.749 6.394 13.903 5.946C14.0617 5.49333 14.288 5.10833 14.582 4.791C14.876 4.47367 15.2307 4.22867 15.646 4.056C16.066 3.88333 16.5373 3.797 17.06 3.797ZM17.06 10.125C17.76 10.125 18.2827 9.89167 18.628 9.425C18.9733 8.95367 19.146 8.298 19.146 7.458C19.146 6.61333 18.9733 5.95533 18.628 5.484C18.2827 5.01267 17.76 4.777 17.06 4.777C16.7053 4.777 16.395 4.83767 16.129 4.959C15.8677 5.08033 15.6483 5.25533 15.471 5.484C15.2983 5.71267 15.1677 5.995 15.079 6.331C14.995 6.66233 14.953 7.038 14.953 7.458C14.953 8.298 15.1257 8.95367 15.471 9.425C15.821 9.89167 16.3507 10.125 17.06 10.125ZM22.0143 11V3.909H22.7633C22.9407 3.909 23.0503 3.99533 23.0923 4.168L23.1833 4.896C23.4447 4.574 23.7387 4.31033 24.0653 4.105C24.392 3.89967 24.77 3.797 25.1993 3.797C25.6753 3.797 26.0603 3.93 26.3543 4.196C26.653 4.462 26.8677 4.82133 26.9983 5.274C27.101 5.01733 27.2317 4.79567 27.3903 4.609C27.5537 4.42233 27.7357 4.26833 27.9363 4.147C28.137 4.02567 28.3493 3.937 28.5733 3.881C28.802 3.825 29.033 3.797 29.2663 3.797C29.6397 3.797 29.971 3.85767 30.2603 3.979C30.5543 4.09567 30.8017 4.26833 31.0023 4.497C31.2077 4.72567 31.364 5.008 31.4713 5.344C31.5787 5.67533 31.6323 6.05567 31.6323 6.485V11H30.3793V6.485C30.3793 5.92967 30.258 5.50967 30.0153 5.225C29.7727 4.93567 29.4227 4.791 28.9653 4.791C28.76 4.791 28.564 4.82833 28.3773 4.903C28.1953 4.973 28.0343 5.078 27.8943 5.218C27.7543 5.358 27.6423 5.53533 27.5583 5.75C27.479 5.96 27.4393 6.205 27.4393 6.485V11H26.1863V6.485C26.1863 5.91567 26.072 5.491 25.8433 5.211C25.6147 4.931 25.281 4.791 24.8423 4.791C24.5343 4.791 24.2497 4.875 23.9883 5.043C23.727 5.20633 23.4867 5.43033 23.2673 5.715V11H22.0143ZM36.5151 3.797C37.0331 3.797 37.4997 3.88333 37.9151 4.056C38.3304 4.22867 38.6851 4.47367 38.9791 4.791C39.2731 5.10833 39.4971 5.49333 39.6511 5.946C39.8097 6.394 39.8891 6.89567 39.8891 7.451C39.8891 8.011 39.8097 8.515 39.6511 8.963C39.4971 9.411 39.2731 9.79367 38.9791 10.111C38.6851 10.4283 38.3304 10.6733 37.9151 10.846C37.4997 11.014 37.0331 11.098 36.5151 11.098C35.9924 11.098 35.5211 11.014 35.1011 10.846C34.6857 10.6733 34.3311 10.4283 34.0371 10.111C33.7431 9.79367 33.5167 9.411 33.3581 8.963C33.2041 8.515 33.1271 8.011 33.1271 7.451C33.1271 6.89567 33.2041 6.394 33.3581 5.946C33.5167 5.49333 33.7431 5.10833 34.0371 4.791C34.3311 4.47367 34.6857 4.22867 35.1011 4.056C35.5211 3.88333 35.9924 3.797 36.5151 3.797ZM36.5151 10.125C37.2151 10.125 37.7377 9.89167 38.0831 9.425C38.4284 8.95367 38.6011 8.298 38.6011 7.458C38.6011 6.61333 38.4284 5.95533 38.0831 5.484C37.7377 5.01267 37.2151 4.777 36.5151 4.777C36.1604 4.777 35.8501 4.83767 35.5841 4.959C35.3227 5.08033 35.1034 5.25533 34.9261 5.484C34.7534 5.71267 34.6227 5.995 34.5341 6.331C34.4501 6.66233 34.4081 7.038 34.4081 7.458C34.4081 8.298 34.5807 8.95367 34.9261 9.425C35.2761 9.89167 35.8057 10.125 36.5151 10.125ZM43.5234 11.112C42.9634 11.112 42.5317 10.9557 42.2284 10.643C41.9297 10.3303 41.7804 9.88 41.7804 9.292V4.952H40.9264C40.8517 4.952 40.7887 4.931 40.7374 4.889C40.686 4.84233 40.6604 4.77233 40.6604 4.679V4.182L41.8224 4.035L42.1094 1.844C42.1234 1.774 42.1537 1.718 42.2004 1.676C42.2517 1.62933 42.317 1.606 42.3964 1.606H43.0264V4.049H45.0774V4.952H43.0264V9.208C43.0264 9.50667 43.0987 9.72833 43.2434 9.873C43.388 10.0177 43.5747 10.09 43.8034 10.09C43.934 10.09 44.046 10.0737 44.1394 10.041C44.2374 10.0037 44.3214 9.964 44.3914 9.922C44.4614 9.88 44.5197 9.84267 44.5664 9.81C44.6177 9.77267 44.662 9.754 44.6994 9.754C44.7647 9.754 44.823 9.79367 44.8744 9.873L45.2384 10.468C45.0237 10.6687 44.7647 10.8273 44.4614 10.944C44.158 11.056 43.8454 11.112 43.5234 11.112ZM47.68 3.909V11H46.434V3.909H47.68ZM47.946 1.683C47.946 1.80433 47.9203 1.91867 47.869 2.026C47.8223 2.12867 47.757 2.222 47.673 2.306C47.5936 2.38533 47.498 2.44833 47.386 2.495C47.2786 2.54167 47.1643 2.565 47.043 2.565C46.9216 2.565 46.8073 2.54167 46.7 2.495C46.5973 2.44833 46.5063 2.38533 46.427 2.306C46.3476 2.222 46.2846 2.12867 46.238 2.026C46.1913 1.91867 46.168 1.80433 46.168 1.683C46.168 1.56167 46.1913 1.44733 46.238 1.34C46.2846 1.228 46.3476 1.13233 46.427 1.053C46.5063 0.969 46.5973 0.903666 46.7 0.856999C46.8073 0.810333 46.9216 0.786999 47.043 0.786999C47.1643 0.786999 47.2786 0.810333 47.386 0.856999C47.498 0.903666 47.5936 0.969 47.673 1.053C47.757 1.13233 47.8223 1.228 47.869 1.34C47.9203 1.44733 47.946 1.56167 47.946 1.683ZM50.9032 4.938C51.0572 4.76533 51.2206 4.609 51.3932 4.469C51.5659 4.329 51.7479 4.21 51.9392 4.112C52.1352 4.00933 52.3406 3.93233 52.5552 3.881C52.7746 3.825 53.0102 3.797 53.2622 3.797C53.6496 3.797 53.9902 3.86233 54.2842 3.993C54.5829 4.119 54.8302 4.301 55.0262 4.539C55.2269 4.77233 55.3786 5.05467 55.4812 5.386C55.5839 5.71733 55.6352 6.08367 55.6352 6.485V11H54.3822V6.485C54.3822 5.94833 54.2586 5.533 54.0112 5.239C53.7686 4.94033 53.3976 4.791 52.8982 4.791C52.5296 4.791 52.1842 4.87967 51.8622 5.057C51.5449 5.23433 51.2509 5.47467 50.9802 5.778V11H49.7272V3.909H50.4762C50.6536 3.909 50.7632 3.99533 50.8052 4.168L50.9032 4.938ZM60.0049 7.535C60.2569 7.535 60.4785 7.5 60.6699 7.43C60.8612 7.36 61.0222 7.262 61.1529 7.136C61.2835 7.01 61.3815 6.86067 61.4469 6.688C61.5122 6.51067 61.5449 6.317 61.5449 6.107C61.5449 5.673 61.4119 5.32767 61.1459 5.071C60.8845 4.81433 60.5042 4.686 60.0049 4.686C59.5009 4.686 59.1159 4.81433 58.8499 5.071C58.5885 5.32767 58.4579 5.673 58.4579 6.107C58.4579 6.317 58.4905 6.51067 58.5559 6.688C58.6259 6.86067 58.7262 7.01 58.8569 7.136C58.9875 7.262 59.1485 7.36 59.3399 7.43C59.5312 7.5 59.7529 7.535 60.0049 7.535ZM62.2519 11.385C62.2519 11.2123 62.2029 11.0723 62.1049 10.965C62.0069 10.8577 61.8739 10.7737 61.7059 10.713C61.5425 10.6523 61.3512 10.6103 61.1319 10.587C60.9125 10.559 60.6792 10.538 60.4319 10.524C60.1892 10.51 59.9419 10.496 59.6899 10.482C59.4379 10.468 59.1952 10.4447 58.9619 10.412C58.7005 10.5333 58.4859 10.6873 58.3179 10.874C58.1545 11.056 58.0729 11.2707 58.0729 11.518C58.0729 11.6767 58.1125 11.8237 58.1919 11.959C58.2759 12.099 58.4019 12.218 58.5699 12.316C58.7379 12.4187 58.9479 12.498 59.1999 12.554C59.4565 12.6147 59.7575 12.645 60.1029 12.645C60.4389 12.645 60.7399 12.6147 61.0059 12.554C61.2719 12.4933 61.4959 12.407 61.6779 12.295C61.8645 12.183 62.0069 12.05 62.1049 11.896C62.2029 11.742 62.2519 11.5717 62.2519 11.385ZM63.5189 4.189V4.651C63.5189 4.805 63.4209 4.903 63.2249 4.945L62.4199 5.05C62.5785 5.358 62.6579 5.69867 62.6579 6.072C62.6579 6.41733 62.5902 6.73233 62.4549 7.017C62.3242 7.297 62.1422 7.53733 61.9089 7.738C61.6755 7.93867 61.3955 8.09267 61.0689 8.2C60.7422 8.30733 60.3875 8.361 60.0049 8.361C59.6735 8.361 59.3609 8.32133 59.0669 8.242C58.9175 8.33533 58.8032 8.43567 58.7239 8.543C58.6445 8.64567 58.6049 8.75067 58.6049 8.858C58.6049 9.026 58.6725 9.15433 58.8079 9.243C58.9479 9.327 59.1299 9.38767 59.3539 9.425C59.5779 9.46233 59.8322 9.48567 60.1169 9.495C60.4062 9.50433 60.7002 9.52067 60.9989 9.544C61.3022 9.56267 61.5962 9.59767 61.8809 9.649C62.1702 9.70033 62.4269 9.78433 62.6509 9.901C62.8749 10.0177 63.0545 10.1787 63.1899 10.384C63.3299 10.5893 63.3999 10.8553 63.3999 11.182C63.3999 11.4853 63.3229 11.7793 63.1689 12.064C63.0195 12.3487 62.8025 12.6007 62.5179 12.82C62.2332 13.044 61.8832 13.2213 61.4679 13.352C61.0572 13.4873 60.5929 13.555 60.0749 13.555C59.5569 13.555 59.1042 13.5037 58.7169 13.401C58.3295 13.2983 58.0075 13.1607 57.7509 12.988C57.4942 12.8153 57.3005 12.6147 57.1699 12.386C57.0439 12.162 56.9809 11.9263 56.9809 11.679C56.9809 11.329 57.0905 11.0327 57.3099 10.79C57.5292 10.5473 57.8302 10.3537 58.2129 10.209C58.0029 10.1157 57.8349 9.992 57.7089 9.838C57.5875 9.67933 57.5269 9.467 57.5269 9.201C57.5269 9.09833 57.5455 8.99333 57.5829 8.886C57.6202 8.774 57.6762 8.66433 57.7509 8.557C57.8302 8.445 57.9259 8.34 58.0379 8.242C58.1499 8.144 58.2805 8.05767 58.4299 7.983C58.0799 7.787 57.8069 7.528 57.6109 7.206C57.4149 6.87933 57.3169 6.50133 57.3169 6.072C57.3169 5.72667 57.3822 5.414 57.5129 5.134C57.6482 4.84933 57.8349 4.609 58.0729 4.413C58.3109 4.21233 58.5932 4.05833 58.9199 3.951C59.2512 3.84367 59.6129 3.79 60.0049 3.79C60.3129 3.79 60.5999 3.825 60.8659 3.895C61.1319 3.96033 61.3745 4.05833 61.5939 4.189H63.5189ZM75.0425 2.11H71.7945V11H70.4435V2.11H67.1885V0.968999H75.0425V2.11ZM79.274 6.681C79.274 6.39167 79.232 6.128 79.148 5.89C79.0687 5.64733 78.9497 5.43967 78.791 5.267C78.637 5.08967 78.448 4.95433 78.224 4.861C78 4.763 77.7457 4.714 77.461 4.714C76.8637 4.714 76.39 4.889 76.04 5.239C75.6947 5.58433 75.48 6.065 75.396 6.681H79.274ZM80.282 10.006C80.128 10.1927 79.9437 10.356 79.729 10.496C79.5143 10.6313 79.2833 10.7433 79.036 10.832C78.7933 10.9207 78.5413 10.986 78.28 11.028C78.0187 11.0747 77.7597 11.098 77.503 11.098C77.013 11.098 76.5603 11.0163 76.145 10.853C75.7343 10.685 75.3773 10.4423 75.074 10.125C74.7753 9.803 74.542 9.40633 74.374 8.935C74.206 8.46367 74.122 7.92233 74.122 7.311C74.122 6.81633 74.1967 6.35433 74.346 5.925C74.5 5.49567 74.7193 5.12467 75.004 4.812C75.2887 4.49467 75.6363 4.24733 76.047 4.07C76.4577 3.888 76.9197 3.797 77.433 3.797C77.8577 3.797 78.2497 3.86933 78.609 4.014C78.973 4.154 79.2857 4.35933 79.547 4.63C79.813 4.896 80.0207 5.22733 80.17 5.624C80.3193 6.016 80.394 6.464 80.394 6.968C80.394 7.164 80.373 7.29467 80.331 7.36C80.289 7.42533 80.2097 7.458 80.093 7.458H75.354C75.368 7.906 75.4287 8.29567 75.536 8.627C75.648 8.95833 75.802 9.236 75.998 9.46C76.194 9.67933 76.4273 9.845 76.698 9.957C76.9687 10.0643 77.272 10.118 77.608 10.118C77.9207 10.118 78.189 10.083 78.413 10.013C78.6417 9.93833 78.8377 9.859 79.001 9.775C79.1643 9.691 79.2997 9.614 79.407 9.544C79.519 9.46933 79.6147 9.432 79.694 9.432C79.7967 9.432 79.876 9.47167 79.932 9.551L80.282 10.006ZM86.8595 5.169C86.8222 5.22033 86.7848 5.26 86.7475 5.288C86.7102 5.316 86.6588 5.33 86.5935 5.33C86.5235 5.33 86.4465 5.302 86.3625 5.246C86.2785 5.18533 86.1735 5.12 86.0475 5.05C85.9262 4.98 85.7745 4.917 85.5925 4.861C85.4152 4.80033 85.1958 4.77 84.9345 4.77C84.5845 4.77 84.2765 4.833 84.0105 4.959C83.7445 5.08033 83.5205 5.25767 83.3385 5.491C83.1612 5.72433 83.0258 6.00667 82.9325 6.338C82.8438 6.66933 82.7995 7.04033 82.7995 7.451C82.7995 7.88033 82.8485 8.263 82.9465 8.599C83.0445 8.93033 83.1822 9.21033 83.3595 9.439C83.5415 9.663 83.7585 9.83567 84.0105 9.957C84.2672 10.0737 84.5542 10.132 84.8715 10.132C85.1748 10.132 85.4245 10.097 85.6205 10.027C85.8165 9.95233 85.9775 9.87067 86.1035 9.782C86.2342 9.69333 86.3415 9.614 86.4255 9.544C86.5142 9.46933 86.6005 9.432 86.6845 9.432C86.7872 9.432 86.8665 9.47167 86.9225 9.551L87.2725 10.006C87.1185 10.1973 86.9435 10.3607 86.7475 10.496C86.5515 10.6313 86.3392 10.7457 86.1105 10.839C85.8865 10.9277 85.6508 10.993 85.4035 11.035C85.1562 11.077 84.9042 11.098 84.6475 11.098C84.2042 11.098 83.7912 11.0163 83.4085 10.853C83.0305 10.6897 82.7015 10.454 82.4215 10.146C82.1415 9.83333 81.9222 9.45067 81.7635 8.998C81.6048 8.54533 81.5255 8.02967 81.5255 7.451C81.5255 6.92367 81.5978 6.436 81.7425 5.988C81.8918 5.54 82.1065 5.155 82.3865 4.833C82.6712 4.50633 83.0188 4.252 83.4295 4.07C83.8448 3.888 84.3208 3.797 84.8575 3.797C85.3568 3.797 85.7955 3.87867 86.1735 4.042C86.5562 4.20067 86.8945 4.427 87.1885 4.721L86.8595 5.169ZM89.863 4.854C90.1664 4.532 90.5024 4.27533 90.871 4.084C91.2397 3.89267 91.6644 3.797 92.145 3.797C92.5324 3.797 92.873 3.86233 93.167 3.993C93.4657 4.119 93.713 4.301 93.909 4.539C94.1097 4.77233 94.2614 5.05467 94.364 5.386C94.4667 5.71733 94.518 6.08367 94.518 6.485V11H93.265V6.485C93.265 5.94833 93.1414 5.533 92.894 5.239C92.6514 4.94033 92.2804 4.791 91.781 4.791C91.4124 4.791 91.067 4.87967 90.745 5.057C90.4277 5.23433 90.1337 5.47467 89.863 5.778V11H88.61V0.689H89.863V4.854ZM97.5927 4.938C97.7467 4.76533 97.91 4.609 98.0827 4.469C98.2554 4.329 98.4374 4.21 98.6287 4.112C98.8247 4.00933 99.03 3.93233 99.2447 3.881C99.464 3.825 99.6997 3.797 99.9517 3.797C100.339 3.797 100.68 3.86233 100.974 3.993C101.272 4.119 101.52 4.301 101.716 4.539C101.916 4.77233 102.068 5.05467 102.171 5.386C102.273 5.71733 102.325 6.08367 102.325 6.485V11H101.072V6.485C101.072 5.94833 100.948 5.533 100.701 5.239C100.458 4.94033 100.087 4.791 99.5877 4.791C99.219 4.791 98.8737 4.87967 98.5517 5.057C98.2344 5.23433 97.9404 5.47467 97.6697 5.778V11H96.4167V3.909H97.1657C97.343 3.909 97.4527 3.99533 97.4947 4.168L97.5927 4.938ZM107.212 3.797C107.73 3.797 108.197 3.88333 108.612 4.056C109.028 4.22867 109.382 4.47367 109.676 4.791C109.97 5.10833 110.194 5.49333 110.348 5.946C110.507 6.394 110.586 6.89567 110.586 7.451C110.586 8.011 110.507 8.515 110.348 8.963C110.194 9.411 109.97 9.79367 109.676 10.111C109.382 10.4283 109.028 10.6733 108.612 10.846C108.197 11.014 107.73 11.098 107.212 11.098C106.69 11.098 106.218 11.014 105.798 10.846C105.383 10.6733 105.028 10.4283 104.734 10.111C104.44 9.79367 104.214 9.411 104.055 8.963C103.901 8.515 103.824 8.011 103.824 7.451C103.824 6.89567 103.901 6.394 104.055 5.946C104.214 5.49333 104.44 5.10833 104.734 4.791C105.028 4.47367 105.383 4.22867 105.798 4.056C106.218 3.88333 106.69 3.797 107.212 3.797ZM107.212 10.125C107.912 10.125 108.435 9.89167 108.78 9.425C109.126 8.95367 109.298 8.298 109.298 7.458C109.298 6.61333 109.126 5.95533 108.78 5.484C108.435 5.01267 107.912 4.777 107.212 4.777C106.858 4.777 106.547 4.83767 106.281 4.959C106.02 5.08033 105.801 5.25533 105.623 5.484C105.451 5.71267 105.32 5.995 105.231 6.331C105.147 6.66233 105.105 7.038 105.105 7.458C105.105 8.298 105.278 8.95367 105.623 9.425C105.973 9.89167 106.503 10.125 107.212 10.125ZM113.455 0.689V11H112.209V0.689H113.455ZM118.464 3.797C118.982 3.797 119.449 3.88333 119.864 4.056C120.28 4.22867 120.634 4.47367 120.928 4.791C121.222 5.10833 121.446 5.49333 121.6 5.946C121.759 6.394 121.838 6.89567 121.838 7.451C121.838 8.011 121.759 8.515 121.6 8.963C121.446 9.411 121.222 9.79367 120.928 10.111C120.634 10.4283 120.28 10.6733 119.864 10.846C119.449 11.014 118.982 11.098 118.464 11.098C117.942 11.098 117.47 11.014 117.05 10.846C116.635 10.6733 116.28 10.4283 115.986 10.111C115.692 9.79367 115.466 9.411 115.307 8.963C115.153 8.515 115.076 8.011 115.076 7.451C115.076 6.89567 115.153 6.394 115.307 5.946C115.466 5.49333 115.692 5.10833 115.986 4.791C116.28 4.47367 116.635 4.22867 117.05 4.056C117.47 3.88333 117.942 3.797 118.464 3.797ZM118.464 10.125C119.164 10.125 119.687 9.89167 120.032 9.425C120.378 8.95367 120.55 8.298 120.55 7.458C120.55 6.61333 120.378 5.95533 120.032 5.484C119.687 5.01267 119.164 4.777 118.464 4.777C118.11 4.777 117.799 4.83767 117.533 4.959C117.272 5.08033 117.053 5.25533 116.875 5.484C116.703 5.71267 116.572 5.995 116.483 6.331C116.399 6.66233 116.357 7.038 116.357 7.458C116.357 8.298 116.53 8.95367 116.875 9.425C117.225 9.89167 117.755 10.125 118.464 10.125ZM125.849 7.535C126.101 7.535 126.322 7.5 126.514 7.43C126.705 7.36 126.866 7.262 126.997 7.136C127.127 7.01 127.225 6.86067 127.291 6.688C127.356 6.51067 127.389 6.317 127.389 6.107C127.389 5.673 127.256 5.32767 126.99 5.071C126.728 4.81433 126.348 4.686 125.849 4.686C125.345 4.686 124.96 4.81433 124.694 5.071C124.432 5.32767 124.302 5.673 124.302 6.107C124.302 6.317 124.334 6.51067 124.4 6.688C124.47 6.86067 124.57 7.01 124.701 7.136C124.831 7.262 124.992 7.36 125.184 7.43C125.375 7.5 125.597 7.535 125.849 7.535ZM128.096 11.385C128.096 11.2123 128.047 11.0723 127.949 10.965C127.851 10.8577 127.718 10.7737 127.55 10.713C127.386 10.6523 127.195 10.6103 126.976 10.587C126.756 10.559 126.523 10.538 126.276 10.524C126.033 10.51 125.786 10.496 125.534 10.482C125.282 10.468 125.039 10.4447 124.806 10.412C124.544 10.5333 124.33 10.6873 124.162 10.874C123.998 11.056 123.917 11.2707 123.917 11.518C123.917 11.6767 123.956 11.8237 124.036 11.959C124.12 12.099 124.246 12.218 124.414 12.316C124.582 12.4187 124.792 12.498 125.044 12.554C125.3 12.6147 125.601 12.645 125.947 12.645C126.283 12.645 126.584 12.6147 126.85 12.554C127.116 12.4933 127.34 12.407 127.522 12.295C127.708 12.183 127.851 12.05 127.949 11.896C128.047 11.742 128.096 11.5717 128.096 11.385ZM129.363 4.189V4.651C129.363 4.805 129.265 4.903 129.069 4.945L128.264 5.05C128.422 5.358 128.502 5.69867 128.502 6.072C128.502 6.41733 128.434 6.73233 128.299 7.017C128.168 7.297 127.986 7.53733 127.753 7.738C127.519 7.93867 127.239 8.09267 126.913 8.2C126.586 8.30733 126.231 8.361 125.849 8.361C125.517 8.361 125.205 8.32133 124.911 8.242C124.761 8.33533 124.647 8.43567 124.568 8.543C124.488 8.64567 124.449 8.75067 124.449 8.858C124.449 9.026 124.516 9.15433 124.652 9.243C124.792 9.327 124.974 9.38767 125.198 9.425C125.422 9.46233 125.676 9.48567 125.961 9.495C126.25 9.50433 126.544 9.52067 126.843 9.544C127.146 9.56267 127.44 9.59767 127.725 9.649C128.014 9.70033 128.271 9.78433 128.495 9.901C128.719 10.0177 128.898 10.1787 129.034 10.384C129.174 10.5893 129.244 10.8553 129.244 11.182C129.244 11.4853 129.167 11.7793 129.013 12.064C128.863 12.3487 128.646 12.6007 128.362 12.82C128.077 13.044 127.727 13.2213 127.312 13.352C126.901 13.4873 126.437 13.555 125.919 13.555C125.401 13.555 124.948 13.5037 124.561 13.401C124.173 13.2983 123.851 13.1607 123.595 12.988C123.338 12.8153 123.144 12.6147 123.014 12.386C122.888 12.162 122.825 11.9263 122.825 11.679C122.825 11.329 122.934 11.0327 123.154 10.79C123.373 10.5473 123.674 10.3537 124.057 10.209C123.847 10.1157 123.679 9.992 123.553 9.838C123.431 9.67933 123.371 9.467 123.371 9.201C123.371 9.09833 123.389 8.99333 123.427 8.886C123.464 8.774 123.52 8.66433 123.595 8.557C123.674 8.445 123.77 8.34 123.882 8.242C123.994 8.144 124.124 8.05767 124.274 7.983C123.924 7.787 123.651 7.528 123.455 7.206C123.259 6.87933 123.161 6.50133 123.161 6.072C123.161 5.72667 123.226 5.414 123.357 5.134C123.492 4.84933 123.679 4.609 123.917 4.413C124.155 4.21233 124.437 4.05833 124.764 3.951C125.095 3.84367 125.457 3.79 125.849 3.79C126.157 3.79 126.444 3.825 126.71 3.895C126.976 3.96033 127.218 4.05833 127.438 4.189H129.363ZM136.769 3.909L132.814 13.093C132.772 13.1863 132.718 13.261 132.653 13.317C132.592 13.373 132.497 13.401 132.366 13.401H131.442L132.737 10.587L129.811 3.909H130.889C130.996 3.909 131.08 3.937 131.141 3.993C131.206 4.04433 131.251 4.10267 131.274 4.168L133.171 8.634C133.246 8.83 133.309 9.03533 133.36 9.25C133.425 9.03067 133.495 8.823 133.57 8.627L135.411 4.168C135.439 4.09333 135.486 4.03267 135.551 3.986C135.621 3.93467 135.698 3.909 135.782 3.909H136.769ZM137.273 12.694C137.236 12.6613 137.21 12.631 137.196 12.603C137.182 12.575 137.175 12.54 137.175 12.498C137.175 12.4653 137.185 12.4327 137.203 12.4C137.227 12.3673 137.252 12.337 137.28 12.309C137.327 12.2577 137.385 12.19 137.455 12.106C137.53 12.022 137.605 11.9217 137.679 11.805C137.754 11.693 137.822 11.567 137.882 11.427C137.948 11.2917 137.994 11.147 138.022 10.993C138.008 10.9977 137.992 11 137.973 11C137.959 11 137.945 11 137.931 11C137.689 11 137.49 10.9207 137.336 10.762C137.187 10.5987 137.112 10.391 137.112 10.139C137.112 9.91967 137.187 9.733 137.336 9.579C137.49 9.425 137.693 9.348 137.945 9.348C138.085 9.348 138.209 9.37367 138.316 9.425C138.424 9.47633 138.512 9.54867 138.582 9.642C138.657 9.73067 138.713 9.83567 138.75 9.957C138.788 10.0737 138.806 10.202 138.806 10.342C138.806 10.552 138.776 10.7713 138.715 11C138.659 11.224 138.573 11.4457 138.456 11.665C138.344 11.889 138.207 12.106 138.043 12.316C137.88 12.526 137.693 12.7197 137.483 12.897L137.273 12.694ZM151.44 8.928C151.515 8.928 151.58 8.95833 151.636 9.019L152.175 9.6C151.765 10.076 151.265 10.447 150.677 10.713C150.094 10.979 149.387 11.112 148.556 11.112C147.838 11.112 147.184 10.9883 146.596 10.741C146.008 10.489 145.507 10.139 145.091 9.691C144.676 9.23833 144.354 8.697 144.125 8.067C143.897 7.437 143.782 6.744 143.782 5.988C143.782 5.232 143.901 4.539 144.139 3.909C144.377 3.279 144.711 2.73767 145.14 2.285C145.574 1.83233 146.092 1.48233 146.694 1.235C147.296 0.982999 147.961 0.856999 148.689 0.856999C149.403 0.856999 150.033 0.971333 150.579 1.2C151.125 1.42867 151.606 1.739 152.021 2.131L151.573 2.754C151.545 2.80067 151.508 2.84033 151.461 2.873C151.419 2.901 151.361 2.915 151.286 2.915C151.202 2.915 151.1 2.87067 150.978 2.782C150.857 2.68867 150.698 2.586 150.502 2.474C150.306 2.362 150.061 2.26167 149.767 2.173C149.473 2.07967 149.112 2.033 148.682 2.033C148.164 2.033 147.691 2.124 147.261 2.306C146.832 2.48333 146.461 2.74233 146.148 3.083C145.84 3.42367 145.6 3.839 145.427 4.329C145.255 4.819 145.168 5.372 145.168 5.988C145.168 6.61333 145.257 7.171 145.434 7.661C145.616 8.151 145.861 8.56633 146.169 8.907C146.482 9.243 146.848 9.49967 147.268 9.677C147.693 9.85433 148.15 9.943 148.64 9.943C148.939 9.943 149.207 9.92667 149.445 9.894C149.688 9.85667 149.91 9.80067 150.11 9.726C150.316 9.65133 150.505 9.558 150.677 9.446C150.855 9.32933 151.03 9.19167 151.202 9.033C151.282 8.963 151.361 8.928 151.44 8.928ZM154.598 5.33C154.822 4.84467 155.097 4.46667 155.424 4.196C155.75 3.92067 156.149 3.783 156.621 3.783C156.77 3.783 156.912 3.79933 157.048 3.832C157.188 3.86467 157.311 3.916 157.419 3.986L157.328 4.917C157.3 5.03367 157.23 5.092 157.118 5.092C157.052 5.092 156.957 5.078 156.831 5.05C156.705 5.022 156.562 5.008 156.404 5.008C156.18 5.008 155.979 5.04067 155.802 5.106C155.629 5.17133 155.473 5.26933 155.333 5.4C155.197 5.526 155.074 5.68467 154.962 5.876C154.854 6.06267 154.756 6.27733 154.668 6.52V11H153.415V3.909H154.129C154.264 3.909 154.357 3.93467 154.409 3.986C154.46 4.03733 154.495 4.126 154.514 4.252L154.598 5.33ZM162.973 6.681C162.973 6.39167 162.931 6.128 162.847 5.89C162.768 5.64733 162.649 5.43967 162.49 5.267C162.336 5.08967 162.147 4.95433 161.923 4.861C161.699 4.763 161.445 4.714 161.16 4.714C160.563 4.714 160.089 4.889 159.739 5.239C159.394 5.58433 159.179 6.065 159.095 6.681H162.973ZM163.981 10.006C163.827 10.1927 163.643 10.356 163.428 10.496C163.214 10.6313 162.983 10.7433 162.735 10.832C162.493 10.9207 162.241 10.986 161.979 11.028C161.718 11.0747 161.459 11.098 161.202 11.098C160.712 11.098 160.26 11.0163 159.844 10.853C159.434 10.685 159.077 10.4423 158.773 10.125C158.475 9.803 158.241 9.40633 158.073 8.935C157.905 8.46367 157.821 7.92233 157.821 7.311C157.821 6.81633 157.896 6.35433 158.045 5.925C158.199 5.49567 158.419 5.12467 158.703 4.812C158.988 4.49467 159.336 4.24733 159.746 4.07C160.157 3.888 160.619 3.797 161.132 3.797C161.557 3.797 161.949 3.86933 162.308 4.014C162.672 4.154 162.985 4.35933 163.246 4.63C163.512 4.896 163.72 5.22733 163.869 5.624C164.019 6.016 164.093 6.464 164.093 6.968C164.093 7.164 164.072 7.29467 164.03 7.36C163.988 7.42533 163.909 7.458 163.792 7.458H159.053C159.067 7.906 159.128 8.29567 159.235 8.627C159.347 8.95833 159.501 9.236 159.697 9.46C159.893 9.67933 160.127 9.845 160.397 9.957C160.668 10.0643 160.971 10.118 161.307 10.118C161.62 10.118 161.888 10.083 162.112 10.013C162.341 9.93833 162.537 9.859 162.7 9.775C162.864 9.691 162.999 9.614 163.106 9.544C163.218 9.46933 163.314 9.432 163.393 9.432C163.496 9.432 163.575 9.47167 163.631 9.551L163.981 10.006ZM169.467 7.808C168.893 7.82667 168.403 7.87333 167.997 7.948C167.595 8.018 167.266 8.11133 167.01 8.228C166.758 8.34467 166.573 8.48233 166.457 8.641C166.345 8.79967 166.289 8.977 166.289 9.173C166.289 9.35967 166.319 9.52067 166.38 9.656C166.44 9.79133 166.522 9.90333 166.625 9.992C166.732 10.076 166.856 10.139 166.996 10.181C167.14 10.2183 167.294 10.237 167.458 10.237C167.677 10.237 167.878 10.216 168.06 10.174C168.242 10.1273 168.412 10.062 168.571 9.978C168.734 9.894 168.888 9.79367 169.033 9.677C169.182 9.56033 169.327 9.42733 169.467 9.278V7.808ZM165.442 4.91C165.834 4.532 166.256 4.24967 166.709 4.063C167.161 3.87633 167.663 3.783 168.214 3.783C168.61 3.783 168.963 3.84833 169.271 3.979C169.579 4.10967 169.838 4.29167 170.048 4.525C170.258 4.75833 170.416 5.04067 170.524 5.372C170.631 5.70333 170.685 6.06733 170.685 6.464V11H170.132C170.01 11 169.917 10.9813 169.852 10.944C169.786 10.902 169.735 10.8227 169.698 10.706L169.558 10.034C169.371 10.2067 169.189 10.3607 169.012 10.496C168.834 10.6267 168.648 10.7387 168.452 10.832C168.256 10.9207 168.046 10.9883 167.822 11.035C167.602 11.0863 167.357 11.112 167.087 11.112C166.811 11.112 166.552 11.0747 166.31 11C166.067 10.9207 165.855 10.804 165.673 10.65C165.495 10.496 165.353 10.3023 165.246 10.069C165.143 9.831 165.092 9.551 165.092 9.229C165.092 8.949 165.169 8.68067 165.323 8.424C165.477 8.16267 165.726 7.93167 166.072 7.731C166.417 7.53033 166.867 7.367 167.423 7.241C167.978 7.11033 168.659 7.03567 169.467 7.017V6.464C169.467 5.91333 169.348 5.498 169.11 5.218C168.872 4.93333 168.524 4.791 168.067 4.791C167.759 4.791 167.5 4.83067 167.29 4.91C167.084 4.98467 166.905 5.071 166.751 5.169C166.601 5.26233 166.471 5.34867 166.359 5.428C166.251 5.50267 166.144 5.54 166.037 5.54C165.953 5.54 165.88 5.519 165.82 5.477C165.759 5.43033 165.708 5.37433 165.666 5.309L165.442 4.91ZM174.664 11.112C174.104 11.112 173.672 10.9557 173.369 10.643C173.07 10.3303 172.921 9.88 172.921 9.292V4.952H172.067C171.992 4.952 171.929 4.931 171.878 4.889C171.827 4.84233 171.801 4.77233 171.801 4.679V4.182L172.963 4.035L173.25 1.844C173.264 1.774 173.294 1.718 173.341 1.676C173.392 1.62933 173.458 1.606 173.537 1.606H174.167V4.049H176.218V4.952H174.167V9.208C174.167 9.50667 174.239 9.72833 174.384 9.873C174.529 10.0177 174.715 10.09 174.944 10.09C175.075 10.09 175.187 10.0737 175.28 10.041C175.378 10.0037 175.462 9.964 175.532 9.922C175.602 9.88 175.66 9.84267 175.707 9.81C175.758 9.77267 175.803 9.754 175.84 9.754C175.905 9.754 175.964 9.79367 176.015 9.873L176.379 10.468C176.164 10.6687 175.905 10.8273 175.602 10.944C175.299 11.056 174.986 11.112 174.664 11.112ZM178.821 3.909V11H177.575V3.909H178.821ZM179.087 1.683C179.087 1.80433 179.061 1.91867 179.01 2.026C178.963 2.12867 178.898 2.222 178.814 2.306C178.734 2.38533 178.639 2.44833 178.527 2.495C178.419 2.54167 178.305 2.565 178.184 2.565C178.062 2.565 177.948 2.54167 177.841 2.495C177.738 2.44833 177.647 2.38533 177.568 2.306C177.488 2.222 177.425 2.12867 177.379 2.026C177.332 1.91867 177.309 1.80433 177.309 1.683C177.309 1.56167 177.332 1.44733 177.379 1.34C177.425 1.228 177.488 1.13233 177.568 1.053C177.647 0.969 177.738 0.903666 177.841 0.856999C177.948 0.810333 178.062 0.786999 178.184 0.786999C178.305 0.786999 178.419 0.810333 178.527 0.856999C178.639 0.903666 178.734 0.969 178.814 1.053C178.898 1.13233 178.963 1.228 179.01 1.34C179.061 1.44733 179.087 1.56167 179.087 1.683ZM186.944 3.909L184.053 11H182.933L180.042 3.909H181.057C181.16 3.909 181.244 3.93467 181.309 3.986C181.374 4.03733 181.419 4.098 181.442 4.168L183.241 8.732C183.297 8.90467 183.346 9.07267 183.388 9.236C183.43 9.39933 183.47 9.56267 183.507 9.726C183.544 9.56267 183.584 9.39933 183.626 9.236C183.668 9.07267 183.719 8.90467 183.78 8.732L185.6 4.168C185.628 4.09333 185.675 4.03267 185.74 3.986C185.805 3.93467 185.882 3.909 185.971 3.909H186.944ZM189.403 3.909V11H188.157V3.909H189.403ZM189.669 1.683C189.669 1.80433 189.643 1.91867 189.592 2.026C189.545 2.12867 189.48 2.222 189.396 2.306C189.316 2.38533 189.221 2.44833 189.109 2.495C189.001 2.54167 188.887 2.565 188.766 2.565C188.644 2.565 188.53 2.54167 188.423 2.495C188.32 2.44833 188.229 2.38533 188.15 2.306C188.07 2.222 188.007 2.12867 187.961 2.026C187.914 1.91867 187.891 1.80433 187.891 1.683C187.891 1.56167 187.914 1.44733 187.961 1.34C188.007 1.228 188.07 1.13233 188.15 1.053C188.229 0.969 188.32 0.903666 188.423 0.856999C188.53 0.810333 188.644 0.786999 188.766 0.786999C188.887 0.786999 189.001 0.810333 189.109 0.856999C189.221 0.903666 189.316 0.969 189.396 1.053C189.48 1.13233 189.545 1.228 189.592 1.34C189.643 1.44733 189.669 1.56167 189.669 1.683ZM193.627 11.112C193.067 11.112 192.635 10.9557 192.332 10.643C192.033 10.3303 191.884 9.88 191.884 9.292V4.952H191.03C190.955 4.952 190.892 4.931 190.841 4.889C190.79 4.84233 190.764 4.77233 190.764 4.679V4.182L191.926 4.035L192.213 1.844C192.227 1.774 192.257 1.718 192.304 1.676C192.355 1.62933 192.421 1.606 192.5 1.606H193.13V4.049H195.181V4.952H193.13V9.208C193.13 9.50667 193.202 9.72833 193.347 9.873C193.492 10.0177 193.678 10.09 193.907 10.09C194.038 10.09 194.15 10.0737 194.243 10.041C194.341 10.0037 194.425 9.964 194.495 9.922C194.565 9.88 194.623 9.84267 194.67 9.81C194.721 9.77267 194.766 9.754 194.803 9.754C194.868 9.754 194.927 9.79367 194.978 9.873L195.342 10.468C195.127 10.6687 194.868 10.8273 194.565 10.944C194.262 11.056 193.949 11.112 193.627 11.112ZM202.585 3.909L198.63 13.093C198.588 13.1863 198.535 13.261 198.469 13.317C198.409 13.373 198.313 13.401 198.182 13.401H197.258L198.553 10.587L195.627 3.909H196.705C196.813 3.909 196.897 3.937 196.957 3.993C197.023 4.04433 197.067 4.10267 197.09 4.168L198.987 8.634C199.062 8.83 199.125 9.03533 199.176 9.25C199.242 9.03067 199.312 8.823 199.386 8.627L201.227 4.168C201.255 4.09333 201.302 4.03267 201.367 3.986C201.437 3.93467 201.514 3.909 201.598 3.909H202.585ZM4.83 31.808C4.256 31.8267 3.766 31.8733 3.36 31.948C2.95867 32.018 2.62967 32.1113 2.373 32.228C2.121 32.3447 1.93667 32.4823 1.82 32.641C1.708 32.7997 1.652 32.977 1.652 33.173C1.652 33.3597 1.68233 33.5207 1.743 33.656C1.80367 33.7913 1.88533 33.9033 1.988 33.992C2.09533 34.076 2.219 34.139 2.359 34.181C2.50367 34.2183 2.65767 34.237 2.821 34.237C3.04033 34.237 3.241 34.216 3.423 34.174C3.605 34.1273 3.77533 34.062 3.934 33.978C4.09733 33.894 4.25133 33.7937 4.396 33.677C4.54533 33.5603 4.69 33.4273 4.83 33.278V31.808ZM0.805 28.91C1.197 28.532 1.61933 28.2497 2.072 28.063C2.52467 27.8763 3.02633 27.783 3.577 27.783C3.97367 27.783 4.326 27.8483 4.634 27.979C4.942 28.1097 5.201 28.2917 5.411 28.525C5.621 28.7583 5.77967 29.0407 5.887 29.372C5.99433 29.7033 6.048 30.0673 6.048 30.464V35H5.495C5.37367 35 5.28033 34.9813 5.215 34.944C5.14967 34.902 5.09833 34.8227 5.061 34.706L4.921 34.034C4.73433 34.2067 4.55233 34.3607 4.375 34.496C4.19767 34.6267 4.011 34.7387 3.815 34.832C3.619 34.9207 3.409 34.9883 3.185 35.035C2.96567 35.0863 2.72067 35.112 2.45 35.112C2.17467 35.112 1.91567 35.0747 1.673 35C1.43033 34.9207 1.218 34.804 1.036 34.65C0.858667 34.496 0.716333 34.3023 0.609 34.069C0.506333 33.831 0.455 33.551 0.455 33.229C0.455 32.949 0.532 32.6807 0.686 32.424C0.84 32.1627 1.08967 31.9317 1.435 31.731C1.78033 31.5303 2.23067 31.367 2.786 31.241C3.34133 31.1103 4.02267 31.0357 4.83 31.017V30.464C4.83 29.9133 4.711 29.498 4.473 29.218C4.235 28.9333 3.88733 28.791 3.43 28.791C3.122 28.791 2.863 28.8307 2.653 28.91C2.44767 28.9847 2.268 29.071 2.114 29.169C1.96467 29.2623 1.834 29.3487 1.722 29.428C1.61467 29.5027 1.50733 29.54 1.4 29.54C1.316 29.54 1.24367 29.519 1.183 29.477C1.12233 29.4303 1.071 29.3743 1.029 29.309L0.805 28.91ZM9.12198 28.938C9.27598 28.7653 9.43932 28.609 9.61198 28.469C9.78465 28.329 9.96665 28.21 10.158 28.112C10.354 28.0093 10.5593 27.9323 10.774 27.881C10.9933 27.825 11.229 27.797 11.481 27.797C11.8683 27.797 12.209 27.8623 12.503 27.993C12.8017 28.119 13.049 28.301 13.245 28.539C13.4457 28.7723 13.5973 29.0547 13.7 29.386C13.8027 29.7173 13.854 30.0837 13.854 30.485V35H12.601V30.485C12.601 29.9483 12.4773 29.533 12.23 29.239C11.9873 28.9403 11.6163 28.791 11.117 28.791C10.7483 28.791 10.403 28.8797 10.081 29.057C9.76365 29.2343 9.46965 29.4747 9.19898 29.778V35H7.94598V27.909H8.69498C8.87232 27.909 8.98198 27.9953 9.02398 28.168L9.12198 28.938ZM20.3726 29.596C20.1393 29.2833 19.8873 29.0663 19.6166 28.945C19.346 28.819 19.0426 28.756 18.7066 28.756C18.0486 28.756 17.5423 28.9917 17.1876 29.463C16.833 29.9343 16.6556 30.6063 16.6556 31.479C16.6556 31.941 16.6953 32.3377 16.7746 32.669C16.854 32.9957 16.9706 33.2663 17.1246 33.481C17.2786 33.691 17.4676 33.845 17.6916 33.943C17.9156 34.041 18.17 34.09 18.4546 34.09C18.8653 34.09 19.2223 33.9967 19.5256 33.81C19.8336 33.6233 20.116 33.3597 20.3726 33.019V29.596ZM21.6186 24.689V35H20.8766C20.6993 35 20.5873 34.9137 20.5406 34.741L20.4286 33.88C20.1253 34.244 19.78 34.538 19.3926 34.762C19.0053 34.986 18.5573 35.098 18.0486 35.098C17.6426 35.098 17.274 35.021 16.9426 34.867C16.6113 34.7083 16.329 34.4773 16.0956 34.174C15.8623 33.8707 15.6826 33.4927 15.5566 33.04C15.4306 32.5873 15.3676 32.067 15.3676 31.479C15.3676 30.9563 15.4376 30.471 15.5776 30.023C15.7176 29.5703 15.9183 29.1783 16.1796 28.847C16.441 28.5157 16.7606 28.2567 17.1386 28.07C17.5213 27.8787 17.9506 27.783 18.4266 27.783C18.8606 27.783 19.2316 27.8577 19.5396 28.007C19.8523 28.1517 20.13 28.3547 20.3726 28.616V24.689H21.6186ZM28.8206 35H27.4626V24.969H28.8206V35ZM32.1591 28.938C32.3131 28.7653 32.4764 28.609 32.6491 28.469C32.8218 28.329 33.0038 28.21 33.1951 28.112C33.3911 28.0093 33.5964 27.9323 33.8111 27.881C34.0304 27.825 34.2661 27.797 34.5181 27.797C34.9054 27.797 35.2461 27.8623 35.5401 27.993C35.8388 28.119 36.0861 28.301 36.2821 28.539C36.4828 28.7723 36.6344 29.0547 36.7371 29.386C36.8398 29.7173 36.8911 30.0837 36.8911 30.485V35H35.6381V30.485C35.6381 29.9483 35.5144 29.533 35.2671 29.239C35.0244 28.9403 34.6534 28.791 34.1541 28.791C33.7854 28.791 33.4401 28.8797 33.1181 29.057C32.8008 29.2343 32.5068 29.4747 32.2361 29.778V35H30.9831V27.909H31.7321C31.9094 27.909 32.0191 27.9953 32.0611 28.168L32.1591 28.938ZM39.9657 28.938C40.1197 28.7653 40.2831 28.609 40.4557 28.469C40.6284 28.329 40.8104 28.21 41.0017 28.112C41.1977 28.0093 41.4031 27.9323 41.6177 27.881C41.8371 27.825 42.0727 27.797 42.3247 27.797C42.7121 27.797 43.0527 27.8623 43.3467 27.993C43.6454 28.119 43.8927 28.301 44.0887 28.539C44.2894 28.7723 44.4411 29.0547 44.5437 29.386C44.6464 29.7173 44.6977 30.0837 44.6977 30.485V35H43.4447V30.485C43.4447 29.9483 43.3211 29.533 43.0737 29.239C42.8311 28.9403 42.4601 28.791 41.9607 28.791C41.5921 28.791 41.2467 28.8797 40.9247 29.057C40.6074 29.2343 40.3134 29.4747 40.0427 29.778V35H38.7897V27.909H39.5387C39.7161 27.909 39.8257 27.9953 39.8677 28.168L39.9657 28.938ZM49.5854 27.797C50.1034 27.797 50.57 27.8833 50.9854 28.056C51.4007 28.2287 51.7554 28.4737 52.0494 28.791C52.3434 29.1083 52.5674 29.4933 52.7214 29.946C52.88 30.394 52.9594 30.8957 52.9594 31.451C52.9594 32.011 52.88 32.515 52.7214 32.963C52.5674 33.411 52.3434 33.7937 52.0494 34.111C51.7554 34.4283 51.4007 34.6733 50.9854 34.846C50.57 35.014 50.1034 35.098 49.5854 35.098C49.0627 35.098 48.5914 35.014 48.1714 34.846C47.756 34.6733 47.4014 34.4283 47.1074 34.111C46.8134 33.7937 46.587 33.411 46.4284 32.963C46.2744 32.515 46.1974 32.011 46.1974 31.451C46.1974 30.8957 46.2744 30.394 46.4284 29.946C46.587 29.4933 46.8134 29.1083 47.1074 28.791C47.4014 28.4737 47.756 28.2287 48.1714 28.056C48.5914 27.8833 49.0627 27.797 49.5854 27.797ZM49.5854 34.125C50.2854 34.125 50.808 33.8917 51.1534 33.425C51.4987 32.9537 51.6714 32.298 51.6714 31.458C51.6714 30.6133 51.4987 29.9553 51.1534 29.484C50.808 29.0127 50.2854 28.777 49.5854 28.777C49.2307 28.777 48.9204 28.8377 48.6544 28.959C48.393 29.0803 48.1737 29.2553 47.9964 29.484C47.8237 29.7127 47.693 29.995 47.6044 30.331C47.5204 30.6623 47.4784 31.038 47.4784 31.458C47.4784 32.298 47.651 32.9537 47.9964 33.425C48.3464 33.8917 48.876 34.125 49.5854 34.125ZM60.4243 27.909L57.5333 35H56.4133L53.5223 27.909H54.5373C54.64 27.909 54.724 27.9347 54.7893 27.986C54.8547 28.0373 54.899 28.098 54.9223 28.168L56.7213 32.732C56.7773 32.9047 56.8263 33.0727 56.8683 33.236C56.9103 33.3993 56.95 33.5627 56.9873 33.726C57.0247 33.5627 57.0643 33.3993 57.1063 33.236C57.1483 33.0727 57.1997 32.9047 57.2603 32.732L59.0803 28.168C59.1083 28.0933 59.155 28.0327 59.2203 27.986C59.2857 27.9347 59.3627 27.909 59.4513 27.909H60.4243ZM65.2597 31.808C64.6857 31.8267 64.1957 31.8733 63.7897 31.948C63.3884 32.018 63.0594 32.1113 62.8027 32.228C62.5507 32.3447 62.3664 32.4823 62.2497 32.641C62.1377 32.7997 62.0817 32.977 62.0817 33.173C62.0817 33.3597 62.112 33.5207 62.1727 33.656C62.2334 33.7913 62.315 33.9033 62.4177 33.992C62.525 34.076 62.6487 34.139 62.7887 34.181C62.9334 34.2183 63.0874 34.237 63.2507 34.237C63.47 34.237 63.6707 34.216 63.8527 34.174C64.0347 34.1273 64.205 34.062 64.3637 33.978C64.527 33.894 64.681 33.7937 64.8257 33.677C64.975 33.5603 65.1197 33.4273 65.2597 33.278V31.808ZM61.2347 28.91C61.6267 28.532 62.049 28.2497 62.5017 28.063C62.9544 27.8763 63.456 27.783 64.0067 27.783C64.4034 27.783 64.7557 27.8483 65.0637 27.979C65.3717 28.1097 65.6307 28.2917 65.8407 28.525C66.0507 28.7583 66.2094 29.0407 66.3167 29.372C66.424 29.7033 66.4777 30.0673 66.4777 30.464V35H65.9247C65.8034 35 65.71 34.9813 65.6447 34.944C65.5794 34.902 65.528 34.8227 65.4907 34.706L65.3507 34.034C65.164 34.2067 64.982 34.3607 64.8047 34.496C64.6274 34.6267 64.4407 34.7387 64.2447 34.832C64.0487 34.9207 63.8387 34.9883 63.6147 35.035C63.3954 35.0863 63.1504 35.112 62.8797 35.112C62.6044 35.112 62.3454 35.0747 62.1027 35C61.86 34.9207 61.6477 34.804 61.4657 34.65C61.2884 34.496 61.146 34.3023 61.0387 34.069C60.936 33.831 60.8847 33.551 60.8847 33.229C60.8847 32.949 60.9617 32.6807 61.1157 32.424C61.2697 32.1627 61.5194 31.9317 61.8647 31.731C62.21 31.5303 62.6604 31.367 63.2157 31.241C63.771 31.1103 64.4524 31.0357 65.2597 31.017V30.464C65.2597 29.9133 65.1407 29.498 64.9027 29.218C64.6647 28.9333 64.317 28.791 63.8597 28.791C63.5517 28.791 63.2927 28.8307 63.0827 28.91C62.8774 28.9847 62.6977 29.071 62.5437 29.169C62.3944 29.2623 62.2637 29.3487 62.1517 29.428C62.0444 29.5027 61.937 29.54 61.8297 29.54C61.7457 29.54 61.6734 29.519 61.6127 29.477C61.552 29.4303 61.5007 29.3743 61.4587 29.309L61.2347 28.91ZM70.457 35.112C69.897 35.112 69.4653 34.9557 69.162 34.643C68.8633 34.3303 68.714 33.88 68.714 33.292V28.952H67.86C67.7853 28.952 67.7223 28.931 67.671 28.889C67.6196 28.8423 67.594 28.7723 67.594 28.679V28.182L68.756 28.035L69.043 25.844C69.057 25.774 69.0873 25.718 69.134 25.676C69.1853 25.6293 69.2506 25.606 69.33 25.606H69.96V28.049H72.011V28.952H69.96V33.208C69.96 33.5067 70.0323 33.7283 70.177 33.873C70.3216 34.0177 70.5083 34.09 70.737 34.09C70.8676 34.09 70.9796 34.0737 71.073 34.041C71.171 34.0037 71.255 33.964 71.325 33.922C71.395 33.88 71.4533 33.8427 71.5 33.81C71.5513 33.7727 71.5956 33.754 71.633 33.754C71.6983 33.754 71.7566 33.7937 71.808 33.873L72.172 34.468C71.9573 34.6687 71.6983 34.8273 71.395 34.944C71.0916 35.056 70.779 35.112 70.457 35.112ZM74.6135 27.909V35H73.3675V27.909H74.6135ZM74.8795 25.683C74.8795 25.8043 74.8539 25.9187 74.8025 26.026C74.7559 26.1287 74.6905 26.222 74.6065 26.306C74.5272 26.3853 74.4315 26.4483 74.3195 26.495C74.2122 26.5417 74.0979 26.565 73.9765 26.565C73.8552 26.565 73.7409 26.5417 73.6335 26.495C73.5309 26.4483 73.4399 26.3853 73.3605 26.306C73.2812 26.222 73.2182 26.1287 73.1715 26.026C73.1249 25.9187 73.1015 25.8043 73.1015 25.683C73.1015 25.5617 73.1249 25.4473 73.1715 25.34C73.2182 25.228 73.2812 25.1323 73.3605 25.053C73.4399 24.969 73.5309 24.9037 73.6335 24.857C73.7409 24.8103 73.8552 24.787 73.9765 24.787C74.0979 24.787 74.2122 24.8103 74.3195 24.857C74.4315 24.9037 74.5272 24.969 74.6065 25.053C74.6905 25.1323 74.7559 25.228 74.8025 25.34C74.8539 25.4473 74.8795 25.5617 74.8795 25.683ZM79.6498 27.797C80.1678 27.797 80.6345 27.8833 81.0498 28.056C81.4652 28.2287 81.8198 28.4737 82.1138 28.791C82.4078 29.1083 82.6318 29.4933 82.7858 29.946C82.9445 30.394 83.0238 30.8957 83.0238 31.451C83.0238 32.011 82.9445 32.515 82.7858 32.963C82.6318 33.411 82.4078 33.7937 82.1138 34.111C81.8198 34.4283 81.4652 34.6733 81.0498 34.846C80.6345 35.014 80.1678 35.098 79.6498 35.098C79.1272 35.098 78.6558 35.014 78.2358 34.846C77.8205 34.6733 77.4658 34.4283 77.1718 34.111C76.8778 33.7937 76.6515 33.411 76.4928 32.963C76.3388 32.515 76.2618 32.011 76.2618 31.451C76.2618 30.8957 76.3388 30.394 76.4928 29.946C76.6515 29.4933 76.8778 29.1083 77.1718 28.791C77.4658 28.4737 77.8205 28.2287 78.2358 28.056C78.6558 27.8833 79.1272 27.797 79.6498 27.797ZM79.6498 34.125C80.3498 34.125 80.8725 33.8917 81.2178 33.425C81.5632 32.9537 81.7358 32.298 81.7358 31.458C81.7358 30.6133 81.5632 29.9553 81.2178 29.484C80.8725 29.0127 80.3498 28.777 79.6498 28.777C79.2952 28.777 78.9848 28.8377 78.7188 28.959C78.4575 29.0803 78.2382 29.2553 78.0608 29.484C77.8882 29.7127 77.7575 29.995 77.6688 30.331C77.5848 30.6623 77.5428 31.038 77.5428 31.458C77.5428 32.298 77.7155 32.9537 78.0608 33.425C78.4108 33.8917 78.9405 34.125 79.6498 34.125ZM85.7802 28.938C85.9342 28.7653 86.0975 28.609 86.2702 28.469C86.4429 28.329 86.6249 28.21 86.8162 28.112C87.0122 28.0093 87.2175 27.9323 87.4322 27.881C87.6515 27.825 87.8872 27.797 88.1392 27.797C88.5265 27.797 88.8672 27.8623 89.1612 27.993C89.4599 28.119 89.7072 28.301 89.9032 28.539C90.1039 28.7723 90.2555 29.0547 90.3582 29.386C90.4609 29.7173 90.5122 30.0837 90.5122 30.485V35H89.2592V30.485C89.2592 29.9483 89.1355 29.533 88.8882 29.239C88.6455 28.9403 88.2745 28.791 87.7752 28.791C87.4065 28.791 87.0612 28.8797 86.7392 29.057C86.4219 29.2343 86.1279 29.4747 85.8572 29.778V35H84.6042V27.909H85.3532C85.5305 27.909 85.6402 27.9953 85.6822 28.168L85.7802 28.938ZM92.2008 34.23C92.2008 34.1087 92.2218 33.9943 92.2638 33.887C92.3105 33.7797 92.3712 33.6863 92.4458 33.607C92.5252 33.5277 92.6185 33.4647 92.7258 33.418C92.8332 33.3713 92.9475 33.348 93.0688 33.348C93.1902 33.348 93.3045 33.3713 93.4118 33.418C93.5192 33.4647 93.6125 33.5277 93.6918 33.607C93.7712 33.6863 93.8342 33.7797 93.8808 33.887C93.9275 33.9943 93.9508 34.1087 93.9508 34.23C93.9508 34.356 93.9275 34.4727 93.8808 34.58C93.8342 34.6827 93.7712 34.7737 93.6918 34.853C93.6125 34.9323 93.5192 34.993 93.4118 35.035C93.3045 35.0817 93.1902 35.105 93.0688 35.105C92.9475 35.105 92.8332 35.0817 92.7258 35.035C92.6185 34.993 92.5252 34.9323 92.4458 34.853C92.3712 34.7737 92.3105 34.6827 92.2638 34.58C92.2218 34.4727 92.2008 34.356 92.2008 34.23Z" fill="#D9DBE1"/>
</svg>
