<svg width="33" height="33" viewBox="0 0 33 33" fill="none" xmlns="http://www.w3.org/2000/svg">
<circle cx="16.7592" cy="16.7594" r="5.42453" fill="#EB5625"/>
<path d="M13.4398 27.1226C16.9812 31.2507 18.1844 32.2514 25.5843 27.1226L13.4398 27.1226Z" fill="#4B6CB2"/>
<path d="M21.2931 26.5087C26.6594 27.3946 28.2244 27.3879 30.5963 18.7024L21.2931 26.5087Z" fill="#4B6CB2"/>
<path d="M26.5562 21.5134C31.2365 18.7426 32.4309 17.7315 28.665 9.55341L26.5562 21.5134Z" fill="#4B6CB2"/>
<path d="M27.467 13.4987C29.1814 8.33705 29.4196 6.79031 21.2121 3.0889L27.467 13.4987Z" fill="#4B6CB2"/>
<path d="M23.1583 7.60235C21.3315 2.47934 20.5669 1.11388 11.8205 3.25016L23.1583 7.60235Z" fill="#4B6CB2"/>
<path d="M15.7669 5.32458C11.0744 2.57439 9.61098 2.01988 4.28404 9.27843L15.7669 5.32458Z" fill="#4B6CB2"/>
<path d="M9.23898 8.108C3.87657 9.01748 2.39908 9.53338 2.98411 18.5178L9.23898 8.108Z" fill="#4B6CB2"/>
<path d="M5.70577 15.3021C2.18252 19.4457 1.38231 20.7906 7.60557 27.297L5.70577 15.3021Z" fill="#4B6CB2"/>
<path d="M7.33699 22.405C7.30148 27.8439 7.55298 29.3885 16.5025 30.3725L7.33699 22.405Z" fill="#4B6CB2"/>
</svg>
