<svg width="19" height="19" viewBox="0 0 19 19" fill="none" xmlns="http://www.w3.org/2000/svg">
<rect width="19" height="19" rx="4" fill="#F2F2F2"/>
<path fill-rule="evenodd" clip-rule="evenodd" d="M13.0676 3C14.0361 3 14.9678 3.38278 15.6532 4.06961C16.3393 4.755 16.7228 5.67944 16.7228 6.64722V12.3528C16.7228 14.3678 15.0833 16 13.0676 16H5.93276C3.91704 16 2.27832 14.3678 2.27832 12.3528V6.64722C2.27832 4.63222 3.90982 3 5.93276 3H13.0676ZM14.2146 7.7235L14.2724 7.66572C14.445 7.45627 14.445 7.15294 14.2645 6.9435C14.1641 6.83589 14.0261 6.77016 13.8824 6.75572C13.7307 6.74777 13.5863 6.79905 13.4772 6.90016L10.2207 9.50016C9.80184 9.84755 9.20168 9.84755 8.77629 9.50016L5.52629 6.90016C5.30168 6.73405 4.99112 6.75572 4.80407 6.95072C4.60907 7.14572 4.5874 7.45627 4.75279 7.67294L4.8474 7.76683L8.13351 10.3307C8.53795 10.6485 9.02834 10.8218 9.54184 10.8218C10.0539 10.8218 10.553 10.6485 10.9567 10.3307L14.2146 7.7235Z" fill="#F59689"/>
</svg>
