<svg width="99" height="100" viewBox="0 0 99 100" fill="none" xmlns="http://www.w3.org/2000/svg">
<g opacity="0.8">
<path d="M96.3987 52.6179L96.3658 53.0789C96.4645 51.5972 96.5303 50.0167 96.5632 48.4362C96.3987 50.1484 96.1353 51.9594 95.9708 53.6716C95.8062 55.3838 95.6745 57.0301 95.9049 58.4131C95.6416 58.5119 95.2795 59.335 95.0162 60.1582C94.72 60.9814 94.4896 61.7716 94.5554 61.8046C94.4566 62.4631 94.3579 63.1546 94.1933 63.846C94.325 63.3851 94.3908 62.9241 94.4896 62.4302C94.3908 62.8912 94.325 63.3521 94.1933 63.846C93.2717 68.1595 91.0334 72.5388 88.1039 76.49C87.314 77.6095 85.7669 79.6181 83.9895 81.462C82.245 83.3059 80.3029 84.9852 79.1838 85.8084C78.8546 86.0718 78.5255 86.3023 78.1963 86.5328C78.7559 86.1376 78.7559 86.1706 79.3155 85.7425C79.0192 86.0389 78.723 86.3352 78.3938 86.5986C78.0976 86.862 77.8013 87.1584 77.5051 87.4218C76.9126 87.9157 76.3201 88.4425 75.7277 88.8706C75.991 88.7718 76.0568 88.8047 76.6493 88.5413C76.4189 88.673 76.2214 88.8047 75.991 88.9364C75.7606 89.1999 75.2998 89.595 74.8389 89.9243C74.3452 90.2535 73.8515 90.5828 73.5552 90.8462C73.654 90.6816 73.0944 90.945 72.6336 91.2084L72.864 91.1755C71.0866 92.1304 69.0129 93.2499 67.3671 93.9084C67.1367 94.0072 66.9392 94.0401 66.8075 94.0401C66.2809 94.2706 65.7542 94.534 65.2276 94.7316C65.2934 94.567 63.8451 95.0938 64.5693 94.7316C63.4172 95.3243 62.1335 95.5877 60.9815 96.0816C56.7024 97.2011 52.0284 97.8597 47.4531 97.9585L47.5519 98.0243C45.939 98.0902 44.4907 98.2548 42.5487 97.8926C42.1866 97.8926 41.7916 97.8926 41.3967 97.8597C41.0017 97.8268 40.6067 97.7938 40.2117 97.7938C39.4546 97.7609 38.7963 97.695 38.5001 97.7938C38.1051 97.728 37.743 97.6621 37.4468 97.5963C37.1505 97.5304 36.8543 97.4975 36.5581 97.4316C36.2618 97.3987 35.9985 97.3328 35.6693 97.2999C35.3731 97.2341 35.011 97.1682 34.616 97.0694C34.9781 97.3328 33.069 96.7731 33.7931 97.1353C34.7806 97.6292 34.8794 97.4975 35.7023 97.8926V97.8267C39.7838 99.1768 44.0957 99.9012 48.4735 99.9999C51.403 99.9012 54.5629 99.7365 57.5582 99.2097C60.784 98.5841 64.1743 97.5633 66.7088 96.4109C67.3013 96.1145 67.795 96.0816 68.3546 95.917C70.6916 94.8633 73.654 93.4145 76.0568 91.7682C76.0239 91.8011 75.9581 91.834 75.9252 91.834C76.5835 91.406 77.143 91.0438 77.7026 90.7145C78.2622 90.3523 78.8217 89.9901 79.4142 89.5291C79.3813 89.4962 79.5788 89.3645 79.6446 89.2657C79.7104 89.2657 80.2042 88.9035 80.8296 88.3438C81.1587 88.0474 81.5208 87.7181 81.8829 87.3559C82.2779 86.9937 82.6399 86.5986 83.0349 86.2035C83.4299 85.8084 83.792 85.3803 84.1541 84.9852C84.5161 84.5901 84.8453 84.2279 85.1415 83.8657C85.4378 83.5364 85.6682 83.2401 85.8657 83.0425C86.0632 82.812 86.1619 82.6803 86.2277 82.6474C86.3265 82.5157 86.4252 82.384 86.524 82.2852C87.6102 81.1327 88.6635 79.9144 89.651 78.7291C90.1447 78.1035 90.6384 77.5108 91.0334 76.9181C91.2309 76.6217 91.4613 76.3254 91.6588 76.029C91.8563 75.7327 92.0209 75.4364 92.1855 75.14C92.2842 74.8766 92.4159 74.5803 92.5146 74.2839C92.6134 73.9876 92.7121 73.7242 92.778 73.4607C93.0742 73.0656 92.9754 72.9339 93.2717 72.4071C93.7654 71.8473 94.0946 71.3205 94.1933 71.0571C94.325 70.7607 94.2592 70.7278 94.0288 71.0241C94.2592 70.4644 94.4896 69.9046 94.72 69.3778C94.9504 68.818 95.1479 68.2912 95.3454 67.7973C95.51 67.3363 95.6416 66.8424 95.7733 66.3485C95.9049 65.9534 96.0037 65.7229 96.1683 65.5582C96.4316 64.5046 96.4645 64.8339 96.8266 63.7473C96.9253 63.6156 97.0899 62.9241 97.1886 62.1997C97.2874 61.4753 97.3861 60.7509 97.452 60.5863L97.4191 60.7838C97.5836 60.1253 97.7482 59.5985 97.9128 59.1045C98.0774 58.5777 98.2419 58.0509 98.3407 57.4253C98.6698 55.6472 98.8344 53.7704 98.9332 51.8935C98.999 50.0496 98.9661 48.2057 98.9003 46.5264C98.7686 46.4935 98.9661 47.2508 98.7686 47.3167C98.7028 45.341 98.6698 43.3325 98.3736 41.3569C98.3736 40.9947 98.3407 40.5337 98.3407 40.3691C98.2749 39.7435 98.209 40.0069 98.1432 39.5459L98.242 39.4471C98.0115 38.7886 98.1761 38.4264 97.9786 37.8008C97.9128 37.7678 97.847 37.5373 97.814 37.3398C97.9457 37.3068 97.6166 36.6483 97.7482 36.6483C97.7153 36.5166 97.6824 36.4178 97.6495 36.2532C97.5507 35.9898 96.4645 33.7507 96.3328 33.5202L96.2999 33.3885C96.1683 33.0593 96.0366 32.9276 96.0695 33.1251L95.9379 32.6971L95.9708 32.73L95.8391 32.3019C95.8391 32.2361 95.8391 32.1044 95.9379 32.2032C95.8062 31.9727 95.6745 31.7093 95.6087 31.4788C95.8062 32.1702 95.9708 33.0263 96.0695 33.7837C95.9379 33.5202 95.8062 32.9605 95.7074 32.6641C95.6745 32.269 95.4441 31.4788 95.2795 30.8861C95.2137 30.7544 95.0491 30.7214 94.9833 30.4251C95.0162 30.2605 94.8516 30.0958 94.8187 29.8324C94.9833 30.0958 95.0821 30.3592 95.1808 30.6556C95.2795 30.5568 94.9833 29.9312 94.9175 29.7007C94.8516 29.6019 94.6541 29.0422 94.4566 28.7458C94.6212 28.8446 94.3908 28.4495 94.3579 28.219C94.2592 27.9885 94.1604 27.8568 94.1604 27.9885C93.9958 27.9885 94.5225 28.9105 94.2262 28.647C94.2592 28.5483 94.0287 28.1202 93.8971 27.8897C93.8312 27.9226 93.93 28.0873 93.7983 27.9556C93.6996 27.6922 93.4692 27.4617 93.4692 27.2641C93.5021 27.297 93.535 27.4287 93.6008 27.4946C93.4363 27.1324 94.9175 29.1409 94.6541 28.7129C94.6541 28.8446 93.3375 26.9348 93.4363 27.1653C93.5021 27.3958 93.2388 27.0665 93.3375 27.297L93.535 27.4946C93.6667 27.7909 93.6008 27.9885 93.5021 27.8897C93.2717 27.3958 94.6212 29.0751 94.3579 28.68C94.3908 28.7458 94.3908 28.8117 94.3908 28.8775C94.2592 28.7129 93.9958 28.2519 93.9958 28.0544C93.93 28.0873 93.7983 27.8568 93.6667 27.6592L93.6338 27.5934C93.5021 27.3958 93.3704 27.0995 93.3704 27.297C93.9629 28.4824 92.3501 26.8361 92.8767 27.9885C92.778 27.4287 93.1071 28.0873 93.3704 28.5812C93.3375 28.647 93.3704 28.9105 93.5021 29.3056C93.6667 29.6349 93.6338 29.4702 93.6996 29.5031C93.7325 29.7007 93.8642 30.0629 93.7654 30.03C93.9629 30.2275 93.8971 30.458 94.0288 30.7544C94.1933 30.9849 94.0617 30.7214 94.1933 30.8861C94.325 31.2812 94.5554 31.8739 94.6541 32.2032C94.6212 32.3678 94.6541 32.7629 94.4237 32.5324C94.1933 31.9068 94.6871 32.6971 94.4237 32.0714C94.3579 32.4007 94.1604 31.5446 93.9958 31.4788C93.9958 31.7093 94.1604 32.1044 94.325 32.4336V32.3678C94.4567 32.6641 94.72 33.2568 94.7529 33.619C94.6541 33.5532 94.6871 33.7178 94.5883 33.4873L94.72 33.9154C94.7529 33.9483 94.7858 34.0141 94.7529 33.8824C94.8516 34.08 94.9175 34.2776 94.9175 34.4422C94.8846 34.5081 95.872 36.6154 95.8062 36.5495C95.9049 36.8459 95.8062 36.9447 95.9708 37.241C95.9708 37.241 95.9379 37.0764 95.8391 36.8129C95.7404 36.5495 95.6416 36.1873 95.51 35.8581C95.2466 35.1995 94.9833 34.5739 95.0491 34.7715C95.0491 34.9032 95.4112 35.7593 95.7074 36.5825C95.872 37.0105 96.0037 37.4386 96.1024 37.7678C96.2012 38.0971 96.267 38.3276 96.2341 38.3934C96.2999 38.6239 96.3658 38.8873 96.4316 38.8215C96.4974 39.2166 96.267 38.7227 96.2999 39.0191C96.2999 39.0191 96.3328 38.9861 96.3328 39.0849L96.2999 39.3813C96.5303 39.9739 96.5633 40.8959 96.8266 41.4886C96.7278 41.3239 96.5633 41.1264 96.4316 40.7313L96.4645 40.6654C96.4316 40.5996 96.3328 40.2703 96.2999 40.3032C96.3328 40.6983 96.3987 41.0276 96.5303 41.4227C96.5303 41.4886 96.5303 41.5874 96.4974 41.6532C96.4974 41.6532 96.4974 41.6532 96.5303 41.6532C96.4974 41.7849 96.4974 41.7849 96.4645 41.752C96.4645 41.752 96.4645 41.752 96.4316 41.7191C96.267 41.9825 96.7937 43.2337 96.7607 43.9581C96.8266 44.1557 96.7937 43.9581 96.8595 44.2215C96.8924 44.9459 96.8266 45.4728 96.8595 46.2301C96.9582 46.4606 96.9912 46.4935 97.057 46.1972C97.057 46.3947 97.0899 46.5923 97.057 46.7898C96.8266 46.263 96.8924 47.8764 96.662 47.3167C96.6291 47.4813 96.6291 47.8435 96.662 48.1398C96.7278 48.1728 96.8266 48.2057 96.8266 48.6337C96.7607 49.1935 96.7937 49.0618 96.7278 49.5228C96.662 49.6216 96.6291 49.4569 96.5632 49.4899C96.662 50.2142 96.3987 50.1155 96.3987 50.8069C96.3987 51.235 96.3987 52.0582 96.4974 52.0911C96.5962 52.6838 96.4974 52.6838 96.3987 52.6179Z" fill="#082C4E"/>
<path d="M4.10267 61.8699L4.00392 61.4089C4.36599 62.8577 4.82681 64.3724 5.32054 65.8541C4.95847 64.1748 4.5964 62.3638 4.20142 60.6845C3.83934 58.9723 3.37852 57.4247 2.75313 56.1735C2.85188 56.0747 2.91771 55.8113 2.98354 55.4491C3.01645 55.0869 3.04937 54.6589 3.04937 54.2308C3.04937 53.3747 3.04937 52.5515 2.98354 52.5186C2.85187 51.8601 2.75313 51.1686 2.65438 50.4771C2.72021 50.9381 2.75313 51.432 2.81896 51.893C2.75313 51.432 2.6873 50.9381 2.65438 50.4771C2.16065 46.0978 2.88479 41.2246 4.43182 36.549C4.85973 35.2319 5.68262 32.8283 6.76883 30.5234C7.85505 28.2185 9.17167 26.0124 9.96165 24.8928C10.1921 24.5636 10.4225 24.2343 10.6529 23.905C10.2579 24.4319 10.2579 24.4648 9.8629 24.9916C10.62 23.477 11.4429 22.127 12.2987 20.8757C12.0682 21.0404 12.0024 21.0404 11.5416 21.5014L12.0353 20.9087C12.167 20.5794 12.4962 20.0855 12.8253 19.5916C13.1545 19.0977 13.5494 18.6696 13.7799 18.3404C13.7469 18.5379 14.1419 18.0769 14.5369 17.7147L14.3394 17.8135C15.7219 16.3318 17.3347 14.6525 18.7172 13.5001C18.9147 13.3354 19.0793 13.2367 19.178 13.2037C19.6059 12.8086 20.0338 12.4464 20.4617 12.0513C20.4288 12.2489 21.6796 11.294 21.0871 11.8537C21.3175 11.6232 21.5479 11.4257 21.8113 11.1952C22.0746 10.9976 22.3379 10.8001 22.6012 10.6025C23.1279 10.2074 23.6545 9.84518 24.1154 9.45006C27.8348 7.07931 32.0809 5.00491 36.4258 3.52319L36.2941 3.49027C37.8083 2.96343 39.1578 2.33782 41.0998 2.0744C41.429 1.97562 41.824 1.87684 42.186 1.74513C42.581 1.64635 42.976 1.54757 43.3381 1.48172C44.0622 1.28415 44.6876 1.15245 44.9839 0.954884C45.3788 0.921957 45.7409 0.856103 46.0372 0.823176C46.3663 0.790249 46.6296 0.757321 46.9259 0.691467C47.2221 0.65854 47.4855 0.625614 47.8146 0.55976C48.1438 0.526833 48.4729 0.493906 48.8679 0.460979C48.44 0.329271 50.4479 0.263416 49.6579 0.164635C48.5717 -0.032927 48.5058 0.131708 47.5842 0L47.6171 0.0329265C43.3052 -0.0329275 38.9932 0.592687 34.78 1.81099C32.0151 2.7988 29.0527 3.88539 26.3536 5.36711C24.9053 6.15735 23.457 7.04638 22.1075 8.00127C20.758 8.95615 19.5072 9.91104 18.4868 10.8659C17.9931 11.3269 17.5322 11.5245 17.0714 11.8537C15.1623 13.5659 12.7924 15.8708 11.0479 18.1757C11.0808 18.1428 11.1137 18.1099 11.1466 18.0769C10.1921 19.2952 9.36917 20.1184 8.54628 21.3696C8.57919 21.4026 8.44753 21.5672 8.41461 21.6989C8.25004 21.7318 7.09799 23.6416 6.11052 25.6831C5.12305 27.6916 4.33308 29.8319 4.20142 30.0624C4.13558 30.1941 4.10267 30.3587 4.03684 30.5234C2.72021 33.388 1.4365 36.4502 0.909853 39.1502C0.876937 39.7429 0.844021 40.4344 0.844021 40.9283C0.679443 41.3893 0.811107 41.521 0.71236 42.0807C0.086963 43.4966 0.218625 44.3856 0.416119 43.6283C0.317372 44.8466 0.18571 46.032 0.152794 47.1186C0.152794 47.6125 0.185709 48.1064 0.185709 48.6332C0.218625 49.0613 0.152794 49.2918 0.0540474 49.5223C0.119879 50.6088 0.021131 50.2796 0.021131 51.432C-0.110531 51.7284 0.416119 54.2967 0.416119 54.6259L0.383204 54.4284C0.449035 55.0869 0.416119 55.6467 0.449035 56.2064C0.449035 56.7662 0.48195 57.326 0.580697 57.9516C0.844022 59.7296 1.27192 61.6065 1.79857 63.3845C2.32522 65.1626 2.95062 66.8748 3.57602 68.4553C3.70768 68.4224 3.27978 67.7638 3.44436 67.6651C4.13558 69.509 4.82681 71.3858 5.74845 73.1639C5.88011 73.4931 6.04469 73.9212 6.0776 74.0858C6.34093 74.6785 6.30801 74.3822 6.53842 74.8102L6.47259 74.9419C6.90049 75.4688 6.86758 75.8639 7.26257 76.3907C7.3284 76.3907 7.46006 76.5883 7.59172 76.7858C7.49298 76.8846 7.98671 77.3785 7.85505 77.4115C7.92088 77.5432 7.98671 77.609 8.05254 77.7737C8.08546 77.8066 8.25004 77.9712 8.41461 78.1688C8.61211 78.3663 8.84252 78.5968 9.10584 78.8602C9.33625 79.0907 9.59958 79.3541 9.79707 79.5517C9.99456 79.7493 10.1591 79.881 10.1921 79.9139L10.2579 80.0127C10.4883 80.309 10.6529 80.3749 10.5541 80.1773L10.8175 80.5395L10.7845 80.5066L11.0479 80.8688C11.0808 80.9346 11.1137 81.0664 10.982 81.0005C11.1795 81.1651 11.377 81.3627 11.5416 81.5603C11.1466 80.9676 10.6858 80.2103 10.3566 79.5517C10.587 79.7493 10.8504 80.2432 11.0808 80.4737C11.2454 80.8359 11.7062 81.4944 12.0682 82.0212C12.167 82.12 12.3316 82.0871 12.4962 82.3834C12.5291 82.581 12.7266 82.6469 12.8582 82.8773C12.6278 82.6798 12.4303 82.4493 12.2328 82.2188C12.167 82.3505 12.6607 82.8115 12.7924 83.0091C12.8911 83.0749 13.2532 83.5359 13.5494 83.7664C13.352 83.7334 13.714 84.0298 13.8128 84.2273C13.9774 84.4249 14.109 84.4908 14.0761 84.392C14.2407 84.3591 13.4507 83.6347 13.7799 83.7993C13.8128 83.8981 14.1419 84.2273 14.3394 84.4249C14.4053 84.392 14.2407 84.2603 14.4053 84.3261C14.6028 84.5566 14.8661 84.6883 14.9319 84.8859C14.8661 84.853 14.8002 84.7542 14.7344 84.7213C14.9977 84.9847 12.957 83.5688 13.319 83.8981C13.2861 83.7664 15.1294 85.1493 14.9648 84.9517C14.8332 84.7542 15.1623 84.9847 15.0307 84.7871L14.8002 84.6554C14.6027 84.392 14.5698 84.2273 14.7015 84.2603C15.0636 84.6554 13.2532 83.503 13.6482 83.7664C13.6153 83.7005 13.5824 83.6676 13.5494 83.6017C13.714 83.7005 14.109 84.0627 14.2078 84.2603C14.2736 84.2273 14.4711 84.392 14.6357 84.5237L14.6686 84.5895C14.8661 84.7213 15.0636 84.9517 15.0307 84.7871C14.0761 83.8652 16.1498 84.8859 15.2611 83.9639C15.5244 84.4578 15.0307 83.9639 14.6027 83.5688C14.6027 83.503 14.4711 83.2725 14.2407 82.9432C14.0103 82.6798 14.0761 82.8444 13.9774 82.8115C13.8786 82.6469 13.6482 82.3505 13.7469 82.3176C13.4836 82.1859 13.4836 81.9554 13.2532 81.7249C13.0228 81.5273 13.2203 81.7578 13.0557 81.659C12.7924 81.3298 12.3974 80.8688 12.1999 80.5725C12.167 80.4078 12.0024 80.0127 12.2987 80.1773C12.6936 80.6712 12.0024 80.1115 12.4632 80.6054C12.3974 80.2761 12.8911 81.0334 13.0557 81.0334C12.9899 80.8029 12.6936 80.4737 12.4303 80.2103L12.4962 80.342C12.2657 80.1115 11.8378 79.6176 11.7062 79.2883C11.8049 79.3212 11.7391 79.1566 11.9037 79.3541L11.6403 78.992C11.5745 78.959 11.5416 78.9261 11.6074 79.0249C11.4429 78.8932 11.3441 78.6956 11.2783 78.5639C11.3112 78.498 9.66541 76.8188 9.76415 76.8517C9.59958 76.5883 9.63249 76.4566 9.40208 76.259C9.40208 76.259 9.50083 76.4236 9.66541 76.6212C9.82999 76.8517 10.0604 77.148 10.2908 77.4115C10.7516 77.9383 11.2124 78.4651 11.0808 78.3005C11.0479 78.1688 10.4225 77.5102 9.8629 76.7858C9.56666 76.4236 9.30333 76.0944 9.10584 75.798C8.90835 75.5346 8.77668 75.3041 8.77668 75.2383C8.64502 75.0407 8.48044 74.8102 8.44753 74.8761C8.25003 74.5139 8.61211 74.909 8.51336 74.6456C8.51336 74.6456 8.51336 74.6785 8.44753 74.6127L8.3817 74.3492C7.95379 73.8883 7.65756 72.9992 7.19674 72.5053C7.36131 72.637 7.55881 72.7687 7.82213 73.098V73.1639C7.85505 73.1968 8.05254 73.4931 8.11837 73.4602C7.95379 73.098 7.78922 72.8017 7.52589 72.4724C7.49298 72.4065 7.49298 72.3078 7.46006 72.2419C7.46006 72.2419 7.46006 72.2419 7.42714 72.2748C7.39423 72.1431 7.42714 72.1431 7.46006 72.1761C7.46006 72.1761 7.46006 72.1761 7.49298 72.209C7.55881 71.9126 6.63717 70.8919 6.43968 70.2004C6.30801 70.0358 6.40676 70.2004 6.24218 69.9699C5.97886 69.2785 5.8472 68.7846 5.58387 68.0602C5.41929 67.8626 5.38638 67.8626 5.41929 68.159L5.2218 67.5992C5.61679 67.9943 5.0243 66.5126 5.45221 66.9736C5.45221 66.809 5.32055 66.4797 5.18888 66.1833C5.12305 66.1833 5.02431 66.1504 4.89264 65.7882C4.7939 65.2285 4.7939 65.3602 4.69515 64.8992C4.72807 64.7675 4.82681 64.9321 4.85973 64.8992C4.53057 64.2406 4.7939 64.2736 4.5964 63.615C4.46474 63.2199 4.20142 62.4297 4.06975 62.4297C3.90517 61.8699 3.97101 61.837 4.10267 61.8699Z" fill="#082C4E"/>
<path d="M27.8675 83.9306L27.9663 83.7331C27.7358 84.3587 27.4396 84.9843 27.1434 85.6099C28.0979 84.3587 29.0525 82.9099 28.7562 81.494C29.25 81.5928 30.0729 80.3745 29.9741 80.3087C30.007 80.0123 30.1058 79.716 30.2045 79.3867C30.1387 79.5843 30.0729 79.7818 30.007 80.0123C30.0729 79.8148 30.1387 79.6172 30.2045 79.3867C30.7641 77.4769 31.982 75.6989 33.3644 74.0196C33.5619 73.7891 33.8252 73.4269 34.1215 73.0318C34.4177 72.6367 34.7469 72.1757 35.1419 71.7476C35.5039 71.3196 35.866 70.8915 36.1952 70.5293C36.5243 70.1671 36.8206 69.8379 37.051 69.6074C37.1826 69.4757 37.3143 69.344 37.446 69.2452C37.2155 69.4427 37.2155 69.4427 36.9851 69.6403C37.3801 68.9818 37.7422 68.3891 38.1043 67.8293C37.9726 67.8622 37.9068 67.8293 37.6434 67.994L37.9068 67.7635C37.9397 67.5659 38.0714 67.3354 38.203 67.1379C38.3676 66.9403 38.5322 66.7098 38.6309 66.5781C38.6638 66.7098 38.8613 66.5122 39.0259 66.3805L38.8942 66.4135C39.2234 66.1171 39.5526 65.7549 39.8488 65.3927C40.0134 65.2281 40.178 65.0635 40.3096 64.8659C40.4742 64.7013 40.6388 64.5695 40.7704 64.4378C40.8363 64.372 40.935 64.3391 41.0008 64.3391L41.4946 63.7464C41.5604 63.8781 42.0541 63.4171 41.8237 63.7134C42.12 63.2195 42.6137 62.8573 42.9429 62.3964C43.3049 62.0671 43.6999 61.7707 44.062 61.4415C44.457 61.1122 44.7861 60.75 45.214 60.4537C45.609 60.1244 46.004 59.7951 46.3661 59.4659L46.9257 58.972C47.1232 58.8073 47.3206 58.6427 47.5181 58.478L47.4523 58.4451C47.979 57.9841 48.3739 57.3915 49.1639 57.0293C49.5589 56.5024 50.316 56.0085 50.3818 55.6463C51.0072 55.2512 51.1718 54.9878 51.7643 54.5597C51.5338 54.5268 52.2909 54.0658 51.9288 54.1317C51.4022 54.1975 51.468 54.3622 51.0401 54.3951L51.073 54.428C50.6451 54.6256 50.1843 54.7902 49.7564 54.9878C49.3285 55.1853 48.8677 55.3829 48.4727 55.6134C47.6498 56.0744 46.794 56.5353 45.9711 57.0622C45.4774 57.4902 44.9507 57.8854 44.3912 58.2805C44.1278 58.478 43.8316 58.6756 43.5683 58.8732C43.3049 59.0707 43.0416 59.3012 42.7783 59.5317C42.2516 59.9927 41.6921 60.5195 41.1654 61.0134C40.6717 61.5403 40.1779 62.0342 39.783 62.4951C39.5855 62.7256 39.3551 62.7915 39.1247 62.8903C38.7297 63.2854 38.3018 63.7793 37.8409 64.2403C37.3801 64.7342 36.9193 65.1952 36.5243 65.6891C36.5243 65.6561 36.5572 65.6561 36.5572 65.6561C36.1293 66.183 35.7014 66.4793 35.2735 66.9732C35.3064 67.0061 35.2406 67.072 35.2406 67.1379C35.1748 67.1379 35.0102 67.3354 34.7798 67.6318C34.681 67.7964 34.5494 67.961 34.4177 68.1586C34.2861 68.3562 34.1544 68.5537 34.0227 68.7842C33.4961 69.6403 33.0023 70.4964 32.8707 70.5623C32.8378 70.6281 32.8049 70.694 32.7719 70.7269C32.344 71.2537 31.8503 71.7806 31.3566 72.2745C30.8957 72.7684 30.4349 73.2623 30.1387 73.7891C30.0729 74.0525 30.007 74.3489 29.9741 74.5794C29.7766 74.7111 29.9083 74.8428 29.7437 75.0403C29.0854 75.4025 29.0196 75.7977 29.3158 75.6001C29.0854 76.0611 28.7891 76.5221 28.5916 76.9501C28.5258 77.1477 28.4271 77.3782 28.3612 77.5757C28.2954 77.7404 28.1967 77.8062 28.065 77.8721C27.9004 78.333 27.8675 78.1355 27.6042 78.5635C27.4067 78.5965 27.2421 79.7818 27.1434 79.9135L27.1763 79.8148C26.913 80.3416 26.518 80.5721 26.2546 81.0989C25.8597 81.7904 25.5634 82.5806 25.2672 83.338C24.9709 84.0953 24.6747 84.8526 24.4443 85.5441C24.5759 85.6099 24.5101 85.2148 24.7076 85.2806C24.4114 86.1038 23.9505 86.8611 23.6543 87.6843C23.5556 87.816 23.4568 87.9807 23.391 88.0465C23.2593 88.3099 23.4239 88.2112 23.3581 88.4087H23.2264C23.2593 88.738 22.9631 88.8038 22.9631 89.1002C22.996 89.1331 22.996 89.2319 22.9631 89.3307C22.8314 89.2977 22.8972 89.627 22.7656 89.5941C22.7327 89.6599 22.7327 89.6929 22.6998 89.7587C22.7327 89.8904 22.7985 91.0099 22.8314 91.1417L22.7985 91.1746C22.7656 91.3392 22.8643 91.438 22.8972 91.3392L22.8643 91.5368V91.5039L22.8314 91.7014C22.7985 91.7343 22.7327 91.7673 22.6998 91.7014C22.7327 91.8331 22.7327 91.9648 22.6668 92.0636C22.7985 91.7673 22.996 91.438 23.1935 91.1417C23.2264 91.2734 23.0947 91.5039 23.0947 91.6356C22.9631 91.8002 22.8314 92.1295 22.6998 92.36C22.6998 92.4258 22.8314 92.4917 22.7327 92.6234C22.601 92.6563 22.6998 92.788 22.601 92.8868C22.5681 92.7551 22.6339 92.6234 22.6668 92.4917C22.5352 92.4917 22.5023 92.788 22.4693 92.8868C22.5023 92.9526 22.4035 93.1831 22.4035 93.3478C22.3048 93.249 22.3048 93.4466 22.206 93.5453C22.1731 93.6441 22.206 93.7429 22.2389 93.677C22.3706 93.7429 22.4035 93.249 22.5023 93.4465C22.4364 93.4795 22.4035 93.677 22.4035 93.8087C22.4693 93.8087 22.4693 93.7429 22.5352 93.8417C22.5023 93.9734 22.5352 94.1051 22.4693 94.1709C22.4693 94.138 22.4693 94.1051 22.5023 94.0722C22.4693 94.2368 22.2389 93.1173 22.2389 93.3148C22.3048 93.2819 22.4693 94.3356 22.5023 94.2039C22.5681 94.1051 22.601 94.3027 22.6668 94.2039L22.601 94.0722C22.6668 93.9405 22.7985 93.9075 22.8314 93.9734C22.7656 94.2039 22.5023 93.2161 22.5352 93.4465L22.601 93.3807C22.6339 93.4795 22.6339 93.71 22.5352 93.7758C22.601 93.7758 22.601 93.9075 22.601 94.0063L22.5681 94.0392C22.5681 94.138 22.5352 94.2697 22.6339 94.2368C22.7327 93.677 23.2593 94.7307 23.4239 94.2039C23.2264 94.4014 23.2922 94.1051 23.3251 93.8417C23.391 93.8417 23.4897 93.7429 23.5556 93.5783C23.5885 93.4136 23.5226 93.4795 23.4897 93.4465C23.5556 93.3807 23.5885 93.2161 23.6872 93.249C23.6214 93.1173 23.786 93.0844 23.786 92.9197C23.7531 92.788 23.7531 92.9197 23.7201 92.8209C23.7531 92.6234 23.8518 92.3929 23.8847 92.2283C23.9835 92.1953 24.148 92.0307 24.2139 92.1953C24.148 92.4587 24.0493 92.0307 24.0164 92.36C24.2139 92.2612 24.0164 92.6234 24.1151 92.7222C24.2139 92.6563 24.2468 92.4587 24.2468 92.2941L24.2139 92.327C24.2139 92.1953 24.2468 91.899 24.3785 91.7673C24.4443 91.8002 24.4772 91.7673 24.4772 91.8661L24.543 91.6685C24.543 91.6356 24.5101 91.6026 24.4772 91.6685C24.4443 91.5697 24.4772 91.4709 24.543 91.438C24.6089 91.438 24.543 90.3843 24.5759 90.4173C24.6089 90.2856 24.7076 90.2856 24.6747 90.1209C24.6418 90.088 24.543 91.4709 24.5759 91.2734C24.6747 91.1746 24.6747 89.6599 24.8064 89.5941C24.8393 89.4953 24.8393 89.3636 24.7734 89.3636C24.8393 89.199 24.8722 89.4624 24.9709 89.3307C24.9709 89.3307 24.938 89.3307 24.938 89.2977L25.0368 89.199C25.0038 88.9026 25.2343 88.5404 25.2013 88.2441C25.2343 88.3429 25.333 88.4746 25.3659 88.6721L25.333 88.7051C25.333 88.738 25.333 88.9026 25.3988 88.9026C25.4976 88.738 25.4976 88.6063 25.4976 88.4087C25.5305 88.3758 25.5634 88.3429 25.5963 88.3429C25.5963 88.3429 25.5963 88.3429 25.5634 88.3429C25.6292 88.3099 25.6292 88.3099 25.6292 88.3429C25.8597 88.3099 25.728 87.6514 25.9255 87.388C25.9255 87.2892 25.8926 87.3551 25.8926 87.2563C26.0571 86.9599 26.1888 86.7624 26.3534 86.466C26.3205 86.3343 26.2876 86.3014 26.1559 86.4002L26.2546 86.1697C26.3863 86.466 26.6167 85.7746 26.7484 86.1038C26.8142 86.038 26.88 85.9063 26.88 85.7746C26.8471 85.7416 26.7484 85.6758 26.8142 85.5111C26.9788 85.3136 26.913 85.3465 27.0775 85.1819C27.1763 85.1489 27.1763 85.2477 27.2092 85.2477C27.2421 84.9184 27.4725 85.0502 27.5713 84.7538C27.6042 84.5563 27.7358 84.227 27.6371 84.1611C27.7029 83.8319 27.7688 83.8648 27.8675 83.9306Z" fill="#082C4E"/>
<path d="M22.5689 75.7981V75.5347C22.6676 76.4237 22.7335 77.3456 22.7993 78.2347C22.9968 76.1932 23.1284 73.8554 22.0751 72.4066C22.536 72.209 22.6347 70.2663 22.536 70.2334C22.4043 69.8383 22.3385 69.4432 22.2397 69.048C22.2726 69.3114 22.3385 69.6078 22.4043 69.8712C22.3385 69.6078 22.3056 69.3114 22.2397 69.048C21.746 66.4797 21.9106 63.6809 22.3056 60.8163C22.3714 60.4211 22.4043 59.8614 22.503 59.2029C22.6018 58.5443 22.7005 57.8199 22.8322 57.0955C22.898 56.7333 22.9639 56.3711 23.0297 56.0089C23.0955 55.6467 23.1943 55.3175 23.2601 54.9882C23.3918 54.3626 23.5234 53.8028 23.6551 53.4077C23.7209 53.1772 23.7868 52.9467 23.8526 52.7491C23.7209 53.1113 23.7209 53.1113 23.5893 53.5065C23.6222 53.0126 23.688 52.5516 23.7209 52.0906C23.7538 51.6296 23.8526 51.2016 23.9184 50.7735C23.8197 50.9052 23.7538 50.9052 23.5563 51.2345L23.7209 50.8065C23.688 50.576 23.7209 50.2467 23.7868 49.9174C23.8526 49.5882 23.9513 49.2589 23.9513 49.0284C24.0172 49.1601 24.1488 48.8308 24.2476 48.5345L24.1488 48.6333C24.2476 48.3699 24.3463 48.0735 24.4451 47.7772C24.5438 47.4808 24.6426 47.1845 24.7413 46.9211C24.8401 46.6247 24.9388 46.3284 25.0376 46.065C25.1363 45.8015 25.235 45.5381 25.3667 45.3076C25.4325 45.1759 25.4984 45.0772 25.5642 45.0442L25.8604 44.0893C25.9592 44.221 26.3213 43.3979 26.2225 43.8589C26.3213 43.4967 26.4529 43.1345 26.5846 42.8052C26.6504 42.6406 26.7162 42.4759 26.7821 42.2784C26.8479 42.1137 26.9137 41.9491 26.9796 41.7515C28.1316 39.5125 29.547 37.1747 31.094 35.0344H30.9953C31.2586 34.6722 31.489 34.2771 31.7523 33.882C31.8182 33.7832 31.884 33.6844 31.9498 33.5856C32.0157 33.4868 32.1144 33.3881 32.1802 33.3222C32.3448 33.1246 32.5423 32.96 32.7727 32.7624C33.2006 32.038 34.0235 31.2478 34.0893 30.7868C34.2539 30.6222 34.4185 30.4905 34.5502 30.3588C34.6818 30.2271 34.8135 30.1283 34.9122 29.9966C35.1426 29.7661 35.3731 29.5027 35.7351 29.2063C35.4389 29.2393 36.3605 28.5149 35.9326 28.7124C35.3072 28.91 35.373 29.0746 34.8464 29.2722L34.8793 29.3051C32.7398 30.6222 30.7978 32.3015 29.0862 34.2442C28.6253 34.9686 28.0329 35.6271 27.5391 36.3844C27.2758 36.7466 27.0125 37.1088 26.7492 37.471C26.5188 37.8661 26.2883 38.2283 26.0579 38.6235C25.9263 38.821 25.8275 39.0515 25.6959 39.2491C25.5642 39.4466 25.4655 39.6771 25.3667 39.9076C25.1363 40.3357 24.9388 40.7637 24.7413 41.2247C24.5438 41.6527 24.3792 42.0808 24.2147 42.5088C24.0501 42.9369 23.8855 43.332 23.7538 43.7271C23.6551 44.0893 23.4247 44.3198 23.2272 44.5832C22.9639 45.2747 22.7005 46.0979 22.4043 46.8881C22.1081 47.7113 21.8777 48.5674 21.6472 49.3906C21.6472 49.3577 21.6802 49.3247 21.6802 49.3247C21.4827 50.1808 21.1535 50.8065 20.956 51.6626C20.9889 51.6626 20.956 51.7943 20.9889 51.8601C20.9231 51.893 20.8573 52.2223 20.7914 52.7162C20.7585 52.9467 20.6927 53.2431 20.6598 53.5394C20.6269 53.8357 20.5939 54.165 20.561 54.4943C20.5281 54.8236 20.4952 55.1528 20.4623 55.4492C20.4294 55.7455 20.4294 56.0419 20.3964 56.3053C20.3635 56.7992 20.3306 57.1614 20.2977 57.2602C20.2977 57.3589 20.2977 57.4577 20.2977 57.5236C20.0015 59.3016 19.4748 61.1785 19.4419 62.759C19.5077 63.0882 19.5736 63.4834 19.6723 63.7797C19.5736 64.0431 19.7381 64.109 19.7052 64.4382C19.3102 65.2614 19.4748 65.7883 19.6065 65.3273C19.6394 66.0187 19.6394 66.7102 19.6394 67.3358C19.6723 67.6322 19.7052 67.8956 19.7381 68.1919C19.7711 68.4224 19.7381 68.5871 19.6394 68.6858C19.7052 69.3115 19.6065 69.1139 19.6065 69.7724C19.4748 69.9371 19.9356 71.3858 19.9027 71.5834L19.8698 71.4846C19.9027 72.242 19.6723 72.7688 19.7381 73.4932C19.804 75.5676 20.166 77.7737 20.3635 79.6505C20.4952 79.6505 20.2648 79.2554 20.4623 79.1896C20.5939 80.3091 20.561 81.4615 20.6927 82.581C20.6927 82.7786 20.6598 83.042 20.6269 83.1408C20.6269 83.503 20.7256 83.3384 20.7585 83.6018L20.6269 83.6676C20.7914 84.0298 20.561 84.2603 20.6927 84.5896C20.7585 84.5896 20.7585 84.7213 20.7914 84.853C20.6598 84.8859 20.8573 85.2481 20.7256 85.2481C20.7256 85.314 20.7585 85.3798 20.7585 85.4786C20.8243 85.6103 21.4168 86.9274 21.5156 87.0591V87.125C21.5485 87.3225 21.6802 87.3884 21.6802 87.2896L21.7131 87.553V87.5201L21.746 87.7835C21.746 87.8164 21.6802 87.8823 21.6143 87.8164C21.6802 87.9482 21.746 88.1128 21.746 88.2445C21.7789 87.8494 21.8118 87.3225 21.8777 86.8945C21.9435 87.0591 21.9435 87.3884 21.9764 87.553C21.9106 87.7835 21.9106 88.2445 21.9106 88.6067C21.9435 88.6725 22.0751 88.7055 22.0422 88.903C21.9435 89.0018 22.0751 89.1006 22.0422 89.2652C21.9435 89.1006 21.9435 88.936 21.9435 88.7713C21.8118 88.8372 21.9435 89.1994 21.9106 89.3311C21.9435 89.3969 21.9764 89.7262 22.0422 89.9238C21.9106 89.8579 22.0093 90.0884 21.9435 90.2201C21.9435 90.3518 22.0093 90.4506 22.0422 90.3847C22.1739 90.4177 22.0422 89.825 22.2068 89.9896C22.141 90.0555 22.2068 90.3189 22.2397 90.4506C22.3056 90.4506 22.2726 90.3518 22.3714 90.4177C22.3714 90.5823 22.503 90.7469 22.4372 90.8457C22.4043 90.8128 22.4043 90.7469 22.4043 90.714C22.4372 90.9116 21.746 89.6604 21.8447 89.9238C21.9106 89.8579 22.4701 91.0433 22.4372 90.9116C22.4372 90.7799 22.5689 90.9774 22.5689 90.8457L22.4701 90.714C22.4701 90.5165 22.5689 90.4177 22.6347 90.4835C22.6676 90.7799 22.0093 89.6933 22.141 89.9567V89.8579C22.2068 89.9567 22.3056 90.253 22.2397 90.3847C22.3056 90.3847 22.3714 90.5164 22.4043 90.6482V90.6811C22.4701 90.8128 22.4701 90.9774 22.536 90.8787C22.4043 90.1213 23.3259 91.2408 23.2272 90.5165C23.1284 90.8457 23.0626 90.4506 22.9968 90.1213C23.0297 90.0884 23.0955 89.9238 23.0955 89.6933C23.0626 89.4957 23.0297 89.5945 22.9639 89.5616C22.9639 89.4299 22.9639 89.2323 23.0626 89.2323C22.931 89.1006 23.0955 88.9689 23.0297 88.8043C22.9639 88.6396 22.9968 88.8372 22.9309 88.7055C22.898 88.4421 22.8651 88.1128 22.8322 87.9152C22.898 87.8164 22.9968 87.5859 23.1284 87.7177C23.1614 88.0799 22.898 87.6189 22.9968 87.9811C23.1284 87.7835 23.0955 88.3103 23.2272 88.3762C23.293 88.2445 23.2601 87.9811 23.1943 87.7835V87.8164C23.1284 87.6518 23.0297 87.2896 23.0955 87.0591C23.1614 87.092 23.1943 86.9933 23.2272 87.125L23.1943 86.8615C23.1614 86.8286 23.1284 86.7957 23.1284 86.8615C23.0626 86.7628 23.0626 86.6311 23.0955 86.5323C23.1614 86.4994 22.6018 85.2152 22.6676 85.2481C22.6347 85.0506 22.7335 85.0176 22.6347 84.853C22.5689 84.853 23.1284 86.5652 23.0626 86.3347C23.0955 86.1701 22.4043 84.3262 22.503 84.1945C22.4701 84.0628 22.4372 83.8981 22.3714 83.931C22.3714 83.7006 22.503 83.9969 22.536 83.7993C22.536 83.7993 22.503 83.8323 22.503 83.7664L22.5689 83.6018C22.4043 83.2725 22.4701 82.7128 22.2726 82.3835C22.3714 82.4823 22.503 82.581 22.6018 82.8115L22.5689 82.8445C22.6018 82.8774 22.6347 83.075 22.7005 83.042C22.7005 82.8115 22.6676 82.614 22.5689 82.3835C22.5689 82.3506 22.6018 82.2847 22.6018 82.2518C22.6018 82.2518 22.6018 82.2518 22.5689 82.2518C22.6018 82.153 22.6018 82.1859 22.6347 82.1859C22.6347 82.1859 22.6347 82.1859 22.6676 82.1859C22.8322 82.0213 22.4043 81.2969 22.4701 80.8688C22.4372 80.7371 22.4372 80.8688 22.3714 80.7042C22.3714 80.2761 22.4043 79.9798 22.4043 79.5188C22.3056 79.3871 22.2726 79.3871 22.2068 79.5518L22.1739 79.2225C22.4372 79.4859 22.3056 78.5639 22.5689 78.8603C22.6018 78.7615 22.6018 78.5639 22.536 78.3664C22.4701 78.3664 22.3714 78.3335 22.3714 78.103C22.4043 77.7737 22.4043 77.8396 22.4372 77.5761C22.503 77.5103 22.536 77.6091 22.6018 77.5761C22.4701 77.181 22.7005 77.181 22.6676 76.7859C22.6018 76.5554 22.536 76.0615 22.4372 76.0615C22.3714 75.7981 22.4701 75.7981 22.5689 75.7981Z" fill="#082C4E"/>
<path d="M35.4717 18.702L35.8996 18.3727C34.583 19.4922 33.2664 20.7435 32.0814 22.0935C33.5297 20.7435 35.1426 19.3935 36.7225 18.2081C38.2695 16.9898 39.7507 15.9361 40.9028 14.8166C41.0345 14.8825 41.3307 14.8495 41.7257 14.7507C42.1207 14.652 42.6144 14.4873 43.0752 14.3556C43.536 14.191 43.9969 14.0593 44.3589 13.9276C44.6881 13.7959 44.9185 13.6971 44.9514 13.6642C45.6426 13.302 46.3668 12.9727 47.1238 12.6763C46.5972 12.8739 46.1035 13.1044 45.6097 13.3349C46.1035 13.1044 46.6301 12.9068 47.1238 12.6763C49.4938 11.7215 52.127 11.03 54.8919 10.5032C57.6239 9.97633 60.5205 9.64706 63.45 9.31779C64.1083 9.25193 65.0299 9.15315 66.0503 9.02144C66.3137 8.98852 66.577 8.95559 66.8732 8.92266H66.972H67.0049H67.0378H67.1036C67.2024 8.92266 67.2682 8.92266 67.367 8.92266C67.334 9.05437 67.2682 9.18608 67.2353 9.28486C67.0049 10.108 66.7416 10.9312 66.5111 11.6885C66.0174 13.2361 65.4908 14.5532 65.0958 15.4422C64.8983 15.8703 64.7337 16.2983 64.5362 16.7593C64.8654 16.0349 64.8654 16.0349 65.1945 15.3105C64.602 17.2203 64.0096 18.9325 63.2854 20.5459C63.4829 20.3154 63.5816 20.2825 63.9766 19.6569C63.845 19.9203 63.7133 20.1837 63.5487 20.4471C63.3842 21.2703 62.4954 22.9496 62.1334 23.8057C62.1334 23.5752 61.7713 24.2008 61.4421 24.7276L61.6396 24.5301C60.4547 26.6045 59.1051 28.9752 57.8872 30.6874C57.7227 30.9179 57.5581 31.0826 57.4594 31.1813C57.0973 31.7411 56.7023 32.3009 56.3073 32.8277C56.3073 32.6301 55.1553 34.046 55.7148 33.2557C54.8919 34.5399 53.8057 35.5936 52.917 36.7131C52.0283 37.635 51.0737 38.4911 50.0533 39.3143C49.033 40.1375 47.9797 40.9277 46.8605 41.6192C44.6223 43.0351 42.1865 44.1546 39.652 44.9448L39.7837 44.9778C38.8949 45.2741 38.0391 45.5375 37.1504 45.8009C36.2617 46.0314 35.2742 46.229 34.1222 46.2948C33.3322 46.4595 32.3447 46.5912 31.456 46.6241C30.5673 46.69 29.8102 46.69 29.4482 46.7888C28.4936 46.657 27.8024 46.4924 27.1441 46.2948C26.9795 46.229 26.8149 46.1631 26.6503 46.1302C26.4858 46.0644 26.3212 45.9985 26.1237 45.8997C25.9591 45.8009 25.7616 45.7022 25.5641 45.6034C25.3995 45.4717 25.1691 45.34 24.9716 45.1753C25.0375 45.307 24.9716 45.2741 24.84 45.2083C24.7083 45.1095 24.5108 44.9778 24.3462 44.8131C24.2475 44.7473 24.1817 44.6485 24.1158 44.5826C24.05 44.5168 24.0171 44.4839 23.9842 44.4509C23.9183 44.418 23.9183 44.4509 24.05 44.6485C24.2475 44.9448 24.4121 45.1753 24.5766 45.34C24.7412 45.5046 24.8729 45.6363 25.0046 45.7351C25.1362 45.8339 25.2679 45.9656 25.4325 46.0644C25.597 46.1961 25.7945 46.3278 26.0249 46.4924V46.4266C27.2428 47.151 28.5924 47.5131 29.8761 47.7107C31.1927 47.9083 32.5093 47.9412 33.793 47.8753C35.0767 47.8095 36.3604 47.6449 37.6112 47.4473C38.8949 47.2168 40.0799 46.9534 41.3636 46.5912C43.0094 46.0314 44.6881 45.34 46.3339 44.4839C47.9467 43.6278 49.5267 42.6399 50.9091 41.5534C53.9703 39.1826 56.6694 35.9887 58.5126 33.3216C58.9406 32.6631 59.3685 32.3009 59.7964 31.774C60.6192 30.5228 61.5409 29.1069 62.3967 27.5923C63.2854 26.0777 64.1083 24.563 64.8324 23.0484C64.7995 23.1142 64.7666 23.1471 64.7666 23.1801C65.5566 21.5996 66.2807 20.4471 66.939 18.8337C66.9061 18.8337 67.0049 18.5703 67.0378 18.4386C67.2024 18.3398 68.0911 15.9361 68.7823 13.4007C69.1115 12.1495 69.4406 10.8654 69.6381 9.87755C69.9673 8.39583 70.1648 7.37509 70.2635 7.1446C70.2964 6.88119 70.3623 6.61777 70.3952 6.35435C70.4281 6.22265 70.461 6.09094 70.461 5.95923C69.1444 6.09094 67.8278 6.18972 66.5111 6.32143C65.6224 6.38728 64.7337 6.45313 63.8779 6.51899C62.1334 6.6507 60.4876 6.81533 58.9735 7.07875C58.3152 7.27631 57.591 7.47387 57.0314 7.67143C56.4719 7.67143 56.406 7.869 55.7477 7.96778C54.0032 7.869 53.0816 8.26412 53.9703 8.19827C52.6208 8.52754 51.2383 8.79095 50.0204 9.0873C49.4609 9.25193 48.9342 9.41657 48.3746 9.61413C47.9138 9.77876 47.6176 9.81169 47.3543 9.77876C46.1693 10.2068 46.4984 9.97633 45.2147 10.3715C45.0502 10.3385 44.2602 10.7007 43.5031 11.0629C43.1081 11.2605 42.7461 11.458 42.4498 11.5898C42.1536 11.7544 41.9232 11.8861 41.8244 11.8861L42.0219 11.7873C40.6066 12.38 39.5533 12.6105 38.2037 13.4007C36.3275 14.4544 34.5172 15.8373 32.9372 17.3191C31.3244 18.8008 29.9419 20.4471 28.724 21.9947C28.8228 22.1264 29.2178 21.2703 29.4152 21.3691C27.934 23.1471 26.5187 25.024 25.3666 27.0655C25.1362 27.4277 24.84 27.8557 24.7083 27.9874C24.3462 28.646 24.5766 28.4155 24.3133 28.9094H24.1487C23.9183 29.6996 23.5234 29.9301 23.2929 30.6874C23.3259 30.7533 23.2271 31.0167 23.1284 31.2472C22.9967 31.2143 22.865 32.0374 22.7663 31.9716C22.7005 32.1362 22.6675 32.235 22.6017 32.4326C22.5688 32.5972 22.4371 33.3874 22.3384 34.2106C22.2396 35.0338 22.2067 35.857 22.2067 36.0216L22.1738 36.1533C22.108 36.5814 22.1738 36.7789 22.2396 36.5484C22.2067 36.7131 22.1738 36.9106 22.1738 37.0753V37.0094L22.108 37.5692C22.0751 37.668 22.0092 37.7667 21.9763 37.6021C22.0092 37.9314 22.0092 38.2607 21.9763 38.5899C22.0751 37.7009 22.3055 36.6472 22.6017 35.8241C22.6017 36.1862 22.4042 36.8119 22.4042 37.2399C22.3384 37.4704 22.2396 37.8326 22.2067 38.2277C22.1409 38.6229 22.108 39.0838 22.108 39.479C22.108 39.6436 22.2726 39.7753 22.2396 40.1704C22.1409 40.368 22.2726 40.5985 22.2726 40.9607C22.1409 40.5985 22.1409 40.2033 22.108 39.8411C21.9763 39.907 22.108 40.796 22.1409 41.0924C22.1738 41.1582 22.2067 41.3887 22.2726 41.6521C22.3384 41.9156 22.4371 42.2119 22.503 42.4424C22.3055 42.2777 22.5688 42.8375 22.6346 43.1668C22.7663 43.4961 22.9309 43.6607 22.898 43.529C22.9967 43.5619 22.8321 43.2326 22.7663 42.9692C22.6675 42.7058 22.6017 42.4753 22.7663 42.6399C22.7663 42.7058 22.8321 42.9034 22.898 43.1009C22.9638 43.2985 23.1284 43.529 23.1942 43.6936C23.26 43.6607 23.1284 43.4631 23.2929 43.6278C23.3259 43.7265 23.3917 43.7924 23.4246 43.8912C23.4904 43.957 23.5563 44.0558 23.5892 44.1217C23.6879 44.2534 23.7867 44.3851 23.8196 44.5168C23.7538 44.4839 23.6879 44.3192 23.6221 44.2204C23.6879 44.3192 23.6221 44.2534 23.4246 44.0887C23.26 43.9241 23.0625 43.6278 22.8321 43.3643C22.6346 43.068 22.4701 42.7717 22.3713 42.607C22.2726 42.4095 22.2396 42.3436 22.2726 42.5082C22.2726 42.4753 22.3713 42.607 22.503 42.8375C22.5688 42.9692 22.6346 43.1009 22.7334 43.2326C22.8321 43.3643 22.9309 43.529 23.0296 43.6936C23.2271 43.99 23.4904 44.2534 23.655 44.4509C23.8196 44.6485 23.9183 44.7144 23.8525 44.6485C23.6879 44.3851 24.0829 44.7473 23.9183 44.4839L23.655 44.2534C23.4246 43.8912 23.4575 43.6607 23.5563 43.7595C23.7208 44.0558 23.3588 43.6936 23.0296 43.2656C22.7334 42.8375 22.4371 42.3436 22.5688 42.607C22.5359 42.5082 22.5359 42.4424 22.503 42.3436C22.5688 42.4753 22.6675 42.6729 22.7663 42.9034C22.7992 43.0021 22.865 43.1339 22.898 43.2326C22.9309 43.3314 22.9638 43.4302 22.9967 43.4961C23.0625 43.4631 23.2271 43.7924 23.4246 44.0229L23.4904 44.1217C23.6879 44.3522 23.9183 44.7143 23.8854 44.5168C23.3588 43.7924 23.6879 43.9241 24.0171 44.0558C24.3462 44.1875 24.6425 44.2863 24.2146 43.6278C24.4779 44.2534 23.9183 43.5619 23.6221 42.9363C23.655 42.8375 23.5892 42.5412 23.4904 42.0802C23.3588 41.6851 23.3588 41.8497 23.3259 41.7838C23.3259 41.6521 23.2929 41.4875 23.26 41.3558C23.26 41.2241 23.26 41.1253 23.3259 41.1582C23.1942 40.8619 23.2929 40.6314 23.2271 40.2692C23.1613 39.9399 23.1942 40.3021 23.1284 40.0716C23.0954 39.8082 23.0954 39.5119 23.0954 39.2155C23.0954 38.9192 23.1284 38.6558 23.1284 38.4582C23.2271 38.2936 23.3588 37.8326 23.4575 38.1948C23.3917 38.9521 23.2929 37.8985 23.26 38.6887C23.3588 38.5241 23.3588 38.6887 23.3588 38.9192C23.3588 39.1497 23.3917 39.446 23.4575 39.5119C23.4904 39.3802 23.5234 39.1826 23.5234 38.985C23.5234 38.7875 23.5563 38.557 23.5234 38.3265L23.4904 38.4253C23.4575 38.0631 23.5233 37.3058 23.655 36.9106C23.6879 37.0094 23.7867 36.8448 23.7538 37.1082C23.7867 36.9436 23.8196 36.7789 23.8525 36.6143C23.8525 36.5484 23.8196 36.4826 23.7867 36.6143C23.7867 36.3838 23.8196 36.1204 23.9183 35.9558C23.9513 35.9228 24.0171 35.2643 24.1158 34.6058C24.2146 33.9472 24.3462 33.2887 24.3462 33.3545C24.445 32.9923 24.5766 32.9594 24.6425 32.5972C24.6425 32.5972 24.5766 32.7948 24.4779 33.0911C24.4121 33.4204 24.3133 33.8155 24.2146 34.2436C24.05 35.0667 23.9513 35.8241 24.0171 35.5936C24.05 35.5277 24.0829 35.2314 24.1817 34.8362C24.2146 34.6387 24.2475 34.4082 24.3133 34.1777C24.3792 33.9472 24.4121 33.6838 24.4779 33.4204C24.5766 32.9265 24.7412 32.3996 24.8729 32.0374C25.0046 31.6423 25.1033 31.3789 25.1691 31.346C25.2679 31.0826 25.3666 30.7862 25.3008 30.8191C25.5312 30.3911 25.3666 30.9838 25.5641 30.7204C25.5641 30.7204 25.5312 30.7204 25.5641 30.6216L25.7616 30.3582C25.9591 29.6667 26.5516 28.7777 26.782 28.0533C26.7491 28.2838 26.7491 28.5472 26.5845 29.0082L26.5187 29.074C26.5187 29.1399 26.3541 29.5021 26.4199 29.535C26.6503 29.1399 26.8149 28.7777 26.9795 28.3167C27.0453 28.2508 27.1112 28.1521 27.1441 28.1191H27.1112C27.2099 27.9874 27.2099 28.0203 27.2099 28.0862V28.1191C27.3745 28.0533 27.572 27.6252 27.7695 27.1642C27.9999 26.7033 28.2632 26.1764 28.5265 25.8472C28.6253 25.6167 28.5265 25.8142 28.6582 25.5179C29.1848 24.8264 29.5798 24.3984 30.1394 23.7069C30.2381 23.4435 30.2381 23.3776 29.9419 23.6081L30.3698 23.0813C30.2711 23.3776 30.5015 23.1801 30.7319 22.9496C30.9623 22.752 31.1927 22.5545 31.061 22.8837C31.2256 22.752 31.4889 22.4557 31.6864 22.1593C31.6535 22.0935 31.6535 21.9947 31.9497 21.6325C32.4435 21.1715 32.3118 21.2703 32.7397 20.941C32.8714 20.9081 32.7726 21.0727 32.8385 21.0727C33.3322 20.4142 33.431 20.6447 33.9905 20.0849C34.3197 19.7227 35.0109 19.0642 34.9451 18.9654C35.373 18.5044 35.4388 18.6032 35.4717 18.702Z" fill="#082C4E"/>
<path d="M55.8794 44.4836L56.2744 44.3519C55.0236 44.8129 53.8057 45.4056 52.6208 46.0641C53.9703 45.4385 55.4844 44.9446 56.9327 44.4836C58.3481 44.0226 59.7305 43.5946 60.8168 42.969C60.9813 43.1994 61.7713 43.2324 62.5613 43.2982C62.7588 43.2982 62.9563 43.2982 63.1208 43.2982C63.2854 43.2982 63.45 43.2982 63.6146 43.2982C63.9108 43.2982 64.0754 43.2653 64.1083 43.2324C64.4046 43.1665 64.7008 43.1336 64.997 43.1007C65.2933 43.0677 65.6224 43.0019 65.9187 43.0019C65.4908 43.0348 65.0629 43.0677 64.635 43.1336C65.0629 43.1007 65.4908 43.0348 65.9187 43.0019C67.8936 42.8373 69.9673 42.969 72.0739 43.3641C74.1805 43.7263 76.32 44.319 78.4266 45.0763C78.9862 45.2738 79.7761 45.5373 80.6649 45.8665C80.8953 45.9653 81.1257 46.0312 81.3561 46.13C81.4878 46.1629 81.5865 46.2287 81.7182 46.2617L81.7511 46.2946H81.784C81.8498 46.3275 81.9157 46.3604 81.9815 46.4263C81.9157 46.5251 81.8827 46.5909 81.8169 46.6239C81.8169 46.5909 81.7182 46.7885 81.6523 46.8873C81.5865 47.019 81.5207 47.1507 81.4219 47.2495C81.2903 47.48 81.1257 47.7434 80.994 47.9739C80.4345 48.8958 79.8749 49.6861 79.4799 50.2129C79.2495 50.5092 79.052 50.8056 78.8216 51.069C79.2166 50.608 79.2166 50.608 79.5786 50.1141C78.8545 51.4641 78.0974 52.6495 77.3075 53.7361C77.505 53.6044 77.6037 53.6044 78.0316 53.2422C77.867 53.4068 77.7354 53.5715 77.5708 53.7361C77.3404 54.3617 76.3529 55.4483 75.925 55.9751C75.9579 55.8105 75.563 56.1727 75.2009 56.502L75.3984 56.4361C74.0817 57.6873 72.5347 59.0703 71.1852 59.9593C70.9877 60.091 70.8231 60.1569 70.7244 60.1569C70.3294 60.4532 69.9015 60.7495 69.4736 61.0459C69.5065 60.8813 68.2886 61.5398 68.8811 61.1118C67.9594 61.8361 66.8732 62.1983 65.9187 62.7581C62.298 64.2069 58.0518 64.8984 53.9045 65.0301L54.0032 65.0959C53.2791 65.1288 52.5879 65.1618 51.8637 65.1618C51.1396 65.1618 50.3825 65.0959 49.5267 64.8654C48.9013 64.8325 48.1442 64.7008 47.453 64.5362C46.7947 64.3715 46.2022 64.2069 45.906 64.2069C45.2148 63.8776 44.7539 63.5813 44.2931 63.252C43.8323 62.9227 43.4044 62.5605 42.9436 61.902C43.0094 62.0996 42.7461 61.8032 42.5486 61.5069C42.4828 61.441 42.4498 61.3752 42.4169 61.3093C42.384 61.2435 42.3511 61.2105 42.3182 61.1776C42.2853 61.1447 42.2524 61.1447 42.3182 61.3422C42.384 61.6057 42.4828 61.8361 42.5486 62.0008C42.6473 62.1654 42.7132 62.2971 42.779 62.3959C42.8448 62.5276 42.9436 62.6264 43.0423 62.7581C43.1411 62.8898 43.2398 63.0544 43.3715 63.252V63.1861C44.0956 64.0423 45.0173 64.7008 45.9389 65.1947C46.8935 65.6886 47.848 66.0508 48.8355 66.3142C50.8104 66.841 52.8183 67.0715 54.8261 67.1045C57.4923 66.9728 60.3889 66.7752 63.1208 66.0837C64.6021 65.6886 66.0833 65.1618 67.4657 64.5362C68.8482 63.9105 70.099 63.1862 71.1523 62.4288C71.646 62.0666 72.0739 61.9349 72.5676 61.7044C73.5222 61.013 74.5755 60.1898 75.5959 59.2678C76.6163 58.3459 77.6037 57.3581 78.4595 56.3373C78.4266 56.3703 78.3937 56.4032 78.3608 56.4361C79.2824 55.3824 80.0724 54.6581 80.8624 53.5385C80.8294 53.5056 80.9611 53.341 80.994 53.2422C81.1257 53.2093 82.1132 51.7605 82.969 50.1141C83.1994 49.6861 83.3969 49.2909 83.5944 48.8629C83.8248 48.4019 84.0223 47.9739 84.2198 47.5787C84.7464 46.4592 85.1085 45.6031 85.3389 45.1421C85.2072 45.0763 85.0756 45.0434 85.0426 45.0104C84.8451 44.9446 84.6477 44.8458 84.4502 44.7799C83.9893 44.5824 83.4956 44.3519 83.0348 44.1543L82.4094 43.8909L81.9157 43.6604C81.2573 43.3641 80.599 43.1007 79.9407 42.8373C78.6241 42.3104 77.3404 41.8824 76.1554 41.586C75.5959 41.5531 75.0034 41.4872 74.5426 41.5202C74.1476 41.3555 74.0159 41.4872 73.5222 41.3555C72.2714 40.7299 71.4814 40.7958 72.1397 41.0263C71.5802 40.9604 71.0535 40.8946 70.5269 40.8287C70.0002 40.7628 69.4736 40.697 68.9798 40.6641C68.519 40.6311 68.0911 40.6641 67.6303 40.6641C67.2353 40.6641 67.0378 40.5982 66.8403 40.4994C65.8528 40.5324 66.1491 40.4336 65.0958 40.4006C64.8325 40.236 62.4625 40.697 62.1992 40.7299L62.3638 40.697C62.0675 40.7299 61.7713 40.7299 61.508 40.7299C61.2447 40.7299 60.9813 40.7299 60.718 40.7299C60.4547 40.7299 60.1914 40.7299 59.928 40.7628C59.6647 40.7958 59.4014 40.8287 59.1051 40.8946C57.4594 41.1909 55.7478 41.7177 54.1678 42.4092C52.5549 43.1007 51.1066 44.0226 49.8229 44.9446C49.8888 45.0763 50.3496 44.4836 50.5142 44.6482C49.7571 45.1751 49.0001 45.7019 48.2759 46.2946C47.5518 46.8873 46.8605 47.5129 46.2681 48.2044C46.0047 48.4348 45.7085 48.6983 45.5768 48.797C45.1489 49.2251 45.4123 49.1263 45.116 49.4556L44.9843 49.4227C44.6881 49.9824 44.2931 50.0812 43.9969 50.608C44.0298 50.6739 43.8981 50.8385 43.7665 51.0361C43.6348 50.9702 43.4044 51.5958 43.3386 51.4971C43.2727 51.5958 43.2398 51.6946 43.1082 51.8263C43.0752 51.958 42.8119 52.5507 42.6144 53.1763C42.4169 53.8019 42.2523 54.4605 42.2523 54.5922L42.1865 54.691C42.0549 55.0203 42.1207 55.2178 42.1865 55.0203L42.0219 55.4154V55.3495C41.9561 55.4812 41.9232 55.6129 41.8903 55.7776C41.8574 55.8434 41.7586 55.9093 41.7586 55.7776C41.7257 56.041 41.6928 56.3044 41.594 56.5349C41.8244 55.8764 42.2194 55.0861 42.6144 54.4934C42.5815 54.6251 42.5157 54.8227 42.4169 55.0203C42.3511 55.2178 42.2524 55.4154 42.2194 55.5471C42.0219 55.8764 41.7257 56.6007 41.5611 57.2264C41.5611 57.3581 41.6928 57.4898 41.594 57.7861C41.4624 57.9178 41.5611 58.1483 41.4624 58.4117C41.4295 58.1154 41.4624 57.7861 41.5282 57.4898C41.3965 57.5227 41.3636 58.2471 41.3307 58.4776C41.3636 58.6093 41.3307 59.202 41.4295 59.5971C41.2978 59.4325 41.3636 59.9264 41.3636 60.1898C41.3965 60.4532 41.4953 60.6178 41.4953 60.5191C41.5611 60.552 41.5282 60.2886 41.4953 60.0581C41.4624 59.8276 41.4624 59.63 41.5611 59.7947C41.5282 59.8605 41.5611 59.9922 41.594 60.1898C41.627 60.3544 41.6928 60.552 41.7257 60.6837C41.7915 60.6508 41.7257 60.4861 41.8245 60.6508C41.8903 60.9471 42.0878 61.2435 42.0878 61.4081C42.0549 61.3752 42.0219 61.2435 41.989 61.1447C42.0219 61.2435 41.9561 61.1776 41.8574 61.013C41.7586 60.8483 41.627 60.6178 41.4953 60.3544C41.2649 59.8605 41.1332 59.3008 41.1661 59.5971C41.1661 59.5642 41.232 59.6959 41.2978 59.8934C41.3636 60.091 41.4624 60.3874 41.594 60.6508C41.6599 60.7825 41.7257 60.9142 41.7915 61.013C41.8574 61.1117 41.9232 61.2435 41.989 61.3093C42.0878 61.4739 42.1536 61.5398 42.1207 61.5069C42.0549 61.2764 42.3182 61.6057 42.2194 61.3752L42.0219 61.1447C41.9232 60.8154 42.0219 60.6508 42.0878 60.7496C42.1536 61.013 41.9232 60.6837 41.7257 60.2886C41.5282 59.8935 41.3965 59.4654 41.4624 59.7288V59.5313C41.4953 59.63 41.5282 59.8276 41.594 60.0252C41.627 60.2227 41.6599 60.4203 41.6599 60.5191C41.7257 60.5191 41.8244 60.7825 41.9232 60.98C41.9232 61.013 41.9232 61.0459 41.9561 61.0788C42.0878 61.3093 42.1865 61.6057 42.2194 61.441C41.9561 60.7825 42.2194 60.9471 42.4498 61.0788C42.7132 61.2105 42.9436 61.3422 42.7461 60.7825C42.779 61.3093 42.5157 60.6837 42.384 60.1569C42.4169 60.091 42.4498 59.8605 42.4498 59.4654C42.4169 59.1361 42.384 59.2678 42.3182 59.202C42.3511 59.0044 42.3511 58.6751 42.4498 58.7081C42.3511 58.4447 42.5157 58.313 42.5157 58.0166C42.4828 57.7532 42.4828 58.0166 42.4498 57.852C42.5157 57.4568 42.6144 56.8971 42.7461 56.6007C42.8448 56.502 43.0752 56.1727 43.1082 56.469C42.9436 57.0288 42.9765 56.2056 42.8448 56.7983C43.0752 56.5678 42.779 57.3251 42.8777 57.4568C42.9765 57.2922 43.0752 56.8971 43.1411 56.5678L43.1082 56.6337C43.1411 56.3373 43.3056 55.7776 43.5031 55.5142C43.5361 55.6129 43.6348 55.4812 43.569 55.7117C43.6019 55.58 43.6677 55.4812 43.7336 55.3495C43.7336 55.2837 43.7336 55.2507 43.6677 55.3495C43.7006 55.152 43.7994 54.9873 43.8652 54.8885C43.8981 54.8885 44.0627 54.3617 44.2273 53.9007C44.3919 53.4068 44.5894 52.9458 44.5894 52.9788C44.7539 52.7154 44.8527 52.7154 44.9514 52.4519C44.9514 52.419 44.6223 53.0446 44.359 53.6373C44.0956 54.23 43.931 54.7898 43.9969 54.6251C44.0956 54.5263 44.359 53.769 44.6881 53.0446C45.0173 52.3202 45.4452 51.6288 45.5439 51.5629C45.6756 51.3983 45.8072 51.1678 45.7085 51.1678C45.9389 50.9044 45.7414 51.3324 45.9389 51.1678C45.9389 51.1678 45.906 51.1678 45.9389 51.1019L46.1693 50.9702C46.4326 50.4434 47.058 49.9166 47.3214 49.3897C47.2555 49.5544 47.2226 49.7849 47.0251 50.1141L46.9593 50.147C46.9264 50.2129 46.7618 50.4434 46.8276 50.4763C47.0909 50.2458 47.2555 49.9824 47.453 49.6531C47.5188 49.6202 47.5847 49.5544 47.6176 49.5214H47.5847C47.6834 49.4556 47.6834 49.4885 47.6834 49.5214C47.6834 49.5214 47.6834 49.5214 47.6834 49.5544C47.9797 49.5214 48.5392 48.4348 49.0659 48.0726C49.1975 47.908 49.0659 48.0397 49.1975 47.8422C49.7242 47.447 50.1192 47.1836 50.6787 46.8214C50.8104 46.6239 50.8104 46.5909 50.5471 46.6897L50.975 46.3934C50.8433 46.6239 51.0737 46.5251 51.3041 46.4263C51.5016 46.3275 51.732 46.2617 51.6004 46.4921C51.765 46.4592 52.0283 46.2946 52.2258 46.097C52.2258 46.0312 52.1929 45.9324 52.522 45.7348C52.9828 45.5373 52.8841 45.5702 53.2791 45.4385C53.4107 45.4385 53.2791 45.5373 53.312 45.6031C53.5753 45.4056 53.707 45.3726 53.8386 45.3397C53.9703 45.3068 54.102 45.3068 54.3653 45.1751C54.6945 45.0104 55.3528 44.6812 55.3198 44.5495C55.8465 44.286 55.8794 44.3848 55.8794 44.4836Z" fill="#082C4E"/>
<path d="M86.1945 20.0523C86.1615 20.0194 86.1286 19.9535 86.1286 19.8547C85.8982 20.2498 85.7336 20.645 86.4907 20.1181C86.1286 20.4474 86.0299 20.7108 86.1286 20.612C86.2274 20.5791 86.2932 20.5462 86.359 20.5462C86.3261 20.5462 86.2603 20.5462 86.2274 20.5791C86.2603 20.5791 86.3261 20.5462 86.359 20.5462C86.7869 20.4474 86.7869 20.7438 86.7869 21.0401C86.7869 21.2047 86.8857 21.534 86.8528 21.6986C86.8528 21.7316 86.8528 21.7316 86.8528 21.7645C86.8857 21.6986 86.8857 21.6986 86.8857 21.6657C87.0503 21.6657 87.1819 21.6328 87.2807 21.6328C87.3465 21.5669 87.3794 21.534 87.4453 21.4681L87.4123 21.534C87.6098 21.4352 87.6428 21.5011 87.7086 21.5011C87.6098 21.5669 87.6098 21.5999 87.6098 21.6328L87.6757 21.5999C87.6757 21.6986 87.8073 21.7316 87.8732 21.8303C87.8732 21.8303 87.8402 21.8633 87.8073 21.8962L87.9061 21.9291C87.7744 21.995 87.8403 22.0608 87.7415 22.0608C87.9061 22.0279 87.8732 22.1267 88.0377 22.0938C88.1694 22.2584 88.3669 22.3901 88.6961 22.456L88.729 22.423C88.8606 22.456 89.124 22.3572 89.0911 22.4889C89.2885 22.456 89.4202 22.4889 89.6835 22.3572C89.7494 22.3901 89.9139 22.3572 90.0127 22.3901C90.1444 22.2913 90.2102 22.3572 90.276 22.2913C90.4406 22.1596 90.276 22.2255 90.4077 22.0938L90.3748 22.1267C90.4735 21.8303 90.4735 21.5999 90.4077 21.3694C90.2102 21.3035 90.2431 21.1059 90.1114 21.0072C89.9798 20.9084 89.8152 20.8096 89.6177 20.7437C89.5519 20.7437 89.6506 20.645 89.6835 20.5791C89.5519 20.5133 89.519 20.3486 89.3544 20.2828C89.2885 20.2498 89.3873 20.1181 89.3215 20.0523C89.2885 20.0852 89.2885 20.0852 89.2556 20.0852C89.4202 19.9535 88.6631 19.9864 88.7619 19.8876H88.729C88.6961 19.723 88.9265 19.3608 88.7948 19.262C88.6961 19.295 88.6302 19.3279 88.5315 19.3608C88.5973 19.295 88.4656 19.3937 88.4656 19.3608C88.729 19.0645 88.5644 19.1303 88.4986 19.2291C88.4327 19.2291 88.3998 19.1633 88.3669 19.1303C88.334 19.1303 88.3011 19.1303 88.2352 19.1303C88.2023 19.1303 88.2352 19.0974 88.3011 19.0315C88.2352 19.0315 88.3011 18.9657 88.3011 18.8998C88.3998 18.8011 88.0377 18.9328 88.0707 18.8998H88.1036C88.0707 18.834 88.2682 18.6364 88.2352 18.5706C88.2023 18.373 88.0048 18.2742 87.9061 18.1425C87.8073 18.2413 87.939 18.1425 87.8073 18.2742C87.7744 18.1754 87.8403 17.9779 87.7744 17.912C87.8073 17.8791 87.8402 17.8132 87.8732 17.7803C87.9061 17.7145 87.8073 17.8132 87.8073 17.7803L87.9061 17.6815C87.8073 17.7145 87.9719 17.5498 87.9061 17.5498C87.8732 17.5828 87.8402 17.5828 87.8402 17.5828C87.939 17.484 87.8073 17.5498 87.9061 17.484C87.9061 17.484 87.9061 17.484 87.9061 17.451C87.8732 17.484 87.5111 17.6486 87.4453 17.6815V17.6486L87.3465 17.7145V17.6815V17.6486C87.3465 17.6486 87.3794 17.5828 87.4453 17.5498C87.4123 17.5828 87.3794 17.5828 87.3794 17.5498C87.3465 17.6486 87.2807 17.7474 87.2148 17.8791C87.1819 17.912 87.2148 17.8462 87.1819 17.8462C87.2478 17.7803 87.2478 17.6815 87.2807 17.6157C87.2807 17.6157 87.149 17.7145 87.1819 17.6486C87.2478 17.5828 87.1819 17.6486 87.2148 17.5828C87.2807 17.5498 87.2478 17.5828 87.2478 17.5828C87.3465 17.484 87.2807 17.484 87.3136 17.451C87.2807 17.484 87.2807 17.4181 87.2478 17.451C87.3465 17.3852 87.2807 17.3852 87.3465 17.3193C87.3465 17.2864 87.3136 17.3193 87.2807 17.3523C87.1819 17.451 87.2478 17.451 87.149 17.5169C87.1819 17.484 87.149 17.484 87.149 17.451C87.0832 17.5169 87.1161 17.484 87.0503 17.5498C87.0503 17.5169 86.9844 17.5828 87.0174 17.5169C87.0174 17.484 87.4123 17.2535 87.3794 17.2864C87.3465 17.3193 87.0174 17.5169 87.0174 17.5169C86.9844 17.5498 86.9186 17.6157 86.9186 17.6157L86.9844 17.5498C86.9844 17.5828 86.8857 17.6815 86.8528 17.7145C86.8528 17.6815 87.2478 17.4181 87.1819 17.451L87.149 17.484C87.1161 17.5169 87.0503 17.5169 87.1161 17.451C87.0503 17.484 87.0503 17.5169 87.0174 17.5169C86.9844 17.5498 86.9844 17.5169 86.9186 17.5828C86.9844 17.6157 86.392 18.0437 86.392 18.1425C86.4907 18.0108 86.5236 18.0437 86.5565 18.0437C86.5236 18.0767 86.4578 18.1425 86.4578 18.1754C86.4907 18.1754 86.4907 18.1425 86.5236 18.1096C86.4907 18.1425 86.4907 18.1754 86.4249 18.2413C86.4907 18.1754 86.392 18.3072 86.4249 18.2742C86.4578 18.2413 86.4578 18.2413 86.4907 18.2084C86.4907 18.2413 86.5236 18.2742 86.4907 18.2742C86.4249 18.3401 86.359 18.4389 86.2603 18.5047C86.2603 18.4718 86.392 18.373 86.359 18.373C86.2274 18.5047 86.2932 18.373 86.1945 18.4718C86.1286 18.5376 86.1615 18.5376 86.1945 18.5376V18.5047C86.2274 18.5047 86.2603 18.5047 86.2274 18.5706C86.1945 18.6035 86.1615 18.6364 86.1286 18.6364V18.6693L86.1615 18.6364C86.1945 18.6035 86.1945 18.6364 86.1615 18.6693C86.1286 18.7023 86.4249 18.5706 86.392 18.6035C86.392 18.6035 86.3261 18.6693 86.392 18.6364C86.4249 18.6035 86.1286 18.6693 86.1615 18.6693C86.1286 18.7352 86.5236 18.5706 86.4249 18.6693C86.4249 18.6693 86.4578 18.6693 86.4907 18.6364C86.4907 18.6693 86.392 18.7023 86.359 18.7681L86.392 18.7352L86.3261 18.8011C86.4249 18.7681 86.359 18.8669 86.4578 18.8011C86.392 18.834 86.2932 18.9328 86.2274 18.9657L86.2603 18.9328C86.2274 18.9328 86.2274 18.9328 86.1615 18.9986C86.1286 19.0315 86.1615 19.0315 86.2274 19.0315L86.1945 19.0645C86.1945 19.0645 86.1945 19.0645 86.2274 19.0315C86.1945 19.0645 86.1945 19.0645 86.1615 19.0974C86.0299 19.2291 86.2932 19.0645 86.2603 19.1633C86.2932 19.1633 86.2932 19.1303 86.3261 19.1303C86.2932 19.1962 86.2603 19.262 86.2603 19.3279C86.3261 19.295 86.359 19.262 86.4249 19.1962V19.2291C86.2274 19.3608 86.2932 19.3937 86.1286 19.5255C86.0957 19.5584 86.0957 19.5913 86.1286 19.5584C86.1615 19.5255 86.2274 19.4596 86.2603 19.4925C86.2274 19.5584 86.2274 19.5254 86.1945 19.5913C86.1286 19.6572 86.1286 19.6572 86.0628 19.6901C86.1615 19.6572 85.964 19.8218 85.997 19.8218C86.0299 19.8218 86.0628 19.8547 86.1615 19.7559C86.359 19.9535 86.2932 19.9864 86.1945 20.0523Z" fill="#082C4E"/>
<path d="M76.945 10.8983C76.8792 10.8983 76.8463 10.8325 76.8134 10.7337C76.7805 11.1947 76.7476 11.6227 77.3071 10.8654C77.0767 11.2935 77.1096 11.5569 77.1755 11.4581C77.2413 11.3923 77.3071 11.3593 77.373 11.3264C77.34 11.3593 77.3071 11.3593 77.2413 11.3923C77.2742 11.3593 77.3071 11.3264 77.373 11.3264C77.735 11.0959 77.8667 11.3923 77.9654 11.6557C78.0313 11.8203 78.2617 12.1166 78.2617 12.2813C78.2617 12.3142 78.2617 12.3471 78.2617 12.3471C78.2617 12.2813 78.2617 12.2813 78.2617 12.2484C78.3933 12.1825 78.525 12.1496 78.6567 12.1166C78.6896 12.0508 78.7225 11.9849 78.7554 11.9191V11.9849C78.92 11.8532 78.9529 11.9191 79.0517 11.8532C78.9858 11.9191 78.9858 11.952 78.9858 11.9849L79.0187 11.9191C79.0517 12.0179 79.2162 12.0179 79.2821 12.0837C79.2821 12.0837 79.2821 12.1166 79.2492 12.1496H79.3808C79.2821 12.2484 79.3479 12.2813 79.2492 12.3142C79.4137 12.2484 79.3808 12.3471 79.5454 12.2813C79.71 12.413 79.9733 12.5118 80.3025 12.5118L80.3354 12.4788C80.467 12.4788 80.7304 12.3471 80.7304 12.4788C80.9279 12.413 81.0595 12.413 81.3229 12.2484C81.4216 12.2813 81.5533 12.2154 81.652 12.2484C81.7508 12.1496 81.8495 12.2154 81.9153 12.0837C82.047 11.9191 81.8824 12.0179 81.9812 11.8532L81.9483 11.8862C81.9483 11.5569 81.8824 11.2935 81.7837 11.063C81.5862 11.0301 81.5204 10.8325 81.3558 10.7337C81.1912 10.6349 80.9608 10.5691 80.7633 10.5362C80.6975 10.5362 80.7633 10.4374 80.7962 10.3715C80.6316 10.3057 80.5329 10.174 80.3683 10.1081C80.2696 10.0752 80.3354 9.91054 80.2366 9.87761C80.2037 9.91054 80.2037 9.91054 80.1708 9.91054C80.2696 9.7459 79.5125 9.91054 79.5783 9.81176H79.5454C79.4467 9.64712 79.5125 9.21907 79.3479 9.15322C79.2821 9.21907 79.1833 9.252 79.1175 9.31785C79.1504 9.21907 79.0517 9.35078 79.0187 9.31785C79.1504 8.95565 79.0187 9.05443 78.9858 9.18614C78.8871 9.18614 78.8542 9.12029 78.7883 9.12029C78.7554 9.12029 78.7225 9.15322 78.6567 9.15322C78.6238 9.15322 78.6238 9.12029 78.6896 9.02151C78.6238 9.02151 78.6567 8.95565 78.6238 8.8898C78.6896 8.75809 78.3604 8.98858 78.3933 8.95565H78.4263C78.3604 8.8898 78.4592 8.62638 78.3933 8.59346C78.2617 8.39589 77.9984 8.39589 77.8667 8.26418C77.8009 8.39589 77.9325 8.26418 77.8338 8.42882C77.735 8.36297 77.7021 8.13248 77.6034 8.06662C77.6034 8.0337 77.6034 7.93492 77.6034 7.90199C77.6034 7.83613 77.5705 7.96784 77.5375 7.93491L77.5705 7.80321C77.5046 7.86906 77.5704 7.63857 77.5046 7.6715C77.4717 7.70443 77.4717 7.70443 77.4717 7.70443C77.5375 7.57272 77.4388 7.70443 77.4717 7.57272C77.4717 7.57272 77.4717 7.57272 77.4717 7.53979C77.4388 7.57272 77.1425 7.86906 77.1096 7.90199V7.86906C77.0767 7.86906 77.0438 7.96784 77.0438 7.96784L77.0109 7.93491L76.978 7.90199C76.978 7.90199 77.0109 7.83613 77.0109 7.77028C76.978 7.80321 76.945 7.83613 76.945 7.80321C76.945 7.90199 76.945 8.0337 76.945 8.1654C76.9121 8.19833 76.9121 8.13248 76.8792 8.13248C76.8792 8.0337 76.8792 7.96784 76.8792 7.86906C76.8792 7.86906 76.8134 8.00077 76.8134 7.93491C76.8463 7.83613 76.7805 7.93492 76.8134 7.86906C76.8463 7.83613 76.8463 7.86906 76.8792 7.86906C76.9121 7.73735 76.8792 7.77028 76.8792 7.73735C76.8463 7.77028 76.8463 7.73735 76.8134 7.73735C76.8792 7.63857 76.8134 7.6715 76.8463 7.60564C76.8463 7.57272 76.8134 7.63857 76.8134 7.6715C76.7476 7.80321 76.8463 7.77028 76.7805 7.90199C76.8134 7.83613 76.7805 7.83613 76.7476 7.83613C76.7146 7.90199 76.7476 7.90199 76.7146 7.93491C76.7146 7.90199 76.6488 8.00077 76.6817 7.90199C76.6817 7.86906 76.6817 7.90199 76.6817 7.90199C76.6488 7.90199 76.9451 7.50686 76.9121 7.53979C76.8792 7.60565 76.6488 7.90199 76.6488 7.90199C76.6488 7.93492 76.583 8.0337 76.583 8.0337L76.6817 8.23126C76.6817 8.26419 76.6488 8.39589 76.6159 8.42882C76.583 8.39589 76.8792 8.00077 76.8134 8.06662V8.09955C76.7805 8.13248 76.7476 8.1654 76.7476 8.09955C76.7146 8.1654 76.7146 8.19833 76.6817 8.19833C76.6488 8.23126 76.6488 8.19833 76.6159 8.29711C76.6817 8.33004 76.3196 8.95565 76.3855 9.02151C76.4184 8.85687 76.4513 8.8898 76.4842 8.85687C76.4842 8.92273 76.4513 8.98858 76.4513 9.02151C76.4842 9.02151 76.4842 8.98858 76.4842 8.92273C76.4842 8.95565 76.4842 8.98858 76.4513 9.05443C76.4842 8.95565 76.4513 9.12029 76.4842 9.08736C76.5171 9.05443 76.4842 9.05443 76.5171 9.02151C76.5501 9.05443 76.5501 9.05443 76.583 9.08736C76.5501 9.15321 76.5171 9.28492 76.4842 9.3837C76.4513 9.35078 76.583 9.21907 76.5171 9.21907C76.4513 9.3837 76.4842 9.252 76.4184 9.3837C76.3855 9.44956 76.4184 9.48248 76.4513 9.44956V9.41663C76.4842 9.41663 76.5171 9.38371 76.5171 9.48249C76.4842 9.54834 76.4842 9.58127 76.4513 9.58127L76.4842 9.61419C76.4842 9.58127 76.5171 9.58127 76.5171 9.54834C76.5501 9.51541 76.5501 9.54834 76.5501 9.58127C76.5171 9.64712 76.7805 9.3837 76.7476 9.41663C76.7476 9.41663 76.7146 9.51541 76.7805 9.44956C76.8134 9.41663 76.5501 9.58127 76.583 9.58127C76.583 9.64712 76.8792 9.35078 76.8463 9.48249C76.8463 9.48249 76.8792 9.48249 76.9121 9.41663C76.9121 9.44956 76.8463 9.51541 76.8463 9.58127V9.54834L76.8134 9.61419C76.8792 9.54834 76.8792 9.68005 76.945 9.54834C76.9121 9.61419 76.8463 9.71297 76.8134 9.77883V9.7459C76.8134 9.77883 76.7805 9.77883 76.7476 9.84468C76.7476 9.87761 76.7805 9.87761 76.8134 9.84468V9.91054C76.8134 9.91054 76.8134 9.91054 76.8134 9.87761C76.8134 9.91054 76.8134 9.91054 76.7805 9.94346C76.7146 10.1081 76.9121 9.87761 76.8792 9.97639C76.9121 9.94346 76.8792 9.94346 76.9121 9.91054C76.9121 10.0093 76.9121 10.0752 76.9121 10.1081C76.9451 10.0422 76.978 10.0093 77.0109 9.91054V9.94346C76.8792 10.141 76.978 10.141 76.8463 10.3386C76.8463 10.3715 76.8463 10.4044 76.8792 10.3715C76.9121 10.3386 76.945 10.2398 76.978 10.2398C76.978 10.3057 76.978 10.3057 76.978 10.3715C76.945 10.4374 76.9451 10.4703 76.9121 10.5032C76.978 10.4374 76.8792 10.6679 76.9121 10.6679C76.9451 10.6679 76.978 10.6679 77.0438 10.5691C77.0438 10.7008 77.0109 10.7996 76.945 10.8983Z" fill="#082C4E"/>
</g>
</svg>
