<svg width="627" height="174" viewBox="0 0 627 174" fill="none" xmlns="http://www.w3.org/2000/svg">
<g filter="url(#filter0_dd)">
<path d="M68.5431 126.34C100.876 126.34 127.086 100.129 127.086 67.7964C127.086 35.4639 100.876 9.25327 68.5431 9.25327C36.2107 9.25327 10 35.4639 10 67.7964C10 100.129 36.2107 126.34 68.5431 126.34Z" fill="#FAFCFE"/>
</g>
<path d="M67.3917 73.919V73.5192H66.9919H43.6082C43.3025 73.5192 43.0094 73.3978 42.7933 73.1816C42.5771 72.9655 42.4557 72.6723 42.4557 72.3667V37.2569C42.4557 36.9513 42.5771 36.6581 42.7933 36.442C43.0094 36.2259 43.3025 36.1045 43.6082 36.1045H99.7453C100.051 36.1045 100.344 36.2259 100.56 36.442C100.776 36.6581 100.898 36.9513 100.898 37.2569C100.898 37.5626 100.776 37.8558 100.56 38.0719C100.344 38.288 100.051 38.4094 99.7453 38.4094H95.0325H94.6327V38.8092V72.3667C94.6327 72.6723 94.5113 72.9655 94.2952 73.1816C94.079 73.3978 93.7859 73.5192 93.4802 73.5192H70.0965H69.6967V73.919V82.4876V82.6412L69.7995 82.7553L87.0548 101.904L87.0549 101.904C87.1563 102.017 87.2345 102.148 87.2852 102.291C87.3359 102.434 87.3579 102.585 87.3501 102.736C87.3423 102.887 87.3048 103.036 87.2397 103.172C87.1746 103.309 87.0832 103.432 86.9707 103.533C86.8583 103.635 86.7269 103.713 86.5842 103.764C86.4415 103.814 86.2902 103.836 86.1389 103.828C85.9877 103.821 85.8395 103.783 85.7027 103.718C85.566 103.653 85.4434 103.561 85.342 103.449L70.3935 86.8583L69.6967 86.0849V87.1259V102.677C69.6967 102.982 69.5753 103.276 69.3591 103.492C69.143 103.708 68.8499 103.829 68.5442 103.829C68.2386 103.829 67.9454 103.708 67.7293 103.492C67.5131 103.276 67.3917 102.982 67.3917 102.677V87.1259V86.0849L66.6949 86.8583L51.7464 103.449C51.645 103.562 51.5225 103.653 51.3857 103.718C51.249 103.783 51.1007 103.821 50.9495 103.828C50.7982 103.836 50.647 103.814 50.5042 103.764C50.3615 103.713 50.2302 103.635 50.1177 103.533C50.0052 103.432 49.9139 103.309 49.8488 103.172C49.7837 103.036 49.7461 102.887 49.7383 102.736C49.7305 102.585 49.7525 102.434 49.8032 102.291C49.8539 102.148 49.9321 102.017 50.0336 101.904L50.0337 101.904L67.2889 82.7553L67.3917 82.6412V82.4876V73.919ZM91.9279 71.2142H92.3277V70.8144V38.8092V38.4094H91.9279H45.1605H44.7607V38.8092V70.8144V71.2142H45.1605H91.9279Z" fill="#082C4E" stroke="#082C4E" stroke-width="0.799605"/>
<path d="M43.6071 37.2572H37.342" stroke="#082C4E" stroke-width="7.99605" stroke-linecap="round" stroke-linejoin="round"/>
<path d="M51.5984 43.2573H85.4881C86.2823 43.2573 86.9261 43.9012 86.9261 44.6954V64.928C86.9261 65.7223 86.2823 66.3661 85.4881 66.3661H51.5984C50.8042 66.3661 50.1603 65.7223 50.1603 64.928V44.6954C50.1603 43.9012 50.8042 43.2573 51.5984 43.2573Z" fill="#082C4E" stroke="#082C4E" stroke-width="0.799605"/>
<path d="M41.3716 147.704H38.2286V156.419H36.5976V147.704H33.4476V146.339H41.3716V147.704ZM47.5822 152.044C47.5822 151.792 47.5448 151.559 47.4702 151.344C47.4002 151.125 47.2952 150.936 47.1552 150.777C47.0152 150.614 46.8402 150.488 46.6302 150.399C46.4248 150.306 46.1868 150.259 45.9162 150.259C45.3702 150.259 44.9408 150.415 44.6282 150.728C44.3155 151.041 44.1172 151.479 44.0332 152.044H47.5822ZM43.9912 152.968C44.0098 153.374 44.0728 153.726 44.1802 154.025C44.2875 154.319 44.4298 154.564 44.6072 154.76C44.7892 154.956 45.0038 155.103 45.2512 155.201C45.5032 155.294 45.7832 155.341 46.0912 155.341C46.3852 155.341 46.6395 155.308 46.8542 155.243C47.0688 155.173 47.2555 155.098 47.4142 155.019C47.5728 154.935 47.7082 154.86 47.8202 154.795C47.9322 154.725 48.0348 154.69 48.1282 154.69C48.2495 154.69 48.3428 154.737 48.4082 154.83L48.8352 155.383C48.6578 155.593 48.4572 155.77 48.2332 155.915C48.0092 156.06 47.7712 156.179 47.5192 156.272C47.2672 156.361 47.0082 156.424 46.7422 156.461C46.4762 156.503 46.2172 156.524 45.9652 156.524C45.4705 156.524 45.0108 156.442 44.5862 156.279C44.1662 156.111 43.7998 155.866 43.4872 155.544C43.1792 155.222 42.9365 154.823 42.7592 154.347C42.5865 153.871 42.5002 153.323 42.5002 152.702C42.5002 152.207 42.5772 151.745 42.7312 151.316C42.8898 150.887 43.1138 150.513 43.4032 150.196C43.6972 149.879 44.0518 149.629 44.4672 149.447C44.8872 149.26 45.3608 149.167 45.8882 149.167C46.3268 149.167 46.7328 149.239 47.1062 149.384C47.4795 149.524 47.8015 149.732 48.0722 150.007C48.3428 150.282 48.5528 150.621 48.7022 151.022C48.8562 151.419 48.9332 151.871 48.9332 152.38C48.9332 152.613 48.9075 152.77 48.8562 152.849C48.8048 152.928 48.7115 152.968 48.5762 152.968H43.9912ZM57.4837 150.679C57.437 150.74 57.3927 150.786 57.3507 150.819C57.3087 150.852 57.248 150.868 57.1687 150.868C57.0893 150.868 57.0053 150.84 56.9167 150.784C56.8327 150.728 56.73 150.667 56.6087 150.602C56.492 150.532 56.3497 150.469 56.1817 150.413C56.0137 150.357 55.8037 150.329 55.5517 150.329C55.225 150.329 54.938 150.387 54.6907 150.504C54.448 150.621 54.2427 150.789 54.0747 151.008C53.9113 151.223 53.7877 151.486 53.7037 151.799C53.6243 152.107 53.5847 152.455 53.5847 152.842C53.5847 153.243 53.629 153.6 53.7177 153.913C53.8063 154.226 53.9323 154.489 54.0957 154.704C54.2637 154.919 54.4643 155.082 54.6977 155.194C54.9357 155.306 55.2017 155.362 55.4957 155.362C55.785 155.362 56.0207 155.327 56.2027 155.257C56.3847 155.187 56.5363 155.11 56.6577 155.026C56.779 154.942 56.8817 154.865 56.9657 154.795C57.0543 154.725 57.1477 154.69 57.2457 154.69C57.367 154.69 57.4603 154.737 57.5257 154.83L57.9527 155.383C57.78 155.593 57.5887 155.77 57.3787 155.915C57.1687 156.06 56.947 156.179 56.7137 156.272C56.4803 156.361 56.2377 156.424 55.9857 156.461C55.7337 156.503 55.4793 156.524 55.2227 156.524C54.7793 156.524 54.364 156.442 53.9767 156.279C53.594 156.111 53.258 155.871 52.9687 155.558C52.684 155.241 52.4577 154.856 52.2897 154.403C52.1263 153.946 52.0447 153.425 52.0447 152.842C52.0447 152.315 52.1193 151.827 52.2687 151.379C52.418 150.926 52.635 150.537 52.9197 150.21C53.209 149.883 53.566 149.629 53.9907 149.447C54.4153 149.26 54.9053 149.167 55.4607 149.167C55.9787 149.167 56.4337 149.251 56.8257 149.419C57.2223 149.587 57.5747 149.825 57.8827 150.133L57.4837 150.679ZM62.7682 150.126C63.0622 149.837 63.3842 149.606 63.7342 149.433C64.0842 149.256 64.4926 149.167 64.9592 149.167C65.3512 149.167 65.6942 149.232 65.9882 149.363C66.2869 149.494 66.5366 149.678 66.7372 149.916C66.9426 150.154 67.0966 150.441 67.1992 150.777C67.3019 151.108 67.3532 151.475 67.3532 151.876V156.419H65.8552V151.876C65.8552 151.395 65.7432 151.022 65.5192 150.756C65.2999 150.49 64.9639 150.357 64.5112 150.357C64.1752 150.357 63.8626 150.434 63.5732 150.588C63.2886 150.742 63.0202 150.952 62.7682 151.218V156.419H61.2632V146.059H62.7682V150.126ZM75.8939 152.044C75.8939 151.792 75.8566 151.559 75.7819 151.344C75.7119 151.125 75.6069 150.936 75.4669 150.777C75.3269 150.614 75.1519 150.488 74.9419 150.399C74.7366 150.306 74.4986 150.259 74.2279 150.259C73.6819 150.259 73.2526 150.415 72.9399 150.728C72.6272 151.041 72.4289 151.479 72.3449 152.044H75.8939ZM72.3029 152.968C72.3216 153.374 72.3846 153.726 72.4919 154.025C72.5992 154.319 72.7416 154.564 72.9189 154.76C73.1009 154.956 73.3156 155.103 73.5629 155.201C73.8149 155.294 74.0949 155.341 74.4029 155.341C74.6969 155.341 74.9512 155.308 75.1659 155.243C75.3806 155.173 75.5672 155.098 75.7259 155.019C75.8846 154.935 76.0199 154.86 76.1319 154.795C76.2439 154.725 76.3466 154.69 76.4399 154.69C76.5612 154.69 76.6546 154.737 76.7199 154.83L77.1469 155.383C76.9696 155.593 76.7689 155.77 76.5449 155.915C76.3209 156.06 76.0829 156.179 75.8309 156.272C75.5789 156.361 75.3199 156.424 75.0539 156.461C74.7879 156.503 74.5289 156.524 74.2769 156.524C73.7822 156.524 73.3226 156.442 72.8979 156.279C72.4779 156.111 72.1116 155.866 71.7989 155.544C71.4909 155.222 71.2482 154.823 71.0709 154.347C70.8982 153.871 70.8119 153.323 70.8119 152.702C70.8119 152.207 70.8889 151.745 71.0429 151.316C71.2016 150.887 71.4256 150.513 71.7149 150.196C72.0089 149.879 72.3636 149.629 72.7789 149.447C73.1989 149.26 73.6726 149.167 74.1999 149.167C74.6386 149.167 75.0446 149.239 75.4179 149.384C75.7912 149.524 76.1132 149.732 76.3839 150.007C76.6546 150.282 76.8646 150.621 77.0139 151.022C77.1679 151.419 77.2449 151.871 77.2449 152.38C77.2449 152.613 77.2192 152.77 77.1679 152.849C77.1166 152.928 77.0232 152.968 76.8879 152.968H72.3029ZM86.7847 156.419H85.3427C85.226 156.419 85.1327 156.389 85.0627 156.328C84.9974 156.267 84.9437 156.2 84.9017 156.125L83.2567 153.486C83.2147 153.645 83.1587 153.782 83.0887 153.899L81.5977 156.125C81.5464 156.2 81.488 156.267 81.4227 156.328C81.362 156.389 81.2804 156.419 81.1777 156.419H79.8337L82.3047 152.737L79.9317 149.279H81.3737C81.4904 149.279 81.5744 149.298 81.6257 149.335C81.6817 149.368 81.7307 149.419 81.7727 149.489L83.3897 152.009C83.4317 151.855 83.497 151.708 83.5857 151.568L84.9507 149.517C85.044 149.358 85.163 149.279 85.3077 149.279H86.6867L84.3137 152.674L86.7847 156.419ZM91.4081 154.627C91.6181 154.898 91.8467 155.089 92.0941 155.201C92.3461 155.308 92.6237 155.362 92.9271 155.362C93.5151 155.362 93.9724 155.147 94.2991 154.718C94.6304 154.289 94.7961 153.649 94.7961 152.8C94.7961 152.361 94.7587 151.988 94.6841 151.68C94.6094 151.367 94.5021 151.113 94.3621 150.917C94.2221 150.721 94.0517 150.579 93.8511 150.49C93.6504 150.401 93.4241 150.357 93.1721 150.357C92.7894 150.357 92.4581 150.441 92.1781 150.609C91.9027 150.772 91.6461 151.008 91.4081 151.316V154.627ZM91.3311 150.315C91.6297 149.965 91.9681 149.683 92.3461 149.468C92.7287 149.253 93.1721 149.146 93.6761 149.146C94.0774 149.146 94.4414 149.228 94.7681 149.391C95.0947 149.55 95.3747 149.783 95.6081 150.091C95.8414 150.399 96.0211 150.782 96.1471 151.239C96.2777 151.692 96.3431 152.212 96.3431 152.8C96.3431 153.327 96.2707 153.82 96.1261 154.277C95.9861 154.73 95.7831 155.124 95.5171 155.46C95.2511 155.791 94.9291 156.053 94.5511 156.244C94.1731 156.431 93.7461 156.524 93.2701 156.524C92.8501 156.524 92.4931 156.456 92.1991 156.321C91.9097 156.186 91.6461 155.999 91.4081 155.761V158.792H89.9031V149.279H90.8131C91.0184 149.279 91.1491 149.375 91.2051 149.566L91.3311 150.315ZM102.992 149.167C103.52 149.167 103.996 149.253 104.42 149.426C104.85 149.599 105.214 149.844 105.512 150.161C105.816 150.478 106.049 150.863 106.212 151.316C106.376 151.769 106.457 152.277 106.457 152.842C106.457 153.407 106.376 153.915 106.212 154.368C106.049 154.821 105.816 155.208 105.512 155.53C105.214 155.847 104.85 156.092 104.42 156.265C103.996 156.438 103.52 156.524 102.992 156.524C102.46 156.524 101.98 156.438 101.55 156.265C101.126 156.092 100.762 155.847 100.458 155.53C100.155 155.208 99.9218 154.821 99.7584 154.368C99.5951 153.915 99.5134 153.407 99.5134 152.842C99.5134 152.277 99.5951 151.769 99.7584 151.316C99.9218 150.863 100.155 150.478 100.458 150.161C100.762 149.844 101.126 149.599 101.55 149.426C101.98 149.253 102.46 149.167 102.992 149.167ZM102.992 155.348C103.636 155.348 104.115 155.133 104.427 154.704C104.745 154.27 104.903 153.652 104.903 152.849C104.903 152.046 104.745 151.428 104.427 150.994C104.115 150.555 103.636 150.336 102.992 150.336C102.339 150.336 101.854 150.555 101.536 150.994C101.219 151.428 101.06 152.046 101.06 152.849C101.06 153.652 101.219 154.27 101.536 154.704C101.854 155.133 102.339 155.348 102.992 155.348Z" fill="#082C4E"/>
<g filter="url(#filter1_dd)">
<path d="M231.801 125.936C264.022 125.936 290.142 99.8155 290.142 67.5945C290.142 35.3735 264.022 9.25327 231.801 9.25327C199.58 9.25327 173.46 35.3735 173.46 67.5945C173.46 99.8155 199.58 125.936 231.801 125.936Z" fill="#FAFCFE"/>
</g>
<path d="M217.189 77.6486C217.189 79.2663 215.878 80.5778 214.26 80.5778C212.642 80.5778 211.331 79.2663 211.331 77.6486C211.331 76.0308 212.642 74.7194 214.26 74.7194C215.878 74.7194 217.189 76.0308 217.189 77.6486Z" fill="#082C4E" stroke="#082C4E" stroke-width="0.799605"/>
<path d="M221.096 65.9208C221.096 67.5386 219.784 68.85 218.167 68.85C216.549 68.85 215.237 67.5386 215.237 65.9208C215.237 64.3031 216.549 62.9916 218.167 62.9916C219.784 62.9916 221.096 64.3031 221.096 65.9208Z" fill="#082C4E" stroke="#082C4E" stroke-width="0.799605"/>
<path d="M208.393 61.0344C208.393 62.6521 207.082 63.9636 205.464 63.9636C203.846 63.9636 202.535 62.6521 202.535 61.0344C202.535 59.4166 203.846 58.1052 205.464 58.1052C207.082 58.1052 208.393 59.4166 208.393 61.0344Z" fill="#082C4E" stroke="#082C4E" stroke-width="0.799605"/>
<path d="M225.002 53.216C225.002 54.8337 223.691 56.1452 222.073 56.1452C220.455 56.1452 219.144 54.8337 219.144 53.216C219.144 51.5982 220.455 50.2868 222.073 50.2868C223.691 50.2868 225.002 51.5982 225.002 53.216Z" fill="#082C4E" stroke="#082C4E" stroke-width="0.799605"/>
<path d="M268.557 56.5482L268.558 56.5482C268.709 56.5479 268.858 56.5773 268.997 56.6349C269.137 56.6924 269.264 56.7768 269.37 56.8834C269.477 56.9899 269.562 57.1165 269.62 57.2558C269.677 57.3952 269.707 57.5445 269.707 57.6953V97.9157C269.707 98.22 269.586 98.5117 269.371 98.7269C269.156 98.942 268.864 99.0629 268.56 99.0629H227.721C227.417 99.0629 227.125 98.942 226.91 98.7269C226.695 98.5118 226.574 98.22 226.574 97.9157V84.182V83.5378L225.996 83.8238L208.247 92.6164C207.975 92.7509 207.661 92.7721 207.373 92.6754C207.085 92.5786 206.848 92.3718 206.712 92.1002L206.712 92.1L188.663 55.9733C188.663 55.9732 188.663 55.973 188.662 55.9728C188.595 55.8379 188.556 55.6911 188.545 55.5407C188.535 55.3901 188.554 55.239 188.603 55.096L188.224 54.9684L188.603 55.096C188.651 54.953 188.727 54.8209 188.826 54.7073C188.925 54.5937 189.046 54.5007 189.181 54.4339L189.181 54.4339L225.946 36.2511L225.947 36.2507C226.082 36.1834 226.229 36.1434 226.38 36.1332C226.531 36.123 226.682 36.1425 226.824 36.1907C227.112 36.2902 227.35 36.498 227.487 36.7701C227.487 36.7705 227.487 36.7709 227.487 36.7713L237.13 56.3252L237.24 56.5482H237.488H268.557ZM208.073 89.6976L208.251 90.0542L208.608 89.8772L226.348 81.0813L226.571 80.9711V80.7231V57.6953C226.571 57.3911 226.692 57.0993 226.907 56.8842C227.122 56.6691 227.414 56.5482 227.718 56.5482H234.039H234.682L234.397 55.9715L226.112 39.1749L225.935 38.816L225.576 38.9934L191.59 55.7993L191.23 55.9772L191.409 56.3363L208.073 89.6976ZM267.01 96.7686H267.41V96.3688V59.2423V58.8425H267.01H229.265H228.865V59.2423V96.3688V96.7686H229.265H267.01Z" fill="#082C4E" stroke="#082C4E" stroke-width="0.799605"/>
<g style="mix-blend-mode:multiply">
<path d="M238.852 69.9866C238.852 71.6044 237.541 72.9158 235.923 72.9158C234.305 72.9158 232.994 71.6044 232.994 69.9866C232.994 68.3689 234.305 67.0574 235.923 67.0574C237.541 67.0574 238.852 68.3689 238.852 69.9866Z" fill="#082C4E"/>
<path d="M238.852 69.9866C238.852 71.6044 237.541 72.9158 235.923 72.9158C234.305 72.9158 232.994 71.6044 232.994 69.9866C232.994 68.3689 234.305 67.0574 235.923 67.0574C237.541 67.0574 238.852 68.3689 238.852 69.9866Z" stroke="#082C4E" stroke-width="0.799605"/>
</g>
<g style="mix-blend-mode:multiply">
<path d="M250.578 69.9866C250.578 71.6044 249.266 72.9158 247.649 72.9158C246.031 72.9158 244.719 71.6044 244.719 69.9866C244.719 68.3689 246.031 67.0574 247.649 67.0574C249.266 67.0574 250.578 68.3689 250.578 69.9866Z" fill="#082C4E"/>
<path d="M250.578 69.9866C250.578 71.6044 249.266 72.9158 247.649 72.9158C246.031 72.9158 244.719 71.6044 244.719 69.9866C244.719 68.3689 246.031 67.0574 247.649 67.0574C249.266 67.0574 250.578 68.3689 250.578 69.9866Z" stroke="#082C4E" stroke-width="0.799605"/>
</g>
<g style="mix-blend-mode:multiply">
<path d="M263.28 70.3096C263.28 71.9273 261.969 73.2388 260.351 73.2388C258.733 73.2388 257.422 71.9273 257.422 70.3096C257.422 68.6918 258.733 67.3804 260.351 67.3804C261.969 67.3804 263.28 68.6918 263.28 70.3096Z" fill="#082C4E"/>
<path d="M263.28 70.3096C263.28 71.9273 261.969 73.2388 260.351 73.2388C258.733 73.2388 257.422 71.9273 257.422 70.3096C257.422 68.6918 258.733 67.3804 260.351 67.3804C261.969 67.3804 263.28 68.6918 263.28 70.3096Z" stroke="#082C4E" stroke-width="0.799605"/>
</g>
<g style="mix-blend-mode:multiply">
<path d="M238.852 85.6211C238.852 87.2388 237.541 88.5503 235.923 88.5503C234.305 88.5503 232.994 87.2388 232.994 85.6211C232.994 84.0033 234.305 82.6919 235.923 82.6919C237.541 82.6919 238.852 84.0033 238.852 85.6211Z" fill="#082C4E"/>
<path d="M238.852 85.6211C238.852 87.2388 237.541 88.5503 235.923 88.5503C234.305 88.5503 232.994 87.2388 232.994 85.6211C232.994 84.0033 234.305 82.6919 235.923 82.6919C237.541 82.6919 238.852 84.0033 238.852 85.6211Z" stroke="#082C4E" stroke-width="0.799605"/>
</g>
<g style="mix-blend-mode:multiply">
<path d="M250.578 85.6211C250.578 87.2388 249.266 88.5503 247.649 88.5503C246.031 88.5503 244.719 87.2388 244.719 85.6211C244.719 84.0033 246.031 82.6919 247.649 82.6919C249.266 82.6919 250.578 84.0033 250.578 85.6211Z" fill="#082C4E"/>
<path d="M250.578 85.6211C250.578 87.2388 249.266 88.5503 247.649 88.5503C246.031 88.5503 244.719 87.2388 244.719 85.6211C244.719 84.0033 246.031 82.6919 247.649 82.6919C249.266 82.6919 250.578 84.0033 250.578 85.6211Z" stroke="#082C4E" stroke-width="0.799605"/>
</g>
<g style="mix-blend-mode:multiply">
<path d="M262.303 85.6211C262.303 87.2388 260.992 88.5503 259.374 88.5503C257.756 88.5503 256.445 87.2388 256.445 85.6211C256.445 84.0033 257.756 82.6919 259.374 82.6919C260.992 82.6919 262.303 84.0033 262.303 85.6211Z" fill="#082C4E"/>
<path d="M262.303 85.6211C262.303 87.2388 260.992 88.5503 259.374 88.5503C257.756 88.5503 256.445 87.2388 256.445 85.6211C256.445 84.0033 257.756 82.6919 259.374 82.6919C260.992 82.6919 262.303 84.0033 262.303 85.6211Z" stroke="#082C4E" stroke-width="0.799605"/>
</g>
<path d="M201.055 147.259V150.486H204.996V151.809H201.055V156.016H199.41V145.936H205.696V147.259H201.055ZM214.66 148.876V156.016H213.75C213.549 156.016 213.421 155.92 213.365 155.729L213.253 155.064C213.104 155.222 212.945 155.367 212.777 155.498C212.614 155.628 212.439 155.74 212.252 155.834C212.065 155.927 211.865 155.999 211.65 156.051C211.44 156.102 211.214 156.128 210.971 156.128C210.579 156.128 210.234 156.062 209.935 155.932C209.636 155.801 209.384 155.617 209.179 155.379C208.978 155.141 208.827 154.856 208.724 154.525C208.621 154.189 208.57 153.82 208.57 153.419V148.876H210.075V153.419C210.075 153.899 210.185 154.273 210.404 154.539C210.628 154.805 210.966 154.938 211.419 154.938C211.75 154.938 212.058 154.863 212.343 154.714C212.632 154.56 212.903 154.35 213.155 154.084V148.876H214.66ZM219.995 149.821C220.149 149.662 220.307 149.52 220.471 149.394C220.639 149.263 220.816 149.151 221.003 149.058C221.189 148.964 221.388 148.892 221.598 148.841C221.808 148.789 222.036 148.764 222.284 148.764C222.676 148.764 223.019 148.829 223.313 148.96C223.611 149.09 223.861 149.275 224.062 149.513C224.267 149.751 224.421 150.038 224.524 150.374C224.626 150.705 224.678 151.071 224.678 151.473V156.016H223.18V151.473C223.18 150.992 223.068 150.619 222.844 150.353C222.624 150.087 222.288 149.954 221.836 149.954C221.5 149.954 221.187 150.031 220.898 150.185C220.613 150.339 220.345 150.549 220.093 150.815V156.016H218.588V148.876H219.498C219.703 148.876 219.834 148.971 219.89 149.163L219.995 149.821ZM229.942 149.821C230.096 149.662 230.255 149.52 230.418 149.394C230.586 149.263 230.764 149.151 230.95 149.058C231.137 148.964 231.335 148.892 231.545 148.841C231.755 148.789 231.984 148.764 232.231 148.764C232.623 148.764 232.966 148.829 233.26 148.96C233.559 149.09 233.809 149.275 234.009 149.513C234.215 149.751 234.369 150.038 234.471 150.374C234.574 150.705 234.625 151.071 234.625 151.473V156.016H233.127V151.473C233.127 150.992 233.015 150.619 232.791 150.353C232.572 150.087 232.236 149.954 231.783 149.954C231.447 149.954 231.135 150.031 230.845 150.185C230.561 150.339 230.292 150.549 230.04 150.815V156.016H228.535V148.876H229.445C229.651 148.876 229.781 148.971 229.837 149.163L229.942 149.821ZM240.051 148.876V156.016H238.546V148.876H240.051ZM240.303 146.72C240.303 146.855 240.275 146.983 240.219 147.105C240.168 147.226 240.095 147.333 240.002 147.427C239.909 147.515 239.799 147.588 239.673 147.644C239.552 147.695 239.421 147.721 239.281 147.721C239.146 147.721 239.017 147.695 238.896 147.644C238.779 147.588 238.677 147.515 238.588 147.427C238.499 147.333 238.427 147.226 238.371 147.105C238.32 146.983 238.294 146.855 238.294 146.72C238.294 146.58 238.32 146.449 238.371 146.328C238.427 146.206 238.499 146.101 238.588 146.013C238.677 145.919 238.779 145.847 238.896 145.796C239.017 145.74 239.146 145.712 239.281 145.712C239.421 145.712 239.552 145.74 239.673 145.796C239.799 145.847 239.909 145.919 240.002 146.013C240.095 146.101 240.168 146.206 240.219 146.328C240.275 146.449 240.303 146.58 240.303 146.72ZM249.089 150.276C249.042 150.336 248.998 150.383 248.956 150.416C248.914 150.448 248.853 150.465 248.774 150.465C248.694 150.465 248.61 150.437 248.522 150.381C248.438 150.325 248.335 150.264 248.214 150.199C248.097 150.129 247.955 150.066 247.787 150.01C247.619 149.954 247.409 149.926 247.157 149.926C246.83 149.926 246.543 149.984 246.296 150.101C246.053 150.217 245.848 150.385 245.68 150.605C245.516 150.819 245.393 151.083 245.309 151.396C245.229 151.704 245.19 152.051 245.19 152.439C245.19 152.84 245.234 153.197 245.323 153.51C245.411 153.822 245.537 154.086 245.701 154.301C245.869 154.515 246.069 154.679 246.303 154.791C246.541 154.903 246.807 154.959 247.101 154.959C247.39 154.959 247.626 154.924 247.808 154.854C247.99 154.784 248.141 154.707 248.263 154.623C248.384 154.539 248.487 154.462 248.571 154.392C248.659 154.322 248.753 154.287 248.851 154.287C248.972 154.287 249.065 154.333 249.131 154.427L249.558 154.98C249.385 155.19 249.194 155.367 248.984 155.512C248.774 155.656 248.552 155.775 248.319 155.869C248.085 155.957 247.843 156.02 247.591 156.058C247.339 156.1 247.084 156.121 246.828 156.121C246.384 156.121 245.969 156.039 245.582 155.876C245.199 155.708 244.863 155.467 244.574 155.155C244.289 154.837 244.063 154.452 243.895 154C243.731 153.542 243.65 153.022 243.65 152.439C243.65 151.911 243.724 151.424 243.874 150.976C244.023 150.523 244.24 150.133 244.525 149.807C244.814 149.48 245.171 149.226 245.596 149.044C246.02 148.857 246.51 148.764 247.066 148.764C247.584 148.764 248.039 148.848 248.431 149.016C248.827 149.184 249.18 149.422 249.488 149.73L249.089 150.276ZM254.373 149.723C254.667 149.433 254.989 149.202 255.339 149.03C255.689 148.852 256.098 148.764 256.564 148.764C256.956 148.764 257.299 148.829 257.593 148.96C257.892 149.09 258.142 149.275 258.342 149.513C258.548 149.751 258.702 150.038 258.804 150.374C258.907 150.705 258.958 151.071 258.958 151.473V156.016H257.46V151.473C257.46 150.992 257.348 150.619 257.124 150.353C256.905 150.087 256.569 149.954 256.116 149.954C255.78 149.954 255.468 150.031 255.178 150.185C254.894 150.339 254.625 150.549 254.373 150.815V156.016H252.868V145.656H254.373V149.723ZM267.499 151.641C267.499 151.389 267.462 151.155 267.387 150.941C267.317 150.721 267.212 150.532 267.072 150.374C266.932 150.21 266.757 150.084 266.547 149.996C266.342 149.902 266.104 149.856 265.833 149.856C265.287 149.856 264.858 150.012 264.545 150.325C264.232 150.637 264.034 151.076 263.95 151.641H267.499ZM263.908 152.565C263.927 152.971 263.99 153.323 264.097 153.622C264.204 153.916 264.347 154.161 264.524 154.357C264.706 154.553 264.921 154.7 265.168 154.798C265.42 154.891 265.7 154.938 266.008 154.938C266.302 154.938 266.556 154.905 266.771 154.84C266.986 154.77 267.172 154.695 267.331 154.616C267.49 154.532 267.625 154.457 267.737 154.392C267.849 154.322 267.952 154.287 268.045 154.287C268.166 154.287 268.26 154.333 268.325 154.427L268.752 154.98C268.575 155.19 268.374 155.367 268.15 155.512C267.926 155.656 267.688 155.775 267.436 155.869C267.184 155.957 266.925 156.02 266.659 156.058C266.393 156.1 266.134 156.121 265.882 156.121C265.387 156.121 264.928 156.039 264.503 155.876C264.083 155.708 263.717 155.463 263.404 155.141C263.096 154.819 262.853 154.42 262.676 153.944C262.503 153.468 262.417 152.919 262.417 152.299C262.417 151.804 262.494 151.342 262.648 150.913C262.807 150.483 263.031 150.11 263.32 149.793C263.614 149.475 263.969 149.226 264.384 149.044C264.804 148.857 265.278 148.764 265.805 148.764C266.244 148.764 266.65 148.836 267.023 148.981C267.396 149.121 267.718 149.328 267.989 149.604C268.26 149.879 268.47 150.217 268.619 150.619C268.773 151.015 268.85 151.468 268.85 151.977C268.85 152.21 268.824 152.366 268.773 152.446C268.722 152.525 268.628 152.565 268.493 152.565H263.908Z" fill="#082C4E"/>
<g filter="url(#filter2_dd)">
<path d="M395.409 126.229C427.711 126.229 453.897 100.043 453.897 67.7413C453.897 35.4392 427.711 9.25327 395.409 9.25327C363.107 9.25327 336.921 35.4392 336.921 67.7413C336.921 100.043 363.107 126.229 395.409 126.229Z" fill="#FAFCFE"/>
</g>
<path d="M406.017 29.2605H384.802C380.584 29.2605 377.165 32.6793 377.165 36.8968V70.2954C377.165 74.5128 380.584 77.9317 384.802 77.9317H406.017C410.234 77.9317 413.653 74.5128 413.653 70.2954V36.8968C413.653 32.6793 410.234 29.2605 406.017 29.2605Z" fill="#082C4E" stroke="#082C4E" stroke-linecap="round" stroke-linejoin="round"/>
<path d="M398.579 77.3444V104.837H392.239V77.3444" fill="#082C4E"/>
<path d="M398.579 77.3444V104.837H392.239V77.3444" stroke="#082C4E" stroke-width="6" stroke-linecap="round" stroke-linejoin="round"/>
<path d="M366.289 152.529L364.903 148.847C364.791 148.563 364.677 148.201 364.56 147.762C364.509 147.982 364.453 148.185 364.392 148.371C364.332 148.553 364.276 148.714 364.224 148.854L362.838 152.529H366.289ZM369.39 156.309H368.123C367.979 156.309 367.862 156.274 367.773 156.204C367.685 156.13 367.617 156.039 367.57 155.931L366.73 153.705H362.39L361.55 155.931C361.513 156.025 361.448 156.111 361.354 156.19C361.261 156.27 361.144 156.309 361.004 156.309H359.737L363.734 146.229H365.393L369.39 156.309ZM378.652 150.352V154.405C378.652 154.662 378.715 154.858 378.841 154.993C378.967 155.129 379.135 155.196 379.345 155.196C379.462 155.196 379.562 155.182 379.646 155.154C379.73 155.122 379.803 155.089 379.863 155.056C379.924 155.019 379.975 154.986 380.017 154.958C380.064 154.926 380.108 154.909 380.15 154.909C380.234 154.909 380.302 154.956 380.353 155.049L380.801 155.784C380.568 155.99 380.293 156.148 379.975 156.26C379.658 156.368 379.331 156.421 378.995 156.421C378.403 156.421 377.945 156.256 377.623 155.924C377.306 155.588 377.147 155.117 377.147 154.51V150.352H374.06V156.309H372.555V150.366L371.855 150.268C371.739 150.245 371.643 150.203 371.568 150.142C371.498 150.082 371.463 149.995 371.463 149.883V149.267H372.555V148.665C372.555 148.259 372.614 147.895 372.73 147.573C372.852 147.251 373.022 146.978 373.241 146.754C373.465 146.53 373.736 146.36 374.053 146.243C374.371 146.122 374.728 146.061 375.124 146.061C375.288 146.061 375.442 146.073 375.586 146.096C375.736 146.12 375.88 146.155 376.02 146.201L375.992 146.957C375.983 147.083 375.92 147.158 375.803 147.181C375.691 147.205 375.549 147.216 375.376 147.216C375.166 147.216 374.977 147.242 374.809 147.293C374.641 147.34 374.497 147.422 374.375 147.538C374.259 147.655 374.168 147.809 374.102 148C374.042 148.192 374.011 148.43 374.011 148.714V149.267H377.203L377.539 147.188C377.563 147.109 377.602 147.046 377.658 146.999C377.714 146.948 377.789 146.922 377.882 146.922H378.652V149.267H380.633V150.352H378.652ZM388.549 151.934C388.549 151.682 388.511 151.449 388.437 151.234C388.367 151.015 388.262 150.826 388.122 150.667C387.982 150.504 387.807 150.378 387.597 150.289C387.391 150.196 387.153 150.149 386.883 150.149C386.337 150.149 385.907 150.306 385.595 150.618C385.282 150.931 385.084 151.37 385 151.934H388.549ZM384.958 152.858C384.976 153.264 385.039 153.617 385.147 153.915C385.254 154.209 385.396 154.454 385.574 154.65C385.756 154.846 385.97 154.993 386.218 155.091C386.47 155.185 386.75 155.231 387.058 155.231C387.352 155.231 387.606 155.199 387.821 155.133C388.035 155.063 388.222 154.989 388.381 154.909C388.539 154.825 388.675 154.751 388.787 154.685C388.899 154.615 389.001 154.58 389.095 154.58C389.216 154.58 389.309 154.627 389.375 154.72L389.802 155.273C389.624 155.483 389.424 155.661 389.2 155.805C388.976 155.95 388.738 156.069 388.486 156.162C388.234 156.251 387.975 156.314 387.709 156.351C387.443 156.393 387.184 156.414 386.932 156.414C386.437 156.414 385.977 156.333 385.553 156.169C385.133 156.001 384.766 155.756 384.454 155.434C384.146 155.112 383.903 154.713 383.726 154.237C383.553 153.761 383.467 153.213 383.467 152.592C383.467 152.098 383.544 151.636 383.698 151.206C383.856 150.777 384.08 150.404 384.37 150.086C384.664 149.769 385.018 149.519 385.434 149.337C385.854 149.151 386.327 149.057 386.855 149.057C387.293 149.057 387.699 149.13 388.073 149.274C388.446 149.414 388.768 149.622 389.039 149.897C389.309 150.173 389.519 150.511 389.669 150.912C389.823 151.309 389.9 151.762 389.9 152.27C389.9 152.504 389.874 152.66 389.823 152.739C389.771 152.819 389.678 152.858 389.543 152.858H384.958ZM394.824 150.492C395.048 150.04 395.319 149.685 395.636 149.428C395.954 149.167 396.334 149.036 396.777 149.036C396.931 149.036 397.076 149.055 397.211 149.092C397.347 149.125 397.468 149.176 397.575 149.246L397.47 150.38C397.452 150.46 397.421 150.516 397.379 150.548C397.342 150.576 397.291 150.59 397.225 150.59C397.155 150.59 397.055 150.579 396.924 150.555C396.794 150.527 396.656 150.513 396.511 150.513C396.301 150.513 396.115 150.544 395.951 150.604C395.793 150.665 395.648 150.754 395.517 150.87C395.391 150.987 395.279 151.129 395.181 151.297C395.083 151.465 394.992 151.657 394.908 151.871V156.309H393.403V149.169H394.278C394.437 149.169 394.547 149.2 394.607 149.26C394.668 149.316 394.71 149.417 394.733 149.561L394.824 150.492ZM412.75 147.594H409.607V156.309H407.976V147.594H404.826V146.229H412.75V147.594ZM417.355 150.016C417.649 149.727 417.971 149.496 418.321 149.323C418.671 149.146 419.079 149.057 419.546 149.057C419.938 149.057 420.281 149.123 420.575 149.253C420.873 149.384 421.123 149.568 421.324 149.806C421.529 150.044 421.683 150.331 421.786 150.667C421.888 150.999 421.94 151.365 421.94 151.766V156.309H420.442V151.766C420.442 151.286 420.33 150.912 420.106 150.646C419.886 150.38 419.55 150.247 419.098 150.247C418.762 150.247 418.449 150.324 418.16 150.478C417.875 150.632 417.607 150.842 417.355 151.108V156.309H415.85V145.949H417.355V150.016ZM430.48 151.934C430.48 151.682 430.443 151.449 430.368 151.234C430.298 151.015 430.193 150.826 430.053 150.667C429.913 150.504 429.738 150.378 429.528 150.289C429.323 150.196 429.085 150.149 428.814 150.149C428.268 150.149 427.839 150.306 427.526 150.618C427.214 150.931 427.015 151.37 426.931 151.934H430.48ZM426.889 152.858C426.908 153.264 426.971 153.617 427.078 153.915C427.186 154.209 427.328 154.454 427.505 154.65C427.687 154.846 427.902 154.993 428.149 155.091C428.401 155.185 428.681 155.231 428.989 155.231C429.283 155.231 429.538 155.199 429.752 155.133C429.967 155.063 430.154 154.989 430.312 154.909C430.471 154.825 430.606 154.751 430.718 154.685C430.83 154.615 430.933 154.58 431.026 154.58C431.148 154.58 431.241 154.627 431.306 154.72L431.733 155.273C431.556 155.483 431.355 155.661 431.131 155.805C430.907 155.95 430.669 156.069 430.417 156.162C430.165 156.251 429.906 156.314 429.64 156.351C429.374 156.393 429.115 156.414 428.863 156.414C428.369 156.414 427.909 156.333 427.484 156.169C427.064 156.001 426.698 155.756 426.385 155.434C426.077 155.112 425.835 154.713 425.657 154.237C425.485 153.761 425.398 153.213 425.398 152.592C425.398 152.098 425.475 151.636 425.629 151.206C425.788 150.777 426.012 150.404 426.301 150.086C426.595 149.769 426.95 149.519 427.365 149.337C427.785 149.151 428.259 149.057 428.786 149.057C429.225 149.057 429.631 149.13 430.004 149.274C430.378 149.414 430.7 149.622 430.97 149.897C431.241 150.173 431.451 150.511 431.6 150.912C431.754 151.309 431.831 151.762 431.831 152.27C431.831 152.504 431.806 152.66 431.754 152.739C431.703 152.819 431.61 152.858 431.474 152.858H426.889ZM377.409 164.951C377.357 165.035 377.304 165.098 377.248 165.14C377.192 165.178 377.122 165.196 377.038 165.196C376.949 165.196 376.849 165.159 376.737 165.084C376.629 165.01 376.494 164.928 376.331 164.839C376.172 164.746 375.983 164.662 375.764 164.587C375.544 164.508 375.283 164.468 374.98 164.468C374.7 164.468 374.452 164.503 374.238 164.573C374.028 164.643 373.85 164.741 373.706 164.867C373.561 164.993 373.451 165.143 373.377 165.315C373.307 165.483 373.272 165.668 373.272 165.868C373.272 166.125 373.339 166.34 373.475 166.512C373.61 166.68 373.787 166.825 374.007 166.946C374.231 167.068 374.485 167.175 374.77 167.268C375.054 167.357 375.344 167.453 375.638 167.555C375.936 167.658 376.228 167.775 376.513 167.905C376.797 168.036 377.049 168.202 377.269 168.402C377.493 168.603 377.672 168.848 377.808 169.137C377.943 169.427 378.011 169.779 378.011 170.194C378.011 170.642 377.934 171.062 377.78 171.454C377.626 171.846 377.402 172.189 377.108 172.483C376.818 172.773 376.459 173.001 376.03 173.169C375.605 173.337 375.12 173.421 374.574 173.421C374.252 173.421 373.937 173.389 373.629 173.323C373.325 173.263 373.034 173.176 372.754 173.064C372.478 172.948 372.219 172.808 371.977 172.644C371.734 172.481 371.517 172.299 371.326 172.098L371.802 171.314C371.844 171.249 371.897 171.198 371.963 171.16C372.028 171.123 372.1 171.104 372.18 171.104C372.287 171.104 372.406 171.156 372.537 171.258C372.667 171.356 372.824 171.466 373.006 171.587C373.192 171.704 373.416 171.814 373.678 171.916C373.939 172.014 374.252 172.063 374.616 172.063C375.208 172.063 375.666 171.919 375.988 171.629C376.314 171.34 376.478 170.941 376.478 170.432C376.478 170.148 376.41 169.917 376.275 169.739C376.139 169.557 375.96 169.406 375.736 169.284C375.516 169.163 375.264 169.06 374.98 168.976C374.695 168.892 374.406 168.804 374.112 168.71C373.818 168.612 373.528 168.5 373.244 168.374C372.959 168.244 372.705 168.076 372.481 167.87C372.261 167.66 372.084 167.404 371.949 167.1C371.813 166.792 371.746 166.41 371.746 165.952C371.746 165.588 371.816 165.236 371.956 164.895C372.1 164.555 372.308 164.254 372.579 163.992C372.854 163.726 373.192 163.514 373.594 163.355C373.995 163.197 374.452 163.117 374.966 163.117C375.544 163.117 376.074 163.208 376.555 163.39C377.04 163.572 377.458 163.831 377.808 164.167L377.409 164.951ZM387.484 166.169V173.309H386.574C386.373 173.309 386.245 173.214 386.189 173.022L386.077 172.357C385.927 172.516 385.769 172.661 385.601 172.791C385.437 172.922 385.262 173.034 385.076 173.127C384.889 173.221 384.688 173.293 384.474 173.344C384.264 173.396 384.037 173.421 383.795 173.421C383.403 173.421 383.057 173.356 382.759 173.225C382.46 173.095 382.208 172.91 382.003 172.672C381.802 172.434 381.65 172.15 381.548 171.818C381.445 171.482 381.394 171.114 381.394 170.712V166.169H382.899V170.712C382.899 171.193 383.008 171.566 383.228 171.832C383.452 172.098 383.79 172.231 384.243 172.231C384.574 172.231 384.882 172.157 385.167 172.007C385.456 171.853 385.727 171.643 385.979 171.377V166.169H387.484ZM392.818 167.114C392.972 166.956 393.131 166.813 393.294 166.687C393.462 166.557 393.64 166.445 393.826 166.351C394.013 166.258 394.211 166.186 394.421 166.134C394.631 166.083 394.86 166.057 395.107 166.057C395.499 166.057 395.842 166.123 396.136 166.253C396.435 166.384 396.685 166.568 396.885 166.806C397.091 167.044 397.245 167.331 397.347 167.667C397.45 167.999 397.501 168.365 397.501 168.766V173.309H396.003V168.766C396.003 168.286 395.891 167.912 395.667 167.646C395.448 167.38 395.112 167.247 394.659 167.247C394.323 167.247 394.011 167.324 393.721 167.478C393.437 167.632 393.168 167.842 392.916 168.108V173.309H391.411V166.169H392.321C392.527 166.169 392.657 166.265 392.713 166.456L392.818 167.114ZM405.622 167.464C405.585 167.53 405.543 167.576 405.496 167.604C405.449 167.632 405.391 167.646 405.321 167.646C405.242 167.646 405.155 167.623 405.062 167.576C404.969 167.525 404.859 167.469 404.733 167.408C404.607 167.348 404.458 167.294 404.285 167.247C404.117 167.196 403.919 167.17 403.69 167.17C403.503 167.17 403.333 167.194 403.179 167.24C403.03 167.282 402.901 167.345 402.794 167.429C402.691 167.509 402.612 167.604 402.556 167.716C402.5 167.824 402.472 167.94 402.472 168.066C402.472 168.234 402.523 168.374 402.626 168.486C402.729 168.598 402.864 168.696 403.032 168.78C403.2 168.86 403.391 168.932 403.606 168.997C403.821 169.063 404.04 169.133 404.264 169.207C404.488 169.282 404.707 169.368 404.922 169.466C405.137 169.564 405.328 169.686 405.496 169.83C405.664 169.97 405.799 170.143 405.902 170.348C406.005 170.549 406.056 170.794 406.056 171.083C406.056 171.419 405.995 171.73 405.874 172.014C405.753 172.299 405.575 172.546 405.342 172.756C405.109 172.966 404.817 173.13 404.467 173.246C404.122 173.363 403.725 173.421 403.277 173.421C403.03 173.421 402.789 173.398 402.556 173.351C402.327 173.309 402.108 173.251 401.898 173.176C401.693 173.097 401.499 173.004 401.317 172.896C401.14 172.789 400.981 172.672 400.841 172.546L401.191 171.972C401.233 171.902 401.284 171.849 401.345 171.811C401.41 171.769 401.49 171.748 401.583 171.748C401.681 171.748 401.777 171.781 401.87 171.846C401.968 171.907 402.08 171.975 402.206 172.049C402.337 172.124 402.493 172.194 402.675 172.259C402.857 172.32 403.083 172.35 403.354 172.35C403.578 172.35 403.772 172.325 403.935 172.273C404.098 172.217 404.234 172.143 404.341 172.049C404.448 171.956 404.528 171.851 404.579 171.734C404.63 171.613 404.656 171.485 404.656 171.349C404.656 171.167 404.605 171.018 404.502 170.901C404.399 170.785 404.262 170.684 404.089 170.6C403.921 170.516 403.727 170.442 403.508 170.376C403.293 170.311 403.074 170.241 402.85 170.166C402.626 170.092 402.404 170.005 402.185 169.907C401.97 169.809 401.777 169.686 401.604 169.536C401.436 169.382 401.301 169.198 401.198 168.983C401.095 168.764 401.044 168.498 401.044 168.185C401.044 167.901 401.1 167.63 401.212 167.373C401.329 167.117 401.497 166.89 401.716 166.694C401.94 166.498 402.213 166.344 402.535 166.232C402.862 166.116 403.237 166.057 403.662 166.057C404.143 166.057 404.579 166.134 404.971 166.288C405.363 166.442 405.692 166.652 405.958 166.918L405.622 167.464ZM414.253 168.934C414.253 168.682 414.216 168.449 414.141 168.234C414.071 168.015 413.966 167.826 413.826 167.667C413.686 167.504 413.511 167.378 413.301 167.289C413.096 167.196 412.858 167.149 412.587 167.149C412.041 167.149 411.612 167.306 411.299 167.618C410.987 167.931 410.788 168.37 410.704 168.934H414.253ZM410.662 169.858C410.681 170.264 410.744 170.617 410.851 170.915C410.959 171.209 411.101 171.454 411.278 171.65C411.46 171.846 411.675 171.993 411.922 172.091C412.174 172.185 412.454 172.231 412.762 172.231C413.056 172.231 413.311 172.199 413.525 172.133C413.74 172.063 413.927 171.989 414.085 171.909C414.244 171.825 414.379 171.751 414.491 171.685C414.603 171.615 414.706 171.58 414.799 171.58C414.921 171.58 415.014 171.627 415.079 171.72L415.506 172.273C415.329 172.483 415.128 172.661 414.904 172.805C414.68 172.95 414.442 173.069 414.19 173.162C413.938 173.251 413.679 173.314 413.413 173.351C413.147 173.393 412.888 173.414 412.636 173.414C412.142 173.414 411.682 173.333 411.257 173.169C410.837 173.001 410.471 172.756 410.158 172.434C409.85 172.112 409.608 171.713 409.43 171.237C409.258 170.761 409.171 170.213 409.171 169.592C409.171 169.098 409.248 168.636 409.402 168.206C409.561 167.777 409.785 167.404 410.074 167.086C410.368 166.769 410.723 166.519 411.138 166.337C411.558 166.151 412.032 166.057 412.559 166.057C412.998 166.057 413.404 166.13 413.777 166.274C414.151 166.414 414.473 166.622 414.743 166.897C415.014 167.173 415.224 167.511 415.373 167.912C415.527 168.309 415.604 168.762 415.604 169.27C415.604 169.504 415.579 169.66 415.527 169.739C415.476 169.819 415.383 169.858 415.247 169.858H410.662ZM421.328 173.421C420.736 173.421 420.278 173.256 419.956 172.924C419.639 172.588 419.48 172.117 419.48 171.51V167.352H418.696C418.612 167.352 418.54 167.327 418.479 167.275C418.419 167.219 418.388 167.138 418.388 167.03V166.421L419.543 166.253L419.872 164.188C419.896 164.109 419.935 164.046 419.991 163.999C420.047 163.948 420.122 163.922 420.215 163.922H420.985V166.267H422.966V167.352H420.985V171.405C420.985 171.662 421.048 171.858 421.174 171.993C421.3 172.129 421.468 172.196 421.678 172.196C421.795 172.196 421.895 172.182 421.979 172.154C422.063 172.122 422.136 172.089 422.196 172.056C422.257 172.019 422.308 171.986 422.35 171.958C422.397 171.926 422.441 171.909 422.483 171.909C422.567 171.909 422.635 171.956 422.686 172.049L423.134 172.784C422.901 172.99 422.626 173.148 422.308 173.26C421.991 173.368 421.664 173.421 421.328 173.421Z" fill="#082C4E"/>
<path d="M388.102 33.7035C388.102 32.7185 387.247 31.92 386.192 31.92C385.137 31.92 384.282 32.7185 384.282 33.7035V37.6084C384.282 38.5934 385.137 39.3919 386.192 39.3919C387.247 39.3919 388.102 38.5934 388.102 37.6084V33.7035Z" fill="#FAFCFE"/>
<path d="M396.789 33.7035C396.789 32.7185 395.934 31.92 394.88 31.92C393.825 31.92 392.97 32.7185 392.97 33.7035V37.6084C392.97 38.5934 393.825 39.3919 394.88 39.3919C395.934 39.3919 396.789 38.5934 396.789 37.6084V33.7035Z" fill="#FAFCFE"/>
<path d="M405.475 33.7035C405.475 32.7185 404.62 31.92 403.565 31.92C402.51 31.92 401.656 32.7185 401.656 33.7035V37.6084C401.656 38.5934 402.51 39.3919 403.565 39.3919C404.62 39.3919 405.475 38.5934 405.475 37.6084V33.7035Z" fill="#FAFCFE"/>
<path d="M408.301 48.0687H382.36C381.338 48.0687 380.51 48.8422 380.51 49.7964V49.7995C380.51 50.7536 381.338 51.5271 382.36 51.5271H408.301C409.323 51.5271 410.151 50.7536 410.151 49.7995V49.7964C410.151 48.8422 409.323 48.0687 408.301 48.0687Z" fill="#FAFCFE"/>
<path d="M408.301 56.0493H382.36C381.338 56.0493 380.51 56.8227 380.51 57.7769V57.78C380.51 58.7341 381.338 59.5076 382.36 59.5076H408.301C409.323 59.5076 410.151 58.7341 410.151 57.78V57.7769C410.151 56.8227 409.323 56.0493 408.301 56.0493Z" fill="#FAFCFE"/>
<path d="M408.301 64.0267H382.36C381.338 64.0267 380.51 64.8002 380.51 65.7543V65.7574C380.51 66.7115 381.338 67.485 382.36 67.485H408.301C409.323 67.485 410.151 66.7115 410.151 65.7574V65.7543C410.151 64.8002 409.323 64.0267 408.301 64.0267Z" fill="#FAFCFE"/>
<g filter="url(#filter3_dd)">
<path d="M559.05 126.591C591.452 126.591 617.719 100.324 617.719 67.9222C617.719 35.5202 591.452 9.25327 559.05 9.25327C526.648 9.25327 500.381 35.5202 500.381 67.9222C500.381 100.324 526.648 126.591 559.05 126.591Z" fill="#FAFCFE"/>
</g>
<path d="M528.86 73.6356L528.86 73.6241L528.86 73.6125L528.686 53.338L538.794 53.2515L538.95 73.5257L538.95 73.5374L538.951 73.5492C538.996 74.236 538.901 74.9249 538.671 75.5737C538.441 76.2225 538.081 76.8175 537.613 77.3221C537.145 77.8268 536.579 78.2305 535.949 78.5085C535.319 78.7865 534.639 78.9329 533.951 78.9388C533.263 78.9447 532.58 78.81 531.946 78.5428L531.791 78.9112L531.946 78.5428C531.312 78.2756 530.739 77.8817 530.262 77.3851C529.785 76.8886 529.415 76.2999 529.174 75.6551C528.933 75.0104 528.826 74.3232 528.86 73.6356Z" fill="#082C4E" stroke="#082C4E" stroke-width="0.799605"/>
<path d="M589.339 63.5779L589.6 94.473L578.708 94.5657L578.456 63.5779H589.339ZM589.329 62.7783H578.397C577.508 57.2688 573.075 52.7061 567.472 52.2573L567.455 52.256L567.438 52.2561L539.587 52.4462L539.491 41.3944L566.937 41.1613C566.937 41.1613 566.937 41.1613 566.937 41.1613C572.827 41.1117 578.496 43.4036 582.696 47.5331C586.801 51.5682 589.175 57.035 589.329 62.7783Z" fill="#082C4E" stroke="#082C4E" stroke-width="0.799605"/>
<path d="M546.222 146.591V156.671H545.389C545.263 156.671 545.155 156.65 545.067 156.608C544.978 156.561 544.894 156.487 544.815 156.384L539.278 149.272C539.292 149.407 539.301 149.543 539.306 149.678C539.315 149.809 539.32 149.93 539.32 150.042V156.671H537.878V146.591H538.732C538.802 146.591 538.86 146.596 538.907 146.605C538.958 146.61 539.005 146.621 539.047 146.64C539.089 146.659 539.128 146.687 539.166 146.724C539.203 146.761 539.243 146.808 539.285 146.864L544.829 153.983C544.815 153.838 544.803 153.696 544.794 153.556C544.789 153.416 544.787 153.285 544.787 153.164V146.591H546.222ZM554.908 152.296C554.908 152.044 554.871 151.811 554.796 151.596C554.726 151.377 554.621 151.188 554.481 151.029C554.341 150.866 554.166 150.74 553.956 150.651C553.751 150.558 553.513 150.511 553.242 150.511C552.696 150.511 552.267 150.667 551.954 150.98C551.641 151.293 551.443 151.731 551.359 152.296H554.908ZM551.317 153.22C551.336 153.626 551.399 153.978 551.506 154.277C551.613 154.571 551.756 154.816 551.933 155.012C552.115 155.208 552.33 155.355 552.577 155.453C552.829 155.546 553.109 155.593 553.417 155.593C553.711 155.593 553.965 155.56 554.18 155.495C554.395 155.425 554.581 155.35 554.74 155.271C554.899 155.187 555.034 155.112 555.146 155.047C555.258 154.977 555.361 154.942 555.454 154.942C555.575 154.942 555.669 154.989 555.734 155.082L556.161 155.635C555.984 155.845 555.783 156.022 555.559 156.167C555.335 156.312 555.097 156.431 554.845 156.524C554.593 156.613 554.334 156.676 554.068 156.713C553.802 156.755 553.543 156.776 553.291 156.776C552.796 156.776 552.337 156.694 551.912 156.531C551.492 156.363 551.126 156.118 550.813 155.796C550.505 155.474 550.262 155.075 550.085 154.599C549.912 154.123 549.826 153.575 549.826 152.954C549.826 152.459 549.903 151.997 550.057 151.568C550.216 151.139 550.44 150.765 550.729 150.448C551.023 150.131 551.378 149.881 551.793 149.699C552.213 149.512 552.687 149.419 553.214 149.419C553.653 149.419 554.059 149.491 554.432 149.636C554.805 149.776 555.127 149.984 555.398 150.259C555.669 150.534 555.879 150.873 556.028 151.274C556.182 151.671 556.259 152.123 556.259 152.632C556.259 152.865 556.233 153.022 556.182 153.101C556.131 153.18 556.037 153.22 555.902 153.22H551.317ZM565.799 156.671H564.357C564.24 156.671 564.147 156.641 564.077 156.58C564.012 156.519 563.958 156.452 563.916 156.377L562.271 153.738C562.229 153.897 562.173 154.034 562.103 154.151L560.612 156.377C560.561 156.452 560.502 156.519 560.437 156.58C560.376 156.641 560.295 156.671 560.192 156.671H558.848L561.319 152.989L558.946 149.531H560.388C560.505 149.531 560.589 149.55 560.64 149.587C560.696 149.62 560.745 149.671 560.787 149.741L562.404 152.261C562.446 152.107 562.511 151.96 562.6 151.82L563.965 149.769C564.058 149.61 564.177 149.531 564.322 149.531H565.701L563.328 152.926L565.799 156.671ZM574.937 149.531V156.671H574.027C573.827 156.671 573.698 156.575 573.642 156.384L573.53 155.719C573.381 155.878 573.222 156.022 573.054 156.153C572.891 156.284 572.716 156.396 572.529 156.489C572.343 156.582 572.142 156.655 571.927 156.706C571.717 156.757 571.491 156.783 571.248 156.783C570.856 156.783 570.511 156.718 570.212 156.587C569.914 156.456 569.662 156.272 569.456 156.034C569.256 155.796 569.104 155.511 569.001 155.18C568.899 154.844 568.847 154.475 568.847 154.074V149.531H570.352V154.074C570.352 154.555 570.462 154.928 570.681 155.194C570.905 155.46 571.244 155.593 571.696 155.593C572.028 155.593 572.336 155.518 572.62 155.369C572.91 155.215 573.18 155.005 573.432 154.739V149.531H574.937ZM583.128 150.826C583.091 150.891 583.049 150.938 583.002 150.966C582.955 150.994 582.897 151.008 582.827 151.008C582.748 151.008 582.661 150.985 582.568 150.938C582.475 150.887 582.365 150.831 582.239 150.77C582.113 150.709 581.964 150.656 581.791 150.609C581.623 150.558 581.425 150.532 581.196 150.532C581.009 150.532 580.839 150.555 580.685 150.602C580.536 150.644 580.407 150.707 580.3 150.791C580.197 150.87 580.118 150.966 580.062 151.078C580.006 151.185 579.978 151.302 579.978 151.428C579.978 151.596 580.029 151.736 580.132 151.848C580.235 151.96 580.37 152.058 580.538 152.142C580.706 152.221 580.897 152.294 581.112 152.359C581.327 152.424 581.546 152.494 581.77 152.569C581.994 152.644 582.213 152.73 582.428 152.828C582.643 152.926 582.834 153.047 583.002 153.192C583.17 153.332 583.305 153.505 583.408 153.71C583.511 153.911 583.562 154.156 583.562 154.445C583.562 154.781 583.501 155.091 583.38 155.376C583.259 155.661 583.081 155.908 582.848 156.118C582.615 156.328 582.323 156.491 581.973 156.608C581.628 156.725 581.231 156.783 580.783 156.783C580.536 156.783 580.295 156.76 580.062 156.713C579.833 156.671 579.614 156.613 579.404 156.538C579.199 156.459 579.005 156.365 578.823 156.258C578.646 156.151 578.487 156.034 578.347 155.908L578.697 155.334C578.739 155.264 578.79 155.21 578.851 155.173C578.916 155.131 578.996 155.11 579.089 155.11C579.187 155.11 579.283 155.143 579.376 155.208C579.474 155.269 579.586 155.336 579.712 155.411C579.843 155.486 579.999 155.556 580.181 155.621C580.363 155.682 580.589 155.712 580.86 155.712C581.084 155.712 581.278 155.686 581.441 155.635C581.604 155.579 581.74 155.504 581.847 155.411C581.954 155.318 582.034 155.213 582.085 155.096C582.136 154.975 582.162 154.846 582.162 154.711C582.162 154.529 582.111 154.38 582.008 154.263C581.905 154.146 581.768 154.046 581.595 153.962C581.427 153.878 581.233 153.803 581.014 153.738C580.799 153.673 580.58 153.603 580.356 153.528C580.132 153.453 579.91 153.367 579.691 153.269C579.476 153.171 579.283 153.047 579.11 152.898C578.942 152.744 578.807 152.56 578.704 152.345C578.601 152.126 578.55 151.86 578.55 151.547C578.55 151.262 578.606 150.992 578.718 150.735C578.835 150.478 579.003 150.252 579.222 150.056C579.446 149.86 579.719 149.706 580.041 149.594C580.368 149.477 580.743 149.419 581.168 149.419C581.649 149.419 582.085 149.496 582.477 149.65C582.869 149.804 583.198 150.014 583.464 150.28L583.128 150.826Z" fill="#082C4E"/>
<defs>
<filter id="filter0_dd" x="0.887617" y="0.140882" width="135.311" height="135.311" filterUnits="userSpaceOnUse" color-interpolation-filters="sRGB">
<feFlood flood-opacity="0" result="BackgroundImageFix"/>
<feColorMatrix in="SourceAlpha" type="matrix" values="0 0 0 0 0 0 0 0 0 0 0 0 0 0 0 0 0 0 127 0"/>
<feOffset dx="-3.03746" dy="-3.03746"/>
<feGaussianBlur stdDeviation="3.03746"/>
<feColorMatrix type="matrix" values="0 0 0 0 0 0 0 0 0 0 0 0 0 0 0 0 0 0 0.05 0"/>
<feBlend mode="normal" in2="BackgroundImageFix" result="effect1_dropShadow"/>
<feColorMatrix in="SourceAlpha" type="matrix" values="0 0 0 0 0 0 0 0 0 0 0 0 0 0 0 0 0 0 127 0"/>
<feOffset dx="3.03746" dy="3.03746"/>
<feGaussianBlur stdDeviation="3.03746"/>
<feColorMatrix type="matrix" values="0 0 0 0 0 0 0 0 0 0 0 0 0 0 0 0 0 0 0.05 0"/>
<feBlend mode="normal" in2="effect1_dropShadow" result="effect2_dropShadow"/>
<feBlend mode="normal" in="SourceGraphic" in2="effect2_dropShadow" result="shape"/>
</filter>
<filter id="filter1_dd" x="164.347" y="0.140882" width="134.907" height="134.907" filterUnits="userSpaceOnUse" color-interpolation-filters="sRGB">
<feFlood flood-opacity="0" result="BackgroundImageFix"/>
<feColorMatrix in="SourceAlpha" type="matrix" values="0 0 0 0 0 0 0 0 0 0 0 0 0 0 0 0 0 0 127 0"/>
<feOffset dx="-3.03746" dy="-3.03746"/>
<feGaussianBlur stdDeviation="3.03746"/>
<feColorMatrix type="matrix" values="0 0 0 0 0 0 0 0 0 0 0 0 0 0 0 0 0 0 0.05 0"/>
<feBlend mode="normal" in2="BackgroundImageFix" result="effect1_dropShadow"/>
<feColorMatrix in="SourceAlpha" type="matrix" values="0 0 0 0 0 0 0 0 0 0 0 0 0 0 0 0 0 0 127 0"/>
<feOffset dx="3.03746" dy="3.03746"/>
<feGaussianBlur stdDeviation="3.03746"/>
<feColorMatrix type="matrix" values="0 0 0 0 0 0 0 0 0 0 0 0 0 0 0 0 0 0 0.05 0"/>
<feBlend mode="normal" in2="effect1_dropShadow" result="effect2_dropShadow"/>
<feBlend mode="normal" in="SourceGraphic" in2="effect2_dropShadow" result="shape"/>
</filter>
<filter id="filter2_dd" x="327.809" y="0.140882" width="135.201" height="135.201" filterUnits="userSpaceOnUse" color-interpolation-filters="sRGB">
<feFlood flood-opacity="0" result="BackgroundImageFix"/>
<feColorMatrix in="SourceAlpha" type="matrix" values="0 0 0 0 0 0 0 0 0 0 0 0 0 0 0 0 0 0 127 0"/>
<feOffset dx="-3.03746" dy="-3.03746"/>
<feGaussianBlur stdDeviation="3.03746"/>
<feColorMatrix type="matrix" values="0 0 0 0 0 0 0 0 0 0 0 0 0 0 0 0 0 0 0.05 0"/>
<feBlend mode="normal" in2="BackgroundImageFix" result="effect1_dropShadow"/>
<feColorMatrix in="SourceAlpha" type="matrix" values="0 0 0 0 0 0 0 0 0 0 0 0 0 0 0 0 0 0 127 0"/>
<feOffset dx="3.03746" dy="3.03746"/>
<feGaussianBlur stdDeviation="3.03746"/>
<feColorMatrix type="matrix" values="0 0 0 0 0 0 0 0 0 0 0 0 0 0 0 0 0 0 0.05 0"/>
<feBlend mode="normal" in2="effect1_dropShadow" result="effect2_dropShadow"/>
<feBlend mode="normal" in="SourceGraphic" in2="effect2_dropShadow" result="shape"/>
</filter>
<filter id="filter3_dd" x="491.268" y="0.140882" width="135.563" height="135.563" filterUnits="userSpaceOnUse" color-interpolation-filters="sRGB">
<feFlood flood-opacity="0" result="BackgroundImageFix"/>
<feColorMatrix in="SourceAlpha" type="matrix" values="0 0 0 0 0 0 0 0 0 0 0 0 0 0 0 0 0 0 127 0"/>
<feOffset dx="-3.03746" dy="-3.03746"/>
<feGaussianBlur stdDeviation="3.03746"/>
<feColorMatrix type="matrix" values="0 0 0 0 0 0 0 0 0 0 0 0 0 0 0 0 0 0 0.05 0"/>
<feBlend mode="normal" in2="BackgroundImageFix" result="effect1_dropShadow"/>
<feColorMatrix in="SourceAlpha" type="matrix" values="0 0 0 0 0 0 0 0 0 0 0 0 0 0 0 0 0 0 127 0"/>
<feOffset dx="3.03746" dy="3.03746"/>
<feGaussianBlur stdDeviation="3.03746"/>
<feColorMatrix type="matrix" values="0 0 0 0 0 0 0 0 0 0 0 0 0 0 0 0 0 0 0.05 0"/>
<feBlend mode="normal" in2="effect1_dropShadow" result="effect2_dropShadow"/>
<feBlend mode="normal" in="SourceGraphic" in2="effect2_dropShadow" result="shape"/>
</filter>
</defs>
</svg>
