<svg width="461" height="172" viewBox="0 0 461 172" fill="none" xmlns="http://www.w3.org/2000/svg">
<g filter="url(#filter0_dd)">
<rect x="10" y="10" width="117.01" height="117.01" rx="58.5052" fill="#FAFCFE"/>
</g>
<g clip-path="url(#clip0)">
<rect x="47.0765" y="47.2832" width="42.9703" height="42.9703" stroke="#1B1B1B" stroke-width="3.32731"/>
<path d="M86.0875 76.8678L75.6309 87.3243V76.8678H86.0875Z" stroke="#1B1B1B" stroke-width="3.32731"/>
<path d="M47.4954 54.1158H90.0826" stroke="#1B1B1B" stroke-width="3.32731"/>
</g>
<path d="M39.4338 147.518L36.2978 157.598H34.8208L32.4548 150.36C32.4268 150.28 32.3988 150.194 32.3708 150.101C32.3475 150.007 32.3241 149.907 32.3008 149.8C32.2775 149.907 32.2518 150.007 32.2238 150.101C32.2005 150.194 32.1748 150.28 32.1468 150.36L29.7598 157.598H28.2828L25.1468 147.518H26.5188C26.6588 147.518 26.7755 147.553 26.8688 147.623C26.9668 147.688 27.0321 147.779 27.0648 147.896L28.9548 154.357C28.9921 154.497 29.0271 154.648 29.0598 154.812C29.0925 154.975 29.1251 155.145 29.1578 155.323C29.1905 155.145 29.2255 154.975 29.2628 154.812C29.3048 154.644 29.3491 154.492 29.3958 154.357L31.5588 147.896C31.5915 147.802 31.6568 147.716 31.7548 147.637C31.8528 147.557 31.9695 147.518 32.1048 147.518H32.5808C32.7255 147.518 32.8421 147.555 32.9308 147.63C33.0195 147.7 33.0871 147.788 33.1338 147.896L35.2898 154.357C35.3365 154.492 35.3785 154.639 35.4158 154.798C35.4578 154.952 35.4951 155.115 35.5278 155.288C35.5605 155.115 35.5908 154.952 35.6188 154.798C35.6515 154.639 35.6865 154.492 35.7238 154.357L37.6068 147.896C37.6348 147.793 37.6978 147.704 37.7958 147.63C37.8985 147.555 38.0175 147.518 38.1528 147.518H39.4338ZM44.8847 150.346C45.4121 150.346 45.8881 150.432 46.3127 150.605C46.7421 150.777 47.1061 151.022 47.4047 151.34C47.7081 151.657 47.9414 152.042 48.1047 152.495C48.2681 152.947 48.3497 153.456 48.3497 154.021C48.3497 154.585 48.2681 155.094 48.1047 155.547C47.9414 155.999 47.7081 156.387 47.4047 156.709C47.1061 157.026 46.7421 157.271 46.3127 157.444C45.8881 157.616 45.4121 157.703 44.8847 157.703C44.3527 157.703 43.8721 157.616 43.4427 157.444C43.0181 157.271 42.6541 157.026 42.3507 156.709C42.0474 156.387 41.8141 155.999 41.6507 155.547C41.4874 155.094 41.4057 154.585 41.4057 154.021C41.4057 153.456 41.4874 152.947 41.6507 152.495C41.8141 152.042 42.0474 151.657 42.3507 151.34C42.6541 151.022 43.0181 150.777 43.4427 150.605C43.8721 150.432 44.3527 150.346 44.8847 150.346ZM44.8847 156.527C45.5287 156.527 46.0071 156.312 46.3197 155.883C46.6371 155.449 46.7957 154.83 46.7957 154.028C46.7957 153.225 46.6371 152.607 46.3197 152.173C46.0071 151.734 45.5287 151.515 44.8847 151.515C44.2314 151.515 43.7461 151.734 43.4287 152.173C43.1114 152.607 42.9527 153.225 42.9527 154.028C42.9527 154.83 43.1114 155.449 43.4287 155.883C43.7461 156.312 44.2314 156.527 44.8847 156.527ZM53.3168 151.781C53.5408 151.328 53.8114 150.973 54.1288 150.717C54.4461 150.455 54.8264 150.325 55.2698 150.325C55.4238 150.325 55.5684 150.343 55.7038 150.381C55.8391 150.413 55.9604 150.465 56.0678 150.535L55.9628 151.669C55.9441 151.748 55.9138 151.804 55.8718 151.837C55.8344 151.865 55.7831 151.879 55.7178 151.879C55.6478 151.879 55.5474 151.867 55.4168 151.844C55.2861 151.816 55.1484 151.802 55.0038 151.802C54.7938 151.802 54.6071 151.832 54.4438 151.893C54.2851 151.953 54.1404 152.042 54.0098 152.159C53.8838 152.275 53.7718 152.418 53.6738 152.586C53.5758 152.754 53.4848 152.945 53.4008 153.16V157.598H51.8958V150.458H52.7708C52.9294 150.458 53.0391 150.488 53.0998 150.549C53.1604 150.605 53.2024 150.705 53.2258 150.85L53.3168 151.781ZM60.6687 147.238V153.244H60.9907C61.0934 153.244 61.1774 153.23 61.2427 153.202C61.3081 153.174 61.3757 153.115 61.4457 153.027L63.4477 150.738C63.5177 150.644 63.5947 150.574 63.6787 150.528C63.7627 150.481 63.8701 150.458 64.0007 150.458H65.3657L62.9577 153.174C62.8177 153.356 62.6637 153.5 62.4957 153.608C62.5891 153.673 62.6707 153.748 62.7407 153.832C62.8107 153.911 62.8784 154.002 62.9437 154.105L65.5127 157.598H64.1687C64.0474 157.598 63.9424 157.579 63.8537 157.542C63.7697 157.5 63.6951 157.425 63.6297 157.318L61.5647 154.518C61.4947 154.41 61.4247 154.343 61.3547 154.315C61.2847 154.282 61.1797 154.266 61.0397 154.266H60.6687V157.598H59.1637V147.238H60.6687ZM72.8412 151.753C72.8039 151.818 72.7619 151.865 72.7152 151.893C72.6685 151.921 72.6102 151.935 72.5402 151.935C72.4609 151.935 72.3745 151.911 72.2812 151.865C72.1879 151.813 72.0782 151.757 71.9522 151.697C71.8262 151.636 71.6769 151.582 71.5042 151.536C71.3362 151.484 71.1379 151.459 70.9092 151.459C70.7225 151.459 70.5522 151.482 70.3982 151.529C70.2489 151.571 70.1205 151.634 70.0132 151.718C69.9105 151.797 69.8312 151.893 69.7752 152.005C69.7192 152.112 69.6912 152.229 69.6912 152.355C69.6912 152.523 69.7425 152.663 69.8452 152.775C69.9479 152.887 70.0832 152.985 70.2512 153.069C70.4192 153.148 70.6105 153.22 70.8252 153.286C71.0399 153.351 71.2592 153.421 71.4832 153.496C71.7072 153.57 71.9265 153.657 72.1412 153.755C72.3559 153.853 72.5472 153.974 72.7152 154.119C72.8832 154.259 73.0185 154.431 73.1212 154.637C73.2239 154.837 73.2752 155.082 73.2752 155.372C73.2752 155.708 73.2145 156.018 73.0932 156.303C72.9719 156.587 72.7945 156.835 72.5612 157.045C72.3279 157.255 72.0362 157.418 71.6862 157.535C71.3409 157.651 70.9442 157.71 70.4962 157.71C70.2489 157.71 70.0085 157.686 69.7752 157.64C69.5465 157.598 69.3272 157.539 69.1172 157.465C68.9119 157.385 68.7182 157.292 68.5362 157.185C68.3589 157.077 68.2002 156.961 68.0602 156.835L68.4102 156.261C68.4522 156.191 68.5035 156.137 68.5642 156.1C68.6295 156.058 68.7089 156.037 68.8022 156.037C68.9002 156.037 68.9959 156.069 69.0892 156.135C69.1872 156.195 69.2992 156.263 69.4252 156.338C69.5559 156.412 69.7122 156.482 69.8942 156.548C70.0762 156.608 70.3025 156.639 70.5732 156.639C70.7972 156.639 70.9909 156.613 71.1542 156.562C71.3175 156.506 71.4529 156.431 71.5602 156.338C71.6675 156.244 71.7469 156.139 71.7982 156.023C71.8495 155.901 71.8752 155.773 71.8752 155.638C71.8752 155.456 71.8239 155.306 71.7212 155.19C71.6185 155.073 71.4809 154.973 71.3082 154.889C71.1402 154.805 70.9465 154.73 70.7272 154.665C70.5125 154.599 70.2932 154.529 70.0692 154.455C69.8452 154.38 69.6235 154.294 69.4042 154.196C69.1895 154.098 68.9959 153.974 68.8232 153.825C68.6552 153.671 68.5199 153.486 68.4172 153.272C68.3145 153.052 68.2632 152.786 68.2632 152.474C68.2632 152.189 68.3192 151.918 68.4312 151.662C68.5479 151.405 68.7159 151.179 68.9352 150.983C69.1592 150.787 69.4322 150.633 69.7542 150.521C70.0809 150.404 70.4565 150.346 70.8812 150.346C71.3619 150.346 71.7982 150.423 72.1902 150.577C72.5822 150.731 72.9112 150.941 73.1772 151.207L72.8412 151.753ZM78.2945 151.305C78.5885 151.015 78.9105 150.784 79.2605 150.612C79.6105 150.434 80.0189 150.346 80.4855 150.346C80.8775 150.346 81.2205 150.411 81.5145 150.542C81.8132 150.672 82.0629 150.857 82.2635 151.095C82.4689 151.333 82.6229 151.62 82.7255 151.956C82.8282 152.287 82.8795 152.653 82.8795 153.055V157.598H81.3815V153.055C81.3815 152.574 81.2695 152.201 81.0455 151.935C80.8262 151.669 80.4902 151.536 80.0375 151.536C79.7015 151.536 79.3889 151.613 79.0995 151.767C78.8149 151.921 78.5465 152.131 78.2945 152.397V157.598H76.7895V147.238H78.2945V151.305ZM89.8242 150.346C90.3515 150.346 90.8275 150.432 91.2522 150.605C91.6815 150.777 92.0455 151.022 92.3442 151.34C92.6475 151.657 92.8808 152.042 93.0442 152.495C93.2075 152.947 93.2892 153.456 93.2892 154.021C93.2892 154.585 93.2075 155.094 93.0442 155.547C92.8808 155.999 92.6475 156.387 92.3442 156.709C92.0455 157.026 91.6815 157.271 91.2522 157.444C90.8275 157.616 90.3515 157.703 89.8242 157.703C89.2922 157.703 88.8115 157.616 88.3822 157.444C87.9575 157.271 87.5935 157.026 87.2902 156.709C86.9868 156.387 86.7535 155.999 86.5902 155.547C86.4268 155.094 86.3452 154.585 86.3452 154.021C86.3452 153.456 86.4268 152.947 86.5902 152.495C86.7535 152.042 86.9868 151.657 87.2902 151.34C87.5935 151.022 87.9575 150.777 88.3822 150.605C88.8115 150.432 89.2922 150.346 89.8242 150.346ZM89.8242 156.527C90.4682 156.527 90.9465 156.312 91.2592 155.883C91.5765 155.449 91.7352 154.83 91.7352 154.028C91.7352 153.225 91.5765 152.607 91.2592 152.173C90.9465 151.734 90.4682 151.515 89.8242 151.515C89.1708 151.515 88.6855 151.734 88.3682 152.173C88.0508 152.607 87.8922 153.225 87.8922 154.028C87.8922 154.83 88.0508 155.449 88.3682 155.883C88.6855 156.312 89.1708 156.527 89.8242 156.527ZM98.3402 155.806C98.5502 156.076 98.7789 156.268 99.0262 156.38C99.2782 156.487 99.5559 156.541 99.8592 156.541C100.447 156.541 100.905 156.326 101.231 155.897C101.563 155.467 101.728 154.828 101.728 153.979C101.728 153.54 101.691 153.167 101.616 152.859C101.542 152.546 101.434 152.292 101.294 152.096C101.154 151.9 100.984 151.757 100.783 151.669C100.583 151.58 100.356 151.536 100.104 151.536C99.7215 151.536 99.3902 151.62 99.1102 151.788C98.8349 151.951 98.5782 152.187 98.3402 152.495V155.806ZM98.2632 151.494C98.5619 151.144 98.9002 150.861 99.2782 150.647C99.6609 150.432 100.104 150.325 100.608 150.325C101.01 150.325 101.374 150.406 101.7 150.57C102.027 150.728 102.307 150.962 102.54 151.27C102.774 151.578 102.953 151.96 103.079 152.418C103.21 152.87 103.275 153.391 103.275 153.979C103.275 154.506 103.203 154.998 103.058 155.456C102.918 155.908 102.715 156.303 102.449 156.639C102.183 156.97 101.861 157.231 101.483 157.423C101.105 157.609 100.678 157.703 100.202 157.703C99.7822 157.703 99.4252 157.635 99.1312 157.5C98.8419 157.364 98.5782 157.178 98.3402 156.94V159.971H96.8352V150.458H97.7452C97.9505 150.458 98.0812 150.553 98.1372 150.745L98.2632 151.494ZM111.101 151.753C111.063 151.818 111.021 151.865 110.975 151.893C110.928 151.921 110.87 151.935 110.8 151.935C110.72 151.935 110.634 151.911 110.541 151.865C110.447 151.813 110.338 151.757 110.212 151.697C110.086 151.636 109.936 151.582 109.764 151.536C109.596 151.484 109.397 151.459 109.169 151.459C108.982 151.459 108.812 151.482 108.658 151.529C108.508 151.571 108.38 151.634 108.273 151.718C108.17 151.797 108.091 151.893 108.035 152.005C107.979 152.112 107.951 152.229 107.951 152.355C107.951 152.523 108.002 152.663 108.105 152.775C108.207 152.887 108.343 152.985 108.511 153.069C108.679 153.148 108.87 153.22 109.085 153.286C109.299 153.351 109.519 153.421 109.743 153.496C109.967 153.57 110.186 153.657 110.401 153.755C110.615 153.853 110.807 153.974 110.975 154.119C111.143 154.259 111.278 154.431 111.381 154.637C111.483 154.837 111.535 155.082 111.535 155.372C111.535 155.708 111.474 156.018 111.353 156.303C111.231 156.587 111.054 156.835 110.821 157.045C110.587 157.255 110.296 157.418 109.946 157.535C109.6 157.651 109.204 157.71 108.756 157.71C108.508 157.71 108.268 157.686 108.035 157.64C107.806 157.598 107.587 157.539 107.377 157.465C107.171 157.385 106.978 157.292 106.796 157.185C106.618 157.077 106.46 156.961 106.32 156.835L106.67 156.261C106.712 156.191 106.763 156.137 106.824 156.1C106.889 156.058 106.968 156.037 107.062 156.037C107.16 156.037 107.255 156.069 107.349 156.135C107.447 156.195 107.559 156.263 107.685 156.338C107.815 156.412 107.972 156.482 108.154 156.548C108.336 156.608 108.562 156.639 108.833 156.639C109.057 156.639 109.25 156.613 109.414 156.562C109.577 156.506 109.712 156.431 109.82 156.338C109.927 156.244 110.006 156.139 110.058 156.023C110.109 155.901 110.135 155.773 110.135 155.638C110.135 155.456 110.083 155.306 109.981 155.19C109.878 155.073 109.74 154.973 109.568 154.889C109.4 154.805 109.206 154.73 108.987 154.665C108.772 154.599 108.553 154.529 108.329 154.455C108.105 154.38 107.883 154.294 107.664 154.196C107.449 154.098 107.255 153.974 107.083 153.825C106.915 153.671 106.779 153.486 106.677 153.272C106.574 153.052 106.523 152.786 106.523 152.474C106.523 152.189 106.579 151.918 106.691 151.662C106.807 151.405 106.975 151.179 107.195 150.983C107.419 150.787 107.692 150.633 108.014 150.521C108.34 150.404 108.716 150.346 109.141 150.346C109.621 150.346 110.058 150.423 110.45 150.577C110.842 150.731 111.171 150.941 111.437 151.207L111.101 151.753Z" fill="#082C4E"/>
<g filter="url(#filter1_dd)">
<rect x="172.01" y="10" width="117.01" height="117.01" rx="58.5052" fill="#FAFCFE"/>
</g>
<path d="M220.941 55.1674C220.543 54.7698 219.899 54.7698 219.501 55.1674C219.103 55.565 219.103 56.2096 219.501 56.6072L220.448 57.5542L204.818 92.9851C204.449 93.8209 205.298 94.7082 206.161 94.3276L241.592 78.6978L242.539 79.6447C242.737 79.8435 242.998 79.9429 243.258 79.9429C243.519 79.9429 243.78 79.8435 243.978 79.6447C244.376 79.2471 244.376 78.6024 243.978 78.2048L220.941 55.1674ZM230.056 81.5609L217.585 69.0895L219.348 65.0931L234.053 79.7979L230.056 81.5609ZM211.415 83.077L216.069 87.7312L207.741 91.4049L211.415 83.077ZM218.067 86.8497L212.296 81.0787L214.059 77.0824L222.063 85.0868L218.067 86.8497ZM214.94 75.0841L216.703 71.0877L228.058 82.4423L224.062 84.2051L214.94 75.0841ZM236.051 78.9164L220.229 63.0948L221.992 59.0984L240.047 77.1534L236.051 78.9164Z" fill="#1B1B1B"/>
<path d="M255.986 63.6736C256.543 63.5925 256.928 63.0756 256.847 62.5192C256.766 61.9628 256.249 61.5776 255.693 61.6586C255.412 61.6995 255.145 61.7964 254.9 61.9467C253.573 62.7605 253.802 64.4141 253.97 65.6216C254.034 66.083 254.183 67.1637 253.991 67.2813C253.8 67.399 252.904 66.7755 252.522 66.5092C251.522 65.8126 250.152 64.8586 248.825 65.6723C247.498 66.4861 247.727 68.1398 247.894 69.3472C247.958 69.8087 248.108 70.8893 247.916 71.0069C247.724 71.1246 246.829 70.5011 246.447 70.2348C245.446 69.5382 244.076 68.5842 242.749 69.398C242.27 69.6919 242.12 70.3187 242.414 70.7981C242.708 71.2774 243.334 71.4277 243.814 71.1337C244.006 71.0162 244.901 71.6396 245.283 71.9058C246.01 72.4124 246.933 73.0552 247.893 73.0552C248.253 73.0552 248.618 72.9647 248.98 72.7427C250.307 71.9289 250.078 70.2753 249.911 69.0678C249.847 68.6064 249.697 67.5258 249.889 67.4081C250.081 67.2904 250.976 67.9139 251.358 68.1802C252.359 68.8768 253.729 69.831 255.056 69.0171C256.383 68.2033 256.154 66.5497 255.987 65.3422C255.923 64.8807 255.773 63.8001 255.965 63.6826C255.977 63.6749 255.982 63.6742 255.986 63.6736Z" fill="#1B1B1B"/>
<path d="M228.016 55.3351C227.722 55.8144 227.872 56.4413 228.352 56.7352C228.518 56.8371 228.701 56.8856 228.883 56.8856C229.225 56.8856 229.56 56.7128 229.752 56.3996C230.566 55.0725 229.612 53.7026 228.915 52.7021C228.649 52.3198 228.025 51.4247 228.143 51.2328C228.261 51.041 229.341 51.1907 229.802 51.2547C231.01 51.422 232.664 51.6511 233.477 50.324C234.291 48.997 233.337 47.627 232.64 46.6266C232.374 46.2443 231.751 45.3492 231.868 45.1573C231.986 44.9654 233.067 45.1152 233.528 45.1791C234.735 45.3464 236.389 45.5755 237.203 44.2484C237.353 44.0034 237.45 43.737 237.491 43.4562C237.572 42.8998 237.187 42.3829 236.631 42.3017C236.075 42.2207 235.557 42.6057 235.476 43.1622C235.475 43.1668 235.475 43.1715 235.467 43.184C235.349 43.3758 234.269 43.2262 233.807 43.1622C232.6 42.995 230.946 42.7658 230.133 44.0929C229.319 45.42 230.273 46.79 230.969 47.7903C231.236 48.1726 231.859 49.0678 231.741 49.2596C231.624 49.4514 230.543 49.3016 230.082 49.2378C228.874 49.0705 227.221 48.8414 226.407 50.1685C225.593 51.4956 226.547 52.8656 227.244 53.8659C227.51 54.2481 228.134 55.1433 228.016 55.3351Z" fill="#1B1B1B"/>
<path d="M232.568 60.9819C232.756 61.132 232.981 61.205 233.204 61.205C233.502 61.205 233.798 61.0742 233.999 60.8229L240.43 52.7851C240.781 52.346 240.71 51.7052 240.271 51.354C239.831 51.0027 239.191 51.0739 238.84 51.513L232.409 59.5509C232.058 59.9899 232.129 60.6306 232.568 60.9819Z" fill="#1B1B1B"/>
<path d="M246.362 58.721L238.324 65.1514C237.885 65.5026 237.814 66.1433 238.165 66.5823C238.366 66.8337 238.662 66.9645 238.961 66.9645C239.184 66.9645 239.409 66.8915 239.596 66.7414L247.634 60.3111C248.073 59.9599 248.145 59.3191 247.793 58.88C247.442 58.4409 246.801 58.3697 246.362 58.721Z" fill="#1B1B1B"/>
<path d="M189.958 148.841V152.068H193.899V153.391H189.958V157.598H188.313V147.518H194.599V148.841H189.958ZM203.563 150.458V157.598H202.653C202.453 157.598 202.324 157.502 202.268 157.311L202.156 156.646C202.007 156.804 201.848 156.949 201.68 157.08C201.517 157.21 201.342 157.322 201.155 157.416C200.969 157.509 200.768 157.581 200.553 157.633C200.343 157.684 200.117 157.71 199.874 157.71C199.482 157.71 199.137 157.644 198.838 157.514C198.54 157.383 198.288 157.199 198.082 156.961C197.882 156.723 197.73 156.438 197.627 156.107C197.525 155.771 197.473 155.402 197.473 155.001V150.458H198.978V155.001C198.978 155.481 199.088 155.855 199.307 156.121C199.531 156.387 199.87 156.52 200.322 156.52C200.654 156.52 200.962 156.445 201.246 156.296C201.536 156.142 201.806 155.932 202.058 155.666V150.458H203.563ZM208.898 151.403C209.052 151.244 209.211 151.102 209.374 150.976C209.542 150.845 209.719 150.733 209.906 150.64C210.093 150.546 210.291 150.474 210.501 150.423C210.711 150.371 210.94 150.346 211.187 150.346C211.579 150.346 211.922 150.411 212.216 150.542C212.515 150.672 212.764 150.857 212.965 151.095C213.17 151.333 213.324 151.62 213.427 151.956C213.53 152.287 213.581 152.653 213.581 153.055V157.598H212.083V153.055C212.083 152.574 211.971 152.201 211.747 151.935C211.528 151.669 211.192 151.536 210.739 151.536C210.403 151.536 210.09 151.613 209.801 151.767C209.516 151.921 209.248 152.131 208.996 152.397V157.598H207.491V150.458H208.401C208.606 150.458 208.737 150.553 208.793 150.745L208.898 151.403ZM229.598 156.275L229.591 157.598H223.305V147.518H229.591V148.841H224.95V151.879H228.66V153.16H224.95V156.275H229.598ZM239.204 150.458L236.334 157.598H234.976L232.106 150.458H233.345C233.462 150.458 233.557 150.488 233.632 150.549C233.711 150.605 233.763 150.672 233.786 150.752L235.368 154.91C235.433 155.106 235.492 155.299 235.543 155.491C235.594 155.682 235.639 155.876 235.676 156.072C235.713 155.876 235.758 155.684 235.809 155.498C235.865 155.306 235.926 155.11 235.991 154.91L237.601 150.752C237.629 150.668 237.68 150.598 237.755 150.542C237.83 150.486 237.921 150.458 238.028 150.458H239.204ZM246.81 153.223C246.81 152.971 246.773 152.737 246.698 152.523C246.628 152.303 246.523 152.114 246.383 151.956C246.243 151.792 246.068 151.666 245.858 151.578C245.653 151.484 245.415 151.438 245.144 151.438C244.598 151.438 244.169 151.594 243.856 151.907C243.544 152.219 243.345 152.658 243.261 153.223H246.81ZM243.219 154.147C243.238 154.553 243.301 154.905 243.408 155.204C243.516 155.498 243.658 155.743 243.835 155.939C244.017 156.135 244.232 156.282 244.479 156.38C244.731 156.473 245.011 156.52 245.319 156.52C245.613 156.52 245.868 156.487 246.082 156.422C246.297 156.352 246.484 156.277 246.642 156.198C246.801 156.114 246.936 156.039 247.048 155.974C247.16 155.904 247.263 155.869 247.356 155.869C247.478 155.869 247.571 155.915 247.636 156.009L248.063 156.562C247.886 156.772 247.685 156.949 247.461 157.094C247.237 157.238 246.999 157.357 246.747 157.451C246.495 157.539 246.236 157.602 245.97 157.64C245.704 157.682 245.445 157.703 245.193 157.703C244.699 157.703 244.239 157.621 243.814 157.458C243.394 157.29 243.028 157.045 242.715 156.723C242.407 156.401 242.165 156.002 241.987 155.526C241.815 155.05 241.728 154.501 241.728 153.881C241.728 153.386 241.805 152.924 241.959 152.495C242.118 152.065 242.342 151.692 242.631 151.375C242.925 151.057 243.28 150.808 243.695 150.626C244.115 150.439 244.589 150.346 245.116 150.346C245.555 150.346 245.961 150.418 246.334 150.563C246.708 150.703 247.03 150.91 247.3 151.186C247.571 151.461 247.781 151.799 247.93 152.201C248.084 152.597 248.161 153.05 248.161 153.559C248.161 153.792 248.136 153.948 248.084 154.028C248.033 154.107 247.94 154.147 247.804 154.147H243.219ZM253.072 151.403C253.226 151.244 253.385 151.102 253.548 150.976C253.716 150.845 253.893 150.733 254.08 150.64C254.267 150.546 254.465 150.474 254.675 150.423C254.885 150.371 255.114 150.346 255.361 150.346C255.753 150.346 256.096 150.411 256.39 150.542C256.689 150.672 256.938 150.857 257.139 151.095C257.344 151.333 257.498 151.62 257.601 151.956C257.704 152.287 257.755 152.653 257.755 153.055V157.598H256.257V153.055C256.257 152.574 256.145 152.201 255.921 151.935C255.702 151.669 255.366 151.536 254.913 151.536C254.577 151.536 254.264 151.613 253.975 151.767C253.69 151.921 253.422 152.131 253.17 152.397V157.598H251.665V150.458H252.575C252.78 150.458 252.911 150.553 252.967 150.745L253.072 151.403ZM263.806 157.71C263.213 157.71 262.756 157.544 262.434 157.213C262.116 156.877 261.958 156.405 261.958 155.799V151.641H261.174C261.09 151.641 261.017 151.615 260.957 151.564C260.896 151.508 260.866 151.426 260.866 151.319V150.71L262.021 150.542L262.35 148.477C262.373 148.397 262.413 148.334 262.469 148.288C262.525 148.236 262.599 148.211 262.693 148.211H263.463V150.556H265.444V151.641H263.463V155.694C263.463 155.95 263.526 156.146 263.652 156.282C263.778 156.417 263.946 156.485 264.156 156.485C264.272 156.485 264.373 156.471 264.457 156.443C264.541 156.41 264.613 156.377 264.674 156.345C264.734 156.307 264.786 156.275 264.828 156.247C264.874 156.214 264.919 156.198 264.961 156.198C265.045 156.198 265.112 156.244 265.164 156.338L265.612 157.073C265.378 157.278 265.103 157.437 264.786 157.549C264.468 157.656 264.142 157.71 263.806 157.71ZM272.993 151.753C272.956 151.818 272.914 151.865 272.867 151.893C272.82 151.921 272.762 151.935 272.692 151.935C272.613 151.935 272.526 151.911 272.433 151.865C272.34 151.813 272.23 151.757 272.104 151.697C271.978 151.636 271.829 151.582 271.656 151.536C271.488 151.484 271.29 151.459 271.061 151.459C270.874 151.459 270.704 151.482 270.55 151.529C270.401 151.571 270.272 151.634 270.165 151.718C270.062 151.797 269.983 151.893 269.927 152.005C269.871 152.112 269.843 152.229 269.843 152.355C269.843 152.523 269.894 152.663 269.997 152.775C270.1 152.887 270.235 152.985 270.403 153.069C270.571 153.148 270.762 153.22 270.977 153.286C271.192 153.351 271.411 153.421 271.635 153.496C271.859 153.57 272.078 153.657 272.293 153.755C272.508 153.853 272.699 153.974 272.867 154.119C273.035 154.259 273.17 154.431 273.273 154.637C273.376 154.837 273.427 155.082 273.427 155.372C273.427 155.708 273.366 156.018 273.245 156.303C273.124 156.587 272.946 156.835 272.713 157.045C272.48 157.255 272.188 157.418 271.838 157.535C271.493 157.651 271.096 157.71 270.648 157.71C270.401 157.71 270.16 157.686 269.927 157.64C269.698 157.598 269.479 157.539 269.269 157.465C269.064 157.385 268.87 157.292 268.688 157.185C268.511 157.077 268.352 156.961 268.212 156.835L268.562 156.261C268.604 156.191 268.655 156.137 268.716 156.1C268.781 156.058 268.861 156.037 268.954 156.037C269.052 156.037 269.148 156.069 269.241 156.135C269.339 156.195 269.451 156.263 269.577 156.338C269.708 156.412 269.864 156.482 270.046 156.548C270.228 156.608 270.454 156.639 270.725 156.639C270.949 156.639 271.143 156.613 271.306 156.562C271.469 156.506 271.605 156.431 271.712 156.338C271.819 156.244 271.899 156.139 271.95 156.023C272.001 155.901 272.027 155.773 272.027 155.638C272.027 155.456 271.976 155.306 271.873 155.19C271.77 155.073 271.633 154.973 271.46 154.889C271.292 154.805 271.098 154.73 270.879 154.665C270.664 154.599 270.445 154.529 270.221 154.455C269.997 154.38 269.775 154.294 269.556 154.196C269.341 154.098 269.148 153.974 268.975 153.825C268.807 153.671 268.672 153.486 268.569 153.272C268.466 153.052 268.415 152.786 268.415 152.474C268.415 152.189 268.471 151.918 268.583 151.662C268.7 151.405 268.868 151.179 269.087 150.983C269.311 150.787 269.584 150.633 269.906 150.521C270.233 150.404 270.608 150.346 271.033 150.346C271.514 150.346 271.95 150.423 272.342 150.577C272.734 150.731 273.063 150.941 273.329 151.207L272.993 151.753Z" fill="#082C4E"/>
<path d="M372.635 152.556C372.635 153.302 372.514 153.986 372.271 154.607C372.029 155.223 371.686 155.752 371.242 156.196C370.804 156.639 370.274 156.984 369.653 157.232C369.037 157.474 368.351 157.596 367.595 157.596H363.787V147.516H367.595C368.351 147.516 369.037 147.639 369.653 147.887C370.274 148.129 370.804 148.472 371.242 148.916C371.686 149.359 372.029 149.891 372.271 150.512C372.514 151.128 372.635 151.809 372.635 152.556ZM370.962 152.556C370.962 151.977 370.883 151.457 370.724 150.995C370.57 150.533 370.346 150.143 370.052 149.826C369.763 149.508 369.411 149.266 368.995 149.098C368.58 148.925 368.113 148.839 367.595 148.839H365.432V156.273H367.595C368.113 156.273 368.58 156.189 368.995 156.021C369.411 155.853 369.763 155.61 370.052 155.293C370.346 154.971 370.57 154.581 370.724 154.124C370.883 153.662 370.962 153.139 370.962 152.556ZM376.672 157.596V151.653L375.972 151.555C375.856 151.531 375.76 151.489 375.685 151.429C375.615 151.368 375.58 151.282 375.58 151.17V150.554H376.672V149.952C376.672 149.546 376.731 149.182 376.847 148.86C376.969 148.538 377.139 148.265 377.358 148.041C377.582 147.817 377.853 147.646 378.17 147.53C378.488 147.408 378.845 147.348 379.241 147.348C379.405 147.348 379.559 147.359 379.703 147.383C379.853 147.406 379.997 147.441 380.137 147.488L380.109 148.244C380.1 148.37 380.037 148.444 379.92 148.468C379.808 148.491 379.666 148.503 379.493 148.503C379.283 148.503 379.094 148.528 378.926 148.58C378.758 148.626 378.614 148.708 378.492 148.825C378.376 148.941 378.285 149.095 378.219 149.287C378.159 149.478 378.128 149.716 378.128 150.001V150.554H380.081V151.639H378.177V157.596H376.672ZM384.673 151.779C384.897 151.326 385.168 150.971 385.485 150.715C385.803 150.453 386.183 150.323 386.626 150.323C386.78 150.323 386.925 150.341 387.06 150.379C387.196 150.411 387.317 150.463 387.424 150.533L387.319 151.667C387.301 151.746 387.27 151.802 387.228 151.835C387.191 151.863 387.14 151.877 387.074 151.877C387.004 151.877 386.904 151.865 386.773 151.842C386.643 151.814 386.505 151.8 386.36 151.8C386.15 151.8 385.964 151.83 385.8 151.891C385.642 151.951 385.497 152.04 385.366 152.157C385.24 152.273 385.128 152.416 385.03 152.584C384.932 152.752 384.841 152.943 384.757 153.158V157.596H383.252V150.456H384.127C384.286 150.456 384.396 150.486 384.456 150.547C384.517 150.603 384.559 150.703 384.582 150.848L384.673 151.779ZM394.226 154.474C393.689 154.492 393.237 154.537 392.868 154.607C392.499 154.672 392.201 154.758 391.972 154.866C391.743 154.968 391.578 155.092 391.475 155.237C391.377 155.381 391.328 155.54 391.328 155.713C391.328 155.881 391.354 156.025 391.405 156.147C391.461 156.263 391.536 156.361 391.629 156.441C391.727 156.515 391.839 156.571 391.965 156.609C392.096 156.641 392.238 156.658 392.392 156.658C392.784 156.658 393.12 156.585 393.4 156.441C393.685 156.291 393.96 156.077 394.226 155.797V154.474ZM390.236 151.45C391.043 150.698 392.005 150.323 393.12 150.323C393.531 150.323 393.895 150.39 394.212 150.526C394.534 150.656 394.802 150.843 395.017 151.086C395.236 151.328 395.402 151.618 395.514 151.954C395.631 152.285 395.689 152.654 395.689 153.06V157.596H395.017C394.872 157.596 394.763 157.575 394.688 157.533C394.613 157.486 394.55 157.395 394.499 157.26L394.352 156.679C394.17 156.842 393.99 156.989 393.813 157.12C393.636 157.246 393.451 157.353 393.26 157.442C393.073 157.53 392.87 157.596 392.651 157.638C392.436 157.684 392.198 157.708 391.937 157.708C391.648 157.708 391.377 157.668 391.125 157.589C390.878 157.509 390.663 157.39 390.481 157.232C390.299 157.068 390.154 156.868 390.047 156.63C389.944 156.392 389.893 156.112 389.893 155.79C389.893 155.514 389.965 155.246 390.11 154.985C390.259 154.723 390.502 154.49 390.838 154.285C391.179 154.075 391.624 153.902 392.175 153.767C392.73 153.631 393.414 153.554 394.226 153.536V153.06C394.226 152.546 394.116 152.164 393.897 151.912C393.678 151.66 393.356 151.534 392.931 151.534C392.642 151.534 392.399 151.571 392.203 151.646C392.007 151.716 391.837 151.793 391.692 151.877C391.547 151.961 391.419 152.04 391.307 152.115C391.195 152.185 391.076 152.22 390.95 152.22C390.847 152.22 390.759 152.194 390.684 152.143C390.614 152.087 390.556 152.019 390.509 151.94L390.236 151.45ZM399.552 157.596V150.456H400.462C400.667 150.456 400.798 150.551 400.854 150.743L400.952 151.366C401.083 151.216 401.218 151.081 401.358 150.96C401.498 150.834 401.647 150.726 401.806 150.638C401.969 150.544 402.142 150.472 402.324 150.421C402.511 150.369 402.711 150.344 402.926 150.344C403.155 150.344 403.365 150.376 403.556 150.442C403.747 150.507 403.915 150.6 404.06 150.722C404.209 150.843 404.338 150.99 404.445 151.163C404.552 151.335 404.641 151.529 404.711 151.744C404.818 151.496 404.954 151.284 405.117 151.107C405.28 150.929 405.462 150.785 405.663 150.673C405.864 150.561 406.076 150.479 406.3 150.428C406.529 150.372 406.76 150.344 406.993 150.344C407.376 150.344 407.716 150.404 408.015 150.526C408.318 150.647 408.573 150.824 408.778 151.058C408.988 151.286 409.147 151.569 409.254 151.905C409.361 152.241 409.415 152.623 409.415 153.053V157.596H407.91V153.053C407.91 152.549 407.8 152.171 407.581 151.919C407.366 151.662 407.047 151.534 406.622 151.534C406.431 151.534 406.251 151.566 406.083 151.632C405.915 151.697 405.768 151.793 405.642 151.919C405.516 152.045 405.416 152.203 405.341 152.395C405.271 152.581 405.236 152.801 405.236 153.053V157.596H403.731V153.053C403.731 152.53 403.626 152.147 403.416 151.905C403.206 151.657 402.898 151.534 402.492 151.534C402.212 151.534 401.953 151.606 401.715 151.751C401.477 151.891 401.258 152.084 401.057 152.332V157.596H399.552ZM417.956 153.221C417.956 152.969 417.919 152.735 417.844 152.521C417.774 152.301 417.669 152.112 417.529 151.954C417.389 151.79 417.214 151.664 417.004 151.576C416.799 151.482 416.561 151.436 416.29 151.436C415.744 151.436 415.315 151.592 415.002 151.905C414.689 152.217 414.491 152.656 414.407 153.221H417.956ZM414.365 154.145C414.384 154.551 414.447 154.903 414.554 155.202C414.661 155.496 414.804 155.741 414.981 155.937C415.163 156.133 415.378 156.28 415.625 156.378C415.877 156.471 416.157 156.518 416.465 156.518C416.759 156.518 417.013 156.485 417.228 156.42C417.443 156.35 417.629 156.275 417.788 156.196C417.947 156.112 418.082 156.037 418.194 155.972C418.306 155.902 418.409 155.867 418.502 155.867C418.623 155.867 418.717 155.913 418.782 156.007L419.209 156.56C419.032 156.77 418.831 156.947 418.607 157.092C418.383 157.236 418.145 157.355 417.893 157.449C417.641 157.537 417.382 157.6 417.116 157.638C416.85 157.68 416.591 157.701 416.339 157.701C415.844 157.701 415.385 157.619 414.96 157.456C414.54 157.288 414.174 157.043 413.861 156.721C413.553 156.399 413.31 156 413.133 155.524C412.96 155.048 412.874 154.499 412.874 153.879C412.874 153.384 412.951 152.922 413.105 152.493C413.264 152.063 413.488 151.69 413.777 151.373C414.071 151.055 414.426 150.806 414.841 150.624C415.261 150.437 415.735 150.344 416.262 150.344C416.701 150.344 417.107 150.416 417.48 150.561C417.853 150.701 418.175 150.908 418.446 151.184C418.717 151.459 418.927 151.797 419.076 152.199C419.23 152.595 419.307 153.048 419.307 153.557C419.307 153.79 419.281 153.946 419.23 154.026C419.179 154.105 419.085 154.145 418.95 154.145H414.365Z" fill="#082C4E"/>
<g filter="url(#filter2_dd)">
<rect x="334.021" y="10" width="116.694" height="116.694" rx="58.3472" fill="#FAFCFE"/>
</g>
<path d="M392.4 86.1366L410.035 68.5011L417.593 76.0592L399.958 93.6946L392.4 86.1366Z" stroke="#1B1B1B" stroke-width="3.22951" stroke-linecap="round" stroke-linejoin="round"/>
<path d="M407.517 71.0205L403.738 52.1253L367.207 43.3076L376.025 79.8382L394.92 83.6172L407.517 71.0205Z" stroke="#1B1B1B" stroke-width="3.22951" stroke-linecap="round" stroke-linejoin="round"/>
<path d="M367.207 43.3076L386.319 62.4194" stroke="#1B1B1B" stroke-width="3.22951" stroke-linecap="round" stroke-linejoin="round"/>
<path d="M389.883 71.02C392.665 71.02 394.921 68.7641 394.921 65.9813C394.921 63.1985 392.665 60.9426 389.883 60.9426C387.1 60.9426 384.844 63.1985 384.844 65.9813C384.844 68.7641 387.1 71.02 389.883 71.02Z" stroke="#1B1B1B" stroke-width="3.22951" stroke-linecap="round" stroke-linejoin="round"/>
<defs>
<filter id="filter0_dd" x="0.311466" y="0.311466" width="136.387" height="136.387" filterUnits="userSpaceOnUse" color-interpolation-filters="sRGB">
<feFlood flood-opacity="0" result="BackgroundImageFix"/>
<feColorMatrix in="SourceAlpha" type="matrix" values="0 0 0 0 0 0 0 0 0 0 0 0 0 0 0 0 0 0 127 0"/>
<feOffset dx="-3.22951" dy="-3.22951"/>
<feGaussianBlur stdDeviation="3.22951"/>
<feColorMatrix type="matrix" values="0 0 0 0 0 0 0 0 0 0 0 0 0 0 0 0 0 0 0.1 0"/>
<feBlend mode="normal" in2="BackgroundImageFix" result="effect1_dropShadow"/>
<feColorMatrix in="SourceAlpha" type="matrix" values="0 0 0 0 0 0 0 0 0 0 0 0 0 0 0 0 0 0 127 0"/>
<feOffset dx="3.22951" dy="3.22951"/>
<feGaussianBlur stdDeviation="3.22951"/>
<feColorMatrix type="matrix" values="0 0 0 0 0 0 0 0 0 0 0 0 0 0 0 0 0 0 0.1 0"/>
<feBlend mode="normal" in2="effect1_dropShadow" result="effect2_dropShadow"/>
<feBlend mode="normal" in="SourceGraphic" in2="effect2_dropShadow" result="shape"/>
</filter>
<filter id="filter1_dd" x="162.322" y="0.311466" width="136.387" height="136.387" filterUnits="userSpaceOnUse" color-interpolation-filters="sRGB">
<feFlood flood-opacity="0" result="BackgroundImageFix"/>
<feColorMatrix in="SourceAlpha" type="matrix" values="0 0 0 0 0 0 0 0 0 0 0 0 0 0 0 0 0 0 127 0"/>
<feOffset dx="-3.22951" dy="-3.22951"/>
<feGaussianBlur stdDeviation="3.22951"/>
<feColorMatrix type="matrix" values="0 0 0 0 0 0 0 0 0 0 0 0 0 0 0 0 0 0 0.1 0"/>
<feBlend mode="normal" in2="BackgroundImageFix" result="effect1_dropShadow"/>
<feColorMatrix in="SourceAlpha" type="matrix" values="0 0 0 0 0 0 0 0 0 0 0 0 0 0 0 0 0 0 127 0"/>
<feOffset dx="3.22951" dy="3.22951"/>
<feGaussianBlur stdDeviation="3.22951"/>
<feColorMatrix type="matrix" values="0 0 0 0 0 0 0 0 0 0 0 0 0 0 0 0 0 0 0.1 0"/>
<feBlend mode="normal" in2="effect1_dropShadow" result="effect2_dropShadow"/>
<feBlend mode="normal" in="SourceGraphic" in2="effect2_dropShadow" result="shape"/>
</filter>
<filter id="filter2_dd" x="324.332" y="0.311466" width="136.071" height="136.071" filterUnits="userSpaceOnUse" color-interpolation-filters="sRGB">
<feFlood flood-opacity="0" result="BackgroundImageFix"/>
<feColorMatrix in="SourceAlpha" type="matrix" values="0 0 0 0 0 0 0 0 0 0 0 0 0 0 0 0 0 0 127 0"/>
<feOffset dx="-3.22951" dy="-3.22951"/>
<feGaussianBlur stdDeviation="3.22951"/>
<feColorMatrix type="matrix" values="0 0 0 0 0 0 0 0 0 0 0 0 0 0 0 0 0 0 0.1 0"/>
<feBlend mode="normal" in2="BackgroundImageFix" result="effect1_dropShadow"/>
<feColorMatrix in="SourceAlpha" type="matrix" values="0 0 0 0 0 0 0 0 0 0 0 0 0 0 0 0 0 0 127 0"/>
<feOffset dx="3.22951" dy="3.22951"/>
<feGaussianBlur stdDeviation="3.22951"/>
<feColorMatrix type="matrix" values="0 0 0 0 0 0 0 0 0 0 0 0 0 0 0 0 0 0 0.1 0"/>
<feBlend mode="normal" in2="effect1_dropShadow" result="effect2_dropShadow"/>
<feBlend mode="normal" in="SourceGraphic" in2="effect2_dropShadow" result="shape"/>
</filter>
<clipPath id="clip0">
<rect width="48.3553" height="46.2976" fill="white" transform="translate(44.385 45.619)"/>
</clipPath>
</defs>
</svg>
