<svg width="1126" height="161" viewBox="0 0 1126 161" fill="none" xmlns="http://www.w3.org/2000/svg">
<g filter="url(#filter0_dd)">
<rect x="10" y="10" width="117.01" height="117.01" rx="58.5052" fill="#FAFCFE"/>
</g>
<mask id="path-2-inside-1" fill="white">
<path d="M72.6353 37.2659C67.5947 35.9167 62.2485 36.5356 57.7728 38.9865C53.2972 41.4374 50.0587 45.5195 48.7698 50.3348C47.481 55.1501 48.2473 60.3042 50.9002 64.6631C53.5531 69.022 57.8753 72.2288 62.916 73.578L67.7757 55.422L72.6353 37.2659Z"/>
</mask>
<path d="M72.6353 37.2659C67.5947 35.9167 62.2485 36.5356 57.7728 38.9865C53.2972 41.4374 50.0587 45.5195 48.7698 50.3348C47.481 55.1501 48.2473 60.3042 50.9002 64.6631C53.5531 69.022 57.8753 72.2288 62.916 73.578L67.7757 55.422L72.6353 37.2659Z" stroke="#082C4E" stroke-width="6.45902" mask="url(#path-2-inside-1)"/>
<mask id="path-3-inside-2" fill="white">
<path d="M65.375 78.925C70.4219 80.251 75.7686 79.5944 80.2389 77.0998C84.7093 74.6051 87.9372 70.4768 89.2124 65.6229C90.4877 60.769 89.7058 55.5872 87.0389 51.2174C84.372 46.8476 80.0385 43.6478 74.9917 42.3219L70.1834 60.6234L65.375 78.925Z"/>
</mask>
<path d="M65.375 78.925C70.4219 80.251 75.7686 79.5944 80.2389 77.0998C84.7093 74.6051 87.9372 70.4768 89.2124 65.6229C90.4877 60.769 89.7058 55.5872 87.0389 51.2174C84.372 46.8476 80.0385 43.6478 74.9917 42.3219L70.1834 60.6234L65.375 78.925Z" stroke="#082C4E" stroke-width="6.45902" mask="url(#path-3-inside-2)"/>
<line x1="60.5146" y1="86.006" x2="76.8907" y2="86.006" stroke="#082C4E" stroke-width="2.90656"/>
<line x1="60.5146" y1="92.4651" x2="76.8907" y2="92.4651" stroke="#082C4E" stroke-width="2.90656"/>
<line x1="60.5146" y1="98.9241" x2="76.8907" y2="98.9241" stroke="#082C4E" stroke-width="2.90656"/>
<path d="M48.8265 152.558C48.8265 153.304 48.7052 153.988 48.4625 154.609C48.2199 155.225 47.8769 155.754 47.4335 156.198C46.9949 156.641 46.4652 156.986 45.8445 157.234C45.2285 157.476 44.5425 157.598 43.7865 157.598H39.9785V147.518H43.7865C44.5425 147.518 45.2285 147.641 45.8445 147.889C46.4652 148.131 46.9949 148.474 47.4335 148.918C47.8769 149.361 48.2199 149.893 48.4625 150.514C48.7052 151.13 48.8265 151.811 48.8265 152.558ZM47.1535 152.558C47.1535 151.979 47.0742 151.459 46.9155 150.997C46.7615 150.535 46.5375 150.145 46.2435 149.828C45.9542 149.51 45.6019 149.268 45.1865 149.1C44.7712 148.927 44.3045 148.841 43.7865 148.841H41.6235V156.275H43.7865C44.3045 156.275 44.7712 156.191 45.1865 156.023C45.6019 155.855 45.9542 155.612 46.2435 155.295C46.5375 154.973 46.7615 154.583 46.9155 154.126C47.0742 153.664 47.1535 153.141 47.1535 152.558ZM53.8939 150.458V157.598H52.3889V150.458H53.8939ZM54.1459 148.302C54.1459 148.437 54.1179 148.565 54.0619 148.687C54.0106 148.808 53.9382 148.915 53.8449 149.009C53.7516 149.097 53.6419 149.17 53.5159 149.226C53.3946 149.277 53.2639 149.303 53.1239 149.303C52.9886 149.303 52.8602 149.277 52.7389 149.226C52.6222 149.17 52.5196 149.097 52.4309 149.009C52.3422 148.915 52.2699 148.808 52.2139 148.687C52.1626 148.565 52.1369 148.437 52.1369 148.302C52.1369 148.162 52.1626 148.031 52.2139 147.91C52.2699 147.788 52.3422 147.683 52.4309 147.595C52.5196 147.501 52.6222 147.429 52.7389 147.378C52.8602 147.322 52.9886 147.294 53.1239 147.294C53.2639 147.294 53.3946 147.322 53.5159 147.378C53.6419 147.429 53.7516 147.501 53.8449 147.595C53.9382 147.683 54.0106 147.788 54.0619 147.91C54.1179 148.031 54.1459 148.162 54.1459 148.302ZM62.1479 151.753C62.1105 151.818 62.0685 151.865 62.0219 151.893C61.9752 151.921 61.9169 151.935 61.8469 151.935C61.7675 151.935 61.6812 151.911 61.5879 151.865C61.4945 151.813 61.3849 151.757 61.2589 151.697C61.1329 151.636 60.9835 151.582 60.8109 151.536C60.6429 151.484 60.4445 151.459 60.2159 151.459C60.0292 151.459 59.8589 151.482 59.7049 151.529C59.5555 151.571 59.4272 151.634 59.3199 151.718C59.2172 151.797 59.1379 151.893 59.0819 152.005C59.0259 152.112 58.9979 152.229 58.9979 152.355C58.9979 152.523 59.0492 152.663 59.1519 152.775C59.2545 152.887 59.3899 152.985 59.5579 153.069C59.7259 153.148 59.9172 153.22 60.1319 153.286C60.3465 153.351 60.5659 153.421 60.7899 153.496C61.0139 153.57 61.2332 153.657 61.4479 153.755C61.6625 153.853 61.8539 153.974 62.0219 154.119C62.1899 154.259 62.3252 154.431 62.4279 154.637C62.5305 154.837 62.5819 155.082 62.5819 155.372C62.5819 155.708 62.5212 156.018 62.3999 156.303C62.2785 156.587 62.1012 156.835 61.8679 157.045C61.6345 157.255 61.3429 157.418 60.9929 157.535C60.6475 157.651 60.2509 157.71 59.8029 157.71C59.5555 157.71 59.3152 157.686 59.0819 157.64C58.8532 157.598 58.6339 157.539 58.4239 157.465C58.2185 157.385 58.0249 157.292 57.8429 157.185C57.6655 157.077 57.5069 156.961 57.3669 156.835L57.7169 156.261C57.7589 156.191 57.8102 156.137 57.8709 156.1C57.9362 156.058 58.0155 156.037 58.1089 156.037C58.2069 156.037 58.3025 156.069 58.3959 156.135C58.4939 156.195 58.6059 156.263 58.7319 156.338C58.8625 156.412 59.0189 156.482 59.2009 156.548C59.3829 156.608 59.6092 156.639 59.8799 156.639C60.1039 156.639 60.2975 156.613 60.4609 156.562C60.6242 156.506 60.7595 156.431 60.8669 156.338C60.9742 156.244 61.0535 156.139 61.1049 156.023C61.1562 155.901 61.1819 155.773 61.1819 155.638C61.1819 155.456 61.1305 155.306 61.0279 155.19C60.9252 155.073 60.7875 154.973 60.6149 154.889C60.4469 154.805 60.2532 154.73 60.0339 154.665C59.8192 154.599 59.5999 154.529 59.3759 154.455C59.1519 154.38 58.9302 154.294 58.7109 154.196C58.4962 154.098 58.3025 153.974 58.1299 153.825C57.9619 153.671 57.8265 153.486 57.7239 153.272C57.6212 153.052 57.5699 152.786 57.5699 152.474C57.5699 152.189 57.6259 151.918 57.7379 151.662C57.8545 151.405 58.0225 151.179 58.2419 150.983C58.4659 150.787 58.7389 150.633 59.0609 150.521C59.3875 150.404 59.7632 150.346 60.1879 150.346C60.6685 150.346 61.1049 150.423 61.4969 150.577C61.8889 150.731 62.2179 150.941 62.4839 151.207L62.1479 151.753ZM67.5172 151.781C67.7412 151.328 68.0119 150.973 68.3292 150.717C68.6465 150.455 69.0269 150.325 69.4702 150.325C69.6242 150.325 69.7689 150.343 69.9042 150.381C70.0395 150.413 70.1609 150.465 70.2682 150.535L70.1632 151.669C70.1445 151.748 70.1142 151.804 70.0722 151.837C70.0349 151.865 69.9835 151.879 69.9182 151.879C69.8482 151.879 69.7479 151.867 69.6172 151.844C69.4865 151.816 69.3489 151.802 69.2042 151.802C68.9942 151.802 68.8075 151.832 68.6442 151.893C68.4855 151.953 68.3409 152.042 68.2102 152.159C68.0842 152.275 67.9722 152.418 67.8742 152.586C67.7762 152.754 67.6852 152.945 67.6012 153.16V157.598H66.0962V150.458H66.9712C67.1299 150.458 67.2395 150.488 67.3002 150.549C67.3609 150.605 67.4029 150.705 67.4262 150.85L67.5172 151.781ZM79.3842 150.458V157.598H78.4742C78.2735 157.598 78.1452 157.502 78.0892 157.311L77.9772 156.646C77.8278 156.804 77.6692 156.949 77.5012 157.08C77.3378 157.21 77.1628 157.322 76.9762 157.416C76.7895 157.509 76.5888 157.581 76.3742 157.633C76.1642 157.684 75.9378 157.71 75.6952 157.71C75.3032 157.71 74.9578 157.644 74.6592 157.514C74.3605 157.383 74.1085 157.199 73.9032 156.961C73.7025 156.723 73.5508 156.438 73.4482 156.107C73.3455 155.771 73.2942 155.402 73.2942 155.001V150.458H74.7992V155.001C74.7992 155.481 74.9088 155.855 75.1282 156.121C75.3522 156.387 75.6905 156.52 76.1432 156.52C76.4745 156.52 76.7825 156.445 77.0672 156.296C77.3565 156.142 77.6272 155.932 77.8792 155.666V150.458H79.3842ZM84.8168 155.806C85.0268 156.076 85.2555 156.268 85.5028 156.38C85.7548 156.487 86.0325 156.541 86.3358 156.541C86.9238 156.541 87.3812 156.326 87.7078 155.897C88.0392 155.467 88.2048 154.828 88.2048 153.979C88.2048 153.54 88.1675 153.167 88.0928 152.859C88.0182 152.546 87.9108 152.292 87.7708 152.096C87.6308 151.9 87.4605 151.757 87.2598 151.669C87.0592 151.58 86.8328 151.536 86.5808 151.536C86.1982 151.536 85.8668 151.62 85.5868 151.788C85.3115 151.951 85.0548 152.187 84.8168 152.495V155.806ZM84.7398 151.494C85.0385 151.144 85.3768 150.861 85.7548 150.647C86.1375 150.432 86.5808 150.325 87.0848 150.325C87.4862 150.325 87.8502 150.406 88.1768 150.57C88.5035 150.728 88.7835 150.962 89.0168 151.27C89.2502 151.578 89.4298 151.96 89.5558 152.418C89.6865 152.87 89.7518 153.391 89.7518 153.979C89.7518 154.506 89.6795 154.998 89.5348 155.456C89.3948 155.908 89.1918 156.303 88.9258 156.639C88.6598 156.97 88.3378 157.231 87.9598 157.423C87.5818 157.609 87.1548 157.703 86.6788 157.703C86.2588 157.703 85.9018 157.635 85.6078 157.5C85.3185 157.364 85.0548 157.178 84.8168 156.94V159.971H83.3118V150.458H84.2218C84.4272 150.458 84.5578 150.553 84.6138 150.745L84.7398 151.494ZM95.5075 157.71C94.9148 157.71 94.4575 157.544 94.1355 157.213C93.8181 156.877 93.6595 156.405 93.6595 155.799V151.641H92.8755C92.7915 151.641 92.7191 151.615 92.6585 151.564C92.5978 151.508 92.5675 151.426 92.5675 151.319V150.71L93.7225 150.542L94.0515 148.477C94.0748 148.397 94.1145 148.334 94.1705 148.288C94.2265 148.236 94.3011 148.211 94.3945 148.211H95.1645V150.556H97.1455V151.641H95.1645V155.694C95.1645 155.95 95.2275 156.146 95.3535 156.282C95.4795 156.417 95.6475 156.485 95.8575 156.485C95.9741 156.485 96.0745 156.471 96.1585 156.443C96.2425 156.41 96.3148 156.377 96.3755 156.345C96.4361 156.307 96.4875 156.275 96.5295 156.247C96.5761 156.214 96.6205 156.198 96.6625 156.198C96.7465 156.198 96.8141 156.244 96.8655 156.338L97.3135 157.073C97.0801 157.278 96.8048 157.437 96.4875 157.549C96.1701 157.656 95.8435 157.71 95.5075 157.71Z" fill="#082C4E"/>
<path d="M219.705 151.915C220.069 151.915 220.389 151.869 220.664 151.775C220.944 151.682 221.175 151.551 221.357 151.383C221.544 151.211 221.684 151.003 221.777 150.76C221.871 150.518 221.917 150.247 221.917 149.948C221.917 149.654 221.871 149.391 221.777 149.157C221.689 148.924 221.553 148.726 221.371 148.562C221.189 148.399 220.958 148.275 220.678 148.191C220.403 148.103 220.079 148.058 219.705 148.058H218.207V151.915H219.705ZM219.705 146.777C220.363 146.777 220.933 146.854 221.413 147.008C221.899 147.162 222.298 147.379 222.61 147.659C222.928 147.935 223.163 148.268 223.317 148.66C223.471 149.048 223.548 149.477 223.548 149.948C223.548 150.429 223.467 150.87 223.303 151.271C223.14 151.668 222.897 152.011 222.575 152.3C222.253 152.585 221.852 152.809 221.371 152.972C220.895 153.131 220.34 153.21 219.705 153.21H218.207V156.857H216.569V146.777H219.705ZM237.938 146.777V156.857H236.496V149.948C236.496 149.836 236.498 149.715 236.503 149.584C236.512 149.449 236.524 149.314 236.538 149.178L233.297 155.163C233.171 155.411 232.977 155.534 232.716 155.534H232.485C232.219 155.534 232.025 155.411 231.904 155.163L228.614 149.164C228.628 149.3 228.637 149.435 228.642 149.57C228.651 149.706 228.656 149.832 228.656 149.948V156.857H227.214V146.777H228.439C228.584 146.777 228.696 146.791 228.775 146.819C228.854 146.843 228.927 146.92 228.992 147.05L232.226 152.909C232.296 153.045 232.361 153.185 232.422 153.329C232.487 153.469 232.546 153.614 232.597 153.763C232.653 153.614 232.711 153.467 232.772 153.322C232.837 153.173 232.905 153.031 232.975 152.895L236.16 147.05C236.225 146.92 236.298 146.843 236.377 146.819C236.456 146.791 236.568 146.777 236.713 146.777H237.938ZM248.236 156.857H246.794C246.678 156.857 246.584 156.827 246.514 156.766C246.449 156.706 246.395 156.638 246.353 156.563L244.708 153.924C244.666 154.083 244.61 154.221 244.54 154.337L243.049 156.563C242.998 156.638 242.94 156.706 242.874 156.766C242.814 156.827 242.732 156.857 242.629 156.857H241.285L243.756 153.175L241.383 149.717H242.825C242.942 149.717 243.026 149.736 243.077 149.773C243.133 149.806 243.182 149.857 243.224 149.927L244.841 152.447C244.883 152.293 244.949 152.146 245.037 152.006L246.402 149.955C246.496 149.797 246.615 149.717 246.759 149.717H248.138L245.765 153.112L248.236 156.857Z" fill="#082C4E"/>
<g filter="url(#filter1_dd)">
<rect x="175.01" y="10" width="116.694" height="116.694" rx="58.3472" fill="#FAFCFE"/>
</g>
<g clip-path="url(#clip0)">
<g clip-path="url(#clip1)">
<circle cx="233.041" cy="62.3092" r="13.7776" stroke="#082C4E" stroke-width="1.67152"/>
</g>
<rect x="217.377" y="46.6456" width="31.3272" height="31.3272" rx="15.6636" stroke="#082C4E" stroke-width="2.10055"/>
<g clip-path="url(#clip2)">
<circle cx="241.183" cy="76.2047" r="13.7776" stroke="#082C4E" stroke-width="1.67152"/>
</g>
<rect x="225.52" y="60.541" width="31.3272" height="31.3272" rx="15.6636" stroke="#082C4E" stroke-width="2.10055"/>
<g clip-path="url(#clip3)">
<circle cx="225.376" cy="76.2047" r="13.7776" stroke="#082C4E" stroke-width="1.67152"/>
</g>
<rect x="209.712" y="60.541" width="31.3272" height="31.3272" rx="15.6636" stroke="#082C4E" stroke-width="2.10055"/>
</g>
<path d="M347.485 155.485V156.857H341.661V146.777H343.299V155.485H347.485ZM354.959 152.482C354.959 152.23 354.921 151.997 354.847 151.782C354.777 151.563 354.672 151.374 354.532 151.215C354.392 151.052 354.217 150.926 354.007 150.837C353.801 150.744 353.563 150.697 353.293 150.697C352.747 150.697 352.317 150.854 352.005 151.166C351.692 151.479 351.494 151.918 351.41 152.482H354.959ZM351.368 153.406C351.386 153.812 351.449 154.165 351.557 154.463C351.664 154.757 351.806 155.002 351.984 155.198C352.166 155.394 352.38 155.541 352.628 155.639C352.88 155.733 353.16 155.779 353.468 155.779C353.762 155.779 354.016 155.747 354.231 155.681C354.445 155.611 354.632 155.537 354.791 155.457C354.949 155.373 355.085 155.299 355.197 155.233C355.309 155.163 355.411 155.128 355.505 155.128C355.626 155.128 355.719 155.175 355.785 155.268L356.212 155.821C356.034 156.031 355.834 156.209 355.61 156.353C355.386 156.498 355.148 156.617 354.896 156.71C354.644 156.799 354.385 156.862 354.119 156.899C353.853 156.941 353.594 156.962 353.342 156.962C352.847 156.962 352.387 156.881 351.963 156.717C351.543 156.549 351.176 156.304 350.864 155.982C350.556 155.66 350.313 155.261 350.136 154.785C349.963 154.309 349.877 153.761 349.877 153.14C349.877 152.646 349.954 152.184 350.108 151.754C350.266 151.325 350.49 150.952 350.78 150.634C351.074 150.317 351.428 150.067 351.844 149.885C352.264 149.699 352.737 149.605 353.265 149.605C353.703 149.605 354.109 149.678 354.483 149.822C354.856 149.962 355.178 150.17 355.449 150.445C355.719 150.721 355.929 151.059 356.079 151.46C356.233 151.857 356.31 152.31 356.31 152.818C356.31 153.052 356.284 153.208 356.233 153.287C356.181 153.367 356.088 153.406 355.953 153.406H351.368ZM364.86 151.117C364.814 151.178 364.769 151.225 364.727 151.257C364.685 151.29 364.625 151.306 364.545 151.306C364.466 151.306 364.382 151.278 364.293 151.222C364.209 151.166 364.107 151.106 363.985 151.04C363.869 150.97 363.726 150.907 363.558 150.851C363.39 150.795 363.18 150.767 362.928 150.767C362.602 150.767 362.315 150.826 362.067 150.942C361.825 151.059 361.619 151.227 361.451 151.446C361.288 151.661 361.164 151.925 361.08 152.237C361.001 152.545 360.961 152.893 360.961 153.28C360.961 153.682 361.006 154.039 361.094 154.351C361.183 154.664 361.309 154.928 361.472 155.142C361.64 155.357 361.841 155.52 362.074 155.632C362.312 155.744 362.578 155.8 362.872 155.8C363.162 155.8 363.397 155.765 363.579 155.695C363.761 155.625 363.913 155.548 364.034 155.464C364.156 155.38 364.258 155.303 364.342 155.233C364.431 155.163 364.524 155.128 364.622 155.128C364.744 155.128 364.837 155.175 364.902 155.268L365.329 155.821C365.157 156.031 364.965 156.209 364.755 156.353C364.545 156.498 364.324 156.617 364.09 156.71C363.857 156.799 363.614 156.862 363.362 156.899C363.11 156.941 362.856 156.962 362.599 156.962C362.156 156.962 361.741 156.881 361.353 156.717C360.971 156.549 360.635 156.309 360.345 155.996C360.061 155.679 359.834 155.294 359.666 154.841C359.503 154.384 359.421 153.864 359.421 153.28C359.421 152.753 359.496 152.265 359.645 151.817C359.795 151.365 360.012 150.975 360.296 150.648C360.586 150.322 360.943 150.067 361.367 149.885C361.792 149.699 362.282 149.605 362.837 149.605C363.355 149.605 363.81 149.689 364.202 149.857C364.599 150.025 364.951 150.263 365.259 150.571L364.86 151.117ZM370.929 156.969C370.336 156.969 369.879 156.804 369.557 156.472C369.239 156.136 369.081 155.665 369.081 155.058V150.9H368.297C368.213 150.9 368.14 150.875 368.08 150.823C368.019 150.767 367.989 150.686 367.989 150.578V149.969L369.144 149.801L369.473 147.736C369.496 147.657 369.536 147.594 369.592 147.547C369.648 147.496 369.722 147.47 369.816 147.47H370.586V149.815H372.567V150.9H370.586V154.953C370.586 155.21 370.649 155.406 370.775 155.541C370.901 155.677 371.069 155.744 371.279 155.744C371.395 155.744 371.496 155.73 371.58 155.702C371.664 155.67 371.736 155.637 371.797 155.604C371.857 155.567 371.909 155.534 371.951 155.506C371.997 155.474 372.042 155.457 372.084 155.457C372.168 155.457 372.235 155.504 372.287 155.597L372.735 156.332C372.501 156.538 372.226 156.696 371.909 156.808C371.591 156.916 371.265 156.969 370.929 156.969ZM381.873 149.717V156.857H380.963C380.762 156.857 380.634 156.762 380.578 156.57L380.466 155.905C380.317 156.064 380.158 156.209 379.99 156.339C379.827 156.47 379.652 156.582 379.465 156.675C379.278 156.769 379.078 156.841 378.863 156.892C378.653 156.944 378.427 156.969 378.184 156.969C377.792 156.969 377.447 156.904 377.148 156.773C376.849 156.643 376.597 156.458 376.392 156.22C376.191 155.982 376.04 155.698 375.937 155.366C375.834 155.03 375.783 154.662 375.783 154.26V149.717H377.288V154.26C377.288 154.741 377.398 155.114 377.617 155.38C377.841 155.646 378.179 155.779 378.632 155.779C378.963 155.779 379.271 155.705 379.556 155.555C379.845 155.401 380.116 155.191 380.368 154.925V149.717H381.873ZM387.222 151.04C387.446 150.588 387.716 150.233 388.034 149.976C388.351 149.715 388.731 149.584 389.175 149.584C389.329 149.584 389.473 149.603 389.609 149.64C389.744 149.673 389.865 149.724 389.973 149.794L389.868 150.928C389.849 151.008 389.819 151.064 389.777 151.096C389.739 151.124 389.688 151.138 389.623 151.138C389.553 151.138 389.452 151.127 389.322 151.103C389.191 151.075 389.053 151.061 388.909 151.061C388.699 151.061 388.512 151.092 388.349 151.152C388.19 151.213 388.045 151.302 387.915 151.418C387.789 151.535 387.677 151.677 387.579 151.845C387.481 152.013 387.39 152.205 387.306 152.419V156.857H385.801V149.717H386.676C386.834 149.717 386.944 149.748 387.005 149.808C387.065 149.864 387.107 149.965 387.131 150.109L387.222 151.04ZM397.506 152.482C397.506 152.23 397.468 151.997 397.394 151.782C397.324 151.563 397.219 151.374 397.079 151.215C396.939 151.052 396.764 150.926 396.554 150.837C396.348 150.744 396.11 150.697 395.84 150.697C395.294 150.697 394.864 150.854 394.552 151.166C394.239 151.479 394.041 151.918 393.957 152.482H397.506ZM393.915 153.406C393.933 153.812 393.996 154.165 394.104 154.463C394.211 154.757 394.353 155.002 394.531 155.198C394.713 155.394 394.927 155.541 395.175 155.639C395.427 155.733 395.707 155.779 396.015 155.779C396.309 155.779 396.563 155.747 396.778 155.681C396.992 155.611 397.179 155.537 397.338 155.457C397.496 155.373 397.632 155.299 397.744 155.233C397.856 155.163 397.958 155.128 398.052 155.128C398.173 155.128 398.266 155.175 398.332 155.268L398.759 155.821C398.581 156.031 398.381 156.209 398.157 156.353C397.933 156.498 397.695 156.617 397.443 156.71C397.191 156.799 396.932 156.862 396.666 156.899C396.4 156.941 396.141 156.962 395.889 156.962C395.394 156.962 394.934 156.881 394.51 156.717C394.09 156.549 393.723 156.304 393.411 155.982C393.103 155.66 392.86 155.261 392.683 154.785C392.51 154.309 392.424 153.761 392.424 153.14C392.424 152.646 392.501 152.184 392.655 151.754C392.813 151.325 393.037 150.952 393.327 150.634C393.621 150.317 393.975 150.067 394.391 149.885C394.811 149.699 395.284 149.605 395.812 149.605C396.25 149.605 396.656 149.678 397.03 149.822C397.403 149.962 397.725 150.17 397.996 150.445C398.266 150.721 398.476 151.059 398.626 151.46C398.78 151.857 398.857 152.31 398.857 152.818C398.857 153.052 398.831 153.208 398.78 153.287C398.728 153.367 398.635 153.406 398.5 153.406H393.915ZM413.497 148.499C413.446 148.583 413.392 148.646 413.336 148.688C413.28 148.726 413.21 148.744 413.126 148.744C413.038 148.744 412.937 148.707 412.825 148.632C412.718 148.558 412.583 148.476 412.419 148.387C412.261 148.294 412.072 148.21 411.852 148.135C411.633 148.056 411.372 148.016 411.068 148.016C410.788 148.016 410.541 148.051 410.326 148.121C410.116 148.191 409.939 148.289 409.794 148.415C409.65 148.541 409.54 148.691 409.465 148.863C409.395 149.031 409.36 149.216 409.36 149.416C409.36 149.673 409.428 149.888 409.563 150.06C409.699 150.228 409.876 150.373 410.095 150.494C410.319 150.616 410.574 150.723 410.858 150.816C411.143 150.905 411.432 151.001 411.726 151.103C412.025 151.206 412.317 151.323 412.601 151.453C412.886 151.584 413.138 151.75 413.357 151.95C413.581 152.151 413.761 152.396 413.896 152.685C414.032 152.975 414.099 153.327 414.099 153.742C414.099 154.19 414.022 154.61 413.868 155.002C413.714 155.394 413.49 155.737 413.196 156.031C412.907 156.321 412.548 156.549 412.118 156.717C411.694 156.885 411.208 156.969 410.662 156.969C410.34 156.969 410.025 156.937 409.717 156.871C409.414 156.811 409.122 156.724 408.842 156.612C408.567 156.496 408.308 156.356 408.065 156.192C407.823 156.029 407.606 155.847 407.414 155.646L407.89 154.862C407.932 154.797 407.986 154.746 408.051 154.708C408.117 154.671 408.189 154.652 408.268 154.652C408.376 154.652 408.495 154.704 408.625 154.806C408.756 154.904 408.912 155.014 409.094 155.135C409.281 155.252 409.505 155.362 409.766 155.464C410.028 155.562 410.34 155.611 410.704 155.611C411.297 155.611 411.754 155.467 412.076 155.177C412.403 154.888 412.566 154.489 412.566 153.98C412.566 153.696 412.499 153.465 412.363 153.287C412.228 153.105 412.048 152.954 411.824 152.832C411.605 152.711 411.353 152.608 411.068 152.524C410.784 152.44 410.494 152.352 410.2 152.258C409.906 152.16 409.617 152.048 409.332 151.922C409.048 151.792 408.793 151.624 408.569 151.418C408.35 151.208 408.173 150.952 408.037 150.648C407.902 150.34 407.834 149.958 407.834 149.5C407.834 149.136 407.904 148.784 408.044 148.443C408.189 148.103 408.397 147.802 408.667 147.54C408.943 147.274 409.281 147.062 409.682 146.903C410.084 146.745 410.541 146.665 411.054 146.665C411.633 146.665 412.163 146.756 412.643 146.938C413.129 147.12 413.546 147.379 413.896 147.715L413.497 148.499ZM422.345 152.482C422.345 152.23 422.307 151.997 422.233 151.782C422.163 151.563 422.058 151.374 421.918 151.215C421.778 151.052 421.603 150.926 421.393 150.837C421.187 150.744 420.949 150.697 420.679 150.697C420.133 150.697 419.703 150.854 419.391 151.166C419.078 151.479 418.88 151.918 418.796 152.482H422.345ZM418.754 153.406C418.772 153.812 418.835 154.165 418.943 154.463C419.05 154.757 419.192 155.002 419.37 155.198C419.552 155.394 419.766 155.541 420.014 155.639C420.266 155.733 420.546 155.779 420.854 155.779C421.148 155.779 421.402 155.747 421.617 155.681C421.831 155.611 422.018 155.537 422.177 155.457C422.335 155.373 422.471 155.299 422.583 155.233C422.695 155.163 422.797 155.128 422.891 155.128C423.012 155.128 423.105 155.175 423.171 155.268L423.598 155.821C423.42 156.031 423.22 156.209 422.996 156.353C422.772 156.498 422.534 156.617 422.282 156.71C422.03 156.799 421.771 156.862 421.505 156.899C421.239 156.941 420.98 156.962 420.728 156.962C420.233 156.962 419.773 156.881 419.349 156.717C418.929 156.549 418.562 156.304 418.25 155.982C417.942 155.66 417.699 155.261 417.522 154.785C417.349 154.309 417.263 153.761 417.263 153.14C417.263 152.646 417.34 152.184 417.494 151.754C417.652 151.325 417.876 150.952 418.166 150.634C418.46 150.317 418.814 150.067 419.23 149.885C419.65 149.699 420.123 149.605 420.651 149.605C421.089 149.605 421.495 149.678 421.869 149.822C422.242 149.962 422.564 150.17 422.835 150.445C423.105 150.721 423.315 151.059 423.465 151.46C423.619 151.857 423.696 152.31 423.696 152.818C423.696 153.052 423.67 153.208 423.619 153.287C423.567 153.367 423.474 153.406 423.339 153.406H418.754ZM428.62 151.04C428.844 150.588 429.115 150.233 429.432 149.976C429.749 149.715 430.13 149.584 430.573 149.584C430.727 149.584 430.872 149.603 431.007 149.64C431.142 149.673 431.264 149.724 431.371 149.794L431.266 150.928C431.247 151.008 431.217 151.064 431.175 151.096C431.138 151.124 431.086 151.138 431.021 151.138C430.951 151.138 430.851 151.127 430.72 151.103C430.589 151.075 430.452 151.061 430.307 151.061C430.097 151.061 429.91 151.092 429.747 151.152C429.588 151.213 429.444 151.302 429.313 151.418C429.187 151.535 429.075 151.677 428.977 151.845C428.879 152.013 428.788 152.205 428.704 152.419V156.857H427.199V149.717H428.074C428.233 149.717 428.342 149.748 428.403 149.808C428.464 149.864 428.506 149.965 428.529 150.109L428.62 151.04ZM436.035 149.717V156.857H434.53V149.717H436.035ZM436.287 147.561C436.287 147.697 436.259 147.825 436.203 147.946C436.152 148.068 436.079 148.175 435.986 148.268C435.893 148.357 435.783 148.429 435.657 148.485C435.536 148.537 435.405 148.562 435.265 148.562C435.13 148.562 435.001 148.537 434.88 148.485C434.763 148.429 434.661 148.357 434.572 148.268C434.483 148.175 434.411 148.068 434.355 147.946C434.304 147.825 434.278 147.697 434.278 147.561C434.278 147.421 434.304 147.291 434.355 147.169C434.411 147.048 434.483 146.943 434.572 146.854C434.661 146.761 434.763 146.689 434.88 146.637C435.001 146.581 435.13 146.553 435.265 146.553C435.405 146.553 435.536 146.581 435.657 146.637C435.783 146.689 435.893 146.761 435.986 146.854C436.079 146.943 436.152 147.048 436.203 147.169C436.259 147.291 436.287 147.421 436.287 147.561ZM444.709 152.482C444.709 152.23 444.672 151.997 444.597 151.782C444.527 151.563 444.422 151.374 444.282 151.215C444.142 151.052 443.967 150.926 443.757 150.837C443.552 150.744 443.314 150.697 443.043 150.697C442.497 150.697 442.068 150.854 441.755 151.166C441.442 151.479 441.244 151.918 441.16 152.482H444.709ZM441.118 153.406C441.137 153.812 441.2 154.165 441.307 154.463C441.414 154.757 441.557 155.002 441.734 155.198C441.916 155.394 442.131 155.541 442.378 155.639C442.63 155.733 442.91 155.779 443.218 155.779C443.512 155.779 443.766 155.747 443.981 155.681C444.196 155.611 444.382 155.537 444.541 155.457C444.7 155.373 444.835 155.299 444.947 155.233C445.059 155.163 445.162 155.128 445.255 155.128C445.376 155.128 445.47 155.175 445.535 155.268L445.962 155.821C445.785 156.031 445.584 156.209 445.36 156.353C445.136 156.498 444.898 156.617 444.646 156.71C444.394 156.799 444.135 156.862 443.869 156.899C443.603 156.941 443.344 156.962 443.092 156.962C442.597 156.962 442.138 156.881 441.713 156.717C441.293 156.549 440.927 156.304 440.614 155.982C440.306 155.66 440.063 155.261 439.886 154.785C439.713 154.309 439.627 153.761 439.627 153.14C439.627 152.646 439.704 152.184 439.858 151.754C440.017 151.325 440.241 150.952 440.53 150.634C440.824 150.317 441.179 150.067 441.594 149.885C442.014 149.699 442.488 149.605 443.015 149.605C443.454 149.605 443.86 149.678 444.233 149.822C444.606 149.962 444.928 150.17 445.199 150.445C445.47 150.721 445.68 151.059 445.829 151.46C445.983 151.857 446.06 152.31 446.06 152.818C446.06 153.052 446.034 153.208 445.983 153.287C445.932 153.367 445.838 153.406 445.703 153.406H441.118ZM453.827 151.012C453.789 151.078 453.747 151.124 453.701 151.152C453.654 151.18 453.596 151.194 453.526 151.194C453.446 151.194 453.36 151.171 453.267 151.124C453.173 151.073 453.064 151.017 452.938 150.956C452.812 150.896 452.662 150.842 452.49 150.795C452.322 150.744 452.123 150.718 451.895 150.718C451.708 150.718 451.538 150.742 451.384 150.788C451.234 150.83 451.106 150.893 450.999 150.977C450.896 151.057 450.817 151.152 450.761 151.264C450.705 151.372 450.677 151.488 450.677 151.614C450.677 151.782 450.728 151.922 450.831 152.034C450.933 152.146 451.069 152.244 451.237 152.328C451.405 152.408 451.596 152.48 451.811 152.545C452.025 152.611 452.245 152.681 452.469 152.755C452.693 152.83 452.912 152.916 453.127 153.014C453.341 153.112 453.533 153.234 453.701 153.378C453.869 153.518 454.004 153.691 454.107 153.896C454.209 154.097 454.261 154.342 454.261 154.631C454.261 154.967 454.2 155.278 454.079 155.562C453.957 155.847 453.78 156.094 453.547 156.304C453.313 156.514 453.022 156.678 452.672 156.794C452.326 156.911 451.93 156.969 451.482 156.969C451.234 156.969 450.994 156.946 450.761 156.899C450.532 156.857 450.313 156.799 450.103 156.724C449.897 156.645 449.704 156.552 449.522 156.444C449.344 156.337 449.186 156.22 449.046 156.094L449.396 155.52C449.438 155.45 449.489 155.397 449.55 155.359C449.615 155.317 449.694 155.296 449.788 155.296C449.886 155.296 449.981 155.329 450.075 155.394C450.173 155.455 450.285 155.523 450.411 155.597C450.541 155.672 450.698 155.742 450.88 155.807C451.062 155.868 451.288 155.898 451.559 155.898C451.783 155.898 451.976 155.873 452.14 155.821C452.303 155.765 452.438 155.691 452.546 155.597C452.653 155.504 452.732 155.399 452.784 155.282C452.835 155.161 452.861 155.033 452.861 154.897C452.861 154.715 452.809 154.566 452.707 154.449C452.604 154.333 452.466 154.232 452.294 154.148C452.126 154.064 451.932 153.99 451.713 153.924C451.498 153.859 451.279 153.789 451.055 153.714C450.831 153.64 450.609 153.553 450.39 153.455C450.175 153.357 449.981 153.234 449.809 153.084C449.641 152.93 449.505 152.746 449.403 152.531C449.3 152.312 449.249 152.046 449.249 151.733C449.249 151.449 449.305 151.178 449.417 150.921C449.533 150.665 449.701 150.438 449.921 150.242C450.145 150.046 450.418 149.892 450.74 149.78C451.066 149.664 451.442 149.605 451.867 149.605C452.347 149.605 452.784 149.682 453.176 149.836C453.568 149.99 453.897 150.2 454.163 150.466L453.827 151.012Z" fill="#082C4E"/>
<g filter="url(#filter2_dd)">
<rect x="339.705" y="10" width="116.694" height="116.694" rx="58.3472" fill="#FAFCFE"/>
</g>
<path d="M407.368 66.9024H407.368H388.498C388.446 66.9024 388.404 66.8603 388.404 66.8084V52.656C388.404 47.3843 392.71 43.0971 397.989 43.1271C403.228 43.1568 407.462 47.4946 407.462 52.777V66.8086C407.462 66.8603 407.42 66.9025 407.368 66.9024Z" stroke="#082C4E" stroke-width="2.95684"/>
<path d="M386.924 66.8082V71.5257C386.924 77.5955 391.861 82.5332 397.931 82.5332C404.001 82.5332 408.939 77.5956 408.939 71.5257V66.8082H386.924Z" fill="#082C4E"/>
<path d="M399.502 87.2522H396.357V93.7519H399.502V87.2522Z" fill="#082C4E"/>
<path d="M415.226 63.6643V71.5268C415.226 81.0561 407.458 88.8243 397.929 88.8243C388.399 88.8243 380.631 81.0561 380.631 71.5268V63.6643H383.776V71.5268C383.776 79.3264 390.129 85.6793 397.929 85.6793C405.728 85.6793 412.081 79.3264 412.081 71.5268V63.6643H415.226Z" fill="#082C4E"/>
<path d="M399.503 87.2522H397.931V93.7519H399.503V87.2522Z" fill="#082C4E"/>
<path d="M415.228 63.6643V71.5268C415.228 81.0561 407.46 88.8243 397.931 88.8243V85.6793C405.73 85.6793 412.083 79.3264 412.083 71.5268V63.6643H415.228Z" fill="#082C4E"/>
<path d="M408.937 92.1777H386.922V95.3227H408.937V92.1777Z" fill="#082C4E"/>
<path d="M408.938 92.1777H397.931V95.3227H408.938V92.1777Z" fill="#082C4E"/>
<g filter="url(#filter3_dd)">
<rect x="504.399" y="10" width="117.01" height="117.01" rx="58.5052" fill="#FAFCFE"/>
</g>
<path d="M576.838 41.4551L565.33 52.9627V41.4551H576.838Z" stroke="#082C4E" stroke-width="2.7647"/>
<path d="M548.776 41.4551L560.284 52.9627V41.4551H548.776Z" stroke="#082C4E" stroke-width="2.7647"/>
<path d="M547.549 60.9115L560.284 90.1327V60.9115H547.549Z" stroke="#082C4E" stroke-width="2.7647"/>
<path d="M578.065 60.9115L565.33 90.1327V60.9115H578.065Z" stroke="#082C4E" stroke-width="2.7647"/>
<path d="M523.28 157.598H521.635V147.518H523.28V157.598ZM528.785 151.403C528.939 151.244 529.098 151.102 529.261 150.976C529.429 150.845 529.607 150.733 529.793 150.64C529.98 150.546 530.178 150.474 530.388 150.423C530.598 150.371 530.827 150.346 531.074 150.346C531.466 150.346 531.809 150.411 532.103 150.542C532.402 150.672 532.652 150.857 532.852 151.095C533.058 151.333 533.212 151.62 533.314 151.956C533.417 152.287 533.468 152.653 533.468 153.055V157.598H531.97V153.055C531.97 152.574 531.858 152.201 531.634 151.935C531.415 151.669 531.079 151.536 530.626 151.536C530.29 151.536 529.978 151.613 529.688 151.767C529.404 151.921 529.135 152.131 528.883 152.397V157.598H527.378V150.458H528.288C528.494 150.458 528.624 150.553 528.68 150.745L528.785 151.403ZM539.519 157.71C538.927 157.71 538.469 157.544 538.147 157.213C537.83 156.877 537.671 156.405 537.671 155.799V151.641H536.887C536.803 151.641 536.731 151.615 536.67 151.564C536.61 151.508 536.579 151.426 536.579 151.319V150.71L537.734 150.542L538.063 148.477C538.087 148.397 538.126 148.334 538.182 148.288C538.238 148.236 538.313 148.211 538.406 148.211H539.176V150.556H541.157V151.641H539.176V155.694C539.176 155.95 539.239 156.146 539.365 156.282C539.491 156.417 539.659 156.485 539.869 156.485C539.986 156.485 540.086 156.471 540.17 156.443C540.254 156.41 540.327 156.377 540.387 156.345C540.448 156.307 540.499 156.275 540.541 156.247C540.588 156.214 540.632 156.198 540.674 156.198C540.758 156.198 540.826 156.244 540.877 156.338L541.325 157.073C541.092 157.278 540.817 157.437 540.499 157.549C540.182 157.656 539.855 157.71 539.519 157.71ZM549.072 153.223C549.072 152.971 549.035 152.737 548.96 152.523C548.89 152.303 548.785 152.114 548.645 151.956C548.505 151.792 548.33 151.666 548.12 151.578C547.915 151.484 547.677 151.438 547.406 151.438C546.86 151.438 546.431 151.594 546.118 151.907C545.805 152.219 545.607 152.658 545.523 153.223H549.072ZM545.481 154.147C545.5 154.553 545.563 154.905 545.67 155.204C545.777 155.498 545.92 155.743 546.097 155.939C546.279 156.135 546.494 156.282 546.741 156.38C546.993 156.473 547.273 156.52 547.581 156.52C547.875 156.52 548.129 156.487 548.344 156.422C548.559 156.352 548.745 156.277 548.904 156.198C549.063 156.114 549.198 156.039 549.31 155.974C549.422 155.904 549.525 155.869 549.618 155.869C549.739 155.869 549.833 155.915 549.898 156.009L550.325 156.562C550.148 156.772 549.947 156.949 549.723 157.094C549.499 157.238 549.261 157.357 549.009 157.451C548.757 157.539 548.498 157.602 548.232 157.64C547.966 157.682 547.707 157.703 547.455 157.703C546.96 157.703 546.501 157.621 546.076 157.458C545.656 157.29 545.29 157.045 544.977 156.723C544.669 156.401 544.426 156.002 544.249 155.526C544.076 155.05 543.99 154.501 543.99 153.881C543.99 153.386 544.067 152.924 544.221 152.495C544.38 152.065 544.604 151.692 544.893 151.375C545.187 151.057 545.542 150.808 545.957 150.626C546.377 150.439 546.851 150.346 547.378 150.346C547.817 150.346 548.223 150.418 548.596 150.563C548.969 150.703 549.291 150.91 549.562 151.186C549.833 151.461 550.043 151.799 550.192 152.201C550.346 152.597 550.423 153.05 550.423 153.559C550.423 153.792 550.397 153.948 550.346 154.028C550.295 154.107 550.201 154.147 550.066 154.147H545.481ZM555.347 151.781C555.571 151.328 555.842 150.973 556.159 150.717C556.477 150.455 556.857 150.325 557.3 150.325C557.454 150.325 557.599 150.343 557.734 150.381C557.87 150.413 557.991 150.465 558.098 150.535L557.993 151.669C557.975 151.748 557.944 151.804 557.902 151.837C557.865 151.865 557.814 151.879 557.748 151.879C557.678 151.879 557.578 151.867 557.447 151.844C557.317 151.816 557.179 151.802 557.034 151.802C556.824 151.802 556.638 151.832 556.474 151.893C556.316 151.953 556.171 152.042 556.04 152.159C555.914 152.275 555.802 152.418 555.704 152.586C555.606 152.754 555.515 152.945 555.431 153.16V157.598H553.926V150.458H554.801C554.96 150.458 555.07 150.488 555.13 150.549C555.191 150.605 555.233 150.705 555.256 150.85L555.347 151.781ZM562.601 151.403C562.755 151.244 562.914 151.102 563.077 150.976C563.245 150.845 563.423 150.733 563.609 150.64C563.796 150.546 563.994 150.474 564.204 150.423C564.414 150.371 564.643 150.346 564.89 150.346C565.282 150.346 565.625 150.411 565.919 150.542C566.218 150.672 566.468 150.857 566.668 151.095C566.874 151.333 567.028 151.62 567.13 151.956C567.233 152.287 567.284 152.653 567.284 153.055V157.598H565.786V153.055C565.786 152.574 565.674 152.201 565.45 151.935C565.231 151.669 564.895 151.536 564.442 151.536C564.106 151.536 563.794 151.613 563.504 151.767C563.22 151.921 562.951 152.131 562.699 152.397V157.598H561.194V150.458H562.104C562.31 150.458 562.44 150.553 562.496 150.745L562.601 151.403ZM578.653 148.841V152.068H582.594V153.391H578.653V157.598H577.008V147.518H583.294V148.841H578.653ZM589.589 154.476C589.052 154.494 588.599 154.539 588.231 154.609C587.862 154.674 587.563 154.76 587.335 154.868C587.106 154.97 586.94 155.094 586.838 155.239C586.74 155.383 586.691 155.542 586.691 155.715C586.691 155.883 586.716 156.027 586.768 156.149C586.824 156.265 586.898 156.363 586.992 156.443C587.09 156.517 587.202 156.573 587.328 156.611C587.458 156.643 587.601 156.66 587.755 156.66C588.147 156.66 588.483 156.587 588.763 156.443C589.047 156.293 589.323 156.079 589.589 155.799V154.476ZM585.599 151.452C586.406 150.7 587.367 150.325 588.483 150.325C588.893 150.325 589.257 150.392 589.575 150.528C589.897 150.658 590.165 150.845 590.38 151.088C590.599 151.33 590.765 151.62 590.877 151.956C590.993 152.287 591.052 152.656 591.052 153.062V157.598H590.38C590.235 157.598 590.125 157.577 590.051 157.535C589.976 157.488 589.913 157.397 589.862 157.262L589.715 156.681C589.533 156.844 589.353 156.991 589.176 157.122C588.998 157.248 588.814 157.355 588.623 157.444C588.436 157.532 588.233 157.598 588.014 157.64C587.799 157.686 587.561 157.71 587.3 157.71C587.01 157.71 586.74 157.67 586.488 157.591C586.24 157.511 586.026 157.392 585.844 157.234C585.662 157.07 585.517 156.87 585.41 156.632C585.307 156.394 585.256 156.114 585.256 155.792C585.256 155.516 585.328 155.248 585.473 154.987C585.622 154.725 585.865 154.492 586.201 154.287C586.541 154.077 586.987 153.904 587.538 153.769C588.093 153.633 588.777 153.556 589.589 153.538V153.062C589.589 152.548 589.479 152.166 589.26 151.914C589.04 151.662 588.718 151.536 588.294 151.536C588.004 151.536 587.762 151.573 587.566 151.648C587.37 151.718 587.199 151.795 587.055 151.879C586.91 151.963 586.782 152.042 586.67 152.117C586.558 152.187 586.439 152.222 586.313 152.222C586.21 152.222 586.121 152.196 586.047 152.145C585.977 152.089 585.918 152.021 585.872 151.942L585.599 151.452ZM596.483 150.458V157.598H594.978V150.458H596.483ZM596.735 148.302C596.735 148.437 596.707 148.565 596.651 148.687C596.599 148.808 596.527 148.915 596.434 149.009C596.34 149.097 596.231 149.17 596.105 149.226C595.983 149.277 595.853 149.303 595.713 149.303C595.577 149.303 595.449 149.277 595.328 149.226C595.211 149.17 595.108 149.097 595.02 149.009C594.931 148.915 594.859 148.808 594.803 148.687C594.751 148.565 594.726 148.437 594.726 148.302C594.726 148.162 594.751 148.031 594.803 147.91C594.859 147.788 594.931 147.683 595.02 147.595C595.108 147.501 595.211 147.429 595.328 147.378C595.449 147.322 595.577 147.294 595.713 147.294C595.853 147.294 595.983 147.322 596.105 147.378C596.231 147.429 596.34 147.501 596.434 147.595C596.527 147.683 596.599 147.788 596.651 147.91C596.707 148.031 596.735 148.162 596.735 148.302ZM601.895 151.781C602.119 151.328 602.389 150.973 602.707 150.717C603.024 150.455 603.404 150.325 603.848 150.325C604.002 150.325 604.146 150.343 604.282 150.381C604.417 150.413 604.538 150.465 604.646 150.535L604.541 151.669C604.522 151.748 604.492 151.804 604.45 151.837C604.412 151.865 604.361 151.879 604.296 151.879C604.226 151.879 604.125 151.867 603.995 151.844C603.864 151.816 603.726 151.802 603.582 151.802C603.372 151.802 603.185 151.832 603.022 151.893C602.863 151.953 602.718 152.042 602.588 152.159C602.462 152.275 602.35 152.418 602.252 152.586C602.154 152.754 602.063 152.945 601.979 153.16V157.598H600.474V150.458H601.349C601.507 150.458 601.617 150.488 601.678 150.549C601.738 150.605 601.78 150.705 601.804 150.85L601.895 151.781Z" fill="#082C4E"/>
<g filter="url(#filter4_dd)">
<rect x="669.41" y="10" width="117.01" height="117.01" rx="58.5052" fill="#FAFCFE"/>
</g>
<g clip-path="url(#clip4)">
<rect x="706.486" y="47.2832" width="42.9703" height="42.9703" stroke="#082C4E" stroke-width="3.32731"/>
<path d="M745.497 76.8678L735.04 87.3244V76.8678H745.497Z" stroke="#082C4E" stroke-width="3.32731"/>
<path d="M706.905 54.1159H749.492" stroke="#082C4E" stroke-width="3.32731"/>
</g>
<path d="M697.979 147.518L694.843 157.598H693.366L691 150.36C690.972 150.28 690.944 150.194 690.916 150.101C690.892 150.007 690.869 149.907 690.846 149.8C690.822 149.907 690.797 150.007 690.769 150.101C690.745 150.194 690.72 150.28 690.692 150.36L688.305 157.598H686.828L683.692 147.518H685.064C685.204 147.518 685.32 147.553 685.414 147.623C685.512 147.688 685.577 147.779 685.61 147.896L687.5 154.357C687.537 154.497 687.572 154.648 687.605 154.812C687.637 154.975 687.67 155.145 687.703 155.323C687.735 155.145 687.77 154.975 687.808 154.812C687.85 154.644 687.894 154.492 687.941 154.357L690.104 147.896C690.136 147.802 690.202 147.716 690.3 147.637C690.398 147.557 690.514 147.518 690.65 147.518H691.126C691.27 147.518 691.387 147.555 691.476 147.63C691.564 147.7 691.632 147.788 691.679 147.896L693.835 154.357C693.881 154.492 693.923 154.639 693.961 154.798C694.003 154.952 694.04 155.115 694.073 155.288C694.105 155.115 694.136 154.952 694.164 154.798C694.196 154.639 694.231 154.492 694.269 154.357L696.152 147.896C696.18 147.793 696.243 147.704 696.341 147.63C696.443 147.555 696.562 147.518 696.698 147.518H697.979ZM703.43 150.346C703.957 150.346 704.433 150.432 704.858 150.605C705.287 150.777 705.651 151.022 705.95 151.34C706.253 151.657 706.486 152.042 706.65 152.495C706.813 152.947 706.895 153.456 706.895 154.021C706.895 154.585 706.813 155.094 706.65 155.547C706.486 155.999 706.253 156.387 705.95 156.709C705.651 157.026 705.287 157.271 704.858 157.444C704.433 157.616 703.957 157.703 703.43 157.703C702.898 157.703 702.417 157.616 701.988 157.444C701.563 157.271 701.199 157.026 700.896 156.709C700.592 156.387 700.359 155.999 700.196 155.547C700.032 155.094 699.951 154.585 699.951 154.021C699.951 153.456 700.032 152.947 700.196 152.495C700.359 152.042 700.592 151.657 700.896 151.34C701.199 151.022 701.563 150.777 701.988 150.605C702.417 150.432 702.898 150.346 703.43 150.346ZM703.43 156.527C704.074 156.527 704.552 156.312 704.865 155.883C705.182 155.449 705.341 154.83 705.341 154.028C705.341 153.225 705.182 152.607 704.865 152.173C704.552 151.734 704.074 151.515 703.43 151.515C702.776 151.515 702.291 151.734 701.974 152.173C701.656 152.607 701.498 153.225 701.498 154.028C701.498 154.83 701.656 155.449 701.974 155.883C702.291 156.312 702.776 156.527 703.43 156.527ZM711.862 151.781C712.086 151.328 712.356 150.973 712.674 150.717C712.991 150.455 713.371 150.325 713.815 150.325C713.969 150.325 714.113 150.343 714.249 150.381C714.384 150.413 714.505 150.465 714.613 150.535L714.508 151.669C714.489 151.748 714.459 151.804 714.417 151.837C714.379 151.865 714.328 151.879 714.263 151.879C714.193 151.879 714.092 151.867 713.962 151.844C713.831 151.816 713.693 151.802 713.549 151.802C713.339 151.802 713.152 151.832 712.989 151.893C712.83 151.953 712.685 152.042 712.555 152.159C712.429 152.275 712.317 152.418 712.219 152.586C712.121 152.754 712.03 152.945 711.946 153.16V157.598H710.441V150.458H711.316C711.474 150.458 711.584 150.488 711.645 150.549C711.705 150.605 711.747 150.705 711.771 150.85L711.862 151.781ZM719.214 147.238V153.244H719.536C719.638 153.244 719.722 153.23 719.788 153.202C719.853 153.174 719.921 153.115 719.991 153.027L721.993 150.738C722.063 150.644 722.14 150.574 722.224 150.528C722.308 150.481 722.415 150.458 722.546 150.458H723.911L721.503 153.174C721.363 153.356 721.209 153.5 721.041 153.608C721.134 153.673 721.216 153.748 721.286 153.832C721.356 153.911 721.423 154.002 721.489 154.105L724.058 157.598H722.714C722.592 157.598 722.487 157.579 722.399 157.542C722.315 157.5 722.24 157.425 722.175 157.318L720.11 154.518C720.04 154.41 719.97 154.343 719.9 154.315C719.83 154.282 719.725 154.266 719.585 154.266H719.214V157.598H717.709V147.238H719.214ZM731.386 151.753C731.349 151.818 731.307 151.865 731.26 151.893C731.213 151.921 731.155 151.935 731.085 151.935C731.006 151.935 730.919 151.911 730.826 151.865C730.733 151.813 730.623 151.757 730.497 151.697C730.371 151.636 730.222 151.582 730.049 151.536C729.881 151.484 729.683 151.459 729.454 151.459C729.267 151.459 729.097 151.482 728.943 151.529C728.794 151.571 728.665 151.634 728.558 151.718C728.455 151.797 728.376 151.893 728.32 152.005C728.264 152.112 728.236 152.229 728.236 152.355C728.236 152.523 728.287 152.663 728.39 152.775C728.493 152.887 728.628 152.985 728.796 153.069C728.964 153.148 729.155 153.22 729.37 153.286C729.585 153.351 729.804 153.421 730.028 153.496C730.252 153.57 730.471 153.657 730.686 153.755C730.901 153.853 731.092 153.974 731.26 154.119C731.428 154.259 731.563 154.431 731.666 154.637C731.769 154.837 731.82 155.082 731.82 155.372C731.82 155.708 731.759 156.018 731.638 156.303C731.517 156.587 731.339 156.835 731.106 157.045C730.873 157.255 730.581 157.418 730.231 157.535C729.886 157.651 729.489 157.71 729.041 157.71C728.794 157.71 728.553 157.686 728.32 157.64C728.091 157.598 727.872 157.539 727.662 157.465C727.457 157.385 727.263 157.292 727.081 157.185C726.904 157.077 726.745 156.961 726.605 156.835L726.955 156.261C726.997 156.191 727.048 156.137 727.109 156.1C727.174 156.058 727.254 156.037 727.347 156.037C727.445 156.037 727.541 156.069 727.634 156.135C727.732 156.195 727.844 156.263 727.97 156.338C728.101 156.412 728.257 156.482 728.439 156.548C728.621 156.608 728.847 156.639 729.118 156.639C729.342 156.639 729.536 156.613 729.699 156.562C729.862 156.506 729.998 156.431 730.105 156.338C730.212 156.244 730.292 156.139 730.343 156.023C730.394 155.901 730.42 155.773 730.42 155.638C730.42 155.456 730.369 155.306 730.266 155.19C730.163 155.073 730.026 154.973 729.853 154.889C729.685 154.805 729.491 154.73 729.272 154.665C729.057 154.599 728.838 154.529 728.614 154.455C728.39 154.38 728.168 154.294 727.949 154.196C727.734 154.098 727.541 153.974 727.368 153.825C727.2 153.671 727.065 153.486 726.962 153.272C726.859 153.052 726.808 152.786 726.808 152.474C726.808 152.189 726.864 151.918 726.976 151.662C727.093 151.405 727.261 151.179 727.48 150.983C727.704 150.787 727.977 150.633 728.299 150.521C728.626 150.404 729.001 150.346 729.426 150.346C729.907 150.346 730.343 150.423 730.735 150.577C731.127 150.731 731.456 150.941 731.722 151.207L731.386 151.753ZM736.839 151.305C737.133 151.015 737.455 150.784 737.805 150.612C738.155 150.434 738.564 150.346 739.03 150.346C739.422 150.346 739.765 150.411 740.059 150.542C740.358 150.672 740.608 150.857 740.808 151.095C741.014 151.333 741.168 151.62 741.27 151.956C741.373 152.287 741.424 152.653 741.424 153.055V157.598H739.926V153.055C739.926 152.574 739.814 152.201 739.59 151.935C739.371 151.669 739.035 151.536 738.582 151.536C738.246 151.536 737.934 151.613 737.644 151.767C737.36 151.921 737.091 152.131 736.839 152.397V157.598H735.334V147.238H736.839V151.305ZM748.369 150.346C748.896 150.346 749.372 150.432 749.797 150.605C750.226 150.777 750.59 151.022 750.889 151.34C751.192 151.657 751.426 152.042 751.589 152.495C751.752 152.947 751.834 153.456 751.834 154.021C751.834 154.585 751.752 155.094 751.589 155.547C751.426 155.999 751.192 156.387 750.889 156.709C750.59 157.026 750.226 157.271 749.797 157.444C749.372 157.616 748.896 157.703 748.369 157.703C747.837 157.703 747.356 157.616 746.927 157.444C746.502 157.271 746.138 157.026 745.835 156.709C745.532 156.387 745.298 155.999 745.135 155.547C744.972 155.094 744.89 154.585 744.89 154.021C744.89 153.456 744.972 152.947 745.135 152.495C745.298 152.042 745.532 151.657 745.835 151.34C746.138 151.022 746.502 150.777 746.927 150.605C747.356 150.432 747.837 150.346 748.369 150.346ZM748.369 156.527C749.013 156.527 749.491 156.312 749.804 155.883C750.121 155.449 750.28 154.83 750.28 154.028C750.28 153.225 750.121 152.607 749.804 152.173C749.491 151.734 749.013 151.515 748.369 151.515C747.716 151.515 747.23 151.734 746.913 152.173C746.596 152.607 746.437 153.225 746.437 154.028C746.437 154.83 746.596 155.449 746.913 155.883C747.23 156.312 747.716 156.527 748.369 156.527ZM756.885 155.806C757.095 156.076 757.324 156.268 757.571 156.38C757.823 156.487 758.101 156.541 758.404 156.541C758.992 156.541 759.449 156.326 759.776 155.897C760.107 155.467 760.273 154.828 760.273 153.979C760.273 153.54 760.236 153.167 760.161 152.859C760.086 152.546 759.979 152.292 759.839 152.096C759.699 151.9 759.529 151.757 759.328 151.669C759.127 151.58 758.901 151.536 758.649 151.536C758.266 151.536 757.935 151.62 757.655 151.788C757.38 151.951 757.123 152.187 756.885 152.495V155.806ZM756.808 151.494C757.107 151.144 757.445 150.861 757.823 150.647C758.206 150.432 758.649 150.325 759.153 150.325C759.554 150.325 759.918 150.406 760.245 150.57C760.572 150.728 760.852 150.962 761.085 151.27C761.318 151.578 761.498 151.96 761.624 152.418C761.755 152.87 761.82 153.391 761.82 153.979C761.82 154.506 761.748 154.998 761.603 155.456C761.463 155.908 761.26 156.303 760.994 156.639C760.728 156.97 760.406 157.231 760.028 157.423C759.65 157.609 759.223 157.703 758.747 157.703C758.327 157.703 757.97 157.635 757.676 157.5C757.387 157.364 757.123 157.178 756.885 156.94V159.971H755.38V150.458H756.29C756.495 150.458 756.626 150.553 756.682 150.745L756.808 151.494ZM769.645 151.753C769.608 151.818 769.566 151.865 769.519 151.893C769.473 151.921 769.414 151.935 769.344 151.935C769.265 151.935 769.179 151.911 769.085 151.865C768.992 151.813 768.882 151.757 768.756 151.697C768.63 151.636 768.481 151.582 768.308 151.536C768.14 151.484 767.942 151.459 767.713 151.459C767.527 151.459 767.356 151.482 767.202 151.529C767.053 151.571 766.925 151.634 766.817 151.718C766.715 151.797 766.635 151.893 766.579 152.005C766.523 152.112 766.495 152.229 766.495 152.355C766.495 152.523 766.547 152.663 766.649 152.775C766.752 152.887 766.887 152.985 767.055 153.069C767.223 153.148 767.415 153.22 767.629 153.286C767.844 153.351 768.063 153.421 768.287 153.496C768.511 153.57 768.731 153.657 768.945 153.755C769.16 153.853 769.351 153.974 769.519 154.119C769.687 154.259 769.823 154.431 769.925 154.637C770.028 154.837 770.079 155.082 770.079 155.372C770.079 155.708 770.019 156.018 769.897 156.303C769.776 156.587 769.599 156.835 769.365 157.045C769.132 157.255 768.84 157.418 768.49 157.535C768.145 157.651 767.748 157.71 767.3 157.71C767.053 157.71 766.813 157.686 766.579 157.64C766.351 157.598 766.131 157.539 765.921 157.465C765.716 157.385 765.522 157.292 765.34 157.185C765.163 157.077 765.004 156.961 764.864 156.835L765.214 156.261C765.256 156.191 765.308 156.137 765.368 156.1C765.434 156.058 765.513 156.037 765.606 156.037C765.704 156.037 765.8 156.069 765.893 156.135C765.991 156.195 766.103 156.263 766.229 156.338C766.36 156.412 766.516 156.482 766.698 156.548C766.88 156.608 767.107 156.639 767.377 156.639C767.601 156.639 767.795 156.613 767.958 156.562C768.122 156.506 768.257 156.431 768.364 156.338C768.472 156.244 768.551 156.139 768.602 156.023C768.654 155.901 768.679 155.773 768.679 155.638C768.679 155.456 768.628 155.306 768.525 155.19C768.423 155.073 768.285 154.973 768.112 154.889C767.944 154.805 767.751 154.73 767.531 154.665C767.317 154.599 767.097 154.529 766.873 154.455C766.649 154.38 766.428 154.294 766.208 154.196C765.994 154.098 765.8 153.974 765.627 153.825C765.459 153.671 765.324 153.486 765.221 153.272C765.119 153.052 765.067 152.786 765.067 152.474C765.067 152.189 765.123 151.918 765.235 151.662C765.352 151.405 765.52 151.179 765.739 150.983C765.963 150.787 766.236 150.633 766.558 150.521C766.885 150.404 767.261 150.346 767.685 150.346C768.166 150.346 768.602 150.423 768.994 150.577C769.386 150.731 769.715 150.941 769.981 151.207L769.645 151.753Z" fill="#082C4E"/>
<g filter="url(#filter5_dd)">
<rect x="834.42" y="10" width="117.01" height="117.01" rx="58.5052" fill="#FAFCFE"/>
</g>
<path d="M883.35 55.1674C882.952 54.7698 882.308 54.7698 881.91 55.1674C881.513 55.565 881.513 56.2096 881.91 56.6072L882.857 57.5542L867.227 92.9851C866.858 93.8209 867.707 94.7082 868.57 94.3276L904.001 78.6978L904.948 79.6447C905.147 79.8435 905.407 79.9429 905.668 79.9429C905.928 79.9429 906.189 79.8435 906.388 79.6447C906.785 79.2471 906.785 78.6024 906.388 78.2048L883.35 55.1674ZM892.465 81.5609L879.994 69.0895L881.757 65.0931L896.462 79.7979L892.465 81.5609ZM873.824 83.077L878.478 87.7312L870.15 91.4049L873.824 83.077ZM880.476 86.8497L874.705 81.0787L876.468 77.0824L884.473 85.0868L880.476 86.8497ZM877.35 75.0841L879.113 71.0877L890.467 82.4423L886.471 84.2051L877.35 75.0841ZM898.46 78.9164L882.638 63.0948L884.401 59.0984L902.456 77.1534L898.46 78.9164Z" fill="#082C4E"/>
<path d="M918.396 63.6736C918.952 63.5925 919.338 63.0756 919.257 62.5192C919.176 61.9628 918.658 61.5776 918.102 61.6586C917.822 61.6995 917.555 61.7964 917.31 61.9467C915.983 62.7605 916.212 64.4141 916.379 65.6216C916.443 66.083 916.593 67.1637 916.401 67.2813C916.21 67.399 915.314 66.7755 914.932 66.5092C913.932 65.8126 912.562 64.8586 911.234 65.6723C909.907 66.4861 910.137 68.1398 910.304 69.3473C910.368 69.8087 910.517 70.8893 910.326 71.0069C910.134 71.1246 909.239 70.5011 908.856 70.2348C907.856 69.5382 906.486 68.5842 905.159 69.398C904.68 69.6919 904.529 70.3187 904.823 70.7981C905.117 71.2774 905.744 71.4277 906.223 71.1337C906.415 71.0162 907.31 71.6396 907.693 71.9058C908.42 72.4124 909.343 73.0552 910.303 73.0552C910.663 73.0552 911.028 72.9647 911.39 72.7427C912.717 71.9289 912.488 70.2753 912.321 69.0678C912.257 68.6064 912.107 67.5258 912.299 67.4081C912.491 67.2904 913.386 67.9139 913.768 68.1802C914.768 68.8768 916.139 69.831 917.466 69.0171C918.793 68.2033 918.564 66.5497 918.396 65.3422C918.332 64.8807 918.183 63.8001 918.374 63.6826C918.387 63.6749 918.392 63.6742 918.396 63.6736V63.6736Z" fill="#082C4E"/>
<path d="M890.425 55.3351C890.131 55.8144 890.282 56.4413 890.761 56.7352C890.927 56.8371 891.111 56.8856 891.292 56.8856C891.635 56.8856 891.969 56.7128 892.161 56.3996C892.975 55.0725 892.021 53.7026 891.324 52.7021C891.058 52.3198 890.435 51.4247 890.552 51.2328C890.67 51.041 891.751 51.1907 892.212 51.2547C893.419 51.422 895.073 51.6511 895.887 50.324C896.701 48.997 895.746 47.627 895.05 46.6266C894.784 46.2443 894.16 45.3492 894.278 45.1573C894.396 44.9654 895.476 45.1152 895.937 45.1791C897.145 45.3464 898.799 45.5755 899.612 44.2484C899.763 44.0034 899.859 43.737 899.9 43.4562C899.982 42.8998 899.596 42.3829 899.04 42.3017C898.484 42.2207 897.967 42.6057 897.886 43.1622C897.885 43.1668 897.884 43.1715 897.877 43.184C897.759 43.3758 896.678 43.2262 896.217 43.1622C895.009 42.995 893.356 42.7658 892.542 44.0929C891.728 45.42 892.682 46.79 893.379 47.7903C893.645 48.1726 894.268 49.0678 894.151 49.2596C894.033 49.4514 892.953 49.3016 892.491 49.2378C891.284 49.0705 889.63 48.8414 888.816 50.1685C888.003 51.4956 888.957 52.8656 889.653 53.8659C889.92 54.2481 890.543 55.1433 890.425 55.3351V55.3351Z" fill="#082C4E"/>
<path d="M894.978 60.9819C895.166 61.132 895.39 61.205 895.613 61.205C895.912 61.205 896.208 61.0742 896.409 60.8229L902.839 52.7851C903.191 52.346 903.119 51.7052 902.68 51.354C902.241 51.0027 901.6 51.0739 901.249 51.513L894.819 59.5509C894.468 59.9899 894.539 60.6306 894.978 60.9819Z" fill="#082C4E"/>
<path d="M908.772 58.721L900.734 65.1514C900.295 65.5026 900.223 66.1433 900.575 66.5823C900.776 66.8337 901.072 66.9645 901.37 66.9645C901.593 66.9645 901.818 66.8915 902.006 66.7414L910.044 60.3111C910.483 59.9599 910.554 59.3191 910.203 58.88C909.851 58.4409 909.211 58.3697 908.772 58.721V58.721Z" fill="#082C4E"/>
<path d="M852.81 148.841V152.068H856.751V153.391H852.81V157.598H851.165V147.518H857.451V148.841H852.81ZM866.415 150.458V157.598H865.505C865.304 157.598 865.176 157.502 865.12 157.311L865.008 156.646C864.859 156.804 864.7 156.949 864.532 157.08C864.369 157.21 864.194 157.322 864.007 157.416C863.82 157.509 863.62 157.581 863.405 157.633C863.195 157.684 862.969 157.71 862.726 157.71C862.334 157.71 861.989 157.644 861.69 157.514C861.391 157.383 861.139 157.199 860.934 156.961C860.733 156.723 860.582 156.438 860.479 156.107C860.376 155.771 860.325 155.402 860.325 155.001V150.458H861.83V155.001C861.83 155.481 861.94 155.855 862.159 156.121C862.383 156.387 862.721 156.52 863.174 156.52C863.505 156.52 863.813 156.445 864.098 156.296C864.387 156.142 864.658 155.932 864.91 155.666V150.458H866.415ZM871.75 151.403C871.904 151.244 872.062 151.102 872.226 150.976C872.394 150.845 872.571 150.733 872.758 150.64C872.944 150.546 873.143 150.474 873.353 150.423C873.563 150.371 873.791 150.346 874.039 150.346C874.431 150.346 874.774 150.411 875.068 150.542C875.366 150.672 875.616 150.857 875.817 151.095C876.022 151.333 876.176 151.62 876.279 151.956C876.381 152.287 876.433 152.653 876.433 153.055V157.598H874.935V153.055C874.935 152.574 874.823 152.201 874.599 151.935C874.379 151.669 874.043 151.536 873.591 151.536C873.255 151.536 872.942 151.613 872.653 151.767C872.368 151.921 872.1 152.131 871.848 152.397V157.598H870.343V150.458H871.253C871.458 150.458 871.589 150.553 871.645 150.745L871.75 151.403ZM892.45 156.275L892.443 157.598H886.157V147.518H892.443V148.841H887.802V151.879H891.512V153.16H887.802V156.275H892.45ZM902.056 150.458L899.186 157.598H897.828L894.958 150.458H896.197C896.313 150.458 896.409 150.488 896.484 150.549C896.563 150.605 896.614 150.672 896.638 150.752L898.22 154.91C898.285 155.106 898.343 155.299 898.395 155.491C898.446 155.682 898.49 155.876 898.528 156.072C898.565 155.876 898.609 155.684 898.661 155.498C898.717 155.306 898.777 155.11 898.843 154.91L900.453 150.752C900.481 150.668 900.532 150.598 900.607 150.542C900.681 150.486 900.772 150.458 900.88 150.458H902.056ZM909.662 153.223C909.662 152.971 909.625 152.737 909.55 152.523C909.48 152.303 909.375 152.114 909.235 151.956C909.095 151.792 908.92 151.666 908.71 151.578C908.505 151.484 908.267 151.438 907.996 151.438C907.45 151.438 907.021 151.594 906.708 151.907C906.395 152.219 906.197 152.658 906.113 153.223H909.662ZM906.071 154.147C906.09 154.553 906.153 154.905 906.26 155.204C906.367 155.498 906.51 155.743 906.687 155.939C906.869 156.135 907.084 156.282 907.331 156.38C907.583 156.473 907.863 156.52 908.171 156.52C908.465 156.52 908.719 156.487 908.934 156.422C909.149 156.352 909.335 156.277 909.494 156.198C909.653 156.114 909.788 156.039 909.9 155.974C910.012 155.904 910.115 155.869 910.208 155.869C910.329 155.869 910.423 155.915 910.488 156.009L910.915 156.562C910.738 156.772 910.537 156.949 910.313 157.094C910.089 157.238 909.851 157.357 909.599 157.451C909.347 157.539 909.088 157.602 908.822 157.64C908.556 157.682 908.297 157.703 908.045 157.703C907.55 157.703 907.091 157.621 906.666 157.458C906.246 157.29 905.88 157.045 905.567 156.723C905.259 156.401 905.016 156.002 904.839 155.526C904.666 155.05 904.58 154.501 904.58 153.881C904.58 153.386 904.657 152.924 904.811 152.495C904.97 152.065 905.194 151.692 905.483 151.375C905.777 151.057 906.132 150.808 906.547 150.626C906.967 150.439 907.441 150.346 907.968 150.346C908.407 150.346 908.813 150.418 909.186 150.563C909.559 150.703 909.881 150.91 910.152 151.186C910.423 151.461 910.633 151.799 910.782 152.201C910.936 152.597 911.013 153.05 911.013 153.559C911.013 153.792 910.987 153.948 910.936 154.028C910.885 154.107 910.791 154.147 910.656 154.147H906.071ZM915.924 151.403C916.078 151.244 916.236 151.102 916.4 150.976C916.568 150.845 916.745 150.733 916.932 150.64C917.118 150.546 917.317 150.474 917.527 150.423C917.737 150.371 917.965 150.346 918.213 150.346C918.605 150.346 918.948 150.411 919.242 150.542C919.54 150.672 919.79 150.857 919.991 151.095C920.196 151.333 920.35 151.62 920.453 151.956C920.555 152.287 920.607 152.653 920.607 153.055V157.598H919.109V153.055C919.109 152.574 918.997 152.201 918.773 151.935C918.553 151.669 918.217 151.536 917.765 151.536C917.429 151.536 917.116 151.613 916.827 151.767C916.542 151.921 916.274 152.131 916.022 152.397V157.598H914.517V150.458H915.427C915.632 150.458 915.763 150.553 915.819 150.745L915.924 151.403ZM926.658 157.71C926.065 157.71 925.608 157.544 925.286 157.213C924.968 156.877 924.81 156.405 924.81 155.799V151.641H924.026C923.942 151.641 923.869 151.615 923.809 151.564C923.748 151.508 923.718 151.426 923.718 151.319V150.71L924.873 150.542L925.202 148.477C925.225 148.397 925.265 148.334 925.321 148.288C925.377 148.236 925.451 148.211 925.545 148.211H926.315V150.556H928.296V151.641H926.315V155.694C926.315 155.95 926.378 156.146 926.504 156.282C926.63 156.417 926.798 156.485 927.008 156.485C927.124 156.485 927.225 156.471 927.309 156.443C927.393 156.41 927.465 156.377 927.526 156.345C927.586 156.307 927.638 156.275 927.68 156.247C927.726 156.214 927.771 156.198 927.813 156.198C927.897 156.198 927.964 156.244 928.016 156.338L928.464 157.073C928.23 157.278 927.955 157.437 927.638 157.549C927.32 157.656 926.994 157.71 926.658 157.71ZM935.845 151.753C935.808 151.818 935.766 151.865 935.719 151.893C935.672 151.921 935.614 151.935 935.544 151.935C935.465 151.935 935.378 151.911 935.285 151.865C935.192 151.813 935.082 151.757 934.956 151.697C934.83 151.636 934.681 151.582 934.508 151.536C934.34 151.484 934.142 151.459 933.913 151.459C933.726 151.459 933.556 151.482 933.402 151.529C933.253 151.571 933.124 151.634 933.017 151.718C932.914 151.797 932.835 151.893 932.779 152.005C932.723 152.112 932.695 152.229 932.695 152.355C932.695 152.523 932.746 152.663 932.849 152.775C932.952 152.887 933.087 152.985 933.255 153.069C933.423 153.148 933.614 153.22 933.829 153.286C934.044 153.351 934.263 153.421 934.487 153.496C934.711 153.57 934.93 153.657 935.145 153.755C935.36 153.853 935.551 153.974 935.719 154.119C935.887 154.259 936.022 154.431 936.125 154.637C936.228 154.837 936.279 155.082 936.279 155.372C936.279 155.708 936.218 156.018 936.097 156.303C935.976 156.587 935.798 156.835 935.565 157.045C935.332 157.255 935.04 157.418 934.69 157.535C934.345 157.651 933.948 157.71 933.5 157.71C933.253 157.71 933.012 157.686 932.779 157.64C932.55 157.598 932.331 157.539 932.121 157.465C931.916 157.385 931.722 157.292 931.54 157.185C931.363 157.077 931.204 156.961 931.064 156.835L931.414 156.261C931.456 156.191 931.507 156.137 931.568 156.1C931.633 156.058 931.713 156.037 931.806 156.037C931.904 156.037 932 156.069 932.093 156.135C932.191 156.195 932.303 156.263 932.429 156.338C932.56 156.412 932.716 156.482 932.898 156.548C933.08 156.608 933.306 156.639 933.577 156.639C933.801 156.639 933.995 156.613 934.158 156.562C934.321 156.506 934.457 156.431 934.564 156.338C934.671 156.244 934.751 156.139 934.802 156.023C934.853 155.901 934.879 155.773 934.879 155.638C934.879 155.456 934.828 155.306 934.725 155.19C934.622 155.073 934.485 154.973 934.312 154.889C934.144 154.805 933.95 154.73 933.731 154.665C933.516 154.599 933.297 154.529 933.073 154.455C932.849 154.38 932.627 154.294 932.408 154.196C932.193 154.098 932 153.974 931.827 153.825C931.659 153.671 931.524 153.486 931.421 153.272C931.318 153.052 931.267 152.786 931.267 152.474C931.267 152.189 931.323 151.918 931.435 151.662C931.552 151.405 931.72 151.179 931.939 150.983C932.163 150.787 932.436 150.633 932.758 150.521C933.085 150.404 933.46 150.346 933.885 150.346C934.366 150.346 934.802 150.423 935.194 150.577C935.586 150.731 935.915 150.941 936.181 151.207L935.845 151.753Z" fill="#082C4E"/>
<path d="M1037.6 152.556C1037.6 153.302 1037.48 153.986 1037.24 154.607C1037 155.223 1036.65 155.752 1036.21 156.196C1035.77 156.639 1035.24 156.984 1034.62 157.232C1034 157.474 1033.32 157.596 1032.56 157.596H1028.75V147.516H1032.56C1033.32 147.516 1034 147.639 1034.62 147.887C1035.24 148.129 1035.77 148.472 1036.21 148.916C1036.65 149.359 1037 149.891 1037.24 150.512C1037.48 151.128 1037.6 151.809 1037.6 152.556ZM1035.93 152.556C1035.93 151.977 1035.85 151.457 1035.69 150.995C1035.54 150.533 1035.31 150.143 1035.02 149.826C1034.73 149.508 1034.38 149.266 1033.96 149.098C1033.55 148.925 1033.08 148.839 1032.56 148.839H1030.4V156.273H1032.56C1033.08 156.273 1033.55 156.189 1033.96 156.021C1034.38 155.853 1034.73 155.61 1035.02 155.293C1035.31 154.971 1035.54 154.581 1035.69 154.124C1035.85 153.662 1035.93 153.139 1035.93 152.556ZM1041.64 157.596V151.653L1040.94 151.555C1040.82 151.531 1040.73 151.489 1040.65 151.429C1040.58 151.368 1040.55 151.282 1040.55 151.17V150.554H1041.64V149.952C1041.64 149.546 1041.7 149.182 1041.81 148.86C1041.94 148.538 1042.11 148.265 1042.33 148.041C1042.55 147.817 1042.82 147.646 1043.14 147.53C1043.45 147.408 1043.81 147.348 1044.21 147.348C1044.37 147.348 1044.53 147.359 1044.67 147.383C1044.82 147.406 1044.96 147.441 1045.1 147.488L1045.08 148.244C1045.07 148.37 1045 148.444 1044.89 148.468C1044.78 148.491 1044.63 148.503 1044.46 148.503C1044.25 148.503 1044.06 148.528 1043.89 148.58C1043.73 148.626 1043.58 148.708 1043.46 148.825C1043.34 148.941 1043.25 149.095 1043.19 149.287C1043.13 149.478 1043.1 149.716 1043.1 150.001V150.554H1045.05V151.639H1043.14V157.596H1041.64ZM1049.64 151.779C1049.86 151.326 1050.14 150.971 1050.45 150.715C1050.77 150.453 1051.15 150.323 1051.59 150.323C1051.75 150.323 1051.89 150.341 1052.03 150.379C1052.16 150.411 1052.28 150.463 1052.39 150.533L1052.29 151.667C1052.27 151.746 1052.24 151.802 1052.2 151.835C1052.16 151.863 1052.11 151.877 1052.04 151.877C1051.97 151.877 1051.87 151.865 1051.74 151.842C1051.61 151.814 1051.47 151.8 1051.33 151.8C1051.12 151.8 1050.93 151.83 1050.77 151.891C1050.61 151.951 1050.46 152.04 1050.33 152.157C1050.21 152.273 1050.1 152.416 1050 152.584C1049.9 152.752 1049.81 152.943 1049.72 153.158V157.596H1048.22V150.456H1049.09C1049.25 150.456 1049.36 150.486 1049.42 150.547C1049.48 150.603 1049.53 150.703 1049.55 150.848L1049.64 151.779ZM1059.19 154.474C1058.66 154.492 1058.2 154.537 1057.84 154.607C1057.47 154.672 1057.17 154.758 1056.94 154.866C1056.71 154.968 1056.54 155.092 1056.44 155.237C1056.34 155.381 1056.3 155.54 1056.3 155.713C1056.3 155.881 1056.32 156.025 1056.37 156.147C1056.43 156.263 1056.5 156.361 1056.6 156.441C1056.69 156.515 1056.81 156.571 1056.93 156.609C1057.06 156.641 1057.21 156.658 1057.36 156.658C1057.75 156.658 1058.09 156.585 1058.37 156.441C1058.65 156.291 1058.93 156.077 1059.19 155.797V154.474ZM1055.2 151.45C1056.01 150.698 1056.97 150.323 1058.09 150.323C1058.5 150.323 1058.86 150.39 1059.18 150.526C1059.5 150.656 1059.77 150.843 1059.98 151.086C1060.2 151.328 1060.37 151.618 1060.48 151.954C1060.6 152.285 1060.66 152.654 1060.66 153.06V157.596H1059.98C1059.84 157.596 1059.73 157.575 1059.66 157.533C1059.58 157.486 1059.52 157.395 1059.47 157.26L1059.32 156.679C1059.14 156.842 1058.96 156.989 1058.78 157.12C1058.6 157.246 1058.42 157.353 1058.23 157.442C1058.04 157.53 1057.84 157.596 1057.62 157.638C1057.4 157.684 1057.17 157.708 1056.9 157.708C1056.61 157.708 1056.34 157.668 1056.09 157.589C1055.84 157.509 1055.63 157.39 1055.45 157.232C1055.27 157.068 1055.12 156.868 1055.01 156.63C1054.91 156.392 1054.86 156.112 1054.86 155.79C1054.86 155.514 1054.93 155.246 1055.08 154.985C1055.23 154.723 1055.47 154.49 1055.81 154.285C1056.15 154.075 1056.59 153.902 1057.14 153.767C1057.7 153.631 1058.38 153.554 1059.19 153.536V153.06C1059.19 152.546 1059.08 152.164 1058.86 151.912C1058.64 151.66 1058.32 151.534 1057.9 151.534C1057.61 151.534 1057.37 151.571 1057.17 151.646C1056.97 151.716 1056.8 151.793 1056.66 151.877C1056.51 151.961 1056.39 152.04 1056.27 152.115C1056.16 152.185 1056.04 152.22 1055.92 152.22C1055.81 152.22 1055.73 152.194 1055.65 152.143C1055.58 152.087 1055.52 152.019 1055.48 151.94L1055.2 151.45ZM1064.52 157.596V150.456H1065.43C1065.63 150.456 1065.77 150.551 1065.82 150.743L1065.92 151.366C1066.05 151.216 1066.19 151.081 1066.33 150.96C1066.47 150.834 1066.61 150.726 1066.77 150.638C1066.94 150.544 1067.11 150.472 1067.29 150.421C1067.48 150.369 1067.68 150.344 1067.89 150.344C1068.12 150.344 1068.33 150.376 1068.52 150.442C1068.71 150.507 1068.88 150.6 1069.03 150.722C1069.18 150.843 1069.3 150.99 1069.41 151.163C1069.52 151.335 1069.61 151.529 1069.68 151.744C1069.79 151.496 1069.92 151.284 1070.08 151.107C1070.25 150.929 1070.43 150.785 1070.63 150.673C1070.83 150.561 1071.04 150.479 1071.27 150.428C1071.5 150.372 1071.73 150.344 1071.96 150.344C1072.34 150.344 1072.68 150.404 1072.98 150.526C1073.29 150.647 1073.54 150.824 1073.75 151.058C1073.96 151.286 1074.11 151.569 1074.22 151.905C1074.33 152.241 1074.38 152.623 1074.38 153.053V157.596H1072.88V153.053C1072.88 152.549 1072.77 152.171 1072.55 151.919C1072.33 151.662 1072.01 151.534 1071.59 151.534C1071.4 151.534 1071.22 151.566 1071.05 151.632C1070.88 151.697 1070.74 151.793 1070.61 151.919C1070.48 152.045 1070.38 152.203 1070.31 152.395C1070.24 152.581 1070.2 152.801 1070.2 153.053V157.596H1068.7V153.053C1068.7 152.53 1068.59 152.147 1068.38 151.905C1068.17 151.657 1067.87 151.534 1067.46 151.534C1067.18 151.534 1066.92 151.606 1066.68 151.751C1066.44 151.891 1066.22 152.084 1066.02 152.332V157.596H1064.52ZM1082.92 153.221C1082.92 152.969 1082.89 152.735 1082.81 152.521C1082.74 152.301 1082.64 152.112 1082.5 151.954C1082.36 151.79 1082.18 151.664 1081.97 151.576C1081.77 151.482 1081.53 151.436 1081.26 151.436C1080.71 151.436 1080.28 151.592 1079.97 151.905C1079.66 152.217 1079.46 152.656 1079.37 153.221H1082.92ZM1079.33 154.145C1079.35 154.551 1079.41 154.903 1079.52 155.202C1079.63 155.496 1079.77 155.741 1079.95 155.937C1080.13 156.133 1080.34 156.28 1080.59 156.378C1080.84 156.471 1081.12 156.518 1081.43 156.518C1081.73 156.518 1081.98 156.485 1082.2 156.42C1082.41 156.35 1082.6 156.275 1082.76 156.196C1082.91 156.112 1083.05 156.037 1083.16 155.972C1083.27 155.902 1083.38 155.867 1083.47 155.867C1083.59 155.867 1083.68 155.913 1083.75 156.007L1084.18 156.56C1084 156.77 1083.8 156.947 1083.57 157.092C1083.35 157.236 1083.11 157.355 1082.86 157.449C1082.61 157.537 1082.35 157.6 1082.08 157.638C1081.82 157.68 1081.56 157.701 1081.31 157.701C1080.81 157.701 1080.35 157.619 1079.93 157.456C1079.51 157.288 1079.14 157.043 1078.83 156.721C1078.52 156.399 1078.28 156 1078.1 155.524C1077.93 155.048 1077.84 154.499 1077.84 153.879C1077.84 153.384 1077.92 152.922 1078.07 152.493C1078.23 152.063 1078.45 151.69 1078.74 151.373C1079.04 151.055 1079.39 150.806 1079.81 150.624C1080.23 150.437 1080.7 150.344 1081.23 150.344C1081.67 150.344 1082.07 150.416 1082.45 150.561C1082.82 150.701 1083.14 150.908 1083.41 151.184C1083.68 151.459 1083.89 151.797 1084.04 152.199C1084.2 152.595 1084.27 153.048 1084.27 153.557C1084.27 153.79 1084.25 153.946 1084.2 154.026C1084.15 154.105 1084.05 154.145 1083.92 154.145H1079.33Z" fill="#082C4E"/>
<g filter="url(#filter6_dd)">
<rect x="999.431" y="10" width="116.694" height="116.694" rx="58.3472" fill="#FAFCFE"/>
</g>
<path d="M1057.81 86.1366L1075.45 68.5011L1083 76.0592L1065.37 93.6946L1057.81 86.1366Z" stroke="#082C4E" stroke-width="3.22951" stroke-linecap="round" stroke-linejoin="round"/>
<path d="M1072.93 71.0204L1069.15 52.1253L1032.62 43.3076L1041.43 79.8382L1060.33 83.6172L1072.93 71.0204Z" stroke="#082C4E" stroke-width="3.22951" stroke-linecap="round" stroke-linejoin="round"/>
<path d="M1032.62 43.3076L1051.73 62.4194" stroke="#082C4E" stroke-width="3.22951" stroke-linecap="round" stroke-linejoin="round"/>
<path d="M1055.29 71.02C1058.08 71.02 1060.33 68.7641 1060.33 65.9813C1060.33 63.1985 1058.08 60.9426 1055.29 60.9426C1052.51 60.9426 1050.25 63.1985 1050.25 65.9813C1050.25 68.7641 1052.51 71.02 1055.29 71.02Z" stroke="#082C4E" stroke-width="3.22951" stroke-linecap="round" stroke-linejoin="round"/>
<defs>
<filter id="filter0_dd" x="0.311466" y="0.311466" width="136.387" height="136.387" filterUnits="userSpaceOnUse" color-interpolation-filters="sRGB">
<feFlood flood-opacity="0" result="BackgroundImageFix"/>
<feColorMatrix in="SourceAlpha" type="matrix" values="0 0 0 0 0 0 0 0 0 0 0 0 0 0 0 0 0 0 127 0"/>
<feOffset dx="-3.22951" dy="-3.22951"/>
<feGaussianBlur stdDeviation="3.22951"/>
<feColorMatrix type="matrix" values="0 0 0 0 0 0 0 0 0 0 0 0 0 0 0 0 0 0 0.1 0"/>
<feBlend mode="normal" in2="BackgroundImageFix" result="effect1_dropShadow"/>
<feColorMatrix in="SourceAlpha" type="matrix" values="0 0 0 0 0 0 0 0 0 0 0 0 0 0 0 0 0 0 127 0"/>
<feOffset dx="3.22951" dy="3.22951"/>
<feGaussianBlur stdDeviation="3.22951"/>
<feColorMatrix type="matrix" values="0 0 0 0 0 0 0 0 0 0 0 0 0 0 0 0 0 0 0.1 0"/>
<feBlend mode="normal" in2="effect1_dropShadow" result="effect2_dropShadow"/>
<feBlend mode="normal" in="SourceGraphic" in2="effect2_dropShadow" result="shape"/>
</filter>
<filter id="filter1_dd" x="165.322" y="0.311466" width="136.071" height="136.071" filterUnits="userSpaceOnUse" color-interpolation-filters="sRGB">
<feFlood flood-opacity="0" result="BackgroundImageFix"/>
<feColorMatrix in="SourceAlpha" type="matrix" values="0 0 0 0 0 0 0 0 0 0 0 0 0 0 0 0 0 0 127 0"/>
<feOffset dx="-3.22951" dy="-3.22951"/>
<feGaussianBlur stdDeviation="3.22951"/>
<feColorMatrix type="matrix" values="0 0 0 0 0 0 0 0 0 0 0 0 0 0 0 0 0 0 0.1 0"/>
<feBlend mode="normal" in2="BackgroundImageFix" result="effect1_dropShadow"/>
<feColorMatrix in="SourceAlpha" type="matrix" values="0 0 0 0 0 0 0 0 0 0 0 0 0 0 0 0 0 0 127 0"/>
<feOffset dx="3.22951" dy="3.22951"/>
<feGaussianBlur stdDeviation="3.22951"/>
<feColorMatrix type="matrix" values="0 0 0 0 0 0 0 0 0 0 0 0 0 0 0 0 0 0 0.1 0"/>
<feBlend mode="normal" in2="effect1_dropShadow" result="effect2_dropShadow"/>
<feBlend mode="normal" in="SourceGraphic" in2="effect2_dropShadow" result="shape"/>
</filter>
<filter id="filter2_dd" x="330.016" y="0.311466" width="136.071" height="136.071" filterUnits="userSpaceOnUse" color-interpolation-filters="sRGB">
<feFlood flood-opacity="0" result="BackgroundImageFix"/>
<feColorMatrix in="SourceAlpha" type="matrix" values="0 0 0 0 0 0 0 0 0 0 0 0 0 0 0 0 0 0 127 0"/>
<feOffset dx="-3.22951" dy="-3.22951"/>
<feGaussianBlur stdDeviation="3.22951"/>
<feColorMatrix type="matrix" values="0 0 0 0 0 0 0 0 0 0 0 0 0 0 0 0 0 0 0.1 0"/>
<feBlend mode="normal" in2="BackgroundImageFix" result="effect1_dropShadow"/>
<feColorMatrix in="SourceAlpha" type="matrix" values="0 0 0 0 0 0 0 0 0 0 0 0 0 0 0 0 0 0 127 0"/>
<feOffset dx="3.22951" dy="3.22951"/>
<feGaussianBlur stdDeviation="3.22951"/>
<feColorMatrix type="matrix" values="0 0 0 0 0 0 0 0 0 0 0 0 0 0 0 0 0 0 0.1 0"/>
<feBlend mode="normal" in2="effect1_dropShadow" result="effect2_dropShadow"/>
<feBlend mode="normal" in="SourceGraphic" in2="effect2_dropShadow" result="shape"/>
</filter>
<filter id="filter3_dd" x="494.711" y="0.311466" width="136.387" height="136.387" filterUnits="userSpaceOnUse" color-interpolation-filters="sRGB">
<feFlood flood-opacity="0" result="BackgroundImageFix"/>
<feColorMatrix in="SourceAlpha" type="matrix" values="0 0 0 0 0 0 0 0 0 0 0 0 0 0 0 0 0 0 127 0"/>
<feOffset dx="-3.22951" dy="-3.22951"/>
<feGaussianBlur stdDeviation="3.22951"/>
<feColorMatrix type="matrix" values="0 0 0 0 0 0 0 0 0 0 0 0 0 0 0 0 0 0 0.1 0"/>
<feBlend mode="normal" in2="BackgroundImageFix" result="effect1_dropShadow"/>
<feColorMatrix in="SourceAlpha" type="matrix" values="0 0 0 0 0 0 0 0 0 0 0 0 0 0 0 0 0 0 127 0"/>
<feOffset dx="3.22951" dy="3.22951"/>
<feGaussianBlur stdDeviation="3.22951"/>
<feColorMatrix type="matrix" values="0 0 0 0 0 0 0 0 0 0 0 0 0 0 0 0 0 0 0.1 0"/>
<feBlend mode="normal" in2="effect1_dropShadow" result="effect2_dropShadow"/>
<feBlend mode="normal" in="SourceGraphic" in2="effect2_dropShadow" result="shape"/>
</filter>
<filter id="filter4_dd" x="659.721" y="0.311466" width="136.387" height="136.387" filterUnits="userSpaceOnUse" color-interpolation-filters="sRGB">
<feFlood flood-opacity="0" result="BackgroundImageFix"/>
<feColorMatrix in="SourceAlpha" type="matrix" values="0 0 0 0 0 0 0 0 0 0 0 0 0 0 0 0 0 0 127 0"/>
<feOffset dx="-3.22951" dy="-3.22951"/>
<feGaussianBlur stdDeviation="3.22951"/>
<feColorMatrix type="matrix" values="0 0 0 0 0 0 0 0 0 0 0 0 0 0 0 0 0 0 0.1 0"/>
<feBlend mode="normal" in2="BackgroundImageFix" result="effect1_dropShadow"/>
<feColorMatrix in="SourceAlpha" type="matrix" values="0 0 0 0 0 0 0 0 0 0 0 0 0 0 0 0 0 0 127 0"/>
<feOffset dx="3.22951" dy="3.22951"/>
<feGaussianBlur stdDeviation="3.22951"/>
<feColorMatrix type="matrix" values="0 0 0 0 0 0 0 0 0 0 0 0 0 0 0 0 0 0 0.1 0"/>
<feBlend mode="normal" in2="effect1_dropShadow" result="effect2_dropShadow"/>
<feBlend mode="normal" in="SourceGraphic" in2="effect2_dropShadow" result="shape"/>
</filter>
<filter id="filter5_dd" x="824.731" y="0.311466" width="136.387" height="136.387" filterUnits="userSpaceOnUse" color-interpolation-filters="sRGB">
<feFlood flood-opacity="0" result="BackgroundImageFix"/>
<feColorMatrix in="SourceAlpha" type="matrix" values="0 0 0 0 0 0 0 0 0 0 0 0 0 0 0 0 0 0 127 0"/>
<feOffset dx="-3.22951" dy="-3.22951"/>
<feGaussianBlur stdDeviation="3.22951"/>
<feColorMatrix type="matrix" values="0 0 0 0 0 0 0 0 0 0 0 0 0 0 0 0 0 0 0.1 0"/>
<feBlend mode="normal" in2="BackgroundImageFix" result="effect1_dropShadow"/>
<feColorMatrix in="SourceAlpha" type="matrix" values="0 0 0 0 0 0 0 0 0 0 0 0 0 0 0 0 0 0 127 0"/>
<feOffset dx="3.22951" dy="3.22951"/>
<feGaussianBlur stdDeviation="3.22951"/>
<feColorMatrix type="matrix" values="0 0 0 0 0 0 0 0 0 0 0 0 0 0 0 0 0 0 0.1 0"/>
<feBlend mode="normal" in2="effect1_dropShadow" result="effect2_dropShadow"/>
<feBlend mode="normal" in="SourceGraphic" in2="effect2_dropShadow" result="shape"/>
</filter>
<filter id="filter6_dd" x="989.742" y="0.311466" width="136.071" height="136.071" filterUnits="userSpaceOnUse" color-interpolation-filters="sRGB">
<feFlood flood-opacity="0" result="BackgroundImageFix"/>
<feColorMatrix in="SourceAlpha" type="matrix" values="0 0 0 0 0 0 0 0 0 0 0 0 0 0 0 0 0 0 127 0"/>
<feOffset dx="-3.22951" dy="-3.22951"/>
<feGaussianBlur stdDeviation="3.22951"/>
<feColorMatrix type="matrix" values="0 0 0 0 0 0 0 0 0 0 0 0 0 0 0 0 0 0 0.1 0"/>
<feBlend mode="normal" in2="BackgroundImageFix" result="effect1_dropShadow"/>
<feColorMatrix in="SourceAlpha" type="matrix" values="0 0 0 0 0 0 0 0 0 0 0 0 0 0 0 0 0 0 127 0"/>
<feOffset dx="3.22951" dy="3.22951"/>
<feGaussianBlur stdDeviation="3.22951"/>
<feColorMatrix type="matrix" values="0 0 0 0 0 0 0 0 0 0 0 0 0 0 0 0 0 0 0.1 0"/>
<feBlend mode="normal" in2="effect1_dropShadow" result="effect2_dropShadow"/>
<feBlend mode="normal" in="SourceGraphic" in2="effect2_dropShadow" result="shape"/>
</filter>
<clipPath id="clip0">
<rect width="52.3744" height="49.9866" fill="white" transform="translate(207.092 43.3078)"/>
</clipPath>
<clipPath id="clip1">
</clipPath>
<clipPath id="clip2">
</clipPath>
<clipPath id="clip3">
</clipPath>
<clipPath id="clip4">
<rect width="48.3553" height="46.2976" fill="white" transform="translate(703.794 45.619)"/>
</clipPath>
</defs>
</svg>
