<svg width="134" height="43" viewBox="0 0 134 43" fill="none" xmlns="http://www.w3.org/2000/svg">
<rect x="0.0175781" y="0.428223" width="133.706" height="42.4463" rx="8.48926" fill="#F16B58"/>
<path d="M18.9649 16.2224L14.89 27.4282H12.1565L8.06466 16.2224H10.5435L12.9035 23.3533L13.5487 25.5606L14.1769 23.3703L16.5539 16.2224H18.9649ZM22.1046 17.7165C21.1424 17.7165 20.6614 17.3033 20.6614 16.4771C20.6614 15.6394 21.1424 15.2206 22.1046 15.2206C23.0667 15.2206 23.5477 15.6394 23.5477 16.4771C23.5477 17.3033 23.0667 17.7165 22.1046 17.7165ZM23.2591 18.9389V27.4282H20.933V18.9389H23.2591ZM30.1732 27.598C28.8376 27.598 27.7679 27.2131 26.9643 26.4434C26.1606 25.6624 25.7588 24.5758 25.7588 23.1836C25.7588 22.2554 25.9399 21.4631 26.3021 20.8066C26.6643 20.1501 27.168 19.6464 27.8132 19.2955C28.4697 18.9446 29.2167 18.7691 30.0544 18.7691C30.9146 18.7691 31.6447 18.9446 32.2446 19.2955C32.8445 19.6351 33.3029 20.1048 33.6198 20.7047C33.9368 21.2933 34.0952 21.9668 34.0952 22.7251C34.0952 22.9515 34.0896 23.1666 34.0783 23.3703C34.0669 23.5741 34.05 23.7552 34.0273 23.9136H28.0339C28.1245 24.5701 28.3508 25.0625 28.7131 25.3908C29.0866 25.7077 29.5676 25.8662 30.1562 25.8662C30.6543 25.8662 31.0561 25.77 31.3617 25.5775C31.6673 25.3851 31.905 25.1191 32.0748 24.7795L33.9255 25.4926C33.6538 26.1605 33.1784 26.6811 32.4993 27.0547C31.8201 27.4169 31.0448 27.598 30.1732 27.598ZM30.0374 20.484C28.9394 20.484 28.2773 21.0895 28.0509 22.3007H31.8711C31.8031 21.7121 31.6107 21.265 31.2938 20.9594C30.9882 20.6424 30.5694 20.484 30.0374 20.484ZM47.2948 18.9389H49.7737L47.0571 27.4282H44.3745L42.5239 21.6555L40.7411 27.4282H38.0585L35.342 18.9389H37.8208L39.5187 25.4417L41.4033 18.9389H43.7124L45.614 25.4417L47.2948 18.9389ZM59.0885 27.4282L55.8287 16.2224H58.3245L60.5317 25.4757L62.7729 16.2224H65.014L67.2892 25.4757L69.4794 16.2224H71.8734L68.6135 27.4282H65.9818L64.4198 21.3159L63.8935 18.6673H63.8595L63.3332 21.3159L61.7881 27.4282H59.0885ZM77.1108 27.598C75.7752 27.598 74.7056 27.2131 73.9019 26.4434C73.0983 25.6624 72.6964 24.5758 72.6964 23.1836C72.6964 22.2554 72.8775 21.4631 73.2397 20.8066C73.6019 20.1501 74.1056 19.6464 74.7508 19.2955C75.4073 18.9446 76.1544 18.7691 76.992 18.7691C77.8522 18.7691 78.5823 18.9446 79.1822 19.2955C79.7821 19.6351 80.2405 20.1048 80.5575 20.7047C80.8744 21.2933 81.0329 21.9668 81.0329 22.7251C81.0329 22.9515 81.0272 23.1666 81.0159 23.3703C81.0046 23.5741 80.9876 23.7552 80.965 23.9136H74.9715C75.0621 24.5701 75.2885 25.0625 75.6507 25.3908C76.0242 25.7077 76.5053 25.8662 77.0939 25.8662C77.5919 25.8662 77.9937 25.77 78.2993 25.5775C78.6049 25.3851 78.8426 25.1191 79.0124 24.7795L80.8631 25.4926C80.5914 26.1605 80.116 26.6811 79.4369 27.0547C78.7578 27.4169 77.9824 27.598 77.1108 27.598ZM76.975 20.484C75.8771 20.484 75.2149 21.0895 74.9885 22.3007H78.8087C78.7408 21.7121 78.5484 21.265 78.2314 20.9594C77.9258 20.6424 77.507 20.484 76.975 20.484ZM88.5052 27.598C87.826 27.598 87.2374 27.4225 86.7394 27.0716C86.2527 26.7094 85.8905 26.2397 85.6528 25.6624L85.5679 27.4282H83.5135V15.2206H85.8395V20.3821C86.0885 19.9067 86.4394 19.5219 86.8922 19.2276C87.3563 18.922 87.9166 18.7691 88.5731 18.7691C89.2522 18.7691 89.8578 18.9446 90.3898 19.2955C90.9331 19.6464 91.3575 20.1557 91.6632 20.8235C91.9801 21.4801 92.1386 22.2724 92.1386 23.2005C92.1386 24.1287 91.9801 24.921 91.6632 25.5775C91.3575 26.2227 90.9274 26.7208 90.3728 27.0716C89.8295 27.4225 89.2069 27.598 88.5052 27.598ZM87.809 25.8152C88.4429 25.8152 88.9353 25.5945 89.2862 25.1531C89.6371 24.7003 89.8125 24.0438 89.8125 23.1836C89.8125 22.3233 89.6371 21.6725 89.2862 21.231C88.9353 20.7783 88.4486 20.5519 87.826 20.5519C87.2261 20.5519 86.745 20.7953 86.3828 21.282C86.0206 21.7574 85.8395 22.3969 85.8395 23.2005C85.8395 24.0268 86.0206 24.672 86.3828 25.1361C86.745 25.5889 87.2204 25.8152 87.809 25.8152ZM98.0633 27.598C97.203 27.598 96.4163 27.4452 95.7032 27.1396C95.0015 26.8339 94.4299 26.4038 93.9884 25.8492L95.3297 24.4909C95.6014 24.8984 95.9636 25.2323 96.4163 25.4926C96.8691 25.753 97.4068 25.8831 98.0293 25.8831C98.4707 25.8831 98.8216 25.8209 99.082 25.6964C99.3536 25.5606 99.4894 25.3512 99.4894 25.0682C99.4894 24.8871 99.4272 24.7343 99.3027 24.6098C99.1782 24.4739 98.9292 24.3664 98.5556 24.2872L97.0615 23.9816C96.0768 23.7778 95.375 23.4722 94.9562 23.0647C94.5487 22.6459 94.345 22.1083 94.345 21.4518C94.345 20.9877 94.4808 20.5519 94.7524 20.1444C95.0354 19.7369 95.4542 19.4087 96.0089 19.1597C96.5635 18.8993 97.2539 18.7691 98.0802 18.7691C99.8007 18.7691 101.034 19.2955 101.782 20.3482L100.389 21.7064C100.14 21.3103 99.812 21.0103 99.4046 20.8066C99.0084 20.5915 98.5896 20.484 98.1481 20.484C97.1521 20.484 96.654 20.7613 96.654 21.3159C96.654 21.497 96.7333 21.6555 96.8917 21.7913C97.0502 21.9158 97.3388 22.0234 97.7576 22.1139L99.4894 22.4705C100.327 22.6403 100.927 22.9289 101.289 23.3364C101.651 23.7325 101.832 24.2136 101.832 24.7795C101.832 25.5945 101.504 26.268 100.848 26.8C100.203 27.332 99.2744 27.598 98.0633 27.598ZM105.368 17.7165C104.406 17.7165 103.925 17.3033 103.925 16.4771C103.925 15.6394 104.406 15.2206 105.368 15.2206C106.33 15.2206 106.811 15.6394 106.811 16.4771C106.811 17.3033 106.33 17.7165 105.368 17.7165ZM106.523 18.9389V27.4282H104.197V18.9389H106.523ZM115.22 18.9389V20.6707H112.503V24.6607C112.503 25.0682 112.605 25.3681 112.809 25.5606C113.024 25.7417 113.312 25.8322 113.675 25.8322C113.969 25.8322 114.218 25.7926 114.422 25.7134C114.637 25.6228 114.829 25.504 114.999 25.3568L115.372 26.9019C115.089 27.1169 114.744 27.2867 114.337 27.4112C113.941 27.5357 113.516 27.598 113.063 27.598C112.214 27.598 111.518 27.4056 110.975 27.0207C110.443 26.6245 110.177 25.9624 110.177 25.0342V20.6707H108.615V18.9389H110.177V16.9864L112.503 16.3412V18.9389H115.22ZM121.242 27.598C119.906 27.598 118.836 27.2131 118.033 26.4434C117.229 25.6624 116.827 24.5758 116.827 23.1836C116.827 22.2554 117.008 21.4631 117.371 20.8066C117.733 20.1501 118.237 19.6464 118.882 19.2955C119.538 18.9446 120.285 18.7691 121.123 18.7691C121.983 18.7691 122.713 18.9446 123.313 19.2955C123.913 19.6351 124.371 20.1048 124.688 20.7047C125.005 21.2933 125.164 21.9668 125.164 22.7251C125.164 22.9515 125.158 23.1666 125.147 23.3703C125.135 23.5741 125.118 23.7552 125.096 23.9136H119.102C119.193 24.5701 119.419 25.0625 119.782 25.3908C120.155 25.7077 120.636 25.8662 121.225 25.8662C121.723 25.8662 122.125 25.77 122.43 25.5775C122.736 25.3851 122.974 25.1191 123.143 24.7795L124.994 25.4926C124.722 26.1605 124.247 26.6811 123.568 27.0547C122.889 27.4169 122.113 27.598 121.242 27.598ZM121.106 20.484C120.008 20.484 119.346 21.0895 119.119 22.3007H122.94C122.872 21.7121 122.679 21.265 122.362 20.9594C122.057 20.6424 121.638 20.484 121.106 20.484Z" fill="white"/>
</svg>
