<svg width="24" height="24" viewBox="0 0 24 24" fill="none" xmlns="http://www.w3.org/2000/svg">
<g clip-path="url(#clip0)">
<path d="M23.5219 6.18541C23.3862 5.67482 23.1188 5.20883 22.7464 4.83407C22.374 4.4593 21.9098 4.18891 21.4 4.04996C19.5237 3.54541 12.0237 3.54541 12.0237 3.54541C12.0237 3.54541 4.52368 3.54541 2.64732 4.04996C2.13761 4.18891 1.67334 4.4593 1.30097 4.83407C0.928598 5.20883 0.661187 5.67482 0.5255 6.18541C0.0236817 8.06996 0.0236816 12 0.0236816 12C0.0236816 12 0.0236817 15.93 0.5255 17.8145C0.661187 18.3251 0.928598 18.7911 1.30097 19.1658C1.67334 19.5406 2.13761 19.811 2.64732 19.95C4.52368 20.4545 12.0237 20.4545 12.0237 20.4545C12.0237 20.4545 19.5237 20.4545 21.4 19.95C21.9098 19.811 22.374 19.5406 22.7464 19.1658C23.1188 18.7911 23.3862 18.3251 23.5219 17.8145C24.0237 15.93 24.0237 12 24.0237 12C24.0237 12 24.0237 8.06996 23.5219 6.18541Z" fill="#F59689"/>
<path d="M9.56934 15.5687V8.4314L15.8421 12L9.56934 15.5687Z" fill="white"/>
</g>
<defs>
<clipPath id="clip0">
<rect width="24" height="24" fill="white"/>
</clipPath>
</defs>
</svg>
