<svg width="88" height="34" viewBox="0 0 88 34" fill="none" xmlns="http://www.w3.org/2000/svg">
<path d="M13.3053 21.9899C12.4853 21.9899 11.7644 21.8097 11.1426 21.4492C10.5299 21.0888 10.0523 20.5661 9.70983 19.8813C9.3674 19.1964 9.19619 18.3719 9.19619 17.4077C9.19619 16.4525 9.37641 15.6325 9.73686 14.9476C10.0973 14.2537 10.6064 13.7221 11.2643 13.3526C11.9221 12.9832 12.6926 12.7984 13.5757 12.7984C14.5489 12.7984 15.3283 12.9787 15.9141 13.3391C16.5088 13.6905 16.9819 14.2402 17.3333 14.9882L15.6032 15.7316C15.459 15.254 15.2112 14.9026 14.8598 14.6773C14.5173 14.443 14.0938 14.3258 13.5892 14.3258C12.8322 14.3258 12.233 14.5917 11.7914 15.1233C11.3499 15.655 11.1291 16.4119 11.1291 17.3942C11.1291 18.4124 11.3409 19.1829 11.7644 19.7056C12.1879 20.2282 12.8142 20.4895 13.6432 20.4895C14.247 20.4895 14.7471 20.3454 15.1436 20.057C15.5491 19.7596 15.7519 19.3136 15.7519 18.7188V18.5161H13.4135V17.1509H17.3604V21.8547H16.0492L15.9681 20.7193C15.7158 21.1248 15.3644 21.4402 14.9138 21.6655C14.4633 21.8818 13.9271 21.9899 13.3053 21.9899ZM23.4789 17.5429C23.4789 17.1554 23.3662 16.8535 23.141 16.6372C22.9247 16.421 22.6363 16.3128 22.2759 16.3128C21.9425 16.3128 21.6496 16.3984 21.3973 16.5696C21.145 16.7409 20.9602 17.0247 20.8431 17.4212L19.2616 16.9346C19.4148 16.3399 19.7482 15.8623 20.2619 15.5018C20.7845 15.1414 21.4829 14.9611 22.357 14.9611C23.2401 14.9611 23.952 15.1729 24.4926 15.5964C25.0423 16.0109 25.3172 16.6327 25.3172 17.4618V20.2057C25.3172 20.5481 25.4794 20.7193 25.8038 20.7193C25.957 20.7193 26.1011 20.6968 26.2363 20.6517L26.1282 21.8007C25.8939 21.9178 25.601 21.9764 25.2496 21.9764C24.8621 21.9764 24.5242 21.8953 24.2358 21.7331C23.9565 21.5709 23.7672 21.3276 23.6681 21.0032C23.4518 21.3276 23.141 21.5754 22.7354 21.7466C22.339 21.9088 21.9289 21.9899 21.5054 21.9899C20.8206 21.9899 20.2754 21.8367 19.8699 21.5303C19.4734 21.2149 19.2751 20.7599 19.2751 20.1651C19.2751 19.6605 19.4373 19.2505 19.7617 18.9351C20.0861 18.6107 20.5502 18.3899 21.154 18.2728L23.4789 17.7997V17.5429ZM21.1269 19.9894C21.1269 20.2147 21.208 20.3859 21.3702 20.503C21.5415 20.6202 21.7442 20.6788 21.9785 20.6788C22.2398 20.6788 22.4831 20.6382 22.7084 20.5571C22.9337 20.476 23.1184 20.3408 23.2626 20.1516C23.4068 19.9534 23.4789 19.692 23.4789 19.3676V18.9486L22.0596 19.2325C21.7532 19.2955 21.5189 19.3811 21.3567 19.4893C21.2035 19.5884 21.1269 19.7551 21.1269 19.9894ZM29.6185 12.1361V19.7731C29.6185 20.0885 29.6726 20.3093 29.7807 20.4355C29.8888 20.5616 30.0691 20.6247 30.3214 20.6247C30.4746 20.6247 30.6007 20.6157 30.6998 20.5977C30.799 20.5796 30.9251 20.5436 31.0783 20.4895L30.9161 21.7061C30.7629 21.7962 30.5692 21.8637 30.3349 21.9088C30.1096 21.9629 29.8843 21.9899 29.659 21.9899C29.0012 21.9899 28.5191 21.8322 28.2127 21.5168C27.9154 21.1924 27.7667 20.6788 27.7667 19.9759V12.1361H29.6185ZM34.3404 12.1361V19.7731C34.3404 20.0885 34.3945 20.3093 34.5026 20.4355C34.6108 20.5616 34.791 20.6247 35.0433 20.6247C35.1965 20.6247 35.3227 20.6157 35.4218 20.5977C35.5209 20.5796 35.6471 20.5436 35.8002 20.4895L35.638 21.7061C35.4849 21.7962 35.2911 21.8637 35.0568 21.9088C34.8315 21.9629 34.6063 21.9899 34.381 21.9899C33.7232 21.9899 33.2411 21.8322 32.9347 21.5168C32.6373 21.1924 32.4886 20.6788 32.4886 19.9759V12.1361H34.3404ZM40.3735 21.9899C39.3102 21.9899 38.4586 21.6835 37.8188 21.0708C37.179 20.449 36.8591 19.5839 36.8591 18.4755C36.8591 17.7366 37.0033 17.1058 37.2916 16.5832C37.58 16.0605 37.981 15.6595 38.4946 15.3802C39.0173 15.1008 39.612 14.9611 40.2789 14.9611C40.9637 14.9611 41.545 15.1008 42.0225 15.3802C42.5001 15.6505 42.8651 16.0245 43.1174 16.5021C43.3697 16.9706 43.4959 17.5068 43.4959 18.1106C43.4959 18.2908 43.4914 18.462 43.4824 18.6242C43.4734 18.7864 43.4598 18.9306 43.4418 19.0567H38.6704C38.7425 19.5794 38.9227 19.9714 39.211 20.2327C39.5084 20.485 39.8914 20.6112 40.36 20.6112C40.7565 20.6112 41.0764 20.5346 41.3197 20.3814C41.563 20.2282 41.7522 20.0164 41.8874 19.7461L43.3607 20.3138C43.1445 20.8455 42.766 21.26 42.2253 21.5574C41.6846 21.8457 41.0674 21.9899 40.3735 21.9899ZM40.2654 16.3263C39.3913 16.3263 38.8641 16.8084 38.6839 17.7726H41.7252C41.6711 17.3041 41.5179 16.9481 41.2656 16.7048C41.0223 16.4525 40.6889 16.3263 40.2654 16.3263ZM45.4707 21.8547V15.0963H47.0792L47.2009 16.421C47.3721 15.9614 47.6289 15.6054 47.9713 15.3531C48.3228 15.0918 48.7643 14.9611 49.296 14.9611C49.6114 14.9611 49.8547 15.0107 50.0259 15.1098L49.8096 16.6643C49.7195 16.6372 49.6069 16.6147 49.4717 16.5967C49.3456 16.5696 49.1789 16.5561 48.9716 16.5561C48.6922 16.5561 48.4264 16.6237 48.1741 16.7589C47.9308 16.885 47.728 17.0833 47.5658 17.3536C47.4036 17.6149 47.3225 17.9484 47.3225 18.3539V21.8547H45.4707ZM57.9316 15.0963L55.2012 22.2738C54.9849 22.8865 54.7416 23.3731 54.4713 23.7336C54.2099 24.103 53.9036 24.3644 53.5521 24.5176C53.2097 24.6798 52.7997 24.7609 52.3221 24.7609C51.9707 24.7609 51.6462 24.7203 51.3489 24.6392C51.0605 24.5581 50.8082 24.4455 50.5919 24.3013L50.9839 22.9631C51.2993 23.2154 51.6958 23.3416 52.1734 23.3416C52.4347 23.3416 52.6555 23.2875 52.8357 23.1794C53.016 23.0713 53.1691 22.855 53.2953 22.5306L53.5251 21.9494L52.7817 20.1922L50.7136 15.0963H52.7681L54.0522 19.1514L54.4037 20.503L54.8227 19.0703L56.0527 15.0963H57.9316Z" fill="#F59689"/>
<g clip-path="url(#clip0)">
<path d="M75.5834 17.4135C75.5357 17.4625 75.3554 17.672 75.1875 17.8443C74.2032 18.9282 71.6355 20.7023 70.2915 21.2438C70.0874 21.3308 69.5714 21.515 69.2957 21.5268C69.0315 21.5268 68.7797 21.466 68.5394 21.3426C68.2398 21.1703 67.9995 20.8991 67.8678 20.5789C67.783 20.3568 67.6514 19.6919 67.6514 19.6801C67.5197 18.9527 67.4473 17.7708 67.4473 16.4647C67.4473 15.2203 67.5197 14.0866 67.6275 13.3483C67.6398 13.3364 67.7715 12.5102 67.9155 12.2272C68.1797 11.7102 68.6957 11.3892 69.248 11.3892H69.2957C69.6554 11.4018 70.4117 11.7229 70.4117 11.7347C71.6832 12.277 74.1917 13.9641 75.1999 15.0852C75.1999 15.0852 75.4838 15.3733 75.6073 15.5532C75.7998 15.8117 75.8953 16.1319 75.8953 16.4521C75.8953 16.8094 75.7875 17.1423 75.5834 17.4135Z" fill="#F59689"/>
</g>
<rect x="1.23761" y="0.937317" width="85.9537" height="31.8862" rx="6.22786" stroke="#F59689" stroke-width="1.06116"/>
<defs>
<clipPath id="clip0">
<rect width="15.2065" height="15.2065" fill="white" transform="translate(64.9121 9.27722)"/>
</clipPath>
</defs>
</svg>
