<svg width="655" height="382" viewBox="0 0 655 382" fill="none" xmlns="http://www.w3.org/2000/svg">
<g filter="url(#filter0_dd)">
<rect x="98" y="10" width="117.01" height="117.01" rx="58.5052" fill="#FAFCFE"/>
</g>
<g clip-path="url(#clip0)">
<rect x="135.076" y="47.2832" width="42.9703" height="42.9703" stroke="#1B1B1B" stroke-width="3.32731"/>
<path d="M174.088 76.8678L163.631 87.3243V76.8678H174.088Z" stroke="#1B1B1B" stroke-width="3.32731"/>
<path d="M135.495 54.1158H178.083" stroke="#1B1B1B" stroke-width="3.32731"/>
</g>
<path d="M127.434 147.518L124.298 157.598H122.821L120.455 150.36C120.427 150.28 120.399 150.194 120.371 150.101C120.347 150.007 120.324 149.907 120.301 149.8C120.277 149.907 120.252 150.007 120.224 150.101C120.2 150.194 120.175 150.28 120.147 150.36L117.76 157.598H116.283L113.147 147.518H114.519C114.659 147.518 114.775 147.553 114.869 147.623C114.967 147.688 115.032 147.779 115.065 147.896L116.955 154.357C116.992 154.497 117.027 154.648 117.06 154.812C117.092 154.975 117.125 155.145 117.158 155.323C117.19 155.145 117.225 154.975 117.263 154.812C117.305 154.644 117.349 154.492 117.396 154.357L119.559 147.896C119.591 147.802 119.657 147.716 119.755 147.637C119.853 147.557 119.969 147.518 120.105 147.518H120.581C120.725 147.518 120.842 147.555 120.931 147.63C121.019 147.7 121.087 147.788 121.134 147.896L123.29 154.357C123.336 154.492 123.378 154.639 123.416 154.798C123.458 154.952 123.495 155.115 123.528 155.288C123.56 155.115 123.591 154.952 123.619 154.798C123.651 154.639 123.686 154.492 123.724 154.357L125.607 147.896C125.635 147.793 125.698 147.704 125.796 147.63C125.898 147.555 126.017 147.518 126.153 147.518H127.434ZM132.885 150.346C133.412 150.346 133.888 150.432 134.313 150.605C134.742 150.777 135.106 151.022 135.405 151.34C135.708 151.657 135.941 152.042 136.105 152.495C136.268 152.947 136.35 153.456 136.35 154.021C136.35 154.585 136.268 155.094 136.105 155.547C135.941 155.999 135.708 156.387 135.405 156.709C135.106 157.026 134.742 157.271 134.313 157.444C133.888 157.616 133.412 157.703 132.885 157.703C132.353 157.703 131.872 157.616 131.443 157.444C131.018 157.271 130.654 157.026 130.351 156.709C130.047 156.387 129.814 155.999 129.651 155.547C129.487 155.094 129.406 154.585 129.406 154.021C129.406 153.456 129.487 152.947 129.651 152.495C129.814 152.042 130.047 151.657 130.351 151.34C130.654 151.022 131.018 150.777 131.443 150.605C131.872 150.432 132.353 150.346 132.885 150.346ZM132.885 156.527C133.529 156.527 134.007 156.312 134.32 155.883C134.637 155.449 134.796 154.83 134.796 154.028C134.796 153.225 134.637 152.607 134.32 152.173C134.007 151.734 133.529 151.515 132.885 151.515C132.231 151.515 131.746 151.734 131.429 152.173C131.111 152.607 130.953 153.225 130.953 154.028C130.953 154.83 131.111 155.449 131.429 155.883C131.746 156.312 132.231 156.527 132.885 156.527ZM141.317 151.781C141.541 151.328 141.811 150.973 142.129 150.717C142.446 150.455 142.826 150.325 143.27 150.325C143.424 150.325 143.568 150.343 143.704 150.381C143.839 150.413 143.96 150.465 144.068 150.535L143.963 151.669C143.944 151.748 143.914 151.804 143.872 151.837C143.834 151.865 143.783 151.879 143.718 151.879C143.648 151.879 143.547 151.867 143.417 151.844C143.286 151.816 143.148 151.802 143.004 151.802C142.794 151.802 142.607 151.832 142.444 151.893C142.285 151.953 142.14 152.042 142.01 152.159C141.884 152.275 141.772 152.418 141.674 152.586C141.576 152.754 141.485 152.945 141.401 153.16V157.598H139.896V150.458H140.771C140.929 150.458 141.039 150.488 141.1 150.549C141.16 150.605 141.202 150.705 141.226 150.85L141.317 151.781ZM148.669 147.238V153.244H148.991C149.093 153.244 149.177 153.23 149.243 153.202C149.308 153.174 149.376 153.115 149.446 153.027L151.448 150.738C151.518 150.644 151.595 150.574 151.679 150.528C151.763 150.481 151.87 150.458 152.001 150.458H153.366L150.958 153.174C150.818 153.356 150.664 153.5 150.496 153.608C150.589 153.673 150.671 153.748 150.741 153.832C150.811 153.911 150.878 154.002 150.944 154.105L153.513 157.598H152.169C152.047 157.598 151.942 157.579 151.854 157.542C151.77 157.5 151.695 157.425 151.63 157.318L149.565 154.518C149.495 154.41 149.425 154.343 149.355 154.315C149.285 154.282 149.18 154.266 149.04 154.266H148.669V157.598H147.164V147.238H148.669ZM160.841 151.753C160.804 151.818 160.762 151.865 160.715 151.893C160.669 151.921 160.61 151.935 160.54 151.935C160.461 151.935 160.375 151.911 160.281 151.865C160.188 151.813 160.078 151.757 159.952 151.697C159.826 151.636 159.677 151.582 159.504 151.536C159.336 151.484 159.138 151.459 158.909 151.459C158.723 151.459 158.552 151.482 158.398 151.529C158.249 151.571 158.121 151.634 158.013 151.718C157.911 151.797 157.831 151.893 157.775 152.005C157.719 152.112 157.691 152.229 157.691 152.355C157.691 152.523 157.743 152.663 157.845 152.775C157.948 152.887 158.083 152.985 158.251 153.069C158.419 153.148 158.611 153.22 158.825 153.286C159.04 153.351 159.259 153.421 159.483 153.496C159.707 153.57 159.927 153.657 160.141 153.755C160.356 153.853 160.547 153.974 160.715 154.119C160.883 154.259 161.019 154.431 161.121 154.637C161.224 154.837 161.275 155.082 161.275 155.372C161.275 155.708 161.215 156.018 161.093 156.303C160.972 156.587 160.795 156.835 160.561 157.045C160.328 157.255 160.036 157.418 159.686 157.535C159.341 157.651 158.944 157.71 158.496 157.71C158.249 157.71 158.009 157.686 157.775 157.64C157.547 157.598 157.327 157.539 157.117 157.465C156.912 157.385 156.718 157.292 156.536 157.185C156.359 157.077 156.2 156.961 156.06 156.835L156.41 156.261C156.452 156.191 156.504 156.137 156.564 156.1C156.63 156.058 156.709 156.037 156.802 156.037C156.9 156.037 156.996 156.069 157.089 156.135C157.187 156.195 157.299 156.263 157.425 156.338C157.556 156.412 157.712 156.482 157.894 156.548C158.076 156.608 158.303 156.639 158.573 156.639C158.797 156.639 158.991 156.613 159.154 156.562C159.318 156.506 159.453 156.431 159.56 156.338C159.668 156.244 159.747 156.139 159.798 156.023C159.85 155.901 159.875 155.773 159.875 155.638C159.875 155.456 159.824 155.306 159.721 155.19C159.619 155.073 159.481 154.973 159.308 154.889C159.14 154.805 158.947 154.73 158.727 154.665C158.513 154.599 158.293 154.529 158.069 154.455C157.845 154.38 157.624 154.294 157.404 154.196C157.19 154.098 156.996 153.974 156.823 153.825C156.655 153.671 156.52 153.486 156.417 153.272C156.315 153.052 156.263 152.786 156.263 152.474C156.263 152.189 156.319 151.918 156.431 151.662C156.548 151.405 156.716 151.179 156.935 150.983C157.159 150.787 157.432 150.633 157.754 150.521C158.081 150.404 158.457 150.346 158.881 150.346C159.362 150.346 159.798 150.423 160.19 150.577C160.582 150.731 160.911 150.941 161.177 151.207L160.841 151.753ZM166.295 151.305C166.589 151.015 166.911 150.784 167.261 150.612C167.611 150.434 168.019 150.346 168.486 150.346C168.878 150.346 169.221 150.411 169.515 150.542C169.813 150.672 170.063 150.857 170.264 151.095C170.469 151.333 170.623 151.62 170.726 151.956C170.828 152.287 170.88 152.653 170.88 153.055V157.598H169.382V153.055C169.382 152.574 169.27 152.201 169.046 151.935C168.826 151.669 168.49 151.536 168.038 151.536C167.702 151.536 167.389 151.613 167.1 151.767C166.815 151.921 166.547 152.131 166.295 152.397V157.598H164.79V147.238H166.295V151.305ZM177.824 150.346C178.352 150.346 178.828 150.432 179.252 150.605C179.682 150.777 180.046 151.022 180.344 151.34C180.648 151.657 180.881 152.042 181.044 152.495C181.208 152.947 181.289 153.456 181.289 154.021C181.289 154.585 181.208 155.094 181.044 155.547C180.881 155.999 180.648 156.387 180.344 156.709C180.046 157.026 179.682 157.271 179.252 157.444C178.828 157.616 178.352 157.703 177.824 157.703C177.292 157.703 176.812 157.616 176.382 157.444C175.958 157.271 175.594 157.026 175.29 156.709C174.987 156.387 174.754 155.999 174.59 155.547C174.427 155.094 174.345 154.585 174.345 154.021C174.345 153.456 174.427 152.947 174.59 152.495C174.754 152.042 174.987 151.657 175.29 151.34C175.594 151.022 175.958 150.777 176.382 150.605C176.812 150.432 177.292 150.346 177.824 150.346ZM177.824 156.527C178.468 156.527 178.947 156.312 179.259 155.883C179.577 155.449 179.735 154.83 179.735 154.028C179.735 153.225 179.577 152.607 179.259 152.173C178.947 151.734 178.468 151.515 177.824 151.515C177.171 151.515 176.686 151.734 176.368 152.173C176.051 152.607 175.892 153.225 175.892 154.028C175.892 154.83 176.051 155.449 176.368 155.883C176.686 156.312 177.171 156.527 177.824 156.527ZM186.34 155.806C186.55 156.076 186.779 156.268 187.026 156.38C187.278 156.487 187.556 156.541 187.859 156.541C188.447 156.541 188.905 156.326 189.231 155.897C189.563 155.467 189.728 154.828 189.728 153.979C189.728 153.54 189.691 153.167 189.616 152.859C189.542 152.546 189.434 152.292 189.294 152.096C189.154 151.9 188.984 151.757 188.783 151.669C188.583 151.58 188.356 151.536 188.104 151.536C187.722 151.536 187.39 151.62 187.11 151.788C186.835 151.951 186.578 152.187 186.34 152.495V155.806ZM186.263 151.494C186.562 151.144 186.9 150.861 187.278 150.647C187.661 150.432 188.104 150.325 188.608 150.325C189.01 150.325 189.374 150.406 189.7 150.57C190.027 150.728 190.307 150.962 190.54 151.27C190.774 151.578 190.953 151.96 191.079 152.418C191.21 152.87 191.275 153.391 191.275 153.979C191.275 154.506 191.203 154.998 191.058 155.456C190.918 155.908 190.715 156.303 190.449 156.639C190.183 156.97 189.861 157.231 189.483 157.423C189.105 157.609 188.678 157.703 188.202 157.703C187.782 157.703 187.425 157.635 187.131 157.5C186.842 157.364 186.578 157.178 186.34 156.94V159.971H184.835V150.458H185.745C185.951 150.458 186.081 150.553 186.137 150.745L186.263 151.494ZM199.101 151.753C199.063 151.818 199.021 151.865 198.975 151.893C198.928 151.921 198.87 151.935 198.8 151.935C198.72 151.935 198.634 151.911 198.541 151.865C198.447 151.813 198.338 151.757 198.212 151.697C198.086 151.636 197.936 151.582 197.764 151.536C197.596 151.484 197.397 151.459 197.169 151.459C196.982 151.459 196.812 151.482 196.658 151.529C196.508 151.571 196.38 151.634 196.273 151.718C196.17 151.797 196.091 151.893 196.035 152.005C195.979 152.112 195.951 152.229 195.951 152.355C195.951 152.523 196.002 152.663 196.105 152.775C196.207 152.887 196.343 152.985 196.511 153.069C196.679 153.148 196.87 153.22 197.085 153.286C197.299 153.351 197.519 153.421 197.743 153.496C197.967 153.57 198.186 153.657 198.401 153.755C198.615 153.853 198.807 153.974 198.975 154.119C199.143 154.259 199.278 154.431 199.381 154.637C199.483 154.837 199.535 155.082 199.535 155.372C199.535 155.708 199.474 156.018 199.353 156.303C199.231 156.587 199.054 156.835 198.821 157.045C198.587 157.255 198.296 157.418 197.946 157.535C197.6 157.651 197.204 157.71 196.756 157.71C196.508 157.71 196.268 157.686 196.035 157.64C195.806 157.598 195.587 157.539 195.377 157.465C195.171 157.385 194.978 157.292 194.796 157.185C194.618 157.077 194.46 156.961 194.32 156.835L194.67 156.261C194.712 156.191 194.763 156.137 194.824 156.1C194.889 156.058 194.968 156.037 195.062 156.037C195.16 156.037 195.255 156.069 195.349 156.135C195.447 156.195 195.559 156.263 195.685 156.338C195.815 156.412 195.972 156.482 196.154 156.548C196.336 156.608 196.562 156.639 196.833 156.639C197.057 156.639 197.25 156.613 197.414 156.562C197.577 156.506 197.712 156.431 197.82 156.338C197.927 156.244 198.006 156.139 198.058 156.023C198.109 155.901 198.135 155.773 198.135 155.638C198.135 155.456 198.083 155.306 197.981 155.19C197.878 155.073 197.74 154.973 197.568 154.889C197.4 154.805 197.206 154.73 196.987 154.665C196.772 154.599 196.553 154.529 196.329 154.455C196.105 154.38 195.883 154.294 195.664 154.196C195.449 154.098 195.255 153.974 195.083 153.825C194.915 153.671 194.779 153.486 194.677 153.272C194.574 153.052 194.523 152.786 194.523 152.474C194.523 152.189 194.579 151.918 194.691 151.662C194.807 151.405 194.975 151.179 195.195 150.983C195.419 150.787 195.692 150.633 196.014 150.521C196.34 150.404 196.716 150.346 197.141 150.346C197.621 150.346 198.058 150.423 198.45 150.577C198.842 150.731 199.171 150.941 199.437 151.207L199.101 151.753Z" fill="#082C4E"/>
<g filter="url(#filter1_dd)">
<rect x="260.01" y="10" width="117.01" height="117.01" rx="58.5052" fill="#FAFCFE"/>
</g>
<path d="M308.941 55.1674C308.543 54.7698 307.899 54.7698 307.501 55.1674C307.103 55.565 307.103 56.2096 307.501 56.6072L308.448 57.5542L292.818 92.9851C292.449 93.8209 293.298 94.7082 294.161 94.3276L329.592 78.6978L330.539 79.6447C330.737 79.8435 330.998 79.9429 331.258 79.9429C331.519 79.9429 331.78 79.8435 331.978 79.6447C332.376 79.2471 332.376 78.6024 331.978 78.2048L308.941 55.1674ZM318.056 81.5609L305.585 69.0895L307.348 65.0931L322.053 79.7979L318.056 81.5609ZM299.415 83.077L304.069 87.7312L295.741 91.4049L299.415 83.077ZM306.067 86.8497L300.296 81.0787L302.059 77.0824L310.063 85.0868L306.067 86.8497ZM302.94 75.0841L304.703 71.0877L316.058 82.4423L312.062 84.2051L302.94 75.0841ZM324.051 78.9164L308.229 63.0948L309.992 59.0984L328.047 77.1534L324.051 78.9164Z" fill="#1B1B1B"/>
<path d="M343.986 63.6736C344.543 63.5925 344.928 63.0756 344.847 62.5192C344.766 61.9628 344.249 61.5776 343.693 61.6586C343.412 61.6995 343.145 61.7964 342.9 61.9467C341.573 62.7605 341.802 64.4141 341.97 65.6216C342.034 66.083 342.183 67.1637 341.991 67.2813C341.8 67.399 340.904 66.7755 340.522 66.5092C339.522 65.8126 338.152 64.8586 336.825 65.6723C335.498 66.4861 335.727 68.1398 335.894 69.3472C335.958 69.8087 336.108 70.8893 335.916 71.0069C335.724 71.1246 334.829 70.5011 334.447 70.2348C333.446 69.5382 332.076 68.5842 330.749 69.398C330.27 69.6919 330.12 70.3187 330.414 70.7981C330.708 71.2774 331.334 71.4277 331.814 71.1337C332.006 71.0162 332.901 71.6396 333.283 71.9058C334.01 72.4124 334.933 73.0552 335.893 73.0552C336.253 73.0552 336.618 72.9647 336.98 72.7427C338.307 71.9289 338.078 70.2753 337.911 69.0678C337.847 68.6064 337.697 67.5258 337.889 67.4081C338.081 67.2904 338.976 67.9139 339.358 68.1802C340.359 68.8768 341.729 69.831 343.056 69.0171C344.383 68.2033 344.154 66.5497 343.987 65.3422C343.923 64.8807 343.773 63.8001 343.965 63.6826C343.977 63.6749 343.982 63.6742 343.986 63.6736Z" fill="#1B1B1B"/>
<path d="M316.016 55.3351C315.722 55.8144 315.872 56.4413 316.352 56.7352C316.518 56.8371 316.701 56.8856 316.883 56.8856C317.225 56.8856 317.56 56.7128 317.752 56.3996C318.566 55.0725 317.612 53.7026 316.915 52.7021C316.649 52.3198 316.025 51.4247 316.143 51.2328C316.261 51.041 317.341 51.1907 317.802 51.2547C319.01 51.422 320.664 51.6511 321.477 50.324C322.291 48.997 321.337 47.627 320.64 46.6266C320.374 46.2443 319.751 45.3492 319.868 45.1573C319.986 44.9654 321.067 45.1152 321.528 45.1791C322.735 45.3464 324.389 45.5755 325.203 44.2484C325.353 44.0034 325.45 43.737 325.491 43.4562C325.572 42.8998 325.187 42.3829 324.631 42.3017C324.075 42.2207 323.557 42.6057 323.476 43.1622C323.475 43.1668 323.475 43.1715 323.467 43.184C323.349 43.3758 322.269 43.2262 321.807 43.1622C320.6 42.995 318.946 42.7658 318.133 44.0929C317.319 45.42 318.273 46.79 318.969 47.7903C319.236 48.1726 319.859 49.0678 319.741 49.2596C319.624 49.4514 318.543 49.3016 318.082 49.2378C316.874 49.0705 315.221 48.8414 314.407 50.1685C313.593 51.4956 314.547 52.8656 315.244 53.8659C315.51 54.2481 316.134 55.1433 316.016 55.3351Z" fill="#1B1B1B"/>
<path d="M320.568 60.9819C320.756 61.132 320.981 61.205 321.204 61.205C321.502 61.205 321.798 61.0742 321.999 60.8229L328.43 52.7851C328.781 52.346 328.71 51.7052 328.271 51.354C327.831 51.0027 327.191 51.0739 326.84 51.513L320.409 59.5509C320.058 59.9899 320.129 60.6306 320.568 60.9819Z" fill="#1B1B1B"/>
<path d="M334.362 58.721L326.324 65.1514C325.885 65.5026 325.814 66.1433 326.165 66.5823C326.366 66.8337 326.662 66.9645 326.961 66.9645C327.184 66.9645 327.409 66.8915 327.596 66.7414L335.634 60.3111C336.073 59.9599 336.145 59.3191 335.793 58.88C335.442 58.4409 334.801 58.3697 334.362 58.721Z" fill="#1B1B1B"/>
<path d="M277.958 148.841V152.068H281.899V153.391H277.958V157.598H276.313V147.518H282.599V148.841H277.958ZM291.563 150.458V157.598H290.653C290.453 157.598 290.324 157.502 290.268 157.311L290.156 156.646C290.007 156.804 289.848 156.949 289.68 157.08C289.517 157.21 289.342 157.322 289.155 157.416C288.969 157.509 288.768 157.581 288.553 157.633C288.343 157.684 288.117 157.71 287.874 157.71C287.482 157.71 287.137 157.644 286.838 157.514C286.54 157.383 286.288 157.199 286.082 156.961C285.882 156.723 285.73 156.438 285.627 156.107C285.525 155.771 285.473 155.402 285.473 155.001V150.458H286.978V155.001C286.978 155.481 287.088 155.855 287.307 156.121C287.531 156.387 287.87 156.52 288.322 156.52C288.654 156.52 288.962 156.445 289.246 156.296C289.536 156.142 289.806 155.932 290.058 155.666V150.458H291.563ZM296.898 151.403C297.052 151.244 297.211 151.102 297.374 150.976C297.542 150.845 297.719 150.733 297.906 150.64C298.093 150.546 298.291 150.474 298.501 150.423C298.711 150.371 298.94 150.346 299.187 150.346C299.579 150.346 299.922 150.411 300.216 150.542C300.515 150.672 300.764 150.857 300.965 151.095C301.17 151.333 301.324 151.62 301.427 151.956C301.53 152.287 301.581 152.653 301.581 153.055V157.598H300.083V153.055C300.083 152.574 299.971 152.201 299.747 151.935C299.528 151.669 299.192 151.536 298.739 151.536C298.403 151.536 298.09 151.613 297.801 151.767C297.516 151.921 297.248 152.131 296.996 152.397V157.598H295.491V150.458H296.401C296.606 150.458 296.737 150.553 296.793 150.745L296.898 151.403ZM317.598 156.275L317.591 157.598H311.305V147.518H317.591V148.841H312.95V151.879H316.66V153.16H312.95V156.275H317.598ZM327.204 150.458L324.334 157.598H322.976L320.106 150.458H321.345C321.462 150.458 321.557 150.488 321.632 150.549C321.711 150.605 321.763 150.672 321.786 150.752L323.368 154.91C323.433 155.106 323.492 155.299 323.543 155.491C323.594 155.682 323.639 155.876 323.676 156.072C323.713 155.876 323.758 155.684 323.809 155.498C323.865 155.306 323.926 155.11 323.991 154.91L325.601 150.752C325.629 150.668 325.68 150.598 325.755 150.542C325.83 150.486 325.921 150.458 326.028 150.458H327.204ZM334.81 153.223C334.81 152.971 334.773 152.737 334.698 152.523C334.628 152.303 334.523 152.114 334.383 151.956C334.243 151.792 334.068 151.666 333.858 151.578C333.653 151.484 333.415 151.438 333.144 151.438C332.598 151.438 332.169 151.594 331.856 151.907C331.544 152.219 331.345 152.658 331.261 153.223H334.81ZM331.219 154.147C331.238 154.553 331.301 154.905 331.408 155.204C331.516 155.498 331.658 155.743 331.835 155.939C332.017 156.135 332.232 156.282 332.479 156.38C332.731 156.473 333.011 156.52 333.319 156.52C333.613 156.52 333.868 156.487 334.082 156.422C334.297 156.352 334.484 156.277 334.642 156.198C334.801 156.114 334.936 156.039 335.048 155.974C335.16 155.904 335.263 155.869 335.356 155.869C335.478 155.869 335.571 155.915 335.636 156.009L336.063 156.562C335.886 156.772 335.685 156.949 335.461 157.094C335.237 157.238 334.999 157.357 334.747 157.451C334.495 157.539 334.236 157.602 333.97 157.64C333.704 157.682 333.445 157.703 333.193 157.703C332.699 157.703 332.239 157.621 331.814 157.458C331.394 157.29 331.028 157.045 330.715 156.723C330.407 156.401 330.165 156.002 329.987 155.526C329.815 155.05 329.728 154.501 329.728 153.881C329.728 153.386 329.805 152.924 329.959 152.495C330.118 152.065 330.342 151.692 330.631 151.375C330.925 151.057 331.28 150.808 331.695 150.626C332.115 150.439 332.589 150.346 333.116 150.346C333.555 150.346 333.961 150.418 334.334 150.563C334.708 150.703 335.03 150.91 335.3 151.186C335.571 151.461 335.781 151.799 335.93 152.201C336.084 152.597 336.161 153.05 336.161 153.559C336.161 153.792 336.136 153.948 336.084 154.028C336.033 154.107 335.94 154.147 335.804 154.147H331.219ZM341.072 151.403C341.226 151.244 341.385 151.102 341.548 150.976C341.716 150.845 341.893 150.733 342.08 150.64C342.267 150.546 342.465 150.474 342.675 150.423C342.885 150.371 343.114 150.346 343.361 150.346C343.753 150.346 344.096 150.411 344.39 150.542C344.689 150.672 344.938 150.857 345.139 151.095C345.344 151.333 345.498 151.62 345.601 151.956C345.704 152.287 345.755 152.653 345.755 153.055V157.598H344.257V153.055C344.257 152.574 344.145 152.201 343.921 151.935C343.702 151.669 343.366 151.536 342.913 151.536C342.577 151.536 342.264 151.613 341.975 151.767C341.69 151.921 341.422 152.131 341.17 152.397V157.598H339.665V150.458H340.575C340.78 150.458 340.911 150.553 340.967 150.745L341.072 151.403ZM351.806 157.71C351.213 157.71 350.756 157.544 350.434 157.213C350.116 156.877 349.958 156.405 349.958 155.799V151.641H349.174C349.09 151.641 349.017 151.615 348.957 151.564C348.896 151.508 348.866 151.426 348.866 151.319V150.71L350.021 150.542L350.35 148.477C350.373 148.397 350.413 148.334 350.469 148.288C350.525 148.236 350.599 148.211 350.693 148.211H351.463V150.556H353.444V151.641H351.463V155.694C351.463 155.95 351.526 156.146 351.652 156.282C351.778 156.417 351.946 156.485 352.156 156.485C352.272 156.485 352.373 156.471 352.457 156.443C352.541 156.41 352.613 156.377 352.674 156.345C352.734 156.307 352.786 156.275 352.828 156.247C352.874 156.214 352.919 156.198 352.961 156.198C353.045 156.198 353.112 156.244 353.164 156.338L353.612 157.073C353.378 157.278 353.103 157.437 352.786 157.549C352.468 157.656 352.142 157.71 351.806 157.71ZM360.993 151.753C360.956 151.818 360.914 151.865 360.867 151.893C360.82 151.921 360.762 151.935 360.692 151.935C360.613 151.935 360.526 151.911 360.433 151.865C360.34 151.813 360.23 151.757 360.104 151.697C359.978 151.636 359.829 151.582 359.656 151.536C359.488 151.484 359.29 151.459 359.061 151.459C358.874 151.459 358.704 151.482 358.55 151.529C358.401 151.571 358.272 151.634 358.165 151.718C358.062 151.797 357.983 151.893 357.927 152.005C357.871 152.112 357.843 152.229 357.843 152.355C357.843 152.523 357.894 152.663 357.997 152.775C358.1 152.887 358.235 152.985 358.403 153.069C358.571 153.148 358.762 153.22 358.977 153.286C359.192 153.351 359.411 153.421 359.635 153.496C359.859 153.57 360.078 153.657 360.293 153.755C360.508 153.853 360.699 153.974 360.867 154.119C361.035 154.259 361.17 154.431 361.273 154.637C361.376 154.837 361.427 155.082 361.427 155.372C361.427 155.708 361.366 156.018 361.245 156.303C361.124 156.587 360.946 156.835 360.713 157.045C360.48 157.255 360.188 157.418 359.838 157.535C359.493 157.651 359.096 157.71 358.648 157.71C358.401 157.71 358.16 157.686 357.927 157.64C357.698 157.598 357.479 157.539 357.269 157.465C357.064 157.385 356.87 157.292 356.688 157.185C356.511 157.077 356.352 156.961 356.212 156.835L356.562 156.261C356.604 156.191 356.655 156.137 356.716 156.1C356.781 156.058 356.861 156.037 356.954 156.037C357.052 156.037 357.148 156.069 357.241 156.135C357.339 156.195 357.451 156.263 357.577 156.338C357.708 156.412 357.864 156.482 358.046 156.548C358.228 156.608 358.454 156.639 358.725 156.639C358.949 156.639 359.143 156.613 359.306 156.562C359.469 156.506 359.605 156.431 359.712 156.338C359.819 156.244 359.899 156.139 359.95 156.023C360.001 155.901 360.027 155.773 360.027 155.638C360.027 155.456 359.976 155.306 359.873 155.19C359.77 155.073 359.633 154.973 359.46 154.889C359.292 154.805 359.098 154.73 358.879 154.665C358.664 154.599 358.445 154.529 358.221 154.455C357.997 154.38 357.775 154.294 357.556 154.196C357.341 154.098 357.148 153.974 356.975 153.825C356.807 153.671 356.672 153.486 356.569 153.272C356.466 153.052 356.415 152.786 356.415 152.474C356.415 152.189 356.471 151.918 356.583 151.662C356.7 151.405 356.868 151.179 357.087 150.983C357.311 150.787 357.584 150.633 357.906 150.521C358.233 150.404 358.608 150.346 359.033 150.346C359.514 150.346 359.95 150.423 360.342 150.577C360.734 150.731 361.063 150.941 361.329 151.207L360.993 151.753Z" fill="#082C4E"/>
<path d="M460.635 152.556C460.635 153.302 460.514 153.986 460.271 154.607C460.029 155.223 459.686 155.752 459.242 156.196C458.804 156.639 458.274 156.984 457.653 157.232C457.037 157.474 456.351 157.596 455.595 157.596H451.787V147.516H455.595C456.351 147.516 457.037 147.639 457.653 147.887C458.274 148.129 458.804 148.472 459.242 148.916C459.686 149.359 460.029 149.891 460.271 150.512C460.514 151.128 460.635 151.809 460.635 152.556ZM458.962 152.556C458.962 151.977 458.883 151.457 458.724 150.995C458.57 150.533 458.346 150.143 458.052 149.826C457.763 149.508 457.411 149.266 456.995 149.098C456.58 148.925 456.113 148.839 455.595 148.839H453.432V156.273H455.595C456.113 156.273 456.58 156.189 456.995 156.021C457.411 155.853 457.763 155.61 458.052 155.293C458.346 154.971 458.57 154.581 458.724 154.124C458.883 153.662 458.962 153.139 458.962 152.556ZM464.672 157.596V151.653L463.972 151.555C463.856 151.531 463.76 151.489 463.685 151.429C463.615 151.368 463.58 151.282 463.58 151.17V150.554H464.672V149.952C464.672 149.546 464.731 149.182 464.847 148.86C464.969 148.538 465.139 148.265 465.358 148.041C465.582 147.817 465.853 147.646 466.17 147.53C466.488 147.408 466.845 147.348 467.241 147.348C467.405 147.348 467.559 147.359 467.703 147.383C467.853 147.406 467.997 147.441 468.137 147.488L468.109 148.244C468.1 148.37 468.037 148.444 467.92 148.468C467.808 148.491 467.666 148.503 467.493 148.503C467.283 148.503 467.094 148.528 466.926 148.58C466.758 148.626 466.614 148.708 466.492 148.825C466.376 148.941 466.285 149.095 466.219 149.287C466.159 149.478 466.128 149.716 466.128 150.001V150.554H468.081V151.639H466.177V157.596H464.672ZM472.673 151.779C472.897 151.326 473.168 150.971 473.485 150.715C473.803 150.453 474.183 150.323 474.626 150.323C474.78 150.323 474.925 150.341 475.06 150.379C475.196 150.411 475.317 150.463 475.424 150.533L475.319 151.667C475.301 151.746 475.27 151.802 475.228 151.835C475.191 151.863 475.14 151.877 475.074 151.877C475.004 151.877 474.904 151.865 474.773 151.842C474.643 151.814 474.505 151.8 474.36 151.8C474.15 151.8 473.964 151.83 473.8 151.891C473.642 151.951 473.497 152.04 473.366 152.157C473.24 152.273 473.128 152.416 473.03 152.584C472.932 152.752 472.841 152.943 472.757 153.158V157.596H471.252V150.456H472.127C472.286 150.456 472.396 150.486 472.456 150.547C472.517 150.603 472.559 150.703 472.582 150.848L472.673 151.779ZM482.226 154.474C481.689 154.492 481.237 154.537 480.868 154.607C480.499 154.672 480.201 154.758 479.972 154.866C479.743 154.968 479.578 155.092 479.475 155.237C479.377 155.381 479.328 155.54 479.328 155.713C479.328 155.881 479.354 156.025 479.405 156.147C479.461 156.263 479.536 156.361 479.629 156.441C479.727 156.515 479.839 156.571 479.965 156.609C480.096 156.641 480.238 156.658 480.392 156.658C480.784 156.658 481.12 156.585 481.4 156.441C481.685 156.291 481.96 156.077 482.226 155.797V154.474ZM478.236 151.45C479.043 150.698 480.005 150.323 481.12 150.323C481.531 150.323 481.895 150.39 482.212 150.526C482.534 150.656 482.802 150.843 483.017 151.086C483.236 151.328 483.402 151.618 483.514 151.954C483.631 152.285 483.689 152.654 483.689 153.06V157.596H483.017C482.872 157.596 482.763 157.575 482.688 157.533C482.613 157.486 482.55 157.395 482.499 157.26L482.352 156.679C482.17 156.842 481.99 156.989 481.813 157.12C481.636 157.246 481.451 157.353 481.26 157.442C481.073 157.53 480.87 157.596 480.651 157.638C480.436 157.684 480.198 157.708 479.937 157.708C479.648 157.708 479.377 157.668 479.125 157.589C478.878 157.509 478.663 157.39 478.481 157.232C478.299 157.068 478.154 156.868 478.047 156.63C477.944 156.392 477.893 156.112 477.893 155.79C477.893 155.514 477.965 155.246 478.11 154.985C478.259 154.723 478.502 154.49 478.838 154.285C479.179 154.075 479.624 153.902 480.175 153.767C480.73 153.631 481.414 153.554 482.226 153.536V153.06C482.226 152.546 482.116 152.164 481.897 151.912C481.678 151.66 481.356 151.534 480.931 151.534C480.642 151.534 480.399 151.571 480.203 151.646C480.007 151.716 479.837 151.793 479.692 151.877C479.547 151.961 479.419 152.04 479.307 152.115C479.195 152.185 479.076 152.22 478.95 152.22C478.847 152.22 478.759 152.194 478.684 152.143C478.614 152.087 478.556 152.019 478.509 151.94L478.236 151.45ZM487.552 157.596V150.456H488.462C488.667 150.456 488.798 150.551 488.854 150.743L488.952 151.366C489.083 151.216 489.218 151.081 489.358 150.96C489.498 150.834 489.647 150.726 489.806 150.638C489.969 150.544 490.142 150.472 490.324 150.421C490.511 150.369 490.711 150.344 490.926 150.344C491.155 150.344 491.365 150.376 491.556 150.442C491.747 150.507 491.915 150.6 492.06 150.722C492.209 150.843 492.338 150.99 492.445 151.163C492.552 151.335 492.641 151.529 492.711 151.744C492.818 151.496 492.954 151.284 493.117 151.107C493.28 150.929 493.462 150.785 493.663 150.673C493.864 150.561 494.076 150.479 494.3 150.428C494.529 150.372 494.76 150.344 494.993 150.344C495.376 150.344 495.716 150.404 496.015 150.526C496.318 150.647 496.573 150.824 496.778 151.058C496.988 151.286 497.147 151.569 497.254 151.905C497.361 152.241 497.415 152.623 497.415 153.053V157.596H495.91V153.053C495.91 152.549 495.8 152.171 495.581 151.919C495.366 151.662 495.047 151.534 494.622 151.534C494.431 151.534 494.251 151.566 494.083 151.632C493.915 151.697 493.768 151.793 493.642 151.919C493.516 152.045 493.416 152.203 493.341 152.395C493.271 152.581 493.236 152.801 493.236 153.053V157.596H491.731V153.053C491.731 152.53 491.626 152.147 491.416 151.905C491.206 151.657 490.898 151.534 490.492 151.534C490.212 151.534 489.953 151.606 489.715 151.751C489.477 151.891 489.258 152.084 489.057 152.332V157.596H487.552ZM505.956 153.221C505.956 152.969 505.919 152.735 505.844 152.521C505.774 152.301 505.669 152.112 505.529 151.954C505.389 151.79 505.214 151.664 505.004 151.576C504.799 151.482 504.561 151.436 504.29 151.436C503.744 151.436 503.315 151.592 503.002 151.905C502.689 152.217 502.491 152.656 502.407 153.221H505.956ZM502.365 154.145C502.384 154.551 502.447 154.903 502.554 155.202C502.661 155.496 502.804 155.741 502.981 155.937C503.163 156.133 503.378 156.28 503.625 156.378C503.877 156.471 504.157 156.518 504.465 156.518C504.759 156.518 505.013 156.485 505.228 156.42C505.443 156.35 505.629 156.275 505.788 156.196C505.947 156.112 506.082 156.037 506.194 155.972C506.306 155.902 506.409 155.867 506.502 155.867C506.623 155.867 506.717 155.913 506.782 156.007L507.209 156.56C507.032 156.77 506.831 156.947 506.607 157.092C506.383 157.236 506.145 157.355 505.893 157.449C505.641 157.537 505.382 157.6 505.116 157.638C504.85 157.68 504.591 157.701 504.339 157.701C503.844 157.701 503.385 157.619 502.96 157.456C502.54 157.288 502.174 157.043 501.861 156.721C501.553 156.399 501.31 156 501.133 155.524C500.96 155.048 500.874 154.499 500.874 153.879C500.874 153.384 500.951 152.922 501.105 152.493C501.264 152.063 501.488 151.69 501.777 151.373C502.071 151.055 502.426 150.806 502.841 150.624C503.261 150.437 503.735 150.344 504.262 150.344C504.701 150.344 505.107 150.416 505.48 150.561C505.853 150.701 506.175 150.908 506.446 151.184C506.717 151.459 506.927 151.797 507.076 152.199C507.23 152.595 507.307 153.048 507.307 153.557C507.307 153.79 507.281 153.946 507.23 154.026C507.179 154.105 507.085 154.145 506.95 154.145H502.365Z" fill="#082C4E"/>
<g filter="url(#filter2_dd)">
<rect x="422.021" y="10" width="116.694" height="116.694" rx="58.3472" fill="#FAFCFE"/>
</g>
<path d="M480.4 86.1366L498.035 68.5011L505.593 76.0592L487.958 93.6946L480.4 86.1366Z" stroke="#1B1B1B" stroke-width="3.22951" stroke-linecap="round" stroke-linejoin="round"/>
<path d="M495.517 71.0205L491.738 52.1253L455.207 43.3076L464.025 79.8382L482.92 83.6172L495.517 71.0205Z" stroke="#1B1B1B" stroke-width="3.22951" stroke-linecap="round" stroke-linejoin="round"/>
<path d="M455.207 43.3076L474.319 62.4194" stroke="#1B1B1B" stroke-width="3.22951" stroke-linecap="round" stroke-linejoin="round"/>
<path d="M477.883 71.02C480.665 71.02 482.921 68.7641 482.921 65.9813C482.921 63.1985 480.665 60.9426 477.883 60.9426C475.1 60.9426 472.844 63.1985 472.844 65.9813C472.844 68.7641 475.1 71.02 477.883 71.02Z" stroke="#1B1B1B" stroke-width="3.22951" stroke-linecap="round" stroke-linejoin="round"/>
<g filter="url(#filter3_dd)">
<rect x="10" y="195.23" width="117.01" height="117.01" rx="58.5052" fill="#FAFCFE"/>
</g>
<mask id="path-20-inside-1" fill="white">
<path d="M72.6353 222.496C67.5947 221.147 62.2485 221.765 57.7728 224.216C53.2972 226.667 50.0587 230.749 48.7698 235.565C47.481 240.38 48.2473 245.534 50.9002 249.893C53.5531 254.252 57.8753 257.459 62.916 258.808L67.7757 240.652L72.6353 222.496Z"/>
</mask>
<path d="M72.6353 222.496C67.5947 221.147 62.2485 221.765 57.7728 224.216C53.2972 226.667 50.0587 230.749 48.7698 235.565C47.481 240.38 48.2473 245.534 50.9002 249.893C53.5531 254.252 57.8753 257.459 62.916 258.808L67.7757 240.652L72.6353 222.496Z" stroke="#1B1B1B" stroke-width="6.45902" mask="url(#path-20-inside-1)"/>
<mask id="path-21-inside-2" fill="white">
<path d="M65.375 264.155C70.4219 265.481 75.7686 264.824 80.2389 262.33C84.7093 259.835 87.9372 255.707 89.2124 250.853C90.4877 245.999 89.7058 240.817 87.0389 236.447C84.372 232.077 80.0385 228.878 74.9917 227.552L70.1834 245.853L65.375 264.155Z"/>
</mask>
<path d="M65.375 264.155C70.4219 265.481 75.7686 264.824 80.2389 262.33C84.7093 259.835 87.9372 255.707 89.2124 250.853C90.4877 245.999 89.7058 240.817 87.0389 236.447C84.372 232.077 80.0385 228.878 74.9917 227.552L70.1834 245.853L65.375 264.155Z" stroke="#1B1B1B" stroke-width="6.45902" mask="url(#path-21-inside-2)"/>
<line x1="60.5146" y1="271.236" x2="76.8907" y2="271.236" stroke="#1B1B1B" stroke-width="2.90656"/>
<line x1="60.5146" y1="277.695" x2="76.8907" y2="277.695" stroke="#1B1B1B" stroke-width="2.90656"/>
<line x1="60.5146" y1="284.154" x2="76.8907" y2="284.154" stroke="#1B1B1B" stroke-width="2.90656"/>
<path d="M49.2364 337.787C49.2364 338.534 49.1151 339.218 48.8724 339.838C48.6297 340.454 48.2867 340.984 47.8434 341.427C47.4047 341.871 46.8751 342.216 46.2544 342.463C45.6384 342.706 44.9524 342.827 44.1964 342.827H40.3884V332.747H44.1964C44.9524 332.747 45.6384 332.871 46.2544 333.118C46.8751 333.361 47.4047 333.704 47.8434 334.147C48.2867 334.591 48.6297 335.123 48.8724 335.743C49.1151 336.359 49.2364 337.041 49.2364 337.787ZM47.5634 337.787C47.5634 337.209 47.4841 336.688 47.3254 336.226C47.1714 335.764 46.9474 335.375 46.6534 335.057C46.3641 334.74 46.0117 334.497 45.5964 334.329C45.1811 334.157 44.7144 334.07 44.1964 334.07H42.0334V341.504H44.1964C44.7144 341.504 45.1811 341.42 45.5964 341.252C46.0117 341.084 46.3641 340.842 46.6534 340.524C46.9474 340.202 47.1714 339.813 47.3254 339.355C47.4841 338.893 47.5634 338.371 47.5634 337.787ZM54.3038 335.687V342.827H52.7988V335.687H54.3038ZM54.5558 333.531C54.5558 333.667 54.5278 333.795 54.4718 333.916C54.4204 334.038 54.3481 334.145 54.2548 334.238C54.1614 334.327 54.0518 334.399 53.9258 334.455C53.8044 334.507 53.6738 334.532 53.5338 334.532C53.3984 334.532 53.2701 334.507 53.1488 334.455C53.0321 334.399 52.9294 334.327 52.8408 334.238C52.7521 334.145 52.6798 334.038 52.6238 333.916C52.5724 333.795 52.5468 333.667 52.5468 333.531C52.5468 333.391 52.5724 333.261 52.6238 333.139C52.6798 333.018 52.7521 332.913 52.8408 332.824C52.9294 332.731 53.0321 332.659 53.1488 332.607C53.2701 332.551 53.3984 332.523 53.5338 332.523C53.6738 332.523 53.8044 332.551 53.9258 332.607C54.0518 332.659 54.1614 332.731 54.2548 332.824C54.3481 332.913 54.4204 333.018 54.4718 333.139C54.5278 333.261 54.5558 333.391 54.5558 333.531ZM62.5577 336.982C62.5204 337.048 62.4784 337.094 62.4317 337.122C62.3851 337.15 62.3267 337.164 62.2567 337.164C62.1774 337.164 62.0911 337.141 61.9977 337.094C61.9044 337.043 61.7947 336.987 61.6687 336.926C61.5427 336.866 61.3934 336.812 61.2207 336.765C61.0527 336.714 60.8544 336.688 60.6257 336.688C60.4391 336.688 60.2687 336.712 60.1147 336.758C59.9654 336.8 59.8371 336.863 59.7297 336.947C59.6271 337.027 59.5477 337.122 59.4917 337.234C59.4357 337.342 59.4077 337.458 59.4077 337.584C59.4077 337.752 59.4591 337.892 59.5617 338.004C59.6644 338.116 59.7997 338.214 59.9677 338.298C60.1357 338.378 60.3271 338.45 60.5417 338.515C60.7564 338.581 60.9757 338.651 61.1997 338.725C61.4237 338.8 61.6431 338.886 61.8577 338.984C62.0724 339.082 62.2637 339.204 62.4317 339.348C62.5997 339.488 62.7351 339.661 62.8377 339.866C62.9404 340.067 62.9917 340.312 62.9917 340.601C62.9917 340.937 62.9311 341.248 62.8097 341.532C62.6884 341.817 62.5111 342.064 62.2777 342.274C62.0444 342.484 61.7527 342.648 61.4027 342.764C61.0574 342.881 60.6607 342.939 60.2127 342.939C59.9654 342.939 59.7251 342.916 59.4917 342.869C59.2631 342.827 59.0437 342.769 58.8337 342.694C58.6284 342.615 58.4347 342.522 58.2527 342.414C58.0754 342.307 57.9167 342.19 57.7767 342.064L58.1267 341.49C58.1687 341.42 58.2201 341.367 58.2807 341.329C58.3461 341.287 58.4254 341.266 58.5187 341.266C58.6167 341.266 58.7124 341.299 58.8057 341.364C58.9037 341.425 59.0157 341.493 59.1417 341.567C59.2724 341.642 59.4287 341.712 59.6107 341.777C59.7927 341.838 60.0191 341.868 60.2897 341.868C60.5137 341.868 60.7074 341.843 60.8707 341.791C61.0341 341.735 61.1694 341.661 61.2767 341.567C61.3841 341.474 61.4634 341.369 61.5147 341.252C61.5661 341.131 61.5917 341.003 61.5917 340.867C61.5917 340.685 61.5404 340.536 61.4377 340.419C61.3351 340.303 61.1974 340.202 61.0247 340.118C60.8567 340.034 60.6631 339.96 60.4437 339.894C60.2291 339.829 60.0097 339.759 59.7857 339.684C59.5617 339.61 59.3401 339.523 59.1207 339.425C58.9061 339.327 58.7124 339.204 58.5397 339.054C58.3717 338.9 58.2364 338.716 58.1337 338.501C58.0311 338.282 57.9797 338.016 57.9797 337.703C57.9797 337.419 58.0357 337.148 58.1477 336.891C58.2644 336.635 58.4324 336.408 58.6517 336.212C58.8757 336.016 59.1487 335.862 59.4707 335.75C59.7974 335.634 60.1731 335.575 60.5977 335.575C61.0784 335.575 61.5147 335.652 61.9067 335.806C62.2987 335.96 62.6277 336.17 62.8937 336.436L62.5577 336.982ZM67.9271 337.01C68.1511 336.558 68.4217 336.203 68.7391 335.946C69.0564 335.685 69.4367 335.554 69.8801 335.554C70.0341 335.554 70.1787 335.573 70.3141 335.61C70.4494 335.643 70.5707 335.694 70.6781 335.764L70.5731 336.898C70.5544 336.978 70.5241 337.034 70.4821 337.066C70.4447 337.094 70.3934 337.108 70.3281 337.108C70.2581 337.108 70.1577 337.097 70.0271 337.073C69.8964 337.045 69.7587 337.031 69.6141 337.031C69.4041 337.031 69.2174 337.062 69.0541 337.122C68.8954 337.183 68.7507 337.272 68.6201 337.388C68.4941 337.505 68.3821 337.647 68.2841 337.815C68.1861 337.983 68.0951 338.175 68.0111 338.389V342.827H66.5061V335.687H67.3811C67.5397 335.687 67.6494 335.718 67.7101 335.778C67.7707 335.834 67.8127 335.935 67.8361 336.079L67.9271 337.01ZM79.794 335.687V342.827H78.884C78.6834 342.827 78.555 342.732 78.499 342.54L78.387 341.875C78.2377 342.034 78.079 342.179 77.911 342.309C77.7477 342.44 77.5727 342.552 77.386 342.645C77.1994 342.739 76.9987 342.811 76.784 342.862C76.574 342.914 76.3477 342.939 76.105 342.939C75.713 342.939 75.3677 342.874 75.069 342.743C74.7704 342.613 74.5184 342.428 74.313 342.19C74.1124 341.952 73.9607 341.668 73.858 341.336C73.7554 341 73.704 340.632 73.704 340.23V335.687H75.209V340.23C75.209 340.711 75.3187 341.084 75.538 341.35C75.762 341.616 76.1004 341.749 76.553 341.749C76.8844 341.749 77.1924 341.675 77.477 341.525C77.7664 341.371 78.037 341.161 78.289 340.895V335.687H79.794ZM85.2267 341.035C85.4367 341.306 85.6654 341.497 85.9127 341.609C86.1647 341.717 86.4424 341.77 86.7457 341.77C87.3337 341.77 87.791 341.556 88.1177 341.126C88.449 340.697 88.6147 340.058 88.6147 339.208C88.6147 338.77 88.5774 338.396 88.5027 338.088C88.428 337.776 88.3207 337.521 88.1807 337.325C88.0407 337.129 87.8704 336.987 87.6697 336.898C87.469 336.81 87.2427 336.765 86.9907 336.765C86.608 336.765 86.2767 336.849 85.9967 337.017C85.7214 337.181 85.4647 337.416 85.2267 337.724V341.035ZM85.1497 336.723C85.4484 336.373 85.7867 336.091 86.1647 335.876C86.5474 335.662 86.9907 335.554 87.4947 335.554C87.896 335.554 88.26 335.636 88.5867 335.799C88.9134 335.958 89.1934 336.191 89.4267 336.499C89.66 336.807 89.8397 337.19 89.9657 337.647C90.0964 338.1 90.1617 338.62 90.1617 339.208C90.1617 339.736 90.0894 340.228 89.9447 340.685C89.8047 341.138 89.6017 341.532 89.3357 341.868C89.0697 342.2 88.7477 342.461 88.3697 342.652C87.9917 342.839 87.5647 342.932 87.0887 342.932C86.6687 342.932 86.3117 342.865 86.0177 342.729C85.7284 342.594 85.4647 342.407 85.2267 342.169V345.2H83.7217V335.687H84.6317C84.837 335.687 84.9677 335.783 85.0237 335.974L85.1497 336.723ZM95.9173 342.939C95.3247 342.939 94.8673 342.774 94.5453 342.442C94.228 342.106 94.0693 341.635 94.0693 341.028V336.87H93.2853C93.2013 336.87 93.129 336.845 93.0683 336.793C93.0077 336.737 92.9773 336.656 92.9773 336.548V335.939L94.1323 335.771L94.4613 333.706C94.4847 333.627 94.5243 333.564 94.5803 333.517C94.6363 333.466 94.711 333.44 94.8043 333.44H95.5743V335.785H97.5553V336.87H95.5743V340.923C95.5743 341.18 95.6373 341.376 95.7633 341.511C95.8893 341.647 96.0573 341.714 96.2673 341.714C96.384 341.714 96.4843 341.7 96.5683 341.672C96.6523 341.64 96.7247 341.607 96.7853 341.574C96.846 341.537 96.8973 341.504 96.9393 341.476C96.986 341.444 97.0303 341.427 97.0723 341.427C97.1563 341.427 97.224 341.474 97.2753 341.567L97.7233 342.302C97.49 342.508 97.2147 342.666 96.8973 342.778C96.58 342.886 96.2533 342.939 95.9173 342.939Z" fill="#082C4E"/>
<path d="M217.197 337.145C217.561 337.145 217.881 337.098 218.156 337.005C218.436 336.912 218.667 336.781 218.849 336.613C219.036 336.44 219.176 336.233 219.269 335.99C219.362 335.747 219.409 335.477 219.409 335.178C219.409 334.884 219.362 334.62 219.269 334.387C219.18 334.154 219.045 333.955 218.863 333.792C218.681 333.629 218.45 333.505 218.17 333.421C217.895 333.332 217.57 333.288 217.197 333.288H215.699V337.145H217.197ZM217.197 332.007C217.855 332.007 218.424 332.084 218.905 332.238C219.39 332.392 219.789 332.609 220.102 332.889C220.419 333.164 220.655 333.498 220.809 333.89C220.963 334.277 221.04 334.707 221.04 335.178C221.04 335.659 220.958 336.1 220.795 336.501C220.632 336.898 220.389 337.241 220.067 337.53C219.745 337.815 219.344 338.039 218.863 338.202C218.387 338.361 217.832 338.44 217.197 338.44H215.699V342.087H214.061V332.007H217.197ZM235.43 332.007V342.087H233.988V335.178C233.988 335.066 233.99 334.945 233.995 334.814C234.004 334.679 234.016 334.543 234.03 334.408L230.789 340.393C230.663 340.64 230.469 340.764 230.208 340.764H229.977C229.711 340.764 229.517 340.64 229.396 340.393L226.106 334.394C226.12 334.529 226.129 334.665 226.134 334.8C226.143 334.935 226.148 335.061 226.148 335.178V342.087H224.706V332.007H225.931C226.076 332.007 226.188 332.021 226.267 332.049C226.346 332.072 226.419 332.149 226.484 332.28L229.718 338.139C229.788 338.274 229.853 338.414 229.914 338.559C229.979 338.699 230.038 338.844 230.089 338.993C230.145 338.844 230.203 338.697 230.264 338.552C230.329 338.403 230.397 338.26 230.467 338.125L233.652 332.28C233.717 332.149 233.79 332.072 233.869 332.049C233.948 332.021 234.06 332.007 234.205 332.007H235.43ZM245.728 342.087H244.286C244.17 342.087 244.076 342.057 244.006 341.996C243.941 341.935 243.887 341.868 243.845 341.793L242.2 339.154C242.158 339.313 242.102 339.45 242.032 339.567L240.541 341.793C240.49 341.868 240.432 341.935 240.366 341.996C240.306 342.057 240.224 342.087 240.121 342.087H238.777L241.248 338.405L238.875 334.947H240.317C240.434 334.947 240.518 334.966 240.569 335.003C240.625 335.036 240.674 335.087 240.716 335.157L242.333 337.677C242.375 337.523 242.441 337.376 242.529 337.236L243.894 335.185C243.988 335.026 244.107 334.947 244.251 334.947H245.63L243.257 338.342L245.728 342.087Z" fill="#082C4E"/>
<g filter="url(#filter4_dd)">
<rect x="172.01" y="195.23" width="116.694" height="116.694" rx="58.3472" fill="#FAFCFE"/>
</g>
<g clip-path="url(#clip1)">
<g clip-path="url(#clip2)">
<circle cx="230.041" cy="247.539" r="13.7776" stroke="#1B1B1B" stroke-width="1.67152"/>
</g>
<rect x="214.377" y="231.875" width="31.3272" height="31.3272" rx="15.6636" stroke="#1B1B1B" stroke-width="2.10055"/>
<g clip-path="url(#clip3)">
<circle cx="238.184" cy="261.434" r="13.7776" stroke="#1B1B1B" stroke-width="1.67152"/>
</g>
<rect x="222.52" y="245.771" width="31.3272" height="31.3272" rx="15.6636" stroke="#1B1B1B" stroke-width="2.10055"/>
<g clip-path="url(#clip4)">
<circle cx="222.376" cy="261.434" r="13.7776" stroke="#1B1B1B" stroke-width="1.67152"/>
</g>
<rect x="206.712" y="245.771" width="31.3272" height="31.3272" rx="15.6636" stroke="#1B1B1B" stroke-width="2.10055"/>
</g>
<path d="M357.965 340.715V342.087H352.141V332.007H353.779V340.715H357.965ZM365.438 337.712C365.438 337.46 365.401 337.227 365.326 337.012C365.256 336.793 365.151 336.604 365.011 336.445C364.871 336.282 364.696 336.156 364.486 336.067C364.281 335.974 364.043 335.927 363.772 335.927C363.226 335.927 362.797 336.083 362.484 336.396C362.172 336.709 361.973 337.147 361.889 337.712H365.438ZM361.847 338.636C361.866 339.042 361.929 339.394 362.036 339.693C362.144 339.987 362.286 340.232 362.463 340.428C362.645 340.624 362.86 340.771 363.107 340.869C363.359 340.962 363.639 341.009 363.947 341.009C364.241 341.009 364.496 340.976 364.71 340.911C364.925 340.841 365.112 340.766 365.27 340.687C365.429 340.603 365.564 340.528 365.676 340.463C365.788 340.393 365.891 340.358 365.984 340.358C366.106 340.358 366.199 340.405 366.264 340.498L366.691 341.051C366.514 341.261 366.313 341.438 366.089 341.583C365.865 341.728 365.627 341.847 365.375 341.94C365.123 342.029 364.864 342.092 364.598 342.129C364.332 342.171 364.073 342.192 363.821 342.192C363.327 342.192 362.867 342.11 362.442 341.947C362.022 341.779 361.656 341.534 361.343 341.212C361.035 340.89 360.793 340.491 360.615 340.015C360.443 339.539 360.356 338.991 360.356 338.37C360.356 337.875 360.433 337.413 360.587 336.984C360.746 336.555 360.97 336.181 361.259 335.864C361.553 335.547 361.908 335.297 362.323 335.115C362.743 334.928 363.217 334.835 363.744 334.835C364.183 334.835 364.589 334.907 364.962 335.052C365.336 335.192 365.658 335.4 365.928 335.675C366.199 335.95 366.409 336.289 366.558 336.69C366.712 337.087 366.789 337.539 366.789 338.048C366.789 338.281 366.764 338.438 366.712 338.517C366.661 338.596 366.568 338.636 366.432 338.636H361.847ZM375.34 336.347C375.293 336.408 375.249 336.454 375.207 336.487C375.165 336.52 375.104 336.536 375.025 336.536C374.946 336.536 374.862 336.508 374.773 336.452C374.689 336.396 374.586 336.335 374.465 336.27C374.348 336.2 374.206 336.137 374.038 336.081C373.87 336.025 373.66 335.997 373.408 335.997C373.081 335.997 372.794 336.055 372.547 336.172C372.304 336.289 372.099 336.457 371.931 336.676C371.768 336.891 371.644 337.154 371.56 337.467C371.481 337.775 371.441 338.123 371.441 338.51C371.441 338.911 371.485 339.268 371.574 339.581C371.663 339.894 371.789 340.157 371.952 340.372C372.12 340.587 372.321 340.75 372.554 340.862C372.792 340.974 373.058 341.03 373.352 341.03C373.641 341.03 373.877 340.995 374.059 340.925C374.241 340.855 374.393 340.778 374.514 340.694C374.635 340.61 374.738 340.533 374.822 340.463C374.911 340.393 375.004 340.358 375.102 340.358C375.223 340.358 375.317 340.405 375.382 340.498L375.809 341.051C375.636 341.261 375.445 341.438 375.235 341.583C375.025 341.728 374.803 341.847 374.57 341.94C374.337 342.029 374.094 342.092 373.842 342.129C373.59 342.171 373.336 342.192 373.079 342.192C372.636 342.192 372.22 342.11 371.833 341.947C371.45 341.779 371.114 341.539 370.825 341.226C370.54 340.909 370.314 340.524 370.146 340.071C369.983 339.614 369.901 339.093 369.901 338.51C369.901 337.983 369.976 337.495 370.125 337.047C370.274 336.594 370.491 336.205 370.776 335.878C371.065 335.551 371.422 335.297 371.847 335.115C372.272 334.928 372.762 334.835 373.317 334.835C373.835 334.835 374.29 334.919 374.682 335.087C375.079 335.255 375.431 335.493 375.739 335.801L375.34 336.347ZM381.408 342.199C380.816 342.199 380.358 342.033 380.036 341.702C379.719 341.366 379.56 340.895 379.56 340.288V336.13H378.776C378.692 336.13 378.62 336.104 378.559 336.053C378.499 335.997 378.468 335.915 378.468 335.808V335.199L379.623 335.031L379.952 332.966C379.976 332.887 380.015 332.824 380.071 332.777C380.127 332.726 380.202 332.7 380.295 332.7H381.065V335.045H383.046V336.13H381.065V340.183C381.065 340.44 381.128 340.636 381.254 340.771C381.38 340.906 381.548 340.974 381.758 340.974C381.875 340.974 381.975 340.96 382.059 340.932C382.143 340.899 382.216 340.867 382.276 340.834C382.337 340.797 382.388 340.764 382.43 340.736C382.477 340.703 382.521 340.687 382.563 340.687C382.647 340.687 382.715 340.734 382.766 340.827L383.214 341.562C382.981 341.767 382.706 341.926 382.388 342.038C382.071 342.145 381.744 342.199 381.408 342.199ZM392.353 334.947V342.087H391.443C391.242 342.087 391.114 341.991 391.058 341.8L390.946 341.135C390.796 341.294 390.638 341.438 390.47 341.569C390.306 341.7 390.131 341.812 389.945 341.905C389.758 341.998 389.557 342.071 389.343 342.122C389.133 342.173 388.906 342.199 388.664 342.199C388.272 342.199 387.926 342.134 387.628 342.003C387.329 341.872 387.077 341.688 386.872 341.45C386.671 341.212 386.519 340.927 386.417 340.596C386.314 340.26 386.263 339.891 386.263 339.49V334.947H387.768V339.49C387.768 339.971 387.877 340.344 388.097 340.61C388.321 340.876 388.659 341.009 389.112 341.009C389.443 341.009 389.751 340.934 390.036 340.785C390.325 340.631 390.596 340.421 390.848 340.155V334.947H392.353ZM397.701 336.27C397.925 335.817 398.196 335.463 398.513 335.206C398.831 334.945 399.211 334.814 399.654 334.814C399.808 334.814 399.953 334.833 400.088 334.87C400.224 334.903 400.345 334.954 400.452 335.024L400.347 336.158C400.329 336.237 400.298 336.293 400.256 336.326C400.219 336.354 400.168 336.368 400.102 336.368C400.032 336.368 399.932 336.356 399.801 336.333C399.671 336.305 399.533 336.291 399.388 336.291C399.178 336.291 398.992 336.321 398.828 336.382C398.67 336.443 398.525 336.531 398.394 336.648C398.268 336.765 398.156 336.907 398.058 337.075C397.96 337.243 397.869 337.434 397.785 337.649V342.087H396.28V334.947H397.155C397.314 334.947 397.424 334.977 397.484 335.038C397.545 335.094 397.587 335.194 397.61 335.339L397.701 336.27ZM407.985 337.712C407.985 337.46 407.948 337.227 407.873 337.012C407.803 336.793 407.698 336.604 407.558 336.445C407.418 336.282 407.243 336.156 407.033 336.067C406.828 335.974 406.59 335.927 406.319 335.927C405.773 335.927 405.344 336.083 405.031 336.396C404.719 336.709 404.52 337.147 404.436 337.712H407.985ZM404.394 338.636C404.413 339.042 404.476 339.394 404.583 339.693C404.691 339.987 404.833 340.232 405.01 340.428C405.192 340.624 405.407 340.771 405.654 340.869C405.906 340.962 406.186 341.009 406.494 341.009C406.788 341.009 407.043 340.976 407.257 340.911C407.472 340.841 407.659 340.766 407.817 340.687C407.976 340.603 408.111 340.528 408.223 340.463C408.335 340.393 408.438 340.358 408.531 340.358C408.653 340.358 408.746 340.405 408.811 340.498L409.238 341.051C409.061 341.261 408.86 341.438 408.636 341.583C408.412 341.728 408.174 341.847 407.922 341.94C407.67 342.029 407.411 342.092 407.145 342.129C406.879 342.171 406.62 342.192 406.368 342.192C405.874 342.192 405.414 342.11 404.989 341.947C404.569 341.779 404.203 341.534 403.89 341.212C403.582 340.89 403.34 340.491 403.162 340.015C402.99 339.539 402.903 338.991 402.903 338.37C402.903 337.875 402.98 337.413 403.134 336.984C403.293 336.555 403.517 336.181 403.806 335.864C404.1 335.547 404.455 335.297 404.87 335.115C405.29 334.928 405.764 334.835 406.291 334.835C406.73 334.835 407.136 334.907 407.509 335.052C407.883 335.192 408.205 335.4 408.475 335.675C408.746 335.95 408.956 336.289 409.105 336.69C409.259 337.087 409.336 337.539 409.336 338.048C409.336 338.281 409.311 338.438 409.259 338.517C409.208 338.596 409.115 338.636 408.979 338.636H404.394ZM423.977 333.729C423.926 333.813 423.872 333.876 423.816 333.918C423.76 333.955 423.69 333.974 423.606 333.974C423.517 333.974 423.417 333.937 423.305 333.862C423.198 333.787 423.062 333.706 422.899 333.617C422.74 333.524 422.551 333.44 422.332 333.365C422.113 333.286 421.851 333.246 421.548 333.246C421.268 333.246 421.021 333.281 420.806 333.351C420.596 333.421 420.419 333.519 420.274 333.645C420.129 333.771 420.02 333.92 419.945 334.093C419.875 334.261 419.84 334.445 419.84 334.646C419.84 334.903 419.908 335.117 420.043 335.29C420.178 335.458 420.356 335.603 420.575 335.724C420.799 335.845 421.053 335.953 421.338 336.046C421.623 336.135 421.912 336.23 422.206 336.333C422.505 336.436 422.796 336.552 423.081 336.683C423.366 336.814 423.618 336.979 423.837 337.18C424.061 337.381 424.241 337.626 424.376 337.915C424.511 338.204 424.579 338.557 424.579 338.972C424.579 339.42 424.502 339.84 424.348 340.232C424.194 340.624 423.97 340.967 423.676 341.261C423.387 341.55 423.027 341.779 422.598 341.947C422.173 342.115 421.688 342.199 421.142 342.199C420.82 342.199 420.505 342.166 420.197 342.101C419.894 342.04 419.602 341.954 419.322 341.842C419.047 341.725 418.788 341.585 418.545 341.422C418.302 341.259 418.085 341.077 417.894 340.876L418.37 340.092C418.412 340.027 418.466 339.975 418.531 339.938C418.596 339.901 418.669 339.882 418.748 339.882C418.855 339.882 418.974 339.933 419.105 340.036C419.236 340.134 419.392 340.244 419.574 340.365C419.761 340.482 419.985 340.591 420.246 340.694C420.507 340.792 420.82 340.841 421.184 340.841C421.777 340.841 422.234 340.696 422.556 340.407C422.883 340.118 423.046 339.719 423.046 339.21C423.046 338.925 422.978 338.694 422.843 338.517C422.708 338.335 422.528 338.183 422.304 338.062C422.085 337.941 421.833 337.838 421.548 337.754C421.263 337.67 420.974 337.581 420.68 337.488C420.386 337.39 420.097 337.278 419.812 337.152C419.527 337.021 419.273 336.853 419.049 336.648C418.83 336.438 418.652 336.181 418.517 335.878C418.382 335.57 418.314 335.187 418.314 334.73C418.314 334.366 418.384 334.014 418.524 333.673C418.669 333.332 418.876 333.031 419.147 332.77C419.422 332.504 419.761 332.292 420.162 332.133C420.563 331.974 421.021 331.895 421.534 331.895C422.113 331.895 422.642 331.986 423.123 332.168C423.608 332.35 424.026 332.609 424.376 332.945L423.977 333.729ZM432.824 337.712C432.824 337.46 432.787 337.227 432.712 337.012C432.642 336.793 432.537 336.604 432.397 336.445C432.257 336.282 432.082 336.156 431.872 336.067C431.667 335.974 431.429 335.927 431.158 335.927C430.612 335.927 430.183 336.083 429.87 336.396C429.558 336.709 429.359 337.147 429.275 337.712H432.824ZM429.233 338.636C429.252 339.042 429.315 339.394 429.422 339.693C429.53 339.987 429.672 340.232 429.849 340.428C430.031 340.624 430.246 340.771 430.493 340.869C430.745 340.962 431.025 341.009 431.333 341.009C431.627 341.009 431.882 340.976 432.096 340.911C432.311 340.841 432.498 340.766 432.656 340.687C432.815 340.603 432.95 340.528 433.062 340.463C433.174 340.393 433.277 340.358 433.37 340.358C433.492 340.358 433.585 340.405 433.65 340.498L434.077 341.051C433.9 341.261 433.699 341.438 433.475 341.583C433.251 341.728 433.013 341.847 432.761 341.94C432.509 342.029 432.25 342.092 431.984 342.129C431.718 342.171 431.459 342.192 431.207 342.192C430.713 342.192 430.253 342.11 429.828 341.947C429.408 341.779 429.042 341.534 428.729 341.212C428.421 340.89 428.179 340.491 428.001 340.015C427.829 339.539 427.742 338.991 427.742 338.37C427.742 337.875 427.819 337.413 427.973 336.984C428.132 336.555 428.356 336.181 428.645 335.864C428.939 335.547 429.294 335.297 429.709 335.115C430.129 334.928 430.603 334.835 431.13 334.835C431.569 334.835 431.975 334.907 432.348 335.052C432.722 335.192 433.044 335.4 433.314 335.675C433.585 335.95 433.795 336.289 433.944 336.69C434.098 337.087 434.175 337.539 434.175 338.048C434.175 338.281 434.15 338.438 434.098 338.517C434.047 338.596 433.954 338.636 433.818 338.636H429.233ZM439.1 336.27C439.324 335.817 439.595 335.463 439.912 335.206C440.229 334.945 440.61 334.814 441.053 334.814C441.207 334.814 441.352 334.833 441.487 334.87C441.622 334.903 441.744 334.954 441.851 335.024L441.746 336.158C441.727 336.237 441.697 336.293 441.655 336.326C441.618 336.354 441.566 336.368 441.501 336.368C441.431 336.368 441.331 336.356 441.2 336.333C441.069 336.305 440.932 336.291 440.787 336.291C440.577 336.291 440.39 336.321 440.227 336.382C440.068 336.443 439.924 336.531 439.793 336.648C439.667 336.765 439.555 336.907 439.457 337.075C439.359 337.243 439.268 337.434 439.184 337.649V342.087H437.679V334.947H438.554C438.713 334.947 438.822 334.977 438.883 335.038C438.944 335.094 438.986 335.194 439.009 335.339L439.1 336.27ZM446.515 334.947V342.087H445.01V334.947H446.515ZM446.767 332.791C446.767 332.926 446.739 333.055 446.683 333.176C446.631 333.297 446.559 333.405 446.466 333.498C446.372 333.587 446.263 333.659 446.137 333.715C446.015 333.766 445.885 333.792 445.745 333.792C445.609 333.792 445.481 333.766 445.36 333.715C445.243 333.659 445.14 333.587 445.052 333.498C444.963 333.405 444.891 333.297 444.835 333.176C444.783 333.055 444.758 332.926 444.758 332.791C444.758 332.651 444.783 332.52 444.835 332.399C444.891 332.278 444.963 332.173 445.052 332.084C445.14 331.991 445.243 331.918 445.36 331.867C445.481 331.811 445.609 331.783 445.745 331.783C445.885 331.783 446.015 331.811 446.137 331.867C446.263 331.918 446.372 331.991 446.466 332.084C446.559 332.173 446.631 332.278 446.683 332.399C446.739 332.52 446.767 332.651 446.767 332.791ZM455.189 337.712C455.189 337.46 455.151 337.227 455.077 337.012C455.007 336.793 454.902 336.604 454.762 336.445C454.622 336.282 454.447 336.156 454.237 336.067C454.031 335.974 453.793 335.927 453.523 335.927C452.977 335.927 452.547 336.083 452.235 336.396C451.922 336.709 451.724 337.147 451.64 337.712H455.189ZM451.598 338.636C451.616 339.042 451.679 339.394 451.787 339.693C451.894 339.987 452.036 340.232 452.214 340.428C452.396 340.624 452.61 340.771 452.858 340.869C453.11 340.962 453.39 341.009 453.698 341.009C453.992 341.009 454.246 340.976 454.461 340.911C454.675 340.841 454.862 340.766 455.021 340.687C455.179 340.603 455.315 340.528 455.427 340.463C455.539 340.393 455.641 340.358 455.735 340.358C455.856 340.358 455.949 340.405 456.015 340.498L456.442 341.051C456.264 341.261 456.064 341.438 455.84 341.583C455.616 341.728 455.378 341.847 455.126 341.94C454.874 342.029 454.615 342.092 454.349 342.129C454.083 342.171 453.824 342.192 453.572 342.192C453.077 342.192 452.617 342.11 452.193 341.947C451.773 341.779 451.406 341.534 451.094 341.212C450.786 340.89 450.543 340.491 450.366 340.015C450.193 339.539 450.107 338.991 450.107 338.37C450.107 337.875 450.184 337.413 450.338 336.984C450.496 336.555 450.72 336.181 451.01 335.864C451.304 335.547 451.658 335.297 452.074 335.115C452.494 334.928 452.967 334.835 453.495 334.835C453.933 334.835 454.339 334.907 454.713 335.052C455.086 335.192 455.408 335.4 455.679 335.675C455.949 335.95 456.159 336.289 456.309 336.69C456.463 337.087 456.54 337.539 456.54 338.048C456.54 338.281 456.514 338.438 456.463 338.517C456.411 338.596 456.318 338.636 456.183 338.636H451.598ZM464.306 336.242C464.269 336.307 464.227 336.354 464.18 336.382C464.134 336.41 464.075 336.424 464.005 336.424C463.926 336.424 463.84 336.401 463.746 336.354C463.653 336.303 463.543 336.247 463.417 336.186C463.291 336.125 463.142 336.072 462.969 336.025C462.801 335.974 462.603 335.948 462.374 335.948C462.188 335.948 462.017 335.971 461.863 336.018C461.714 336.06 461.586 336.123 461.478 336.207C461.376 336.286 461.296 336.382 461.24 336.494C461.184 336.601 461.156 336.718 461.156 336.844C461.156 337.012 461.208 337.152 461.31 337.264C461.413 337.376 461.548 337.474 461.716 337.558C461.884 337.637 462.076 337.71 462.29 337.775C462.505 337.84 462.724 337.91 462.948 337.985C463.172 338.06 463.392 338.146 463.606 338.244C463.821 338.342 464.012 338.463 464.18 338.608C464.348 338.748 464.484 338.921 464.586 339.126C464.689 339.327 464.74 339.572 464.74 339.861C464.74 340.197 464.68 340.507 464.558 340.792C464.437 341.077 464.26 341.324 464.026 341.534C463.793 341.744 463.501 341.907 463.151 342.024C462.806 342.141 462.409 342.199 461.961 342.199C461.714 342.199 461.474 342.176 461.24 342.129C461.012 342.087 460.792 342.029 460.582 341.954C460.377 341.875 460.183 341.781 460.001 341.674C459.824 341.567 459.665 341.45 459.525 341.324L459.875 340.75C459.917 340.68 459.969 340.626 460.029 340.589C460.095 340.547 460.174 340.526 460.267 340.526C460.365 340.526 460.461 340.559 460.554 340.624C460.652 340.685 460.764 340.752 460.89 340.827C461.021 340.902 461.177 340.972 461.359 341.037C461.541 341.098 461.768 341.128 462.038 341.128C462.262 341.128 462.456 341.102 462.619 341.051C462.783 340.995 462.918 340.92 463.025 340.827C463.133 340.734 463.212 340.629 463.263 340.512C463.315 340.391 463.34 340.262 463.34 340.127C463.34 339.945 463.289 339.796 463.186 339.679C463.084 339.562 462.946 339.462 462.773 339.378C462.605 339.294 462.412 339.219 462.192 339.154C461.978 339.089 461.758 339.019 461.534 338.944C461.31 338.869 461.089 338.783 460.869 338.685C460.655 338.587 460.461 338.463 460.288 338.314C460.12 338.16 459.985 337.976 459.882 337.761C459.78 337.542 459.728 337.276 459.728 336.963C459.728 336.678 459.784 336.408 459.896 336.151C460.013 335.894 460.181 335.668 460.4 335.472C460.624 335.276 460.897 335.122 461.219 335.01C461.546 334.893 461.922 334.835 462.346 334.835C462.827 334.835 463.263 334.912 463.655 335.066C464.047 335.22 464.376 335.43 464.642 335.696L464.306 336.242Z" fill="#082C4E"/>
<g filter="url(#filter5_dd)">
<rect x="350.299" y="195.23" width="116.694" height="116.694" rx="58.3472" fill="#FAFCFE"/>
</g>
<path d="M417.962 252.132H417.962H399.092C399.04 252.132 398.998 252.09 398.998 252.038V237.886C398.998 232.614 403.303 228.327 408.582 228.357C413.822 228.387 418.056 232.724 418.056 238.007V252.038C418.056 252.09 418.014 252.132 417.962 252.132Z" stroke="#1B1B1B" stroke-width="2.95684"/>
<path d="M397.517 252.038V256.755C397.517 262.825 402.455 267.763 408.525 267.763C414.595 267.763 419.532 262.825 419.532 256.755V252.038H397.517Z" fill="#1B1B1B"/>
<path d="M410.096 272.482H406.951V278.982H410.096V272.482Z" fill="#1B1B1B"/>
<path d="M425.82 248.894V256.757C425.82 266.286 418.052 274.054 408.523 274.054C398.993 274.054 391.225 266.286 391.225 256.757V248.894H394.37V256.757C394.37 264.556 400.723 270.909 408.523 270.909C416.322 270.909 422.675 264.556 422.675 256.757V248.894H425.82Z" fill="#1B1B1B"/>
<path d="M410.097 272.482H408.525V278.982H410.097V272.482Z" fill="#1B1B1B"/>
<path d="M425.822 248.894V256.757C425.822 266.286 418.054 274.054 408.525 274.054V270.909C416.324 270.909 422.677 264.556 422.677 256.757V248.894H425.822Z" fill="#1B1B1B"/>
<path d="M419.531 277.407H397.515V280.553H419.531V277.407Z" fill="#1B1B1B"/>
<path d="M419.531 277.407H408.525V280.553H419.531V277.407Z" fill="#1B1B1B"/>
<g filter="url(#filter6_dd)">
<rect x="527.476" y="195.23" width="117.01" height="117.01" rx="58.5052" fill="#FAFCFE"/>
</g>
<path d="M599.915 226.685L588.407 238.192V226.685H599.915Z" stroke="#1B1B1B" stroke-width="2.7647"/>
<path d="M571.854 226.685L583.361 238.192V226.685H571.854Z" stroke="#1B1B1B" stroke-width="2.7647"/>
<path d="M570.627 246.141L583.361 275.362V246.141H570.627Z" stroke="#1B1B1B" stroke-width="2.7647"/>
<path d="M601.142 246.141L588.407 275.362V246.141H601.142Z" stroke="#1B1B1B" stroke-width="2.7647"/>
<path d="M546.684 342.827H545.039V332.747H546.684V342.827ZM552.19 336.632C552.344 336.474 552.503 336.331 552.666 336.205C552.834 336.075 553.011 335.963 553.198 335.869C553.385 335.776 553.583 335.704 553.793 335.652C554.003 335.601 554.232 335.575 554.479 335.575C554.871 335.575 555.214 335.641 555.508 335.771C555.807 335.902 556.056 336.086 556.257 336.324C556.462 336.562 556.616 336.849 556.719 337.185C556.822 337.517 556.873 337.883 556.873 338.284V342.827H555.375V338.284C555.375 337.804 555.263 337.43 555.039 337.164C554.82 336.898 554.484 336.765 554.031 336.765C553.695 336.765 553.382 336.842 553.093 336.996C552.808 337.15 552.54 337.36 552.288 337.626V342.827H550.783V335.687H551.693C551.898 335.687 552.029 335.783 552.085 335.974L552.19 336.632ZM562.924 342.939C562.331 342.939 561.874 342.774 561.552 342.442C561.235 342.106 561.076 341.635 561.076 341.028V336.87H560.292C560.208 336.87 560.136 336.845 560.075 336.793C560.014 336.737 559.984 336.656 559.984 336.548V335.939L561.139 335.771L561.468 333.706C561.491 333.627 561.531 333.564 561.587 333.517C561.643 333.466 561.718 333.44 561.811 333.44H562.581V335.785H564.562V336.87H562.581V340.923C562.581 341.18 562.644 341.376 562.77 341.511C562.896 341.647 563.064 341.714 563.274 341.714C563.391 341.714 563.491 341.7 563.575 341.672C563.659 341.64 563.731 341.607 563.792 341.574C563.853 341.537 563.904 341.504 563.946 341.476C563.993 341.444 564.037 341.427 564.079 341.427C564.163 341.427 564.231 341.474 564.282 341.567L564.73 342.302C564.497 342.508 564.221 342.666 563.904 342.778C563.587 342.886 563.26 342.939 562.924 342.939ZM572.477 338.452C572.477 338.2 572.439 337.967 572.365 337.752C572.295 337.533 572.19 337.344 572.05 337.185C571.91 337.022 571.735 336.896 571.525 336.807C571.319 336.714 571.081 336.667 570.811 336.667C570.265 336.667 569.835 336.824 569.523 337.136C569.21 337.449 569.012 337.888 568.928 338.452H572.477ZM568.886 339.376C568.904 339.782 568.967 340.135 569.075 340.433C569.182 340.727 569.324 340.972 569.502 341.168C569.684 341.364 569.898 341.511 570.146 341.609C570.398 341.703 570.678 341.749 570.986 341.749C571.28 341.749 571.534 341.717 571.749 341.651C571.963 341.581 572.15 341.507 572.309 341.427C572.467 341.343 572.603 341.269 572.715 341.203C572.827 341.133 572.929 341.098 573.023 341.098C573.144 341.098 573.237 341.145 573.303 341.238L573.73 341.791C573.552 342.001 573.352 342.179 573.128 342.323C572.904 342.468 572.666 342.587 572.414 342.68C572.162 342.769 571.903 342.832 571.637 342.869C571.371 342.911 571.112 342.932 570.86 342.932C570.365 342.932 569.905 342.851 569.481 342.687C569.061 342.519 568.694 342.274 568.382 341.952C568.074 341.63 567.831 341.231 567.654 340.755C567.481 340.279 567.395 339.731 567.395 339.11C567.395 338.616 567.472 338.154 567.626 337.724C567.784 337.295 568.008 336.922 568.298 336.604C568.592 336.287 568.946 336.037 569.362 335.855C569.782 335.669 570.255 335.575 570.783 335.575C571.221 335.575 571.627 335.648 572.001 335.792C572.374 335.932 572.696 336.14 572.967 336.415C573.237 336.691 573.447 337.029 573.597 337.43C573.751 337.827 573.828 338.28 573.828 338.788C573.828 339.022 573.802 339.178 573.751 339.257C573.699 339.337 573.606 339.376 573.471 339.376H568.886ZM578.752 337.01C578.976 336.558 579.247 336.203 579.564 335.946C579.882 335.685 580.262 335.554 580.705 335.554C580.859 335.554 581.004 335.573 581.139 335.61C581.275 335.643 581.396 335.694 581.503 335.764L581.398 336.898C581.38 336.978 581.349 337.034 581.307 337.066C581.27 337.094 581.219 337.108 581.153 337.108C581.083 337.108 580.983 337.097 580.852 337.073C580.722 337.045 580.584 337.031 580.439 337.031C580.229 337.031 580.043 337.062 579.879 337.122C579.721 337.183 579.576 337.272 579.445 337.388C579.319 337.505 579.207 337.647 579.109 337.815C579.011 337.983 578.92 338.175 578.836 338.389V342.827H577.331V335.687H578.206C578.365 335.687 578.475 335.718 578.535 335.778C578.596 335.834 578.638 335.935 578.661 336.079L578.752 337.01ZM586.006 336.632C586.16 336.474 586.319 336.331 586.482 336.205C586.65 336.075 586.827 335.963 587.014 335.869C587.201 335.776 587.399 335.704 587.609 335.652C587.819 335.601 588.048 335.575 588.295 335.575C588.687 335.575 589.03 335.641 589.324 335.771C589.623 335.902 589.872 336.086 590.073 336.324C590.278 336.562 590.432 336.849 590.535 337.185C590.638 337.517 590.689 337.883 590.689 338.284V342.827H589.191V338.284C589.191 337.804 589.079 337.43 588.855 337.164C588.636 336.898 588.3 336.765 587.847 336.765C587.511 336.765 587.198 336.842 586.909 336.996C586.624 337.15 586.356 337.36 586.104 337.626V342.827H584.599V335.687H585.509C585.714 335.687 585.845 335.783 585.901 335.974L586.006 336.632ZM602.058 334.07V337.297H605.999V338.62H602.058V342.827H600.413V332.747H606.699V334.07H602.058ZM612.993 339.705C612.457 339.724 612.004 339.768 611.635 339.838C611.267 339.904 610.968 339.99 610.739 340.097C610.511 340.2 610.345 340.324 610.242 340.468C610.144 340.613 610.095 340.772 610.095 340.944C610.095 341.112 610.121 341.257 610.172 341.378C610.228 341.495 610.303 341.593 610.396 341.672C610.494 341.747 610.606 341.803 610.732 341.84C610.863 341.873 611.005 341.889 611.159 341.889C611.551 341.889 611.887 341.817 612.167 341.672C612.452 341.523 612.727 341.308 612.993 341.028V339.705ZM609.003 336.681C609.811 335.93 610.772 335.554 611.887 335.554C612.298 335.554 612.662 335.622 612.979 335.757C613.301 335.888 613.57 336.075 613.784 336.317C614.004 336.56 614.169 336.849 614.281 337.185C614.398 337.517 614.456 337.885 614.456 338.291V342.827H613.784C613.64 342.827 613.53 342.806 613.455 342.764C613.381 342.718 613.318 342.627 613.266 342.491L613.119 341.91C612.937 342.074 612.758 342.221 612.58 342.351C612.403 342.477 612.219 342.585 612.027 342.673C611.841 342.762 611.638 342.827 611.418 342.869C611.204 342.916 610.966 342.939 610.704 342.939C610.415 342.939 610.144 342.9 609.892 342.82C609.645 342.741 609.43 342.622 609.248 342.463C609.066 342.3 608.922 342.099 608.814 341.861C608.712 341.623 608.66 341.343 608.66 341.021C608.66 340.746 608.733 340.478 608.877 340.216C609.027 339.955 609.269 339.722 609.605 339.516C609.946 339.306 610.392 339.134 610.942 338.998C611.498 338.863 612.181 338.786 612.993 338.767V338.291C612.993 337.778 612.884 337.395 612.664 337.143C612.445 336.891 612.123 336.765 611.698 336.765C611.409 336.765 611.166 336.803 610.97 336.877C610.774 336.947 610.604 337.024 610.459 337.108C610.315 337.192 610.186 337.272 610.074 337.346C609.962 337.416 609.843 337.451 609.717 337.451C609.615 337.451 609.526 337.426 609.451 337.374C609.381 337.318 609.323 337.251 609.276 337.171L609.003 336.681ZM619.887 335.687V342.827H618.382V335.687H619.887ZM620.139 333.531C620.139 333.667 620.111 333.795 620.055 333.916C620.004 334.038 619.932 334.145 619.838 334.238C619.745 334.327 619.635 334.399 619.509 334.455C619.388 334.507 619.257 334.532 619.117 334.532C618.982 334.532 618.854 334.507 618.732 334.455C618.616 334.399 618.513 334.327 618.424 334.238C618.336 334.145 618.263 334.038 618.207 333.916C618.156 333.795 618.13 333.667 618.13 333.531C618.13 333.391 618.156 333.261 618.207 333.139C618.263 333.018 618.336 332.913 618.424 332.824C618.513 332.731 618.616 332.659 618.732 332.607C618.854 332.551 618.982 332.523 619.117 332.523C619.257 332.523 619.388 332.551 619.509 332.607C619.635 332.659 619.745 332.731 619.838 332.824C619.932 332.913 620.004 333.018 620.055 333.139C620.111 333.261 620.139 333.391 620.139 333.531ZM625.299 337.01C625.523 336.558 625.794 336.203 626.111 335.946C626.429 335.685 626.809 335.554 627.252 335.554C627.406 335.554 627.551 335.573 627.686 335.61C627.822 335.643 627.943 335.694 628.05 335.764L627.945 336.898C627.927 336.978 627.896 337.034 627.854 337.066C627.817 337.094 627.766 337.108 627.7 337.108C627.63 337.108 627.53 337.097 627.399 337.073C627.269 337.045 627.131 337.031 626.986 337.031C626.776 337.031 626.59 337.062 626.426 337.122C626.268 337.183 626.123 337.272 625.992 337.388C625.866 337.505 625.754 337.647 625.656 337.815C625.558 337.983 625.467 338.175 625.383 338.389V342.827H623.878V335.687H624.753C624.912 335.687 625.022 335.718 625.082 335.778C625.143 335.834 625.185 335.935 625.208 336.079L625.299 337.01Z" fill="#082C4E"/>
<defs>
<filter id="filter0_dd" x="88.3115" y="0.311466" width="136.387" height="136.387" filterUnits="userSpaceOnUse" color-interpolation-filters="sRGB">
<feFlood flood-opacity="0" result="BackgroundImageFix"/>
<feColorMatrix in="SourceAlpha" type="matrix" values="0 0 0 0 0 0 0 0 0 0 0 0 0 0 0 0 0 0 127 0"/>
<feOffset dx="-3.22951" dy="-3.22951"/>
<feGaussianBlur stdDeviation="3.22951"/>
<feColorMatrix type="matrix" values="0 0 0 0 0 0 0 0 0 0 0 0 0 0 0 0 0 0 0.1 0"/>
<feBlend mode="normal" in2="BackgroundImageFix" result="effect1_dropShadow"/>
<feColorMatrix in="SourceAlpha" type="matrix" values="0 0 0 0 0 0 0 0 0 0 0 0 0 0 0 0 0 0 127 0"/>
<feOffset dx="3.22951" dy="3.22951"/>
<feGaussianBlur stdDeviation="3.22951"/>
<feColorMatrix type="matrix" values="0 0 0 0 0 0 0 0 0 0 0 0 0 0 0 0 0 0 0.1 0"/>
<feBlend mode="normal" in2="effect1_dropShadow" result="effect2_dropShadow"/>
<feBlend mode="normal" in="SourceGraphic" in2="effect2_dropShadow" result="shape"/>
</filter>
<filter id="filter1_dd" x="250.322" y="0.311466" width="136.387" height="136.387" filterUnits="userSpaceOnUse" color-interpolation-filters="sRGB">
<feFlood flood-opacity="0" result="BackgroundImageFix"/>
<feColorMatrix in="SourceAlpha" type="matrix" values="0 0 0 0 0 0 0 0 0 0 0 0 0 0 0 0 0 0 127 0"/>
<feOffset dx="-3.22951" dy="-3.22951"/>
<feGaussianBlur stdDeviation="3.22951"/>
<feColorMatrix type="matrix" values="0 0 0 0 0 0 0 0 0 0 0 0 0 0 0 0 0 0 0.1 0"/>
<feBlend mode="normal" in2="BackgroundImageFix" result="effect1_dropShadow"/>
<feColorMatrix in="SourceAlpha" type="matrix" values="0 0 0 0 0 0 0 0 0 0 0 0 0 0 0 0 0 0 127 0"/>
<feOffset dx="3.22951" dy="3.22951"/>
<feGaussianBlur stdDeviation="3.22951"/>
<feColorMatrix type="matrix" values="0 0 0 0 0 0 0 0 0 0 0 0 0 0 0 0 0 0 0.1 0"/>
<feBlend mode="normal" in2="effect1_dropShadow" result="effect2_dropShadow"/>
<feBlend mode="normal" in="SourceGraphic" in2="effect2_dropShadow" result="shape"/>
</filter>
<filter id="filter2_dd" x="412.332" y="0.311466" width="136.071" height="136.071" filterUnits="userSpaceOnUse" color-interpolation-filters="sRGB">
<feFlood flood-opacity="0" result="BackgroundImageFix"/>
<feColorMatrix in="SourceAlpha" type="matrix" values="0 0 0 0 0 0 0 0 0 0 0 0 0 0 0 0 0 0 127 0"/>
<feOffset dx="-3.22951" dy="-3.22951"/>
<feGaussianBlur stdDeviation="3.22951"/>
<feColorMatrix type="matrix" values="0 0 0 0 0 0 0 0 0 0 0 0 0 0 0 0 0 0 0.1 0"/>
<feBlend mode="normal" in2="BackgroundImageFix" result="effect1_dropShadow"/>
<feColorMatrix in="SourceAlpha" type="matrix" values="0 0 0 0 0 0 0 0 0 0 0 0 0 0 0 0 0 0 127 0"/>
<feOffset dx="3.22951" dy="3.22951"/>
<feGaussianBlur stdDeviation="3.22951"/>
<feColorMatrix type="matrix" values="0 0 0 0 0 0 0 0 0 0 0 0 0 0 0 0 0 0 0.1 0"/>
<feBlend mode="normal" in2="effect1_dropShadow" result="effect2_dropShadow"/>
<feBlend mode="normal" in="SourceGraphic" in2="effect2_dropShadow" result="shape"/>
</filter>
<filter id="filter3_dd" x="0.311466" y="185.541" width="136.387" height="136.387" filterUnits="userSpaceOnUse" color-interpolation-filters="sRGB">
<feFlood flood-opacity="0" result="BackgroundImageFix"/>
<feColorMatrix in="SourceAlpha" type="matrix" values="0 0 0 0 0 0 0 0 0 0 0 0 0 0 0 0 0 0 127 0"/>
<feOffset dx="-3.22951" dy="-3.22951"/>
<feGaussianBlur stdDeviation="3.22951"/>
<feColorMatrix type="matrix" values="0 0 0 0 0 0 0 0 0 0 0 0 0 0 0 0 0 0 0.1 0"/>
<feBlend mode="normal" in2="BackgroundImageFix" result="effect1_dropShadow"/>
<feColorMatrix in="SourceAlpha" type="matrix" values="0 0 0 0 0 0 0 0 0 0 0 0 0 0 0 0 0 0 127 0"/>
<feOffset dx="3.22951" dy="3.22951"/>
<feGaussianBlur stdDeviation="3.22951"/>
<feColorMatrix type="matrix" values="0 0 0 0 0 0 0 0 0 0 0 0 0 0 0 0 0 0 0.1 0"/>
<feBlend mode="normal" in2="effect1_dropShadow" result="effect2_dropShadow"/>
<feBlend mode="normal" in="SourceGraphic" in2="effect2_dropShadow" result="shape"/>
</filter>
<filter id="filter4_dd" x="162.322" y="185.541" width="136.071" height="136.071" filterUnits="userSpaceOnUse" color-interpolation-filters="sRGB">
<feFlood flood-opacity="0" result="BackgroundImageFix"/>
<feColorMatrix in="SourceAlpha" type="matrix" values="0 0 0 0 0 0 0 0 0 0 0 0 0 0 0 0 0 0 127 0"/>
<feOffset dx="-3.22951" dy="-3.22951"/>
<feGaussianBlur stdDeviation="3.22951"/>
<feColorMatrix type="matrix" values="0 0 0 0 0 0 0 0 0 0 0 0 0 0 0 0 0 0 0.1 0"/>
<feBlend mode="normal" in2="BackgroundImageFix" result="effect1_dropShadow"/>
<feColorMatrix in="SourceAlpha" type="matrix" values="0 0 0 0 0 0 0 0 0 0 0 0 0 0 0 0 0 0 127 0"/>
<feOffset dx="3.22951" dy="3.22951"/>
<feGaussianBlur stdDeviation="3.22951"/>
<feColorMatrix type="matrix" values="0 0 0 0 0 0 0 0 0 0 0 0 0 0 0 0 0 0 0.1 0"/>
<feBlend mode="normal" in2="effect1_dropShadow" result="effect2_dropShadow"/>
<feBlend mode="normal" in="SourceGraphic" in2="effect2_dropShadow" result="shape"/>
</filter>
<filter id="filter5_dd" x="340.61" y="185.541" width="136.071" height="136.071" filterUnits="userSpaceOnUse" color-interpolation-filters="sRGB">
<feFlood flood-opacity="0" result="BackgroundImageFix"/>
<feColorMatrix in="SourceAlpha" type="matrix" values="0 0 0 0 0 0 0 0 0 0 0 0 0 0 0 0 0 0 127 0"/>
<feOffset dx="-3.22951" dy="-3.22951"/>
<feGaussianBlur stdDeviation="3.22951"/>
<feColorMatrix type="matrix" values="0 0 0 0 0 0 0 0 0 0 0 0 0 0 0 0 0 0 0.1 0"/>
<feBlend mode="normal" in2="BackgroundImageFix" result="effect1_dropShadow"/>
<feColorMatrix in="SourceAlpha" type="matrix" values="0 0 0 0 0 0 0 0 0 0 0 0 0 0 0 0 0 0 127 0"/>
<feOffset dx="3.22951" dy="3.22951"/>
<feGaussianBlur stdDeviation="3.22951"/>
<feColorMatrix type="matrix" values="0 0 0 0 0 0 0 0 0 0 0 0 0 0 0 0 0 0 0.1 0"/>
<feBlend mode="normal" in2="effect1_dropShadow" result="effect2_dropShadow"/>
<feBlend mode="normal" in="SourceGraphic" in2="effect2_dropShadow" result="shape"/>
</filter>
<filter id="filter6_dd" x="517.788" y="185.541" width="136.387" height="136.387" filterUnits="userSpaceOnUse" color-interpolation-filters="sRGB">
<feFlood flood-opacity="0" result="BackgroundImageFix"/>
<feColorMatrix in="SourceAlpha" type="matrix" values="0 0 0 0 0 0 0 0 0 0 0 0 0 0 0 0 0 0 127 0"/>
<feOffset dx="-3.22951" dy="-3.22951"/>
<feGaussianBlur stdDeviation="3.22951"/>
<feColorMatrix type="matrix" values="0 0 0 0 0 0 0 0 0 0 0 0 0 0 0 0 0 0 0.1 0"/>
<feBlend mode="normal" in2="BackgroundImageFix" result="effect1_dropShadow"/>
<feColorMatrix in="SourceAlpha" type="matrix" values="0 0 0 0 0 0 0 0 0 0 0 0 0 0 0 0 0 0 127 0"/>
<feOffset dx="3.22951" dy="3.22951"/>
<feGaussianBlur stdDeviation="3.22951"/>
<feColorMatrix type="matrix" values="0 0 0 0 0 0 0 0 0 0 0 0 0 0 0 0 0 0 0.1 0"/>
<feBlend mode="normal" in2="effect1_dropShadow" result="effect2_dropShadow"/>
<feBlend mode="normal" in="SourceGraphic" in2="effect2_dropShadow" result="shape"/>
</filter>
<clipPath id="clip0">
<rect width="48.3553" height="46.2976" fill="white" transform="translate(132.385 45.619)"/>
</clipPath>
<clipPath id="clip1">
<rect width="52.3744" height="49.9866" fill="white" transform="translate(204.093 228.537)"/>
</clipPath>
<clipPath id="clip2">
</clipPath>
<clipPath id="clip3">
</clipPath>
<clipPath id="clip4">
</clipPath>
</defs>
</svg>
