<svg width="60" height="123" viewBox="0 0 60 123" fill="none" xmlns="http://www.w3.org/2000/svg">
<g opacity="0.8">
<path d="M14.4739 47.0119L14.5406 46.9117C14.4739 47.0119 14.4405 47.1121 14.3738 47.1788C14.2071 47.4126 14.0737 47.6797 13.9069 47.9468C13.5067 48.5812 13.1399 49.2156 12.7397 49.8166C13.1065 49.3157 13.5067 48.8149 13.8736 48.3141C14.0737 48.047 14.2404 47.7798 14.4405 47.5127C14.5739 47.3124 14.5406 47.3792 14.5739 47.3458L14.6406 47.3124C14.774 47.2456 14.774 47.279 14.9074 46.7782C14.9741 46.6446 15.0741 46.4777 15.2742 46.3441C15.2075 46.5778 15.1408 46.8116 15.1075 46.9785C15.0741 47.1788 15.0074 47.279 14.9741 47.3792C14.9741 47.4126 14.9408 47.4459 14.9408 47.4793C14.9408 47.4793 14.9408 47.4793 14.9408 47.5127C14.9408 47.5461 14.9741 47.6129 14.9741 47.6463C15.0074 47.7465 15.0074 47.8132 15.0074 47.88C15.0741 48.1805 15.1408 48.3808 15.1742 48.3808C15.441 48.9818 15.6744 49.5828 15.8745 50.2172C15.7411 49.7832 15.5744 49.3491 15.4076 48.9485C15.5744 49.3825 15.7078 49.8166 15.8745 50.2172C15.9746 50.4844 16.0413 50.7181 16.1413 50.9852C16.2747 51.4192 16.4081 51.8533 16.5415 52.3208C16.8083 53.2223 17.0751 54.1238 17.3086 55.0253C17.8088 56.8283 18.309 58.6647 18.7759 60.6012C19.5096 58.6647 20.2433 56.9284 21.0103 55.1588C21.077 55.0253 21.1104 54.8917 21.2104 54.6246C21.2771 55.0587 21.3438 55.5595 21.3438 55.86C21.5773 56.9284 21.8107 58.0303 22.0108 58.9652C22.2109 59.9335 22.3777 60.8016 22.5111 61.4026C22.5778 61.7699 22.6778 62.1705 22.7445 62.5378C22.6445 61.9034 22.6445 61.9034 22.5111 61.269C23.0113 62.8383 23.5116 64.2407 23.9118 65.6096C23.9118 65.3425 23.9784 65.2757 23.9451 64.6747L24.0785 65.4093C24.4453 66.0103 24.7788 67.5128 25.0456 68.1806C24.9122 68.047 25.0123 68.6146 25.1123 69.1155L25.1457 68.9151C25.3458 69.85 25.6126 70.8517 25.846 71.82C25.9794 72.3208 26.0795 72.7883 26.2129 73.2557C26.2796 73.4894 26.3129 73.7231 26.3796 73.9235C26.413 74.057 26.4463 74.1572 26.4797 74.2908C26.513 74.3909 26.4797 74.4577 26.4463 74.4911L26.7131 75.259C26.6131 75.1589 26.6131 75.259 26.5797 75.3258C26.5797 75.3926 26.5464 75.426 26.4463 75.2257C26.4797 75.2924 26.513 75.3592 26.5464 75.426C26.4463 75.426 26.2129 75.3592 26.0128 75.2924C25.8127 75.2257 25.6126 75.1589 25.3458 75.1589C24.4453 74.7916 23.5116 74.4243 22.5778 74.057C21.5773 73.6898 20.5768 73.2891 19.5763 72.8884C17.542 72.1205 15.5077 71.3859 13.4734 70.6847L13.5401 70.7849C12.106 70.3175 10.7721 70.0504 9.1046 69.2824C7.83732 68.9819 6.0698 68.3475 5.46951 68.4477C4.06883 67.9135 3.43519 67.8133 2.03451 67.3458C2.33466 67.6129 0.633836 66.9786 1.26748 67.3458C2.10121 67.9135 2.20126 67.7799 2.93495 68.2473V68.1806C6.43664 69.85 10.005 71.4527 13.6068 73.022C16.0746 73.8901 18.6759 75.0921 21.2104 76.0938C24.1452 77.229 27.28 78.431 29.9147 79.4327C29.6145 78.3642 29.3811 77.4627 29.1476 76.5946C28.8808 75.6263 28.8475 74.9919 28.7141 74.1238C28.5473 73.4894 28.3806 72.7883 28.1805 72.0871C28.0137 71.4527 27.847 70.8183 27.7136 70.1505C27.3801 68.8483 27.0466 67.4794 26.7131 66.2106C26.7131 66.244 26.7465 66.3108 26.7465 66.3442C26.3796 65.0086 26.3129 63.9401 25.9461 62.638C25.9127 62.638 25.846 62.4376 25.8127 62.3709C25.8794 62.2373 25.3124 60.3007 24.7121 58.3642C24.412 57.3959 24.1118 56.3942 23.8784 55.6597C23.8451 55.5595 23.8117 55.4593 23.8117 55.3925C23.7784 55.259 23.745 55.1588 23.7117 55.0253C23.645 54.7915 23.5783 54.5578 23.5449 54.3909C23.4449 54.0236 23.3782 53.7565 23.3782 53.6563C23.3115 53.456 23.2781 53.2556 23.2114 53.0553C22.978 51.9535 22.7112 50.7849 22.4777 49.5161C22.2109 48.1805 21.9441 46.8783 21.6773 45.5762C21.2104 46.5111 20.7769 47.4793 20.3767 48.6813C20.1766 49.5161 19.9432 50.3508 19.7764 51.1521C19.643 51.2857 19.5763 51.9201 19.4096 52.3208C19.3095 52.3208 19.2095 52.3875 19.1428 52.4877C19.1094 52.1538 19.1094 52.087 19.0761 52.1538C19.0761 52.1872 19.0427 52.3875 19.0427 52.6213C18.976 52.4877 18.9093 52.2874 18.876 52.0536C18.8093 51.8533 18.7759 51.6196 18.7092 51.4526C18.6425 51.2857 18.5758 51.1187 18.4758 50.9852C18.4091 50.8182 18.4424 50.6847 18.5091 50.5845C18.209 49.6496 18.3757 49.9167 18.1423 48.8817C18.1756 48.7481 17.9755 48.1137 17.7421 47.5127C17.6754 47.3458 17.6421 47.2122 17.5754 47.0453C17.542 46.9451 17.442 46.6446 17.3753 46.4777C17.2419 46.077 17.1418 45.8099 17.1418 45.6763L17.2419 45.9101C17.0084 45.0085 16.875 44.1738 16.7083 43.2723C16.5415 42.3708 16.3748 41.4359 16.108 40.4342C16.0079 40.067 15.9079 39.6663 15.8412 39.2656C15.1742 40.3675 14.5072 41.5361 13.8069 42.7047C13.1399 43.8399 12.4729 45.0085 11.8393 46.1438C11.0722 47.4793 10.3052 48.8149 9.57149 50.0169C9.67154 50.1171 9.87163 49.4159 10.0717 49.4827C9.1713 51.0186 8.10411 52.4877 7.17033 54.0236C6.97023 54.2907 6.70344 54.5912 6.60339 54.6914C6.26989 55.1588 6.50334 55.0253 6.26989 55.3592L6.13649 55.3258C5.9364 55.9268 5.56955 56.0269 5.30276 56.5612C5.33611 56.6279 5.23606 56.7949 5.13601 56.9618C5.00261 56.8951 4.83587 57.5294 4.73582 57.4293C4.66912 57.5294 4.63577 57.6296 4.53572 57.7298C4.46902 57.9635 3.70198 60.067 3.60194 60.3007L3.53524 60.4009C3.36849 60.7014 3.40184 60.8684 3.50189 60.7014L3.30179 61.0353V61.0019L3.10169 61.3358C3.06835 61.4026 2.9683 61.436 2.9683 61.3024C2.9016 61.5361 2.80155 61.7699 2.66815 61.9368C3.06835 61.436 3.56859 60.8016 4.00213 60.3007C3.90208 60.5679 3.60194 60.9685 3.46854 61.2022C3.20174 61.4694 2.7682 62.0704 2.43471 62.5044C2.36801 62.6046 2.46806 62.7715 2.26796 62.9719C2.10121 63.0386 2.10121 63.239 1.93446 63.4059C2.03451 63.1388 2.16791 62.9385 2.30131 62.7048C2.16791 62.6714 1.90111 63.239 1.76772 63.4059C1.76772 63.5061 1.46757 63.9401 1.30082 64.2407C1.26748 64.0403 1.10073 64.441 0.933981 64.5745C0.800583 64.7749 0.767234 64.9084 0.867282 64.8417C0.933981 64.9752 1.36752 64.1071 1.33417 64.441C1.23413 64.4744 1.03403 64.875 0.933981 65.0754C1.00068 65.1088 1.06738 64.9752 1.03403 65.1422C0.900631 65.3759 0.833932 65.643 0.700535 65.7432C0.700535 65.6764 0.767234 65.6096 0.800583 65.5428C0.633836 65.8433 1.33417 63.7064 1.13408 64.1071C1.23413 64.0403 0.533787 66.0103 0.633836 65.8099C0.767234 65.643 0.667185 66.0103 0.800583 65.8433L0.833932 65.5762C1.00068 65.3425 1.16743 65.3091 1.16743 65.4093C0.900631 65.8433 1.43422 63.9401 1.30082 64.3408L1.40087 64.2073C1.36752 64.3742 1.13408 64.8083 1.00068 64.9418C1.06738 64.9752 0.96733 65.2089 0.900631 65.3759L0.867282 65.4427C0.800583 65.643 0.633836 65.8767 0.800583 65.8099C1.40087 64.7415 1.03403 66.8784 1.66767 65.8767C1.30082 66.2106 1.60097 65.643 1.86777 65.2089C1.93446 65.2089 2.13456 65.042 2.33466 64.7415C2.5014 64.441 2.36801 64.5412 2.36801 64.4744C2.5014 64.3408 2.66815 64.0737 2.73485 64.1405C2.7682 63.8734 3.00165 63.84 3.10169 63.5395C3.20174 63.2724 3.06835 63.5395 3.10169 63.3391C3.30179 63.0053 3.60194 62.5378 3.76868 62.2707C3.90208 62.2039 4.20223 61.9368 4.16888 62.2373C3.86873 62.7381 4.10218 61.9368 3.83538 62.5044C4.13553 62.3709 3.60194 63.0053 3.66864 63.1722C3.83538 63.0386 4.03548 62.7048 4.20223 62.3709L4.13553 62.4043C4.26893 62.1371 4.53572 61.6029 4.76917 61.3692C4.76917 61.4694 4.90257 61.3692 4.80252 61.5695L5.00261 61.2356C5.00261 61.1689 5.03596 61.1355 4.93591 61.2356C5.00261 61.0353 5.10266 60.9017 5.20271 60.7682C5.26941 60.7682 6.0698 58.7315 6.0698 58.7982C6.20319 58.5311 6.33659 58.5311 6.43664 58.2306C6.40329 58.1638 5.20271 60.8016 5.40281 60.4343C5.6029 60.2674 6.80348 57.3625 7.00358 57.2623C7.10363 57.062 7.23703 56.8283 7.13698 56.8283C7.33707 56.5278 7.20368 56.9952 7.37042 56.7949C7.37042 56.7949 7.33707 56.7949 7.37042 56.7281L7.57052 56.5612C7.77062 56.0269 8.30421 55.3592 8.50431 54.7582C8.47096 54.9585 8.50431 55.1922 8.33756 55.5595L8.27086 55.5929C8.27086 55.6597 8.13746 55.9268 8.17081 55.9602C8.40426 55.6597 8.53766 55.3925 8.67105 55.0253C8.73775 54.9585 8.7711 54.9251 8.8378 54.8583H8.80445C8.9045 54.7582 8.9045 54.7915 8.9045 54.8249V54.8583C9.20464 54.7582 9.53814 53.5562 9.93833 53.0219C10.005 52.8216 9.90498 52.9885 10.005 52.7548C10.4052 52.1872 10.7054 51.8199 11.1056 51.2189C11.1389 50.9852 11.1389 50.9518 10.9055 51.1521L11.2056 50.6847C11.1389 51.2189 11.9059 49.9167 11.8059 50.4844C11.9393 50.3842 12.106 50.0837 12.2394 49.8166C12.2061 49.7498 12.1394 49.683 12.3395 49.3491C12.673 48.9151 12.5729 49.0152 12.8731 48.6813C12.9731 48.6146 12.9398 48.7815 13.0065 48.7815C13.2733 48.1471 13.44 48.3475 13.7402 47.7798C13.8402 47.6129 13.9736 47.3458 14.0737 47.1121C14.107 47.0119 14.107 46.9451 14.0737 46.8783C14.3738 46.7782 14.4072 46.8783 14.4739 47.0119Z" fill="#082C4E"/>
<path d="M35.7173 15.9266L35.884 15.4925C35.3504 16.9616 34.7501 18.4642 34.1498 19.9333C35.7506 16.7947 37.5515 13.0885 37.6182 10.2171C37.885 10.1503 38.3852 9.34894 38.7854 8.5476C38.8188 8.44743 38.8855 8.34727 38.9188 8.2471C38.9521 8.21371 38.9521 8.14693 38.9855 8.11354H39.0188C39.0522 8.11354 39.0522 8.11354 39.0522 8.08015C39.0855 8.08015 39.0522 8.04677 39.0522 8.01338C39.0188 7.87982 39.0188 7.6461 39.0522 7.37898C39.0188 7.54593 39.0188 7.71288 39.0188 7.81304C39.0188 7.67949 39.0188 7.54593 39.0522 7.37898C39.0855 7.21204 39.1189 7.0117 39.1522 6.77798C39.2523 6.84476 39.3857 7.11187 39.5191 7.41237C39.5858 7.54593 39.6525 7.71288 39.7192 7.87982C39.8859 8.34727 40.0527 8.81471 40.2528 9.28216C40.9865 11.3523 41.7202 13.4558 42.4538 15.6261C43.3543 18.3306 45.9889 25.576 46.8893 28.3473C47.0227 28.748 47.1561 29.1487 47.2895 29.5493C47.0894 28.8815 47.0894 28.8815 46.8893 28.2138C47.6564 29.8164 48.3233 31.2856 48.957 32.7213C48.9236 32.4542 48.9903 32.354 48.8236 31.7196L49.057 32.4876C49.4906 33.0886 50.0909 34.6578 50.4577 35.359C50.291 35.2255 50.4911 35.8265 50.6578 36.3273V36.0936C51.3582 38.0301 52.2919 40.2672 52.9256 42.0034C53.0256 42.2372 53.059 42.4375 53.059 42.5711L53.159 42.7714L53.1924 42.8716L53.2257 42.905L53.3258 43.0719L53.5259 43.4726C53.4258 43.4058 53.4592 43.5393 53.4592 43.6395C53.4592 43.7397 53.4592 43.7731 53.3591 43.6061C53.4925 43.7731 53.5926 43.9734 53.6593 44.1403C53.4925 44.1403 53.3258 44.107 53.159 44.0736C52.9923 44.0402 52.8255 44.0402 52.6254 44.0736C51.6249 43.8732 50.5911 43.7063 49.5906 43.506C48.4567 43.3056 47.2895 43.1053 46.1223 42.905C43.8212 42.5043 41.4534 42.137 39.1522 41.8031L39.2523 41.8699C37.6182 41.6362 36.1508 41.6362 34.2165 41.1687C32.7825 41.0686 30.7815 40.8014 30.1812 40.9684C28.5805 40.7013 27.8801 40.7013 26.3127 40.4675C26.6795 40.7013 24.7453 40.334 25.5123 40.6011C26.5128 41.0018 26.6128 40.8348 27.4799 41.2021L27.4466 41.1353C31.5486 42.1704 35.6506 43.1053 39.8526 44.0068C42.6873 44.4408 45.6887 45.142 48.6235 45.6762C51.5582 46.2105 54.6597 46.7447 57.3944 47.2121C56.7608 45.6095 56.1938 44.2071 55.6602 42.905C55.5602 42.6712 55.4601 42.4375 55.3934 42.2038C55.3601 42.137 55.3601 42.1036 55.3267 42.0368L55.2934 41.9367C55.26 41.8699 55.26 41.8031 55.2267 41.7363C55.16 41.4692 55.1266 41.2021 55.0599 40.935C54.0928 38.5978 53.0256 35.5927 51.9251 32.955C51.9584 33.0218 51.9584 33.0552 51.9584 33.0886C51.3915 31.6862 51.1581 30.5844 50.5911 29.182C50.5578 29.2154 50.4577 28.9817 50.4244 28.8815C50.5244 28.581 46.956 20.9016 46.8893 20.3673C46.8226 20.2338 46.7559 20.0668 46.6892 19.9333C45.6554 16.995 44.8884 13.8231 43.9212 11.3523C43.6211 10.8514 43.3209 10.2504 43.0541 9.84978C42.9541 9.38233 42.7873 9.34894 42.5872 8.81471C42.4538 7.31221 41.9869 6.57765 42.1203 7.34559C42.0203 7.14526 41.8202 6.61104 41.6535 6.17698C41.4867 5.74292 41.32 5.30886 41.1532 4.8748C40.8197 4.00669 40.5196 3.17196 40.2194 2.40401C39.9526 1.76962 39.6525 1.13523 39.3857 0.467447C39.319 0.300501 39.2523 0.166945 39.2189 0C39.0855 0.300502 39.0188 0.36728 38.9188 0.434058C38.3519 2.17029 38.4853 1.46912 37.8516 3.13857C37.7516 3.23874 37.3514 4.44075 37.0179 5.57597C36.8511 6.1102 36.6844 6.67781 36.551 7.11187C36.4843 7.37898 36.4176 7.61271 36.3842 7.67949L36.4176 7.51254C35.9507 8.71455 35.3838 9.44911 34.9502 10.6511C33.6496 13.9232 32.3823 17.596 31.2151 20.6678C31.3485 20.7346 31.4485 19.9667 31.6153 20.0001C30.9149 21.8031 30.0812 23.5727 29.3809 25.4091C29.2141 25.7096 29.014 26.1103 28.914 26.2438C28.6472 26.8114 28.8473 26.6111 28.6805 27.0451H28.5471C28.4137 27.7129 28.0802 27.9133 27.9135 28.5143C27.9468 28.5477 27.8801 28.7814 27.8134 28.9817C27.68 28.9483 27.58 29.6161 27.4799 29.5493C27.4466 29.6829 27.4132 29.783 27.3132 29.9166C27.2798 30.1837 26.8129 32.5543 26.7796 32.8215L26.7129 32.9216C26.5795 33.2555 26.6462 33.4225 26.7462 33.2555L26.5795 33.6562V33.5894L26.4128 33.9901C26.3794 34.0568 26.2794 34.1236 26.2794 33.9901C26.246 34.2572 26.1793 34.5243 26.0459 34.7246C26.3794 34.0902 26.7796 33.3223 27.1464 32.7213C27.0797 33.0218 26.8463 33.4892 26.7462 33.7897C26.5128 34.1236 26.1793 34.8248 25.9125 35.3924C25.8792 35.526 25.9792 35.6595 25.8125 35.9266C25.6457 36.0268 25.7124 36.2605 25.5457 36.4609C25.579 36.1604 25.7124 35.8932 25.8125 35.6261C25.6791 35.6261 25.479 36.2605 25.3789 36.4943C25.3789 36.6278 25.1455 37.1286 25.0454 37.4959C24.9787 37.2956 24.8787 37.7296 24.7453 37.93C24.6452 38.1637 24.6452 38.3307 24.7119 38.2305C24.812 38.364 25.1121 37.3624 25.1455 37.7296C25.0454 37.7964 24.912 38.2305 24.812 38.4976C24.8787 38.531 24.912 38.364 24.9454 38.531C24.8453 38.7981 24.812 39.0986 24.6786 39.2322C24.6786 39.1654 24.7453 39.0652 24.7453 38.9984C24.6119 39.3323 25.0121 36.9617 24.8787 37.3958C24.9787 37.2956 24.5452 39.5327 24.6452 39.2989C24.7453 39.0986 24.7119 39.4993 24.812 39.2989V39.0318C24.9454 38.7313 25.1121 38.6645 25.1121 38.7981C24.912 39.2989 25.1788 37.1954 25.0788 37.6629L25.1788 37.4959C25.1455 37.6963 25.0121 38.1971 24.8787 38.364C24.9454 38.3974 24.8787 38.6311 24.812 38.8649L24.7786 38.9317C24.7453 39.1654 24.6119 39.4325 24.7453 39.3323C25.1788 38.0969 25.1121 40.4008 25.6124 39.1988C25.2789 39.6328 25.5123 38.965 25.7124 38.4308C25.7791 38.3974 25.9459 38.1971 26.1126 37.8298C26.2127 37.4959 26.146 37.6295 26.1126 37.5293C26.2127 37.3624 26.3794 37.0285 26.4128 37.0953C26.4128 36.7948 26.6128 36.6946 26.7129 36.3941C26.7796 36.0936 26.6795 36.3941 26.6795 36.1937C26.8463 35.7931 27.0464 35.2255 27.2131 34.925C27.3465 34.8248 27.6133 34.4909 27.6133 34.8248C27.3799 35.4258 27.5133 34.5243 27.3132 35.1587C27.58 34.9584 27.1464 35.7263 27.2465 35.8932C27.4132 35.7263 27.5466 35.2922 27.6467 34.9584L27.6133 35.0251C27.7134 34.7246 27.8801 34.0902 28.1136 33.7897C28.1469 33.8899 28.247 33.7563 28.1803 33.9901L28.347 33.5894C28.347 33.5226 28.347 33.4558 28.2803 33.5894C28.3137 33.3891 28.4137 33.1887 28.4804 33.0552C28.5471 33.0218 29.0474 30.7179 29.0474 30.8181C29.1474 30.5176 29.2808 30.4842 29.3142 30.1503C29.2808 30.1169 28.4471 33.122 28.5805 32.7213C28.7472 32.4876 29.5143 29.182 29.7143 29.0485C29.781 28.8148 29.8811 28.5477 29.781 28.581C29.9478 28.2138 29.8477 28.748 30.0145 28.4809C30.0145 28.4809 29.9811 28.4809 30.0145 28.4141L30.1812 28.1804C30.3146 27.546 30.7482 26.7446 30.8482 26.0769C30.8482 26.2772 30.8816 26.5109 30.8149 26.945L30.7482 27.0118C30.7482 27.0785 30.6481 27.4124 30.7148 27.4124C30.8816 27.0451 31.015 26.7113 31.0817 26.3106C31.115 26.2438 31.1817 26.177 31.2151 26.1103H31.1817C31.2818 26.0101 31.2818 26.0101 31.2818 26.0769V26.1103C31.5486 25.9433 31.7153 24.5744 32.0488 23.94C32.0822 23.7396 32.0155 23.9066 32.0822 23.6395C32.4157 22.9717 32.6491 22.5042 32.9492 21.7697C32.9492 21.5026 32.9159 21.4692 32.7491 21.7363L32.9826 21.2021C33.0159 21.7697 33.5495 20.2338 33.5829 20.8682C33.6829 20.7346 33.8163 20.4007 33.9164 20.0668C33.883 20.0001 33.8163 19.9333 33.9497 19.5326C34.2165 18.9984 34.1498 19.1319 34.3833 18.6979C34.4833 18.6311 34.45 18.798 34.5167 18.798C34.6834 18.0635 34.8835 18.2638 35.117 17.596C35.2504 17.162 35.5505 16.3606 35.4171 16.2939C35.5505 15.793 35.6506 15.8264 35.7173 15.9266Z" fill="#082C4E"/>
<path d="M29.7475 65.4421L29.8475 65.8428C29.4807 64.6074 29.1472 63.2718 28.8471 61.9696C29.2139 64.8745 29.7808 68.3136 31.3149 70.2167C31.1148 70.4171 31.1482 71.185 31.2482 71.9196C31.3149 72.2868 31.3816 72.6541 31.4483 72.9212C31.4817 72.988 31.4817 73.0548 31.4817 73.1216C31.515 73.1884 31.515 73.2551 31.5484 73.3219C31.5817 73.4889 31.6484 73.5556 31.6484 73.589C32.0486 74.6241 32.4155 75.6258 32.749 76.594C32.5155 75.8929 32.2821 75.2251 32.0486 74.5573C32.2821 75.2251 32.5155 75.9263 32.749 76.594C33.0157 77.3954 33.2825 78.1633 33.5493 78.9313C34.5165 77.6959 35.4503 76.5606 36.384 75.4254C36.7842 74.9246 37.2178 74.4237 37.618 73.9229C37.9181 73.589 38.1849 73.2551 38.4851 72.9212C39.6523 71.5857 40.8862 70.2167 42.1535 68.8478C43.7543 67.1115 47.9563 62.2367 49.6238 60.4671C49.8572 60.2 50.0907 59.9663 50.3241 59.6992C49.9239 60.1332 49.9239 60.1332 49.4904 60.5339C50.3241 59.2985 51.0912 58.1967 51.8582 57.1616C51.6581 57.2952 51.5914 57.2618 51.1579 57.6291L51.6247 57.1616C51.8582 56.5606 52.7586 55.4922 53.1255 54.9579C53.1255 55.1249 53.459 54.7576 53.7591 54.4237L53.5924 54.5239C53.6924 54.4237 53.7925 54.2901 53.8925 54.19C54.0259 54.023 54.1593 53.8561 54.3261 53.6891C54.5929 53.3553 54.893 53.0214 55.1598 52.6875C55.7267 52.0197 56.2603 51.3185 56.8273 50.6841C55.7934 50.4504 54.8263 50.2501 53.9926 50.0497C53.6591 49.983 53.459 49.8828 53.3256 49.816L52.225 49.6157L51.4914 49.4821C51.6248 49.382 50.3241 49.0815 51.0245 49.1482C49.9239 49.0815 48.8234 48.7142 47.7562 48.6474C44.0878 47.8127 40.1525 47.0113 36.284 46.3769L36.3507 46.4437C34.9834 46.2434 33.7494 46.2434 32.182 45.7759C30.9814 45.7092 29.314 45.4087 28.7804 45.609C27.4464 45.3419 26.8794 45.3753 25.5455 45.1415C25.8456 45.3753 24.2448 45.008 24.8451 45.2751C25.6789 45.6758 25.7456 45.5088 26.4459 45.8427V45.7759C29.8142 46.7776 33.2158 47.7125 36.6842 48.5806C39.0187 48.9813 41.5199 49.6825 43.9544 50.1833C46.5556 50.7175 49.3903 51.2851 51.6581 51.6858C51.6914 51.6858 51.7581 51.6858 51.7915 51.7192C51.8248 51.7192 51.8248 51.7192 51.8582 51.7526C51.8915 51.7526 51.9249 51.786 51.9582 51.8194C52.0249 51.8527 52.0583 51.9195 52.0916 51.9863C52.2584 52.0197 52.4585 52.0531 52.6252 52.0865C52.4585 52.2868 52.2917 52.5205 52.0916 52.7543C51.8582 53.0548 51.5914 53.3553 51.358 53.6558C51.0578 54.023 50.791 54.3569 50.5242 54.7242C50.5576 54.6908 50.5909 54.6574 50.5909 54.624C49.7905 55.5923 49.0902 56.2267 48.2898 57.195C48.3232 57.2284 48.1898 57.3619 48.1564 57.4621C47.8563 57.4955 43.821 63.2718 43.4541 63.5389C43.3874 63.6391 43.2874 63.7393 43.2207 63.8728C41.4865 65.8094 39.4522 67.6124 38.0515 69.3486C37.8181 69.7827 37.5179 70.2501 37.3512 70.6174C37.0177 70.8511 37.1177 71.0181 36.7842 71.3853C35.7171 72.0531 35.3836 72.6875 35.8838 72.3202L35.6504 72.6207L35.4503 72.8879C35.3836 72.9546 35.3169 73.0548 35.2502 73.1216C35.1168 73.2885 34.9834 73.4221 34.8833 73.5556C34.7499 73.756 34.6499 73.9563 34.5165 74.1566V74.19C34.4498 74.0899 34.4498 73.8895 34.4831 73.6558C34.3497 73.3887 34.4498 73.3219 34.3831 72.988C34.4164 72.9212 34.3831 72.8879 34.3497 72.8211C34.3164 72.7877 34.3164 72.7543 34.283 72.7209L34.2497 72.6541C34.2163 72.6207 34.2163 72.6207 34.183 72.554C33.9495 71.9864 33.7161 71.4521 33.6827 71.3186L33.7494 71.4521C33.4826 70.3837 33.5493 69.6157 33.2492 68.6141C32.5489 65.7426 31.5484 62.6708 30.848 60.0331C30.7146 60.0331 31.0481 60.6007 30.8814 60.7008C30.4478 59.1316 30.181 57.5289 29.7808 55.9596C29.7475 55.6591 29.7142 55.2918 29.7142 55.1583C29.6141 54.6574 29.5474 54.8912 29.4807 54.5239L29.5808 54.4237C29.314 53.9229 29.5141 53.589 29.314 53.1215C29.2473 53.1215 29.1806 52.9212 29.1472 52.7543C29.2806 52.7209 28.9805 52.22 29.1139 52.1866C29.0805 52.0865 29.0472 52.0197 29.0472 51.8527C28.9471 51.6524 28.0133 49.8494 27.9133 49.6491V49.5489C27.8132 49.2484 27.6798 49.1816 27.7132 49.3486L27.6131 48.9813L27.6465 49.0147L27.5464 48.6474C27.5464 48.5806 27.5798 48.4805 27.6798 48.5806C27.5798 48.3803 27.4797 48.1799 27.4464 47.9796C27.5131 48.5472 27.6131 49.2818 27.6465 49.9162C27.5464 49.6825 27.4797 49.2484 27.3797 48.9813C27.3797 48.6474 27.2796 47.9796 27.1796 47.4788C27.1462 47.3786 26.9795 47.3452 26.9795 47.0781C27.0462 46.9446 26.9128 46.811 26.9128 46.5773C27.0462 46.811 27.0795 47.0447 27.1462 47.2784C27.2463 47.2117 27.0795 46.6774 27.0462 46.4771C26.9795 46.4103 26.8794 45.9429 26.7794 45.6424C26.9461 45.7425 26.7794 45.3753 26.8127 45.2083C26.7794 45.008 26.6793 44.9078 26.6793 44.9746C26.546 44.9412 26.8127 45.7759 26.6127 45.5422C26.646 45.442 26.5126 45.0748 26.4459 44.8744C26.3792 44.9078 26.4459 45.0414 26.3125 44.9078C26.2792 44.6741 26.1124 44.4404 26.1458 44.3068C26.1791 44.3402 26.1791 44.4404 26.2125 44.5072C26.1458 44.2067 27.1129 46.0097 26.9795 45.609C26.9461 45.7425 26.0791 44.0397 26.1458 44.24C26.1791 44.4404 25.979 44.1399 26.0124 44.3402L26.1458 44.5405C26.1791 44.8077 26.1124 44.9412 26.0124 44.8744C25.9123 44.4404 26.8461 45.9763 26.646 45.609V45.7759C26.546 45.6424 26.4126 45.2417 26.4126 45.0414C26.3459 45.0748 26.2458 44.841 26.1791 44.6741V44.6073C26.0791 44.4404 26.0457 44.1733 25.979 44.3068C26.2792 45.3753 25.0786 43.806 25.3454 44.841C25.3787 44.3736 25.5455 44.9412 25.6789 45.3753C25.6455 45.442 25.6122 45.6424 25.6789 45.9763C25.7789 46.2434 25.7789 46.1098 25.8456 46.1766C25.8456 46.3436 25.9123 46.6441 25.8123 46.6441C25.979 46.8444 25.8456 47.0113 25.9457 47.2784C26.0457 47.5122 25.979 47.2451 26.0791 47.412C26.1791 47.7459 26.2792 48.2467 26.3459 48.5472C26.3125 48.6808 26.2458 49.0481 26.0791 48.8477C25.9457 48.3135 26.3125 48.9813 26.1458 48.4471C26.0457 48.7476 25.9457 47.9796 25.8123 47.9128C25.7789 48.1132 25.879 48.4471 25.979 48.7476V48.6808C26.0791 48.9479 26.2458 49.4487 26.2458 49.7492C26.1791 49.7158 26.1458 49.8494 26.0791 49.6491L26.1791 50.0163C26.2125 50.0497 26.2458 50.0831 26.2125 49.983C26.3125 50.1499 26.3459 50.3168 26.3459 50.4504C26.2792 50.5172 27.1462 52.2868 27.1129 52.22C27.1796 52.4871 27.1129 52.5539 27.2463 52.7876C27.313 52.7876 26.3125 50.3836 26.4459 50.7175C26.4459 50.9512 27.6131 53.5556 27.5131 53.7559C27.5798 53.9563 27.6465 54.1566 27.7132 54.1232C27.7799 54.4571 27.5464 54.0564 27.5798 54.3235C27.5798 54.3235 27.6131 54.2901 27.6131 54.3569L27.5798 54.5907C27.8132 55.0581 27.9133 55.826 28.1801 56.3269C28.08 56.1933 27.8799 56.0598 27.7465 55.7259L27.7799 55.6591C27.7465 55.6257 27.6465 55.3586 27.5798 55.3586C27.6131 55.6925 27.7132 55.9596 27.8799 56.2935C27.8799 56.3603 27.8799 56.427 27.8799 56.4938C27.8799 56.4938 27.8799 56.4938 27.9133 56.4938C27.9133 56.6274 27.8799 56.594 27.8466 56.5606C27.8466 56.5606 27.8466 56.5606 27.8132 56.5272C27.6798 56.7943 28.2801 57.7626 28.3468 58.3636C28.4135 58.5306 28.3802 58.3636 28.4802 58.5639C28.5803 59.1983 28.647 59.6324 28.7804 60.2668C28.9138 60.4337 28.9471 60.4671 28.9805 60.2L29.0805 60.6675C28.747 60.3002 29.1139 61.6024 28.7804 61.2017C28.7804 61.3686 28.8471 61.6357 28.9471 61.9029C29.0138 61.9029 29.1139 61.9362 29.2139 62.2701C29.2806 62.771 29.2806 62.6374 29.314 63.0381C29.2806 63.1383 29.2139 63.0047 29.1472 63.0381C29.414 63.6057 29.1472 63.6057 29.314 64.1399C29.4474 64.4738 29.6475 65.175 29.7808 65.1416C29.9476 65.4421 29.8475 65.4755 29.7475 65.4421Z" fill="#082C4E"/>
<path d="M27.2138 95.5595L27.614 95.0921C26.3467 96.6614 24.9794 98.2641 23.612 99.8667C26.8469 96.628 30.5154 92.7215 32.0495 89.3826C32.6831 89.416 35.6512 86.1438 35.6178 85.9769C36.1181 85.2089 36.6517 84.441 37.2186 83.673C36.8518 84.2073 36.4516 84.7081 36.0847 85.2423C36.4516 84.7081 36.8184 84.2073 37.2186 83.673C40.687 78.8316 44.889 73.9568 49.2578 68.9151C49.6913 68.4142 50.2916 67.7131 50.9253 66.9451C50.992 66.8449 51.092 66.7782 51.1587 66.678L51.2254 66.6112C51.2588 66.5778 51.2921 66.5444 51.3255 66.5111C51.3921 66.4443 51.4588 66.4109 51.4922 66.3441C51.7256 66.1104 51.859 66.0102 51.859 66.1104C51.7256 66.4109 51.5922 66.6112 51.5255 66.7448C51.4922 66.8116 51.4588 66.8449 51.4255 66.8783C51.5255 66.7782 51.5255 66.7782 51.6256 66.6112C51.859 66.3107 51.9257 66.5444 51.859 67.0119C51.9591 66.9451 52.0258 66.9785 52.2259 66.6446L52.0591 66.9785C52.1258 66.9785 52.0258 67.3792 51.9257 67.7131C51.8257 68.047 51.7256 68.4476 51.6256 68.8149C51.3921 69.5828 51.1587 70.3174 51.0253 70.8182C50.992 70.5845 50.7252 71.3191 50.4584 71.9869L50.6251 71.7531C49.6913 74.2907 48.7575 77.2623 47.9572 79.5328C47.8571 79.8667 47.7237 80.067 47.657 80.2006L46.99 82.4043C46.9233 82.2039 46.2563 84.1739 46.5231 83.1054C46.1229 84.8083 45.4559 86.4109 45.0557 88.047C43.1548 93.623 41.1872 99.5662 39.4197 105.409L39.5197 105.276C38.9194 107.312 38.5526 109.182 37.6188 111.62C37.1853 113.423 36.4182 115.96 36.4516 116.762C35.7846 118.798 35.6512 119.633 35.0509 121.67C35.3844 121.202 34.5507 123.64 34.9842 122.705C35.6512 121.469 35.4845 121.336 36.0514 120.267H35.9847C38.019 115.126 39.9533 109.984 41.8542 104.742C42.9547 101.169 44.3888 97.3959 45.6227 93.7231C46.9567 89.7832 48.324 85.476 49.3912 82.0704C49.6246 81.2356 49.9581 80.7014 50.2583 80.0336C51.2921 76.8951 52.6928 72.9551 53.8267 69.4493C53.7933 69.5161 53.7933 69.5828 53.76 69.6162C53.9267 69.1488 54.0601 68.7147 54.2269 68.2807C54.4603 67.6797 54.6604 67.1121 54.8938 66.5444C55.3941 65.1755 55.9277 63.7731 56.4613 62.2373C56.3946 62.304 56.5613 61.8366 56.5947 61.6362C56.7281 61.4025 57.195 60.0336 57.8286 58.1972C58.4289 56.3608 59.1626 54.1237 59.7962 52.1204C56.7948 55.9601 54.3602 59.0987 54.0935 59.3324C53.8934 59.5995 53.6933 59.8332 53.4932 60.1004C52.5594 61.2356 51.5922 62.3374 50.5584 63.506L49.7914 64.4075L49.3912 64.875L49.091 65.2089C48.7575 65.5762 48.424 65.9434 48.0905 66.3107C46.7566 67.7798 45.4559 69.2156 44.3888 70.5845C43.9886 71.2189 43.5217 71.9535 43.1882 72.4877C42.7213 72.9218 42.788 73.1221 42.2877 73.6563C40.787 74.8583 40.2201 75.8266 40.9538 75.1588C40.02 76.3942 38.9861 77.5628 38.1524 78.6647C37.7856 79.1655 37.3854 79.6997 37.0185 80.2006C36.685 80.6346 36.4516 80.835 36.2181 81.0019C35.3844 82.1371 35.5512 81.7365 34.584 82.8383C34.2505 83.0386 32.4163 85.8433 32.1162 86.1104L32.2496 85.9101C31.149 87.2123 30.2486 87.9134 29.1814 89.1822C27.6807 90.9519 26.1466 92.7882 24.6459 94.658C23.9122 95.5929 23.1451 96.4944 22.4448 97.3626C21.6778 98.2974 20.9107 99.199 20.2104 100.067C20.2437 100.1 20.3104 100.034 20.4105 99.9335C20.4438 99.8667 20.5105 99.8333 20.5772 99.7666C20.6106 99.7332 20.6439 99.6664 20.6773 99.633C20.844 99.4327 21.0108 99.2323 21.0775 99.2991C20.4105 100.067 19.7769 100.835 19.1099 101.603C19.5101 102.271 19.9102 102.905 20.3438 103.573L21.0441 104.742C21.511 105.543 22.0113 106.311 22.4782 107.079C22.7116 107.479 22.9451 107.98 23.0117 108.181C23.4119 108.882 23.3452 108.548 23.6454 109.049L23.5787 109.182C24.1456 109.85 24.1456 110.318 24.6459 110.985C24.7126 110.985 24.8793 111.252 25.0461 111.486C24.946 111.586 25.5463 112.221 25.4129 112.254C25.513 112.388 25.5797 112.488 25.6797 112.688C25.9132 112.955 27.9475 115.359 28.1809 115.593L28.2476 115.727C28.5144 116.127 28.7145 116.227 28.5811 115.994L28.8813 116.494L28.8479 116.428L29.1481 116.895C29.1814 116.995 29.2148 117.129 29.0814 117.029C29.3148 117.262 29.5149 117.563 29.6816 117.863C29.2481 117.062 28.7479 116.06 28.3477 115.192C28.6145 115.493 28.9146 116.127 29.1814 116.461C29.3815 116.929 29.8817 117.83 30.2819 118.531C30.382 118.665 30.5821 118.698 30.7488 119.065C30.7822 119.299 31.0156 119.433 31.1157 119.767C30.8489 119.466 30.6821 119.166 30.482 118.832C30.4153 118.965 30.9156 119.666 31.049 119.934C31.149 120.034 31.5492 120.668 31.816 121.069C31.6159 120.969 31.9494 121.436 32.0495 121.703C32.2162 121.97 32.3496 122.104 32.3163 122.004C32.483 122.004 31.6826 120.902 32.0495 121.202C32.0495 121.336 32.4163 121.837 32.6164 122.104C32.6831 122.07 32.5497 121.87 32.7164 122.037C32.9165 122.371 33.1833 122.638 33.25 122.872C33.1833 122.838 33.1166 122.705 33.0499 122.605C33.3167 123.005 31.2157 120.668 31.5826 121.169C31.5492 121.002 33.4501 123.239 33.2834 122.972C33.15 122.705 33.5168 123.072 33.3501 122.805L33.0833 122.571C32.8832 122.204 32.8832 122.004 33.0166 122.104C33.3834 122.705 31.5159 120.702 31.9161 121.169L31.816 120.935C31.9828 121.136 32.383 121.67 32.483 121.937C32.5497 121.904 32.7498 122.171 32.9165 122.404L32.9499 122.505C33.15 122.738 33.3501 123.072 33.3167 122.872C32.383 121.436 34.5507 123.406 33.6502 122.004C33.917 122.671 33.3834 121.904 32.9832 121.303C32.9832 121.202 32.8832 120.902 32.6164 120.434C32.3496 120.067 32.4163 120.234 32.3496 120.201C32.2496 119.967 32.0161 119.533 32.1162 119.566C31.8494 119.333 31.8494 119.065 31.5826 118.732C31.3491 118.431 31.5492 118.765 31.3825 118.565C31.0823 118.097 30.6488 117.429 30.4487 117.029C30.4153 116.828 30.2486 116.328 30.5487 116.595C31.0156 117.329 30.2152 116.428 30.7155 117.162C30.6488 116.728 31.1824 117.797 31.3825 117.863C31.2824 117.596 30.9823 117.095 30.7155 116.728L30.7488 116.828C30.482 116.494 30.0151 115.793 29.8484 115.359C29.9484 115.426 29.8817 115.226 30.0818 115.459L29.7817 114.959C29.715 114.892 29.6816 114.858 29.7483 114.992C29.5482 114.792 29.4148 114.558 29.3481 114.358C29.3815 114.257 27.4139 111.92 27.5139 111.987C27.2805 111.653 27.3138 111.486 27.0137 111.186C26.9803 111.186 27.1471 111.386 27.3472 111.686C27.5806 111.987 27.8474 112.354 28.1476 112.755C28.7145 113.523 29.2481 114.191 29.0814 113.99C28.948 113.656 26.2133 110.184 26.1799 109.917C26.0132 109.65 25.7798 109.349 25.7798 109.449C25.513 108.982 25.9799 109.516 25.8131 109.149C25.8131 109.149 25.8131 109.182 25.7464 109.082L25.613 108.748C25.0794 108.114 24.5458 107.045 23.9455 106.411C24.1456 106.578 24.4124 106.745 24.7459 107.179L24.7793 107.279C24.846 107.346 25.1128 107.713 25.1461 107.646C24.9127 107.179 24.6459 106.812 24.279 106.378C24.2457 106.277 24.179 106.177 24.1456 106.11C24.1456 106.11 24.1456 106.144 24.1123 106.144C24.0456 105.977 24.0789 105.977 24.1123 106.01C24.1123 106.01 24.1456 106.01 24.1456 106.044C24.1456 105.676 22.9117 104.408 22.4782 103.54C22.3114 103.306 22.4448 103.54 22.2114 103.272C21.8112 102.538 21.6778 102.271 21.4443 101.837C21.511 101.77 21.6111 101.67 21.7111 101.536C21.7445 101.336 21.7445 101.302 21.4777 101.503L21.8779 101.069C21.8445 101.202 21.8779 101.202 21.9446 101.202C22.0113 101.202 22.1447 101.069 22.2781 100.935C22.5449 100.701 22.8117 100.468 22.6449 100.835C22.8117 100.701 23.1118 100.334 23.3786 100C23.3786 99.9335 23.3452 99.8333 23.6787 99.3993C24.2123 98.8651 24.0789 98.9986 24.5458 98.5312C24.7126 98.4644 24.5792 98.6647 24.6459 98.6647C25.1795 97.8634 25.3129 98.1305 25.8798 97.3959C26.2133 96.9285 26.9136 96.0604 26.8469 95.9602C27.1137 95.3592 27.1804 95.426 27.2138 95.5595Z" fill="#082C4E"/>
<path d="M10.6718 82.1375L10.5384 81.9038C11.0387 82.6717 11.5389 83.5064 12.0392 84.3412C11.2721 82.3378 10.2383 80.0674 8.57081 79.2326C8.73756 79.0323 8.57081 78.4647 8.37071 77.9639C8.30402 77.8303 8.27067 77.7301 8.20397 77.5966C8.20397 77.5632 8.17062 77.5298 8.17062 77.5298C8.17062 77.4964 8.17062 77.5298 8.17062 77.4964C8.17062 77.4964 8.17062 77.463 8.13727 77.4964C8.03722 77.4964 7.90382 77.4296 7.77042 77.3628C7.83712 77.4296 7.93717 77.463 8.00387 77.4964C7.93717 77.463 7.83712 77.4296 7.77042 77.3628C7.33688 77.0623 6.86999 76.4613 6.66989 76.0941C7.17013 76.3278 7.73707 76.6951 8.07057 76.9288C8.13727 76.9956 8.27067 77.0623 8.37071 77.1625H8.40406L8.50411 77.2293C8.57081 77.2627 8.67086 77.2961 8.73756 77.3628C8.90431 77.4296 9.07105 77.5298 9.2378 77.5966C9.5713 77.7635 9.93814 77.9305 10.305 78.0974C11.739 78.7986 13.1397 79.4998 13.9067 79.9004C14.1402 80.0006 14.3403 80.1341 14.5737 80.2343C14.2069 80.034 14.2069 80.034 13.84 79.8003C14.8739 80.1008 15.8076 80.3679 16.6747 80.6684C16.5413 80.5348 16.5413 80.468 16.2412 80.2009L16.6414 80.4346C17.1083 80.4346 18.0421 80.8353 18.5089 80.9355C18.3756 81.0023 18.709 81.1692 19.0092 81.3028L18.9091 81.1692C20.0097 81.7034 21.377 82.2043 22.3775 82.6717C22.5109 82.7385 22.6109 82.8053 22.6443 82.872L23.6448 83.2393C23.5114 83.3395 24.4118 83.7068 23.9116 83.5732C24.3118 83.64 24.6786 83.8069 25.0454 83.9405C25.2122 84.0073 25.3456 84.0407 25.6124 84.0407C25.8125 84.1074 26.0126 84.2076 26.2127 84.2744C26.0459 84.5081 25.8792 84.7084 25.7124 84.9756L25.579 85.1759L25.5123 85.2761L25.3789 85.443L24.8453 86.1442C24.145 87.1125 23.4447 88.0807 22.7777 89.049L22.8777 89.0156C22.3441 89.8504 22.0106 90.6851 21.1769 91.5532C20.7767 92.3212 20.1097 93.3228 20.1097 93.7903C19.5094 94.5916 19.376 94.9589 18.8424 95.7602C19.1092 95.6601 18.3756 96.595 18.7757 96.2945C19.3427 95.9272 19.2093 95.7936 19.7095 95.4931L19.6762 95.4597C21.4437 93.6567 23.1445 91.7535 24.812 89.817C25.3122 89.1158 25.8458 88.4146 26.4461 87.7135C26.7463 87.3796 27.0131 87.0123 27.3132 86.6784C27.5467 86.3779 27.8135 86.0774 28.0469 85.7769C28.2803 85.4764 28.5471 85.1759 28.7806 84.842C29.1808 84.3412 29.581 83.8403 29.9812 83.3061C28.7139 82.7719 27.4133 82.2377 26.1793 81.7368C26.0793 81.7034 25.9792 81.6366 25.8458 81.6033C25.7458 81.5699 25.6791 81.5365 25.579 81.5031C25.4123 81.4363 25.2455 81.3695 25.0454 81.3028C24.712 81.1692 24.3785 81.069 24.0783 80.9355C23.7115 80.8019 23.5114 80.6016 23.2112 80.4013C21.8105 79.867 20.0764 79.0323 18.4756 78.4313C18.5089 78.4313 18.5423 78.4647 18.5423 78.4647C17.7086 78.1308 17.1416 77.6967 16.3412 77.3628C16.3412 77.3962 16.2078 77.3628 16.1411 77.3295C16.0744 77.0957 11.2054 75.6266 10.972 75.3929C10.8719 75.3595 10.8052 75.3261 10.7052 75.2927C10.2716 75.0924 9.87144 74.8587 9.47125 74.6249C8.80426 74.2577 8.13727 73.9238 7.47028 73.5899C6.0696 72.8553 4.56888 72.0874 3.3016 71.5532C2.9014 71.4864 2.43451 71.3528 2.23441 71.3862C1.63412 71.0189 1.90092 71.3194 1.40068 71.0857C0.833736 70.7184 0.366844 70.4513 0 70.251C0.0666989 70.4513 0.233446 70.7184 0.366844 70.852C0.500242 71.0189 0.60029 71.0523 0.60029 70.9521C1.36733 72.0206 1.90092 72.8887 2.46786 73.7568C2.76801 74.1575 3.06815 74.5916 3.40164 74.9922C3.66844 75.3261 3.66844 75.4597 3.63509 75.5932C4.26873 76.4947 3.96859 76.1608 4.53553 77.0957C4.53553 77.1959 4.96907 77.7969 5.43596 78.3645C5.53601 78.4981 5.66941 78.6316 5.76946 78.7652L5.83616 78.8654L5.8695 78.9321C5.90285 78.9655 5.9362 78.9989 5.96955 79.0323C6.0696 79.1659 6.16965 79.266 6.203 79.2994L6.1363 79.2326C6.53649 79.9004 6.60319 80.468 7.00339 81.1358C8.07057 82.9722 9.4379 84.842 10.4717 86.5115C10.6051 86.4447 10.2049 86.1776 10.3717 86.044C10.972 87.0123 11.4722 88.1141 12.1059 89.0824C12.1726 89.2827 12.2726 89.5499 12.2726 89.65C12.4393 89.9839 12.4393 89.7836 12.5727 90.0507L12.4727 90.1509C12.7728 90.418 12.6728 90.7185 12.9062 91.019C12.9729 91.019 13.0396 91.1191 13.1063 91.2193C13.0063 91.2861 13.3398 91.5532 13.2064 91.62C13.2397 91.6868 13.2731 91.7201 13.3064 91.8203C13.4398 91.9205 14.5404 92.9222 14.6738 93.0223L14.7071 93.0891C14.8405 93.256 14.9739 93.2894 14.9072 93.1559L15.0406 93.3896L15.0073 93.3562L15.1407 93.5899C15.1407 93.6233 15.1407 93.7235 15.0406 93.6901C15.174 93.7903 15.2741 93.9238 15.3408 94.0574C15.174 93.6567 15.0073 93.1559 14.8739 92.7218C15.0073 92.8554 15.1407 93.1559 15.2407 93.3228C15.2741 93.5565 15.4741 93.9906 15.6409 94.3579C15.7076 94.4247 15.841 94.3913 15.9077 94.5582C15.8743 94.6918 16.0411 94.7252 16.0411 94.8921C15.9077 94.7919 15.841 94.625 15.7409 94.4581C15.6409 94.5582 15.9077 94.8587 15.941 94.9923C16.0077 95.0257 16.1745 95.3262 16.3079 95.4931C16.1411 95.4931 16.3412 95.6934 16.3412 95.827C16.4079 95.9606 16.508 95.9939 16.508 95.9272C16.6414 95.8938 16.2412 95.3929 16.4746 95.4931C16.4413 95.5599 16.6414 95.7936 16.7081 95.9272C16.7748 95.8938 16.7081 95.7936 16.8081 95.8604C16.8748 96.0273 17.0749 96.1275 17.0416 96.2277C17.0082 96.2277 16.9749 96.1609 16.9415 96.0941C17.0416 96.2945 15.8743 95.3596 16.0744 95.5599C16.0744 95.4597 17.1083 96.3946 17.0416 96.2611C17.0082 96.1275 17.2083 96.2611 17.1416 96.1275L16.9749 96.0607C16.9082 95.8938 16.9415 95.7602 17.0416 95.7936C17.2083 96.0607 16.1411 95.2928 16.3412 95.4931L16.3079 95.3929C16.4079 95.4597 16.608 95.6934 16.608 95.8604C16.6747 95.827 16.7748 95.9272 16.8748 96.0273V96.0607C16.9749 96.1609 17.0749 96.3278 17.1083 96.1943C16.6747 95.5265 18.0087 96.2277 17.6085 95.5599C17.6419 95.9272 17.4084 95.5599 17.2083 95.2928C17.2417 95.226 17.2083 95.0591 17.1083 94.8587C16.9749 94.6918 17.0082 94.7919 16.9415 94.7919C16.9082 94.6918 16.8081 94.4581 16.9082 94.4581C16.7414 94.3913 16.8081 94.1909 16.6747 94.0574C16.5413 93.9238 16.6414 94.0908 16.5413 94.024C16.4079 93.7903 16.2078 93.4898 16.1411 93.3228C16.1745 93.2227 16.1411 92.9222 16.3412 93.0223C16.5413 93.3562 16.1078 92.9889 16.3412 93.3228C16.4079 93.0891 16.5747 93.5899 16.7414 93.5899C16.7414 93.423 16.608 93.2227 16.4413 93.0557V93.0891C16.3079 92.9555 16.0744 92.6217 16.0411 92.4213C16.1078 92.4213 16.1078 92.3212 16.2078 92.4213L16.0744 92.1876C16.0411 92.1542 16.0077 92.1542 16.0411 92.221C15.941 92.1542 15.8743 92.0207 15.8743 91.9205C15.9077 91.8537 14.8739 90.8854 14.9072 90.8854C14.8072 90.7185 14.8739 90.6183 14.7071 90.5181C14.6404 90.5181 15.9077 91.9205 15.7409 91.7201C15.7076 91.5532 14.2736 90.0841 14.3069 89.9171C14.2402 89.817 14.1068 89.65 14.0735 89.7168C13.9734 89.4831 14.2069 89.7168 14.1735 89.5165C14.1735 89.5165 14.1402 89.5499 14.1402 89.4831L14.1068 89.2828C13.8067 89.0156 13.6399 88.4814 13.3064 88.2477C13.4398 88.3145 13.6066 88.3479 13.8067 88.5148V88.5816C13.84 88.615 13.9734 88.7485 14.0401 88.7151C13.9401 88.4814 13.84 88.3145 13.6399 88.1475C13.6399 88.1141 13.6066 88.0473 13.6066 88.014C13.6066 88.014 13.6066 88.014 13.5732 88.0473C13.5732 87.9472 13.5732 87.9472 13.6066 87.9806C13.6066 87.9806 13.6066 87.9806 13.6399 87.9806C13.7066 87.7468 13.0063 87.246 12.8729 86.8453C12.7728 86.7452 12.8395 86.8453 12.7061 86.7452C12.5394 86.3445 12.406 86.044 12.2059 85.61C12.0392 85.5432 12.0058 85.5432 12.0392 85.7435L11.8724 85.443C12.2393 85.5766 11.7057 84.7752 12.0725 84.9422C12.0725 84.842 11.9391 84.6417 11.8057 84.5081C11.739 84.5081 11.639 84.5415 11.5056 84.3412C11.3722 84.0073 11.4055 84.1074 11.3055 83.8069C11.3388 83.7068 11.4055 83.7736 11.4389 83.7402C11.1054 83.4063 11.3722 83.3395 11.1054 82.9722C10.9386 82.7719 10.6385 82.3378 10.5384 82.4046C10.4717 82.2043 10.5718 82.1709 10.6718 82.1375Z" fill="#082C4E"/>
</g>
</svg>
