<svg width="655" height="197" viewBox="0 0 655 197" fill="none" xmlns="http://www.w3.org/2000/svg">
<g filter="url(#filter0_dd)">
<rect x="10" y="10.2297" width="117.01" height="117.01" rx="58.5052" fill="#FAFCFE"/>
</g>
<mask id="path-2-inside-1" fill="white">
<path d="M72.6353 37.4957C67.5947 36.1465 62.2485 36.7654 57.7728 39.2163C53.2972 41.6672 50.0587 45.7493 48.7698 50.5646C47.481 55.3799 48.2473 60.534 50.9002 64.8929C53.5531 69.2518 57.8753 72.4586 62.916 73.8078L67.7757 55.6518L72.6353 37.4957Z"/>
</mask>
<path d="M72.6353 37.4957C67.5947 36.1465 62.2485 36.7654 57.7728 39.2163C53.2972 41.6672 50.0587 45.7493 48.7698 50.5646C47.481 55.3799 48.2473 60.534 50.9002 64.8929C53.5531 69.2518 57.8753 72.4586 62.916 73.8078L67.7757 55.6518L72.6353 37.4957Z" stroke="#1B1B1B" stroke-width="6.45902" mask="url(#path-2-inside-1)"/>
<mask id="path-3-inside-2" fill="white">
<path d="M65.375 79.1549C70.4219 80.4808 75.7686 79.8242 80.2389 77.3296C84.7093 74.835 87.9372 70.7066 89.2124 65.8527C90.4877 60.9988 89.7058 55.817 87.0389 51.4473C84.372 47.0775 80.0385 43.8776 74.9917 42.5517L70.1834 60.8533L65.375 79.1549Z"/>
</mask>
<path d="M65.375 79.1549C70.4219 80.4808 75.7686 79.8242 80.2389 77.3296C84.7093 74.835 87.9372 70.7066 89.2124 65.8527C90.4877 60.9988 89.7058 55.817 87.0389 51.4473C84.372 47.0775 80.0385 43.8776 74.9917 42.5517L70.1834 60.8533L65.375 79.1549Z" stroke="#1B1B1B" stroke-width="6.45902" mask="url(#path-3-inside-2)"/>
<line x1="60.5146" y1="86.2358" x2="76.8907" y2="86.2358" stroke="#1B1B1B" stroke-width="2.90656"/>
<line x1="60.5146" y1="92.6949" x2="76.8907" y2="92.6949" stroke="#1B1B1B" stroke-width="2.90656"/>
<line x1="60.5146" y1="99.1539" x2="76.8907" y2="99.1539" stroke="#1B1B1B" stroke-width="2.90656"/>
<path d="M49.2364 152.787C49.2364 153.534 49.1151 154.218 48.8724 154.838C48.6297 155.454 48.2867 155.984 47.8434 156.427C47.4047 156.871 46.8751 157.216 46.2544 157.463C45.6384 157.706 44.9524 157.827 44.1964 157.827H40.3884V147.747H44.1964C44.9524 147.747 45.6384 147.871 46.2544 148.118C46.8751 148.361 47.4047 148.704 47.8434 149.147C48.2867 149.591 48.6297 150.123 48.8724 150.743C49.1151 151.359 49.2364 152.041 49.2364 152.787ZM47.5634 152.787C47.5634 152.209 47.4841 151.688 47.3254 151.226C47.1714 150.764 46.9474 150.375 46.6534 150.057C46.3641 149.74 46.0117 149.497 45.5964 149.329C45.1811 149.157 44.7144 149.07 44.1964 149.07H42.0334V156.504H44.1964C44.7144 156.504 45.1811 156.42 45.5964 156.252C46.0117 156.084 46.3641 155.842 46.6534 155.524C46.9474 155.202 47.1714 154.813 47.3254 154.355C47.4841 153.893 47.5634 153.371 47.5634 152.787ZM54.3038 150.687V157.827H52.7988V150.687H54.3038ZM54.5558 148.531C54.5558 148.667 54.5278 148.795 54.4718 148.916C54.4204 149.038 54.3481 149.145 54.2548 149.238C54.1614 149.327 54.0518 149.399 53.9258 149.455C53.8044 149.507 53.6738 149.532 53.5338 149.532C53.3984 149.532 53.2701 149.507 53.1488 149.455C53.0321 149.399 52.9294 149.327 52.8408 149.238C52.7521 149.145 52.6798 149.038 52.6238 148.916C52.5724 148.795 52.5468 148.667 52.5468 148.531C52.5468 148.391 52.5724 148.261 52.6238 148.139C52.6798 148.018 52.7521 147.913 52.8408 147.824C52.9294 147.731 53.0321 147.659 53.1488 147.607C53.2701 147.551 53.3984 147.523 53.5338 147.523C53.6738 147.523 53.8044 147.551 53.9258 147.607C54.0518 147.659 54.1614 147.731 54.2548 147.824C54.3481 147.913 54.4204 148.018 54.4718 148.139C54.5278 148.261 54.5558 148.391 54.5558 148.531ZM62.5577 151.982C62.5204 152.048 62.4784 152.094 62.4317 152.122C62.3851 152.15 62.3267 152.164 62.2567 152.164C62.1774 152.164 62.0911 152.141 61.9977 152.094C61.9044 152.043 61.7947 151.987 61.6687 151.926C61.5427 151.866 61.3934 151.812 61.2207 151.765C61.0527 151.714 60.8544 151.688 60.6257 151.688C60.4391 151.688 60.2687 151.712 60.1147 151.758C59.9654 151.8 59.8371 151.863 59.7297 151.947C59.6271 152.027 59.5477 152.122 59.4917 152.234C59.4357 152.342 59.4077 152.458 59.4077 152.584C59.4077 152.752 59.4591 152.892 59.5617 153.004C59.6644 153.116 59.7997 153.214 59.9677 153.298C60.1357 153.378 60.3271 153.45 60.5417 153.515C60.7564 153.581 60.9757 153.651 61.1997 153.725C61.4237 153.8 61.6431 153.886 61.8577 153.984C62.0724 154.082 62.2637 154.204 62.4317 154.348C62.5997 154.488 62.7351 154.661 62.8377 154.866C62.9404 155.067 62.9917 155.312 62.9917 155.601C62.9917 155.937 62.9311 156.248 62.8097 156.532C62.6884 156.817 62.5111 157.064 62.2777 157.274C62.0444 157.484 61.7527 157.648 61.4027 157.764C61.0574 157.881 60.6607 157.939 60.2127 157.939C59.9654 157.939 59.7251 157.916 59.4917 157.869C59.2631 157.827 59.0437 157.769 58.8337 157.694C58.6284 157.615 58.4347 157.522 58.2527 157.414C58.0754 157.307 57.9167 157.19 57.7767 157.064L58.1267 156.49C58.1687 156.42 58.2201 156.367 58.2807 156.329C58.3461 156.287 58.4254 156.266 58.5187 156.266C58.6167 156.266 58.7124 156.299 58.8057 156.364C58.9037 156.425 59.0157 156.493 59.1417 156.567C59.2724 156.642 59.4287 156.712 59.6107 156.777C59.7927 156.838 60.0191 156.868 60.2897 156.868C60.5137 156.868 60.7074 156.843 60.8707 156.791C61.0341 156.735 61.1694 156.661 61.2767 156.567C61.3841 156.474 61.4634 156.369 61.5147 156.252C61.5661 156.131 61.5917 156.003 61.5917 155.867C61.5917 155.685 61.5404 155.536 61.4377 155.419C61.3351 155.303 61.1974 155.202 61.0247 155.118C60.8567 155.034 60.6631 154.96 60.4437 154.894C60.2291 154.829 60.0097 154.759 59.7857 154.684C59.5617 154.61 59.3401 154.523 59.1207 154.425C58.9061 154.327 58.7124 154.204 58.5397 154.054C58.3717 153.9 58.2364 153.716 58.1337 153.501C58.0311 153.282 57.9797 153.016 57.9797 152.703C57.9797 152.419 58.0357 152.148 58.1477 151.891C58.2644 151.635 58.4324 151.408 58.6517 151.212C58.8757 151.016 59.1487 150.862 59.4707 150.75C59.7974 150.634 60.1731 150.575 60.5977 150.575C61.0784 150.575 61.5147 150.652 61.9067 150.806C62.2987 150.96 62.6277 151.17 62.8937 151.436L62.5577 151.982ZM67.9271 152.01C68.1511 151.558 68.4217 151.203 68.7391 150.946C69.0564 150.685 69.4367 150.554 69.8801 150.554C70.0341 150.554 70.1787 150.573 70.3141 150.61C70.4494 150.643 70.5707 150.694 70.6781 150.764L70.5731 151.898C70.5544 151.978 70.5241 152.034 70.4821 152.066C70.4447 152.094 70.3934 152.108 70.3281 152.108C70.2581 152.108 70.1577 152.097 70.0271 152.073C69.8964 152.045 69.7587 152.031 69.6141 152.031C69.4041 152.031 69.2174 152.062 69.0541 152.122C68.8954 152.183 68.7507 152.272 68.6201 152.388C68.4941 152.505 68.3821 152.647 68.2841 152.815C68.1861 152.983 68.0951 153.175 68.0111 153.389V157.827H66.5061V150.687H67.3811C67.5397 150.687 67.6494 150.718 67.7101 150.778C67.7707 150.834 67.8127 150.935 67.8361 151.079L67.9271 152.01ZM79.794 150.687V157.827H78.884C78.6834 157.827 78.555 157.732 78.499 157.54L78.387 156.875C78.2377 157.034 78.079 157.179 77.911 157.309C77.7477 157.44 77.5727 157.552 77.386 157.645C77.1994 157.739 76.9987 157.811 76.784 157.862C76.574 157.914 76.3477 157.939 76.105 157.939C75.713 157.939 75.3677 157.874 75.069 157.743C74.7704 157.613 74.5184 157.428 74.313 157.19C74.1124 156.952 73.9607 156.668 73.858 156.336C73.7554 156 73.704 155.632 73.704 155.23V150.687H75.209V155.23C75.209 155.711 75.3187 156.084 75.538 156.35C75.762 156.616 76.1004 156.749 76.553 156.749C76.8844 156.749 77.1924 156.675 77.477 156.525C77.7664 156.371 78.037 156.161 78.289 155.895V150.687H79.794ZM85.2267 156.035C85.4367 156.306 85.6654 156.497 85.9127 156.609C86.1647 156.717 86.4424 156.77 86.7457 156.77C87.3337 156.77 87.791 156.556 88.1177 156.126C88.449 155.697 88.6147 155.058 88.6147 154.208C88.6147 153.77 88.5774 153.396 88.5027 153.088C88.428 152.776 88.3207 152.521 88.1807 152.325C88.0407 152.129 87.8704 151.987 87.6697 151.898C87.469 151.81 87.2427 151.765 86.9907 151.765C86.608 151.765 86.2767 151.849 85.9967 152.017C85.7214 152.181 85.4647 152.416 85.2267 152.724V156.035ZM85.1497 151.723C85.4484 151.373 85.7867 151.091 86.1647 150.876C86.5474 150.662 86.9907 150.554 87.4947 150.554C87.896 150.554 88.26 150.636 88.5867 150.799C88.9134 150.958 89.1934 151.191 89.4267 151.499C89.66 151.807 89.8397 152.19 89.9657 152.647C90.0964 153.1 90.1617 153.62 90.1617 154.208C90.1617 154.736 90.0894 155.228 89.9447 155.685C89.8047 156.138 89.6017 156.532 89.3357 156.868C89.0697 157.2 88.7477 157.461 88.3697 157.652C87.9917 157.839 87.5647 157.932 87.0887 157.932C86.6687 157.932 86.3117 157.865 86.0177 157.729C85.7284 157.594 85.4647 157.407 85.2267 157.169V160.2H83.7217V150.687H84.6317C84.837 150.687 84.9677 150.783 85.0237 150.974L85.1497 151.723ZM95.9173 157.939C95.3247 157.939 94.8673 157.774 94.5453 157.442C94.228 157.106 94.0693 156.635 94.0693 156.028V151.87H93.2853C93.2013 151.87 93.129 151.845 93.0683 151.793C93.0077 151.737 92.9773 151.656 92.9773 151.548V150.939L94.1323 150.771L94.4613 148.706C94.4847 148.627 94.5243 148.564 94.5803 148.517C94.6363 148.466 94.711 148.44 94.8043 148.44H95.5743V150.785H97.5553V151.87H95.5743V155.923C95.5743 156.18 95.6373 156.376 95.7633 156.511C95.8893 156.647 96.0573 156.714 96.2673 156.714C96.384 156.714 96.4843 156.7 96.5683 156.672C96.6523 156.64 96.7247 156.607 96.7853 156.574C96.846 156.537 96.8973 156.504 96.9393 156.476C96.986 156.444 97.0303 156.427 97.0723 156.427C97.1563 156.427 97.224 156.474 97.2753 156.567L97.7233 157.302C97.49 157.508 97.2147 157.666 96.8973 157.778C96.58 157.886 96.2533 157.939 95.9173 157.939Z" fill="#082C4E"/>
<path d="M217.197 152.145C217.561 152.145 217.881 152.098 218.156 152.005C218.436 151.912 218.667 151.781 218.849 151.613C219.036 151.44 219.176 151.233 219.269 150.99C219.362 150.747 219.409 150.477 219.409 150.178C219.409 149.884 219.362 149.62 219.269 149.387C219.18 149.154 219.045 148.955 218.863 148.792C218.681 148.629 218.45 148.505 218.17 148.421C217.895 148.332 217.57 148.288 217.197 148.288H215.699V152.145H217.197ZM217.197 147.007C217.855 147.007 218.424 147.084 218.905 147.238C219.39 147.392 219.789 147.609 220.102 147.889C220.419 148.164 220.655 148.498 220.809 148.89C220.963 149.277 221.04 149.707 221.04 150.178C221.04 150.659 220.958 151.1 220.795 151.501C220.632 151.898 220.389 152.241 220.067 152.53C219.745 152.815 219.344 153.039 218.863 153.202C218.387 153.361 217.832 153.44 217.197 153.44H215.699V157.087H214.061V147.007H217.197ZM235.43 147.007V157.087H233.988V150.178C233.988 150.066 233.99 149.945 233.995 149.814C234.004 149.679 234.016 149.543 234.03 149.408L230.789 155.393C230.663 155.64 230.469 155.764 230.208 155.764H229.977C229.711 155.764 229.517 155.64 229.396 155.393L226.106 149.394C226.12 149.529 226.129 149.665 226.134 149.8C226.143 149.935 226.148 150.061 226.148 150.178V157.087H224.706V147.007H225.931C226.076 147.007 226.188 147.021 226.267 147.049C226.346 147.072 226.419 147.149 226.484 147.28L229.718 153.139C229.788 153.274 229.853 153.414 229.914 153.559C229.979 153.699 230.038 153.844 230.089 153.993C230.145 153.844 230.203 153.697 230.264 153.552C230.329 153.403 230.397 153.26 230.467 153.125L233.652 147.28C233.717 147.149 233.79 147.072 233.869 147.049C233.948 147.021 234.06 147.007 234.205 147.007H235.43ZM245.728 157.087H244.286C244.17 157.087 244.076 157.057 244.006 156.996C243.941 156.935 243.887 156.868 243.845 156.793L242.2 154.154C242.158 154.313 242.102 154.45 242.032 154.567L240.541 156.793C240.49 156.868 240.432 156.935 240.366 156.996C240.306 157.057 240.224 157.087 240.121 157.087H238.777L241.248 153.405L238.875 149.947H240.317C240.434 149.947 240.518 149.966 240.569 150.003C240.625 150.036 240.674 150.087 240.716 150.157L242.333 152.677C242.375 152.523 242.441 152.376 242.529 152.236L243.894 150.185C243.988 150.026 244.107 149.947 244.251 149.947H245.63L243.257 153.342L245.728 157.087Z" fill="#082C4E"/>
<g filter="url(#filter1_dd)">
<rect x="172.01" y="10.2297" width="116.694" height="116.694" rx="58.3472" fill="#FAFCFE"/>
</g>
<g clip-path="url(#clip0)">
<g clip-path="url(#clip1)">
<circle cx="230.041" cy="62.539" r="13.7776" stroke="#1B1B1B" stroke-width="1.67152"/>
</g>
<rect x="214.377" y="46.8754" width="31.3272" height="31.3272" rx="15.6636" stroke="#1B1B1B" stroke-width="2.10055"/>
<g clip-path="url(#clip2)">
<circle cx="238.184" cy="76.4344" r="13.7776" stroke="#1B1B1B" stroke-width="1.67152"/>
</g>
<rect x="222.52" y="60.7708" width="31.3272" height="31.3272" rx="15.6636" stroke="#1B1B1B" stroke-width="2.10055"/>
<g clip-path="url(#clip3)">
<circle cx="222.376" cy="76.4344" r="13.7776" stroke="#1B1B1B" stroke-width="1.67152"/>
</g>
<rect x="206.712" y="60.7708" width="31.3272" height="31.3272" rx="15.6636" stroke="#1B1B1B" stroke-width="2.10055"/>
</g>
<path d="M357.965 155.715V157.087H352.141V147.007H353.779V155.715H357.965ZM365.438 152.712C365.438 152.46 365.401 152.227 365.326 152.012C365.256 151.793 365.151 151.604 365.011 151.445C364.871 151.282 364.696 151.156 364.486 151.067C364.281 150.974 364.043 150.927 363.772 150.927C363.226 150.927 362.797 151.083 362.484 151.396C362.172 151.709 361.973 152.147 361.889 152.712H365.438ZM361.847 153.636C361.866 154.042 361.929 154.394 362.036 154.693C362.144 154.987 362.286 155.232 362.463 155.428C362.645 155.624 362.86 155.771 363.107 155.869C363.359 155.962 363.639 156.009 363.947 156.009C364.241 156.009 364.496 155.976 364.71 155.911C364.925 155.841 365.112 155.766 365.27 155.687C365.429 155.603 365.564 155.528 365.676 155.463C365.788 155.393 365.891 155.358 365.984 155.358C366.106 155.358 366.199 155.405 366.264 155.498L366.691 156.051C366.514 156.261 366.313 156.438 366.089 156.583C365.865 156.728 365.627 156.847 365.375 156.94C365.123 157.029 364.864 157.092 364.598 157.129C364.332 157.171 364.073 157.192 363.821 157.192C363.327 157.192 362.867 157.11 362.442 156.947C362.022 156.779 361.656 156.534 361.343 156.212C361.035 155.89 360.793 155.491 360.615 155.015C360.443 154.539 360.356 153.991 360.356 153.37C360.356 152.875 360.433 152.413 360.587 151.984C360.746 151.555 360.97 151.181 361.259 150.864C361.553 150.547 361.908 150.297 362.323 150.115C362.743 149.928 363.217 149.835 363.744 149.835C364.183 149.835 364.589 149.907 364.962 150.052C365.336 150.192 365.658 150.4 365.928 150.675C366.199 150.95 366.409 151.289 366.558 151.69C366.712 152.087 366.789 152.539 366.789 153.048C366.789 153.281 366.764 153.438 366.712 153.517C366.661 153.596 366.568 153.636 366.432 153.636H361.847ZM375.34 151.347C375.293 151.408 375.249 151.454 375.207 151.487C375.165 151.52 375.104 151.536 375.025 151.536C374.946 151.536 374.862 151.508 374.773 151.452C374.689 151.396 374.586 151.335 374.465 151.27C374.348 151.2 374.206 151.137 374.038 151.081C373.87 151.025 373.66 150.997 373.408 150.997C373.081 150.997 372.794 151.055 372.547 151.172C372.304 151.289 372.099 151.457 371.931 151.676C371.768 151.891 371.644 152.154 371.56 152.467C371.481 152.775 371.441 153.123 371.441 153.51C371.441 153.911 371.485 154.268 371.574 154.581C371.663 154.894 371.789 155.157 371.952 155.372C372.12 155.587 372.321 155.75 372.554 155.862C372.792 155.974 373.058 156.03 373.352 156.03C373.641 156.03 373.877 155.995 374.059 155.925C374.241 155.855 374.393 155.778 374.514 155.694C374.635 155.61 374.738 155.533 374.822 155.463C374.911 155.393 375.004 155.358 375.102 155.358C375.223 155.358 375.317 155.405 375.382 155.498L375.809 156.051C375.636 156.261 375.445 156.438 375.235 156.583C375.025 156.728 374.803 156.847 374.57 156.94C374.337 157.029 374.094 157.092 373.842 157.129C373.59 157.171 373.336 157.192 373.079 157.192C372.636 157.192 372.22 157.11 371.833 156.947C371.45 156.779 371.114 156.539 370.825 156.226C370.54 155.909 370.314 155.524 370.146 155.071C369.983 154.614 369.901 154.093 369.901 153.51C369.901 152.983 369.976 152.495 370.125 152.047C370.274 151.594 370.491 151.205 370.776 150.878C371.065 150.551 371.422 150.297 371.847 150.115C372.272 149.928 372.762 149.835 373.317 149.835C373.835 149.835 374.29 149.919 374.682 150.087C375.079 150.255 375.431 150.493 375.739 150.801L375.34 151.347ZM381.408 157.199C380.816 157.199 380.358 157.033 380.036 156.702C379.719 156.366 379.56 155.895 379.56 155.288V151.13H378.776C378.692 151.13 378.62 151.104 378.559 151.053C378.499 150.997 378.468 150.915 378.468 150.808V150.199L379.623 150.031L379.952 147.966C379.976 147.887 380.015 147.824 380.071 147.777C380.127 147.726 380.202 147.7 380.295 147.7H381.065V150.045H383.046V151.13H381.065V155.183C381.065 155.44 381.128 155.636 381.254 155.771C381.38 155.906 381.548 155.974 381.758 155.974C381.875 155.974 381.975 155.96 382.059 155.932C382.143 155.899 382.216 155.867 382.276 155.834C382.337 155.797 382.388 155.764 382.43 155.736C382.477 155.703 382.521 155.687 382.563 155.687C382.647 155.687 382.715 155.734 382.766 155.827L383.214 156.562C382.981 156.767 382.706 156.926 382.388 157.038C382.071 157.145 381.744 157.199 381.408 157.199ZM392.353 149.947V157.087H391.443C391.242 157.087 391.114 156.991 391.058 156.8L390.946 156.135C390.796 156.294 390.638 156.438 390.47 156.569C390.306 156.7 390.131 156.812 389.945 156.905C389.758 156.998 389.557 157.071 389.343 157.122C389.133 157.173 388.906 157.199 388.664 157.199C388.272 157.199 387.926 157.134 387.628 157.003C387.329 156.872 387.077 156.688 386.872 156.45C386.671 156.212 386.519 155.927 386.417 155.596C386.314 155.26 386.263 154.891 386.263 154.49V149.947H387.768V154.49C387.768 154.971 387.877 155.344 388.097 155.61C388.321 155.876 388.659 156.009 389.112 156.009C389.443 156.009 389.751 155.934 390.036 155.785C390.325 155.631 390.596 155.421 390.848 155.155V149.947H392.353ZM397.701 151.27C397.925 150.817 398.196 150.463 398.513 150.206C398.831 149.945 399.211 149.814 399.654 149.814C399.808 149.814 399.953 149.833 400.088 149.87C400.224 149.903 400.345 149.954 400.452 150.024L400.347 151.158C400.329 151.237 400.298 151.293 400.256 151.326C400.219 151.354 400.168 151.368 400.102 151.368C400.032 151.368 399.932 151.356 399.801 151.333C399.671 151.305 399.533 151.291 399.388 151.291C399.178 151.291 398.992 151.321 398.828 151.382C398.67 151.443 398.525 151.531 398.394 151.648C398.268 151.765 398.156 151.907 398.058 152.075C397.96 152.243 397.869 152.434 397.785 152.649V157.087H396.28V149.947H397.155C397.314 149.947 397.424 149.977 397.484 150.038C397.545 150.094 397.587 150.194 397.61 150.339L397.701 151.27ZM407.985 152.712C407.985 152.46 407.948 152.227 407.873 152.012C407.803 151.793 407.698 151.604 407.558 151.445C407.418 151.282 407.243 151.156 407.033 151.067C406.828 150.974 406.59 150.927 406.319 150.927C405.773 150.927 405.344 151.083 405.031 151.396C404.719 151.709 404.52 152.147 404.436 152.712H407.985ZM404.394 153.636C404.413 154.042 404.476 154.394 404.583 154.693C404.691 154.987 404.833 155.232 405.01 155.428C405.192 155.624 405.407 155.771 405.654 155.869C405.906 155.962 406.186 156.009 406.494 156.009C406.788 156.009 407.043 155.976 407.257 155.911C407.472 155.841 407.659 155.766 407.817 155.687C407.976 155.603 408.111 155.528 408.223 155.463C408.335 155.393 408.438 155.358 408.531 155.358C408.653 155.358 408.746 155.405 408.811 155.498L409.238 156.051C409.061 156.261 408.86 156.438 408.636 156.583C408.412 156.728 408.174 156.847 407.922 156.94C407.67 157.029 407.411 157.092 407.145 157.129C406.879 157.171 406.62 157.192 406.368 157.192C405.874 157.192 405.414 157.11 404.989 156.947C404.569 156.779 404.203 156.534 403.89 156.212C403.582 155.89 403.34 155.491 403.162 155.015C402.99 154.539 402.903 153.991 402.903 153.37C402.903 152.875 402.98 152.413 403.134 151.984C403.293 151.555 403.517 151.181 403.806 150.864C404.1 150.547 404.455 150.297 404.87 150.115C405.29 149.928 405.764 149.835 406.291 149.835C406.73 149.835 407.136 149.907 407.509 150.052C407.883 150.192 408.205 150.4 408.475 150.675C408.746 150.95 408.956 151.289 409.105 151.69C409.259 152.087 409.336 152.539 409.336 153.048C409.336 153.281 409.311 153.438 409.259 153.517C409.208 153.596 409.115 153.636 408.979 153.636H404.394ZM423.977 148.729C423.926 148.813 423.872 148.876 423.816 148.918C423.76 148.955 423.69 148.974 423.606 148.974C423.517 148.974 423.417 148.937 423.305 148.862C423.198 148.787 423.062 148.706 422.899 148.617C422.74 148.524 422.551 148.44 422.332 148.365C422.113 148.286 421.851 148.246 421.548 148.246C421.268 148.246 421.021 148.281 420.806 148.351C420.596 148.421 420.419 148.519 420.274 148.645C420.129 148.771 420.02 148.92 419.945 149.093C419.875 149.261 419.84 149.445 419.84 149.646C419.84 149.903 419.908 150.117 420.043 150.29C420.178 150.458 420.356 150.603 420.575 150.724C420.799 150.845 421.053 150.953 421.338 151.046C421.623 151.135 421.912 151.23 422.206 151.333C422.505 151.436 422.796 151.552 423.081 151.683C423.366 151.814 423.618 151.979 423.837 152.18C424.061 152.381 424.241 152.626 424.376 152.915C424.511 153.204 424.579 153.557 424.579 153.972C424.579 154.42 424.502 154.84 424.348 155.232C424.194 155.624 423.97 155.967 423.676 156.261C423.387 156.55 423.027 156.779 422.598 156.947C422.173 157.115 421.688 157.199 421.142 157.199C420.82 157.199 420.505 157.166 420.197 157.101C419.894 157.04 419.602 156.954 419.322 156.842C419.047 156.725 418.788 156.585 418.545 156.422C418.302 156.259 418.085 156.077 417.894 155.876L418.37 155.092C418.412 155.027 418.466 154.975 418.531 154.938C418.596 154.901 418.669 154.882 418.748 154.882C418.855 154.882 418.974 154.933 419.105 155.036C419.236 155.134 419.392 155.244 419.574 155.365C419.761 155.482 419.985 155.591 420.246 155.694C420.507 155.792 420.82 155.841 421.184 155.841C421.777 155.841 422.234 155.696 422.556 155.407C422.883 155.118 423.046 154.719 423.046 154.21C423.046 153.925 422.978 153.694 422.843 153.517C422.708 153.335 422.528 153.183 422.304 153.062C422.085 152.941 421.833 152.838 421.548 152.754C421.263 152.67 420.974 152.581 420.68 152.488C420.386 152.39 420.097 152.278 419.812 152.152C419.527 152.021 419.273 151.853 419.049 151.648C418.83 151.438 418.652 151.181 418.517 150.878C418.382 150.57 418.314 150.187 418.314 149.73C418.314 149.366 418.384 149.014 418.524 148.673C418.669 148.332 418.876 148.031 419.147 147.77C419.422 147.504 419.761 147.292 420.162 147.133C420.563 146.974 421.021 146.895 421.534 146.895C422.113 146.895 422.642 146.986 423.123 147.168C423.608 147.35 424.026 147.609 424.376 147.945L423.977 148.729ZM432.824 152.712C432.824 152.46 432.787 152.227 432.712 152.012C432.642 151.793 432.537 151.604 432.397 151.445C432.257 151.282 432.082 151.156 431.872 151.067C431.667 150.974 431.429 150.927 431.158 150.927C430.612 150.927 430.183 151.083 429.87 151.396C429.558 151.709 429.359 152.147 429.275 152.712H432.824ZM429.233 153.636C429.252 154.042 429.315 154.394 429.422 154.693C429.53 154.987 429.672 155.232 429.849 155.428C430.031 155.624 430.246 155.771 430.493 155.869C430.745 155.962 431.025 156.009 431.333 156.009C431.627 156.009 431.882 155.976 432.096 155.911C432.311 155.841 432.498 155.766 432.656 155.687C432.815 155.603 432.95 155.528 433.062 155.463C433.174 155.393 433.277 155.358 433.37 155.358C433.492 155.358 433.585 155.405 433.65 155.498L434.077 156.051C433.9 156.261 433.699 156.438 433.475 156.583C433.251 156.728 433.013 156.847 432.761 156.94C432.509 157.029 432.25 157.092 431.984 157.129C431.718 157.171 431.459 157.192 431.207 157.192C430.713 157.192 430.253 157.11 429.828 156.947C429.408 156.779 429.042 156.534 428.729 156.212C428.421 155.89 428.179 155.491 428.001 155.015C427.829 154.539 427.742 153.991 427.742 153.37C427.742 152.875 427.819 152.413 427.973 151.984C428.132 151.555 428.356 151.181 428.645 150.864C428.939 150.547 429.294 150.297 429.709 150.115C430.129 149.928 430.603 149.835 431.13 149.835C431.569 149.835 431.975 149.907 432.348 150.052C432.722 150.192 433.044 150.4 433.314 150.675C433.585 150.95 433.795 151.289 433.944 151.69C434.098 152.087 434.175 152.539 434.175 153.048C434.175 153.281 434.15 153.438 434.098 153.517C434.047 153.596 433.954 153.636 433.818 153.636H429.233ZM439.1 151.27C439.324 150.817 439.595 150.463 439.912 150.206C440.229 149.945 440.61 149.814 441.053 149.814C441.207 149.814 441.352 149.833 441.487 149.87C441.622 149.903 441.744 149.954 441.851 150.024L441.746 151.158C441.727 151.237 441.697 151.293 441.655 151.326C441.618 151.354 441.566 151.368 441.501 151.368C441.431 151.368 441.331 151.356 441.2 151.333C441.069 151.305 440.932 151.291 440.787 151.291C440.577 151.291 440.39 151.321 440.227 151.382C440.068 151.443 439.924 151.531 439.793 151.648C439.667 151.765 439.555 151.907 439.457 152.075C439.359 152.243 439.268 152.434 439.184 152.649V157.087H437.679V149.947H438.554C438.713 149.947 438.822 149.977 438.883 150.038C438.944 150.094 438.986 150.194 439.009 150.339L439.1 151.27ZM446.515 149.947V157.087H445.01V149.947H446.515ZM446.767 147.791C446.767 147.926 446.739 148.055 446.683 148.176C446.631 148.297 446.559 148.405 446.466 148.498C446.372 148.587 446.263 148.659 446.137 148.715C446.015 148.766 445.885 148.792 445.745 148.792C445.609 148.792 445.481 148.766 445.36 148.715C445.243 148.659 445.14 148.587 445.052 148.498C444.963 148.405 444.891 148.297 444.835 148.176C444.783 148.055 444.758 147.926 444.758 147.791C444.758 147.651 444.783 147.52 444.835 147.399C444.891 147.278 444.963 147.173 445.052 147.084C445.14 146.991 445.243 146.918 445.36 146.867C445.481 146.811 445.609 146.783 445.745 146.783C445.885 146.783 446.015 146.811 446.137 146.867C446.263 146.918 446.372 146.991 446.466 147.084C446.559 147.173 446.631 147.278 446.683 147.399C446.739 147.52 446.767 147.651 446.767 147.791ZM455.189 152.712C455.189 152.46 455.151 152.227 455.077 152.012C455.007 151.793 454.902 151.604 454.762 151.445C454.622 151.282 454.447 151.156 454.237 151.067C454.031 150.974 453.793 150.927 453.523 150.927C452.977 150.927 452.547 151.083 452.235 151.396C451.922 151.709 451.724 152.147 451.64 152.712H455.189ZM451.598 153.636C451.616 154.042 451.679 154.394 451.787 154.693C451.894 154.987 452.036 155.232 452.214 155.428C452.396 155.624 452.61 155.771 452.858 155.869C453.11 155.962 453.39 156.009 453.698 156.009C453.992 156.009 454.246 155.976 454.461 155.911C454.675 155.841 454.862 155.766 455.021 155.687C455.179 155.603 455.315 155.528 455.427 155.463C455.539 155.393 455.641 155.358 455.735 155.358C455.856 155.358 455.949 155.405 456.015 155.498L456.442 156.051C456.264 156.261 456.064 156.438 455.84 156.583C455.616 156.728 455.378 156.847 455.126 156.94C454.874 157.029 454.615 157.092 454.349 157.129C454.083 157.171 453.824 157.192 453.572 157.192C453.077 157.192 452.617 157.11 452.193 156.947C451.773 156.779 451.406 156.534 451.094 156.212C450.786 155.89 450.543 155.491 450.366 155.015C450.193 154.539 450.107 153.991 450.107 153.37C450.107 152.875 450.184 152.413 450.338 151.984C450.496 151.555 450.72 151.181 451.01 150.864C451.304 150.547 451.658 150.297 452.074 150.115C452.494 149.928 452.967 149.835 453.495 149.835C453.933 149.835 454.339 149.907 454.713 150.052C455.086 150.192 455.408 150.4 455.679 150.675C455.949 150.95 456.159 151.289 456.309 151.69C456.463 152.087 456.54 152.539 456.54 153.048C456.54 153.281 456.514 153.438 456.463 153.517C456.411 153.596 456.318 153.636 456.183 153.636H451.598ZM464.306 151.242C464.269 151.307 464.227 151.354 464.18 151.382C464.134 151.41 464.075 151.424 464.005 151.424C463.926 151.424 463.84 151.401 463.746 151.354C463.653 151.303 463.543 151.247 463.417 151.186C463.291 151.125 463.142 151.072 462.969 151.025C462.801 150.974 462.603 150.948 462.374 150.948C462.188 150.948 462.017 150.971 461.863 151.018C461.714 151.06 461.586 151.123 461.478 151.207C461.376 151.286 461.296 151.382 461.24 151.494C461.184 151.601 461.156 151.718 461.156 151.844C461.156 152.012 461.208 152.152 461.31 152.264C461.413 152.376 461.548 152.474 461.716 152.558C461.884 152.637 462.076 152.71 462.29 152.775C462.505 152.84 462.724 152.91 462.948 152.985C463.172 153.06 463.392 153.146 463.606 153.244C463.821 153.342 464.012 153.463 464.18 153.608C464.348 153.748 464.484 153.921 464.586 154.126C464.689 154.327 464.74 154.572 464.74 154.861C464.74 155.197 464.68 155.507 464.558 155.792C464.437 156.077 464.26 156.324 464.026 156.534C463.793 156.744 463.501 156.907 463.151 157.024C462.806 157.141 462.409 157.199 461.961 157.199C461.714 157.199 461.474 157.176 461.24 157.129C461.012 157.087 460.792 157.029 460.582 156.954C460.377 156.875 460.183 156.781 460.001 156.674C459.824 156.567 459.665 156.45 459.525 156.324L459.875 155.75C459.917 155.68 459.969 155.626 460.029 155.589C460.095 155.547 460.174 155.526 460.267 155.526C460.365 155.526 460.461 155.559 460.554 155.624C460.652 155.685 460.764 155.752 460.89 155.827C461.021 155.902 461.177 155.972 461.359 156.037C461.541 156.098 461.768 156.128 462.038 156.128C462.262 156.128 462.456 156.102 462.619 156.051C462.783 155.995 462.918 155.92 463.025 155.827C463.133 155.734 463.212 155.629 463.263 155.512C463.315 155.391 463.34 155.262 463.34 155.127C463.34 154.945 463.289 154.796 463.186 154.679C463.084 154.562 462.946 154.462 462.773 154.378C462.605 154.294 462.412 154.219 462.192 154.154C461.978 154.089 461.758 154.019 461.534 153.944C461.31 153.869 461.089 153.783 460.869 153.685C460.655 153.587 460.461 153.463 460.288 153.314C460.12 153.16 459.985 152.976 459.882 152.761C459.78 152.542 459.728 152.276 459.728 151.963C459.728 151.678 459.784 151.408 459.896 151.151C460.013 150.894 460.181 150.668 460.4 150.472C460.624 150.276 460.897 150.122 461.219 150.01C461.546 149.893 461.922 149.835 462.346 149.835C462.827 149.835 463.263 149.912 463.655 150.066C464.047 150.22 464.376 150.43 464.642 150.696L464.306 151.242Z" fill="#082C4E"/>
<g filter="url(#filter2_dd)">
<rect x="350.299" y="10.2297" width="116.694" height="116.694" rx="58.3472" fill="#FAFCFE"/>
</g>
<path d="M417.962 67.1322H417.962H399.092C399.04 67.1322 398.998 67.0901 398.998 67.0382V52.8858C398.998 47.6141 403.303 43.3269 408.582 43.3569C413.822 43.3866 418.056 47.7244 418.056 53.0068V67.0384C418.056 67.0901 418.014 67.1323 417.962 67.1322Z" stroke="#1B1B1B" stroke-width="2.95684"/>
<path d="M397.517 67.038V71.7555C397.517 77.8252 402.455 82.763 408.525 82.763C414.595 82.763 419.532 77.8254 419.532 71.7555V67.038H397.517Z" fill="#1B1B1B"/>
<path d="M410.096 87.4819H406.951V93.9817H410.096V87.4819Z" fill="#1B1B1B"/>
<path d="M425.82 63.894V71.7566C425.82 81.2859 418.052 89.0541 408.523 89.0541C398.993 89.0541 391.225 81.2859 391.225 71.7566V63.894H394.37V71.7566C394.37 79.5561 400.723 85.909 408.523 85.909C416.322 85.909 422.675 79.5561 422.675 71.7566V63.894H425.82Z" fill="#1B1B1B"/>
<path d="M410.097 87.4819H408.525V93.9817H410.097V87.4819Z" fill="#1B1B1B"/>
<path d="M425.822 63.894V71.7566C425.822 81.2859 418.054 89.0541 408.525 89.0541V85.909C416.324 85.909 422.677 79.5561 422.677 71.7566V63.894H425.822Z" fill="#1B1B1B"/>
<path d="M419.531 92.4075H397.515V95.5525H419.531V92.4075Z" fill="#1B1B1B"/>
<path d="M419.531 92.4075H408.525V95.5525H419.531V92.4075Z" fill="#1B1B1B"/>
<g filter="url(#filter3_dd)">
<rect x="527.476" y="10.2297" width="117.01" height="117.01" rx="58.5052" fill="#FAFCFE"/>
</g>
<path d="M599.915 41.6848L588.407 53.1924V41.6848H599.915Z" stroke="#1B1B1B" stroke-width="2.7647"/>
<path d="M571.854 41.6848L583.361 53.1924V41.6848H571.854Z" stroke="#1B1B1B" stroke-width="2.7647"/>
<path d="M570.627 61.1413L583.361 90.3625V61.1413H570.627Z" stroke="#1B1B1B" stroke-width="2.7647"/>
<path d="M601.142 61.1413L588.407 90.3625V61.1413H601.142Z" stroke="#1B1B1B" stroke-width="2.7647"/>
<path d="M546.684 157.827H545.039V147.747H546.684V157.827ZM552.19 151.632C552.344 151.474 552.503 151.331 552.666 151.205C552.834 151.075 553.011 150.963 553.198 150.869C553.385 150.776 553.583 150.704 553.793 150.652C554.003 150.601 554.232 150.575 554.479 150.575C554.871 150.575 555.214 150.641 555.508 150.771C555.807 150.902 556.056 151.086 556.257 151.324C556.462 151.562 556.616 151.849 556.719 152.185C556.822 152.517 556.873 152.883 556.873 153.284V157.827H555.375V153.284C555.375 152.804 555.263 152.43 555.039 152.164C554.82 151.898 554.484 151.765 554.031 151.765C553.695 151.765 553.382 151.842 553.093 151.996C552.808 152.15 552.54 152.36 552.288 152.626V157.827H550.783V150.687H551.693C551.898 150.687 552.029 150.783 552.085 150.974L552.19 151.632ZM562.924 157.939C562.331 157.939 561.874 157.774 561.552 157.442C561.235 157.106 561.076 156.635 561.076 156.028V151.87H560.292C560.208 151.87 560.136 151.845 560.075 151.793C560.014 151.737 559.984 151.656 559.984 151.548V150.939L561.139 150.771L561.468 148.706C561.491 148.627 561.531 148.564 561.587 148.517C561.643 148.466 561.718 148.44 561.811 148.44H562.581V150.785H564.562V151.87H562.581V155.923C562.581 156.18 562.644 156.376 562.77 156.511C562.896 156.647 563.064 156.714 563.274 156.714C563.391 156.714 563.491 156.7 563.575 156.672C563.659 156.64 563.731 156.607 563.792 156.574C563.853 156.537 563.904 156.504 563.946 156.476C563.993 156.444 564.037 156.427 564.079 156.427C564.163 156.427 564.231 156.474 564.282 156.567L564.73 157.302C564.497 157.508 564.221 157.666 563.904 157.778C563.587 157.886 563.26 157.939 562.924 157.939ZM572.477 153.452C572.477 153.2 572.439 152.967 572.365 152.752C572.295 152.533 572.19 152.344 572.05 152.185C571.91 152.022 571.735 151.896 571.525 151.807C571.319 151.714 571.081 151.667 570.811 151.667C570.265 151.667 569.835 151.824 569.523 152.136C569.21 152.449 569.012 152.888 568.928 153.452H572.477ZM568.886 154.376C568.904 154.782 568.967 155.135 569.075 155.433C569.182 155.727 569.324 155.972 569.502 156.168C569.684 156.364 569.898 156.511 570.146 156.609C570.398 156.703 570.678 156.749 570.986 156.749C571.28 156.749 571.534 156.717 571.749 156.651C571.963 156.581 572.15 156.507 572.309 156.427C572.467 156.343 572.603 156.269 572.715 156.203C572.827 156.133 572.929 156.098 573.023 156.098C573.144 156.098 573.237 156.145 573.303 156.238L573.73 156.791C573.552 157.001 573.352 157.179 573.128 157.323C572.904 157.468 572.666 157.587 572.414 157.68C572.162 157.769 571.903 157.832 571.637 157.869C571.371 157.911 571.112 157.932 570.86 157.932C570.365 157.932 569.905 157.851 569.481 157.687C569.061 157.519 568.694 157.274 568.382 156.952C568.074 156.63 567.831 156.231 567.654 155.755C567.481 155.279 567.395 154.731 567.395 154.11C567.395 153.616 567.472 153.154 567.626 152.724C567.784 152.295 568.008 151.922 568.298 151.604C568.592 151.287 568.946 151.037 569.362 150.855C569.782 150.669 570.255 150.575 570.783 150.575C571.221 150.575 571.627 150.648 572.001 150.792C572.374 150.932 572.696 151.14 572.967 151.415C573.237 151.691 573.447 152.029 573.597 152.43C573.751 152.827 573.828 153.28 573.828 153.788C573.828 154.022 573.802 154.178 573.751 154.257C573.699 154.337 573.606 154.376 573.471 154.376H568.886ZM578.752 152.01C578.976 151.558 579.247 151.203 579.564 150.946C579.882 150.685 580.262 150.554 580.705 150.554C580.859 150.554 581.004 150.573 581.139 150.61C581.275 150.643 581.396 150.694 581.503 150.764L581.398 151.898C581.38 151.978 581.349 152.034 581.307 152.066C581.27 152.094 581.219 152.108 581.153 152.108C581.083 152.108 580.983 152.097 580.852 152.073C580.722 152.045 580.584 152.031 580.439 152.031C580.229 152.031 580.043 152.062 579.879 152.122C579.721 152.183 579.576 152.272 579.445 152.388C579.319 152.505 579.207 152.647 579.109 152.815C579.011 152.983 578.92 153.175 578.836 153.389V157.827H577.331V150.687H578.206C578.365 150.687 578.475 150.718 578.535 150.778C578.596 150.834 578.638 150.935 578.661 151.079L578.752 152.01ZM586.006 151.632C586.16 151.474 586.319 151.331 586.482 151.205C586.65 151.075 586.827 150.963 587.014 150.869C587.201 150.776 587.399 150.704 587.609 150.652C587.819 150.601 588.048 150.575 588.295 150.575C588.687 150.575 589.03 150.641 589.324 150.771C589.623 150.902 589.872 151.086 590.073 151.324C590.278 151.562 590.432 151.849 590.535 152.185C590.638 152.517 590.689 152.883 590.689 153.284V157.827H589.191V153.284C589.191 152.804 589.079 152.43 588.855 152.164C588.636 151.898 588.3 151.765 587.847 151.765C587.511 151.765 587.198 151.842 586.909 151.996C586.624 152.15 586.356 152.36 586.104 152.626V157.827H584.599V150.687H585.509C585.714 150.687 585.845 150.783 585.901 150.974L586.006 151.632ZM602.058 149.07V152.297H605.999V153.62H602.058V157.827H600.413V147.747H606.699V149.07H602.058ZM612.993 154.705C612.457 154.724 612.004 154.768 611.635 154.838C611.267 154.904 610.968 154.99 610.739 155.097C610.511 155.2 610.345 155.324 610.242 155.468C610.144 155.613 610.095 155.772 610.095 155.944C610.095 156.112 610.121 156.257 610.172 156.378C610.228 156.495 610.303 156.593 610.396 156.672C610.494 156.747 610.606 156.803 610.732 156.84C610.863 156.873 611.005 156.889 611.159 156.889C611.551 156.889 611.887 156.817 612.167 156.672C612.452 156.523 612.727 156.308 612.993 156.028V154.705ZM609.003 151.681C609.811 150.93 610.772 150.554 611.887 150.554C612.298 150.554 612.662 150.622 612.979 150.757C613.301 150.888 613.57 151.075 613.784 151.317C614.004 151.56 614.169 151.849 614.281 152.185C614.398 152.517 614.456 152.885 614.456 153.291V157.827H613.784C613.64 157.827 613.53 157.806 613.455 157.764C613.381 157.718 613.318 157.627 613.266 157.491L613.119 156.91C612.937 157.074 612.758 157.221 612.58 157.351C612.403 157.477 612.219 157.585 612.027 157.673C611.841 157.762 611.638 157.827 611.418 157.869C611.204 157.916 610.966 157.939 610.704 157.939C610.415 157.939 610.144 157.9 609.892 157.82C609.645 157.741 609.43 157.622 609.248 157.463C609.066 157.3 608.922 157.099 608.814 156.861C608.712 156.623 608.66 156.343 608.66 156.021C608.66 155.746 608.733 155.478 608.877 155.216C609.027 154.955 609.269 154.722 609.605 154.516C609.946 154.306 610.392 154.134 610.942 153.998C611.498 153.863 612.181 153.786 612.993 153.767V153.291C612.993 152.778 612.884 152.395 612.664 152.143C612.445 151.891 612.123 151.765 611.698 151.765C611.409 151.765 611.166 151.803 610.97 151.877C610.774 151.947 610.604 152.024 610.459 152.108C610.315 152.192 610.186 152.272 610.074 152.346C609.962 152.416 609.843 152.451 609.717 152.451C609.615 152.451 609.526 152.426 609.451 152.374C609.381 152.318 609.323 152.251 609.276 152.171L609.003 151.681ZM619.887 150.687V157.827H618.382V150.687H619.887ZM620.139 148.531C620.139 148.667 620.111 148.795 620.055 148.916C620.004 149.038 619.932 149.145 619.838 149.238C619.745 149.327 619.635 149.399 619.509 149.455C619.388 149.507 619.257 149.532 619.117 149.532C618.982 149.532 618.854 149.507 618.732 149.455C618.616 149.399 618.513 149.327 618.424 149.238C618.336 149.145 618.263 149.038 618.207 148.916C618.156 148.795 618.13 148.667 618.13 148.531C618.13 148.391 618.156 148.261 618.207 148.139C618.263 148.018 618.336 147.913 618.424 147.824C618.513 147.731 618.616 147.659 618.732 147.607C618.854 147.551 618.982 147.523 619.117 147.523C619.257 147.523 619.388 147.551 619.509 147.607C619.635 147.659 619.745 147.731 619.838 147.824C619.932 147.913 620.004 148.018 620.055 148.139C620.111 148.261 620.139 148.391 620.139 148.531ZM625.299 152.01C625.523 151.558 625.794 151.203 626.111 150.946C626.429 150.685 626.809 150.554 627.252 150.554C627.406 150.554 627.551 150.573 627.686 150.61C627.822 150.643 627.943 150.694 628.05 150.764L627.945 151.898C627.927 151.978 627.896 152.034 627.854 152.066C627.817 152.094 627.766 152.108 627.7 152.108C627.63 152.108 627.53 152.097 627.399 152.073C627.269 152.045 627.131 152.031 626.986 152.031C626.776 152.031 626.59 152.062 626.426 152.122C626.268 152.183 626.123 152.272 625.992 152.388C625.866 152.505 625.754 152.647 625.656 152.815C625.558 152.983 625.467 153.175 625.383 153.389V157.827H623.878V150.687H624.753C624.912 150.687 625.022 150.718 625.082 150.778C625.143 150.834 625.185 150.935 625.208 151.079L625.299 152.01Z" fill="#082C4E"/>
<defs>
<filter id="filter0_dd" x="0.311466" y="0.541202" width="136.387" height="136.387" filterUnits="userSpaceOnUse" color-interpolation-filters="sRGB">
<feFlood flood-opacity="0" result="BackgroundImageFix"/>
<feColorMatrix in="SourceAlpha" type="matrix" values="0 0 0 0 0 0 0 0 0 0 0 0 0 0 0 0 0 0 127 0"/>
<feOffset dx="-3.22951" dy="-3.22951"/>
<feGaussianBlur stdDeviation="3.22951"/>
<feColorMatrix type="matrix" values="0 0 0 0 0 0 0 0 0 0 0 0 0 0 0 0 0 0 0.1 0"/>
<feBlend mode="normal" in2="BackgroundImageFix" result="effect1_dropShadow"/>
<feColorMatrix in="SourceAlpha" type="matrix" values="0 0 0 0 0 0 0 0 0 0 0 0 0 0 0 0 0 0 127 0"/>
<feOffset dx="3.22951" dy="3.22951"/>
<feGaussianBlur stdDeviation="3.22951"/>
<feColorMatrix type="matrix" values="0 0 0 0 0 0 0 0 0 0 0 0 0 0 0 0 0 0 0.1 0"/>
<feBlend mode="normal" in2="effect1_dropShadow" result="effect2_dropShadow"/>
<feBlend mode="normal" in="SourceGraphic" in2="effect2_dropShadow" result="shape"/>
</filter>
<filter id="filter1_dd" x="162.322" y="0.541202" width="136.071" height="136.071" filterUnits="userSpaceOnUse" color-interpolation-filters="sRGB">
<feFlood flood-opacity="0" result="BackgroundImageFix"/>
<feColorMatrix in="SourceAlpha" type="matrix" values="0 0 0 0 0 0 0 0 0 0 0 0 0 0 0 0 0 0 127 0"/>
<feOffset dx="-3.22951" dy="-3.22951"/>
<feGaussianBlur stdDeviation="3.22951"/>
<feColorMatrix type="matrix" values="0 0 0 0 0 0 0 0 0 0 0 0 0 0 0 0 0 0 0.1 0"/>
<feBlend mode="normal" in2="BackgroundImageFix" result="effect1_dropShadow"/>
<feColorMatrix in="SourceAlpha" type="matrix" values="0 0 0 0 0 0 0 0 0 0 0 0 0 0 0 0 0 0 127 0"/>
<feOffset dx="3.22951" dy="3.22951"/>
<feGaussianBlur stdDeviation="3.22951"/>
<feColorMatrix type="matrix" values="0 0 0 0 0 0 0 0 0 0 0 0 0 0 0 0 0 0 0.1 0"/>
<feBlend mode="normal" in2="effect1_dropShadow" result="effect2_dropShadow"/>
<feBlend mode="normal" in="SourceGraphic" in2="effect2_dropShadow" result="shape"/>
</filter>
<filter id="filter2_dd" x="340.61" y="0.541202" width="136.071" height="136.071" filterUnits="userSpaceOnUse" color-interpolation-filters="sRGB">
<feFlood flood-opacity="0" result="BackgroundImageFix"/>
<feColorMatrix in="SourceAlpha" type="matrix" values="0 0 0 0 0 0 0 0 0 0 0 0 0 0 0 0 0 0 127 0"/>
<feOffset dx="-3.22951" dy="-3.22951"/>
<feGaussianBlur stdDeviation="3.22951"/>
<feColorMatrix type="matrix" values="0 0 0 0 0 0 0 0 0 0 0 0 0 0 0 0 0 0 0.1 0"/>
<feBlend mode="normal" in2="BackgroundImageFix" result="effect1_dropShadow"/>
<feColorMatrix in="SourceAlpha" type="matrix" values="0 0 0 0 0 0 0 0 0 0 0 0 0 0 0 0 0 0 127 0"/>
<feOffset dx="3.22951" dy="3.22951"/>
<feGaussianBlur stdDeviation="3.22951"/>
<feColorMatrix type="matrix" values="0 0 0 0 0 0 0 0 0 0 0 0 0 0 0 0 0 0 0.1 0"/>
<feBlend mode="normal" in2="effect1_dropShadow" result="effect2_dropShadow"/>
<feBlend mode="normal" in="SourceGraphic" in2="effect2_dropShadow" result="shape"/>
</filter>
<filter id="filter3_dd" x="517.788" y="0.541202" width="136.387" height="136.387" filterUnits="userSpaceOnUse" color-interpolation-filters="sRGB">
<feFlood flood-opacity="0" result="BackgroundImageFix"/>
<feColorMatrix in="SourceAlpha" type="matrix" values="0 0 0 0 0 0 0 0 0 0 0 0 0 0 0 0 0 0 127 0"/>
<feOffset dx="-3.22951" dy="-3.22951"/>
<feGaussianBlur stdDeviation="3.22951"/>
<feColorMatrix type="matrix" values="0 0 0 0 0 0 0 0 0 0 0 0 0 0 0 0 0 0 0.1 0"/>
<feBlend mode="normal" in2="BackgroundImageFix" result="effect1_dropShadow"/>
<feColorMatrix in="SourceAlpha" type="matrix" values="0 0 0 0 0 0 0 0 0 0 0 0 0 0 0 0 0 0 127 0"/>
<feOffset dx="3.22951" dy="3.22951"/>
<feGaussianBlur stdDeviation="3.22951"/>
<feColorMatrix type="matrix" values="0 0 0 0 0 0 0 0 0 0 0 0 0 0 0 0 0 0 0.1 0"/>
<feBlend mode="normal" in2="effect1_dropShadow" result="effect2_dropShadow"/>
<feBlend mode="normal" in="SourceGraphic" in2="effect2_dropShadow" result="shape"/>
</filter>
<clipPath id="clip0">
<rect width="52.3744" height="49.9866" fill="white" transform="translate(204.093 43.5375)"/>
</clipPath>
<clipPath id="clip1">
</clipPath>
<clipPath id="clip2">
</clipPath>
<clipPath id="clip3">
</clipPath>
</defs>
</svg>
