<svg width="24" height="24" viewBox="0 0 24 24" fill="none" xmlns="http://www.w3.org/2000/svg">
<path opacity="0.1" fill-rule="evenodd" clip-rule="evenodd" d="M0 12C0 5.37258 5.37258 0 12 0C18.6274 0 24 5.37258 24 12C24 18.6274 18.6274 24 12 24C5.37258 24 0 18.6274 0 12Z" fill="white"/>
<path fill-rule="evenodd" clip-rule="evenodd" d="M18.4 11.9911C18.4 12.4239 18.3559 12.8561 18.2694 13.2775C18.185 13.6888 18.06 14.0926 17.8962 14.4786C17.7362 14.8578 17.5378 15.2232 17.3059 15.5639C17.0774 15.9026 16.8143 16.2202 16.5252 16.5098C16.2355 16.7982 15.9167 17.0606 15.5783 17.29C15.2364 17.5203 14.8705 17.7184 14.4911 17.8792C14.1045 18.0421 13.6997 18.1669 13.2888 18.2511C12.8669 18.3379 12.4331 18.3822 11.9997 18.3822C11.5659 18.3822 11.1321 18.3379 10.7109 18.2511C10.2993 18.1669 9.89459 18.0421 9.50832 17.8792C9.12893 17.7184 8.76264 17.5203 8.42076 17.29C8.0823 17.0606 7.76354 16.7982 7.47446 16.5098C7.18508 16.2202 6.92193 15.9026 6.69317 15.5639C6.46253 15.2232 6.26376 14.8577 6.10313 14.4786C5.93936 14.0926 5.81405 13.6887 5.72936 13.2775C5.64374 12.8561 5.59998 12.4239 5.59998 11.9911C5.59998 11.558 5.64371 11.1248 5.72939 10.7044C5.81408 10.2931 5.93938 9.88869 6.10316 9.5033C6.26378 9.12384 6.46256 8.75811 6.69319 8.41731C6.92195 8.07842 7.18511 7.76134 7.47449 7.47143C7.76357 7.18307 8.08233 6.92127 8.42078 6.69222C8.76267 6.46096 9.12895 6.26282 9.50834 6.10178C9.89462 5.93854 10.2993 5.81342 10.7109 5.7298C11.1322 5.64368 11.5659 5.59998 11.9997 5.59998C12.4332 5.59998 12.8669 5.64368 13.2888 5.7298C13.6998 5.81345 14.1045 5.93857 14.4911 6.10178C14.8705 6.2628 15.2364 6.46096 15.5783 6.69222C15.9168 6.92127 16.2356 7.18307 16.5252 7.47143C16.8143 7.76134 17.0775 8.07842 17.3059 8.41731C17.5378 8.75811 17.7362 9.12386 17.8962 9.5033C18.06 9.88869 18.185 10.2931 18.2694 10.7044C18.3559 11.1248 18.4 11.558 18.4 11.9911ZM9.66766 7.05451C8.14351 7.77322 7.00595 9.17563 6.65124 10.8658C6.79533 10.867 9.07295 10.8958 11.6971 10.1995C10.7512 8.52121 9.74049 7.15159 9.66766 7.05451ZM12.15 11.0399C9.33577 11.8812 6.6353 11.8207 6.53844 11.817C6.53686 11.8756 6.53405 11.9324 6.53405 11.9911C6.53405 13.3932 7.06376 14.6714 7.93444 15.6379C7.93256 15.6351 9.42828 12.9853 12.3778 12.0329C12.449 12.0092 12.5216 11.988 12.5934 11.9674C12.4563 11.6572 12.3065 11.3464 12.15 11.0399ZM15.6092 7.89492C14.647 7.04764 13.3835 6.5337 11.9997 6.5337C11.5556 6.5337 11.1246 6.58738 10.7118 6.68661C10.7937 6.79647 11.8203 8.15644 12.755 9.87028C14.8173 9.09824 15.5958 7.91488 15.6092 7.89492ZM12.966 12.8717C12.9538 12.8758 12.9416 12.8793 12.9297 12.8836C9.70494 14.0062 8.65184 16.2685 8.64045 16.2932C9.56833 17.0138 10.7321 17.4485 11.9997 17.4485C12.7566 17.4485 13.4776 17.2946 14.1335 17.016C14.0526 16.5391 13.7351 14.8677 12.966 12.8717ZM15.0539 16.5173C16.2811 15.6903 17.1527 14.3772 17.3959 12.8561C17.2834 12.8199 15.7542 12.3365 13.9901 12.619C14.707 14.5862 14.9983 16.1884 15.0539 16.5173ZM13.1757 10.6835C13.3026 10.9438 13.4254 11.2087 13.5388 11.4749C13.5792 11.5704 13.6185 11.6641 13.657 11.7577C15.5346 11.5217 17.3843 11.9187 17.4634 11.9349C17.4509 10.6411 16.9874 9.45367 16.2206 8.52404C16.2102 8.53868 15.3336 9.80349 13.1757 10.6835Z" fill="white"/>
</svg>
