<svg width="1440" height="363" viewBox="0 0 1440 363" fill="none" xmlns="http://www.w3.org/2000/svg">
<rect width="1440" height="363" fill="#082C4E"/>
<g opacity="0.1">
<circle cx="1445.95" cy="236.955" r="94.1155" stroke="white" stroke-width="12.4166"/>
<path d="M1375.62 -11.4753L1553.86 56.9433C1547.31 39.0652 1541.39 24.3953 1534.64 12.5752C1526.45 -1.77335 1517.29 -11.4732 1504.8 -17.3768C1492.16 -23.3485 1475.37 -25.7827 1451.3 -24.1113C1431.27 -22.7211 1406.59 -18.5216 1375.62 -11.4753Z" stroke="white" stroke-width="12.4166"/>
<path d="M1232.24 86.1795L1412.75 24.0232C1396.25 14.5354 1382.28 7.10671 1369.51 2.3889C1354.01 -3.33808 1340.76 -4.88215 1327.39 -1.37224C1313.87 2.17816 1299.45 11.1017 1282.08 27.8559C1267.64 41.7923 1251.43 60.8791 1232.24 86.1795Z" stroke="white" stroke-width="12.4166"/>
<path d="M1196.23 249.033L1294.56 85.3857C1275.82 88.7277 1260.34 92.0162 1247.53 96.6082C1231.98 102.182 1220.83 109.517 1212.85 120.798C1204.77 132.209 1199.46 148.315 1196.93 172.313C1194.82 192.274 1194.67 217.317 1196.23 249.033Z" stroke="white" stroke-width="12.4166"/>
<path d="M1267.38 412.943L1237.51 224.377C1225.3 238.985 1215.56 251.451 1208.7 263.205C1200.37 277.472 1196.55 290.253 1197.68 304.026C1198.83 317.959 1205.11 333.711 1218.6 353.723C1229.81 370.37 1245.8 389.651 1267.38 412.943Z" stroke="white" stroke-width="12.4166"/>
<path d="M1421.95 480.209L1277.86 354.956C1277.9 373.995 1278.45 389.807 1280.75 403.222C1283.54 419.506 1288.82 431.753 1298.55 441.575C1308.38 451.51 1323.32 459.537 1346.51 466.2C1365.81 471.743 1390.44 476.24 1421.95 480.209Z" stroke="white" stroke-width="12.4166"/>
</g>
</svg>
