<svg width="89" height="74" viewBox="0 0 89 74" fill="none" xmlns="http://www.w3.org/2000/svg">
<path d="M35.0376 44.6022L35.1576 44.9023C35.2176 45.0224 35.3376 45.0824 35.4577 45.0424C37.2381 44.3622 42.0193 41.9016 42.0193 36.4602C42.0193 33.2794 40.4389 30.7588 37.3381 30.7588C34.9175 30.7588 32.877 32.8193 32.877 35.3599C32.877 38.0406 34.9375 39.741 37.2181 39.741C39.2586 39.741 40.619 38.5407 40.939 38.1206C40.3189 41.7815 36.3979 43.8221 35.2576 44.2222C35.0176 44.3022 34.9775 44.4422 35.0376 44.6022ZM37.2781 38.9208C35.3776 38.9208 33.7572 37.4404 33.7572 35.3199C33.7572 33.2794 35.3576 31.559 37.3381 31.559C39.8988 31.559 41.1391 33.8795 41.1391 36.3202C41.1391 36.5402 41.1191 36.7203 41.0991 36.9203C41.0391 37.0003 39.6987 38.9208 37.2781 38.9208Z" fill="white"/>
<path d="M44.5746 44.0821C44.5746 44.5222 44.9547 44.8823 45.3949 44.8823C45.855 44.8823 46.1951 44.5222 46.1951 44.0821C46.1951 43.622 45.855 43.2819 45.3949 43.2819C44.9547 43.2819 44.5746 43.622 44.5746 44.0821Z" fill="white"/>
<path d="M53.4641 44.8823C56.5849 44.8823 58.3653 42.2417 58.3653 37.8605C58.3653 33.4794 56.5849 30.8388 53.4641 30.8388C50.3433 30.8388 48.5628 33.4794 48.5628 37.8605C48.5628 42.2417 50.3433 44.8823 53.4641 44.8823ZM53.4641 44.0621C50.8834 44.0621 49.4431 41.8015 49.4431 37.8605C49.4431 33.9596 50.8834 31.679 53.4641 31.679C56.0247 31.679 57.4651 33.9596 57.4651 37.8605C57.4651 41.8015 56.0247 44.0621 53.4641 44.0621Z" fill="white"/>
<path fill-rule="evenodd" clip-rule="evenodd" d="M34.6154 44.7714C34.6142 44.7683 34.613 44.7652 34.6118 44.7621C34.5571 44.6162 34.5184 44.3991 34.6284 44.1791C34.7354 43.9651 34.9315 43.8525 35.1099 43.7924C35.632 43.6086 36.8457 43.0258 37.9993 42.0477C38.8218 41.3503 39.5913 40.4714 40.0694 39.4146C39.3608 39.832 38.392 40.1959 37.2181 40.1959C34.7087 40.1959 32.4223 38.3136 32.4223 35.3602C32.4223 32.5789 34.656 30.3044 37.3381 30.3044C39.0272 30.3044 40.3326 30.9983 41.2032 32.1415C42.0626 33.2699 42.474 34.8015 42.474 36.4605C42.474 39.3303 41.2081 41.4173 39.7233 42.8628C38.2464 44.3006 36.5451 45.1139 35.6199 45.4673C35.6138 45.4697 35.6076 45.4719 35.6014 45.4739C35.2286 45.5982 34.893 45.3901 34.7509 45.1059C34.7453 45.0946 34.7401 45.0831 34.7354 45.0714L34.6154 44.7714ZM40.3418 38.6854C40.6358 38.4612 40.8386 38.2527 40.939 38.1209C40.8902 38.4089 40.821 38.6868 40.7343 38.9548C39.7192 42.0927 36.3082 43.8538 35.2576 44.2224C35.0175 44.3024 34.9775 44.4425 35.0375 44.6025L35.1576 44.9026C35.2176 45.0226 35.3376 45.0826 35.4576 45.0426C37.2381 44.3624 42.0193 41.9018 42.0193 36.4605C42.0193 33.2796 40.4389 30.759 37.3381 30.759C34.9175 30.759 32.877 32.8195 32.877 35.3602C32.877 38.0408 34.9375 39.7413 37.2181 39.7413C38.6185 39.7413 39.6986 39.1759 40.3418 38.6854ZM34.2119 35.3202C34.2119 37.1846 35.6237 38.4664 37.2781 38.4664C39.1849 38.4664 40.3564 37.1342 40.6594 36.7482C40.6738 36.6005 40.6844 36.4718 40.6844 36.3204C40.6844 35.1693 40.3908 34.0782 39.8284 33.2883C39.2769 32.5135 38.4603 32.0139 37.3381 32.0139C35.6325 32.0139 34.2119 33.5063 34.2119 35.3202ZM41.0991 36.9206C41.1006 36.9051 41.1022 36.8897 41.1037 36.8745C41.122 36.6924 41.1391 36.5234 41.1391 36.3204C41.1391 33.8798 39.8988 31.5592 37.3381 31.5592C35.3576 31.5592 33.7572 33.2796 33.7572 35.3202C33.7572 37.4407 35.3776 38.9211 37.2781 38.9211C39.6383 38.9211 40.9715 37.0953 41.0922 36.9299C41.0953 36.9257 41.0976 36.9226 41.0991 36.9206ZM45.3948 45.3372C44.7183 45.3372 44.12 44.788 44.12 44.0824C44.12 43.3495 44.7259 42.8275 45.3948 42.8275C46.1061 42.8275 46.6497 43.3712 46.6497 44.0824C46.6497 44.7661 46.1135 45.3372 45.3948 45.3372ZM57.4589 43.2732C56.538 44.6049 55.1723 45.3372 53.4641 45.3372C51.7558 45.3372 50.3901 44.6049 49.4692 43.2732C48.5625 41.962 48.1082 40.1037 48.1082 37.8608C48.1082 35.6179 48.5625 33.7596 49.4692 32.4484C50.3901 31.1167 51.7558 30.3844 53.4641 30.3844C55.1723 30.3844 56.538 31.1167 57.4589 32.4484C58.3656 33.7596 58.82 35.6179 58.82 37.8608C58.82 40.1037 58.3656 41.962 57.4589 43.2732ZM50.8678 42.1929C51.4681 43.1229 52.3305 43.6077 53.4641 43.6077C54.5862 43.6077 55.444 43.1241 56.0424 42.1935C56.6567 41.2382 57.0104 39.7867 57.0104 37.8608C57.0104 35.9557 56.657 34.5089 56.0424 33.5531C55.4433 32.6213 54.5849 32.1339 53.4641 32.1339C52.3318 32.1339 51.4688 32.6225 50.8678 33.5537C50.2512 34.5092 49.8977 35.9556 49.8977 37.8608C49.8977 39.7868 50.2514 41.2379 50.8678 42.1929ZM45.3948 44.8826C44.9547 44.8826 44.5746 44.5225 44.5746 44.0824C44.5746 43.6223 44.9547 43.2822 45.3948 43.2822C45.855 43.2822 46.195 43.6223 46.195 44.0824C46.195 44.5225 45.855 44.8826 45.3948 44.8826ZM58.3653 37.8608C58.3653 42.2419 56.5848 44.8826 53.4641 44.8826C50.3433 44.8826 48.5628 42.2419 48.5628 37.8608C48.5628 33.4797 50.3433 30.839 53.4641 30.839C56.5848 30.839 58.3653 33.4797 58.3653 37.8608ZM49.443 37.8608C49.443 41.8018 50.8834 44.0624 53.4641 44.0624C56.0247 44.0624 57.4651 41.8018 57.4651 37.8608C57.4651 33.9598 56.0247 31.6792 53.4641 31.6792C50.8834 31.6792 49.443 33.9598 49.443 37.8608Z" fill="white"/>
<path d="M69.9613 25.836C61.6478 20.0692 53.8701 15.3974 45.6036 15.3974C37.5642 15.3974 28.618 20.1278 19.9077 25.836" stroke="#48BACA" stroke-width="2.09441" stroke-linecap="round"/>
<path d="M22.6962 51.5963C30.4292 55.8629 36.1337 58.6035 45.4204 58.6035C53.1894 58.6035 60.3364 55.8127 67.5937 51.5963" stroke="#48BACA" stroke-width="2.09441" stroke-linecap="round"/>
<circle cx="45.6207" cy="37.0005" r="21.6031" stroke="#48BACA" stroke-width="2.09441"/>
<line x1="1.0472" y1="-1.0472" x2="8.84588" y2="-1.0472" transform="matrix(-4.37112e-08 -1 -1 4.37112e-08 44.0832 73.6089)" stroke="#48BACA" stroke-width="2.09441" stroke-linecap="round"/>
<line x1="1.0472" y1="-1.0472" x2="8.84588" y2="-1.0472" transform="matrix(0.866025 0.5 0.5 -0.866025 65.6303 56.5582)" stroke="#48BACA" stroke-width="2.09441" stroke-linecap="round"/>
<line x1="25.2273" y1="57.9887" x2="18.4735" y2="61.888" stroke="#48BACA" stroke-width="2.09441" stroke-linecap="round"/>
<line x1="34.4068" y1="62.9011" x2="30.5074" y2="69.655" stroke="#48BACA" stroke-width="2.09441" stroke-linecap="round"/>
<line x1="1.0472" y1="-1.0472" x2="8.84588" y2="-1.0472" transform="matrix(0.5 0.866025 0.866025 -0.5 57.4608 61.4706)" stroke="#48BACA" stroke-width="2.09441" stroke-linecap="round"/>
<line x1="45.1304" y1="1.0472" x2="45.1304" y2="8.84588" stroke="#48BACA" stroke-width="2.09441" stroke-linecap="round"/>
<line x1="66.0136" y1="15.6202" x2="72.7675" y2="11.7208" stroke="#48BACA" stroke-width="2.09441" stroke-linecap="round"/>
<line x1="1.0472" y1="-1.0472" x2="8.84588" y2="-1.0472" transform="matrix(-0.866025 -0.5 -0.5 0.866025 25.6106 17.0507)" stroke="#48BACA" stroke-width="2.09441" stroke-linecap="round"/>
<line x1="1.0472" y1="-1.0472" x2="8.84588" y2="-1.0472" transform="matrix(-0.5 -0.866025 -0.866025 0.5 34.0235 12.1383)" stroke="#48BACA" stroke-width="2.09441" stroke-linecap="round"/>
<line x1="57.0775" y1="10.7078" x2="60.9769" y2="3.95394" stroke="#48BACA" stroke-width="2.09441" stroke-linecap="round"/>
<path d="M1.99988 38.8288L12.517 31.4647" stroke="white" stroke-width="2.09441" stroke-linecap="round" stroke-linejoin="round"/>
<path d="M1.99988 38.8288L12.517 46.193" stroke="white" stroke-width="2.09441" stroke-linecap="round" stroke-linejoin="round"/>
<path d="M87.316 38.8288L76.7988 31.4647" stroke="white" stroke-width="2.09441" stroke-linecap="round" stroke-linejoin="round"/>
<path d="M87.316 38.8288L76.7988 46.193" stroke="white" stroke-width="2.09441" stroke-linecap="round" stroke-linejoin="round"/>
</svg>
