<svg width="653" height="803" viewBox="0 0 653 803" fill="none" xmlns="http://www.w3.org/2000/svg">
<g filter="url(#filter0_d)">
<path fill-rule="evenodd" clip-rule="evenodd" d="M189.423 238.744C175.194 256.061 166.652 278.229 166.652 302.392C166.652 357.799 211.568 402.716 266.976 402.716C278.702 402.716 289.959 400.704 300.419 397.007C299.403 395.129 298.113 392.974 296.5 390.5C295.691 389.259 294.721 387.817 293.606 386.193C285.206 388.86 276.259 390.299 266.976 390.299C218.426 390.299 179.068 350.942 179.068 302.392C179.068 282.873 185.43 264.839 196.194 250.252C195.579 249.274 195.013 248.356 194.5 247.5C192.597 244.328 190.913 241.415 189.423 238.744Z" fill="#F16B58"/>
<path fill-rule="evenodd" clip-rule="evenodd" d="M331.723 44.0971C306.389 30.3149 267.443 31.6136 197.111 47.4904C190.257 49.0377 183.105 50.7235 175.638 52.5473L196.186 60.4352L247.174 80.0075C251.728 77.1551 256.334 74.4854 260.936 71.9902L218.309 55.6274C239.793 51.2504 257.681 48.5655 272.752 47.5191C289.668 46.3446 302.472 47.281 312.528 49.8796C319.978 47.4001 326.526 45.4951 331.723 44.0971ZM239.05 85.3349C237.487 84.4314 235.943 83.5438 234.418 82.673C162.256 41.4713 132.175 37.6942 49.456 146.36C45.1998 151.952 40.8043 157.84 36.2565 164.037L57.068 156.871L218.905 101.147C225.277 95.3973 232.062 90.1372 239.05 85.3349ZM254.666 494.053L221.983 494.053H205.586C209.299 498.381 212.873 502.524 216.337 506.47C221.94 512.853 227.255 518.724 232.403 524.038C234.934 520.7 237.465 517.356 239.981 514.008C237.702 511.625 235.371 509.112 232.972 506.47H245.61C248.68 502.329 251.708 498.187 254.666 494.053ZM230.485 526.566L105.092 417.563L92.7176 406.806C92.6804 412.509 92.6602 417.98 92.6855 423.23C93.0575 500.682 103.308 530.215 214.397 547.882C217.177 544.147 220.005 540.393 222.857 536.623C201.32 533.401 183.699 529.821 169.252 525.671C146.568 519.154 132.768 511.519 123.982 502.644C115.421 493.996 110.537 483.072 107.889 467.611C106.24 457.979 105.516 446.981 105.24 434.144L222.965 536.481C224.988 533.808 227.022 531.127 229.062 528.441C229.536 527.816 230.01 527.191 230.485 526.566ZM70.9247 138.968L218.689 88.0887C207.434 81.9096 197.548 77.0372 188.381 73.6495C173.667 68.2121 161.765 66.9793 149.995 70.0698C137.916 73.2413 124.404 81.3745 107.419 97.7612C96.5459 108.251 84.5691 121.805 70.9247 138.968ZM127.894 142.39L119.449 156.444L23.5499 316.048L12.2136 334.914C11.7142 327.244 11.296 319.908 10.9624 312.889C4.47939 176.475 29.9507 160.033 111.714 145.21C116.881 144.274 122.272 143.344 127.894 142.39ZM103.146 159.469L22.6568 293.426C22.0769 271.508 22.539 253.426 24.1256 238.402C26.6043 214.931 31.727 200.015 38.9411 189.822C45.971 179.888 55.8811 173.182 70.6475 167.89C79.8472 164.593 90.5522 161.97 103.146 159.469ZM65.1117 291.635L62.5468 275.441C58.8528 279.785 55.3207 283.964 51.9649 288.002C-1.14173 351.913 -10.0849 380.881 82.5664 481.213C87.3336 486.375 92.3698 491.727 97.6827 497.281L94.2395 475.542L65.1117 291.635ZM79.0144 458.787L54.5671 304.432C46.5273 314.444 40.0122 323.333 35.0843 331.773C27.1745 345.318 23.8935 356.826 24.8932 368.954C25.9191 381.399 31.5825 396.118 44.7707 415.692C53.2128 428.221 64.4816 442.369 79.0144 458.787Z" fill="#48BACA"/>
</g>
<path d="M298.634 401C298.634 342 -144.697 39.4443 653 0V484C653 484 623 617.5 562 658.5C501 699.5 432.5 776 476.318 837.5C520.135 899 547 868 588 904C629 940 632.012 1009.5 620.5 1039.5L476.318 1001.5C401 926 392.499 950.5 334 916.5C275.501 882.5 156.988 713.5 168 627.5C179.011 541.5 298.635 460 298.634 401Z" fill="#1E1E1E"/>
<g filter="url(#filter1_d)">
<path fill-rule="evenodd" clip-rule="evenodd" d="M188.979 237.301L192.001 242C192.001 242 193.29 244.53 195.61 248.833C211.682 227.945 236.93 214.485 265.323 214.485C313.873 214.485 353.23 253.842 353.23 302.392C353.23 341.428 327.786 374.521 292.579 385.992C295.557 390.114 298.108 393.692 300.109 396.521C338.37 382.376 365.647 345.569 365.647 302.392C365.647 246.985 320.73 202.068 265.323 202.068C234.755 202.068 207.38 215.739 188.979 237.301Z" fill="#FFE353"/>
<path fill-rule="evenodd" clip-rule="evenodd" d="M331.873 44.2654C354.324 56.6412 366.049 80.966 379.58 117.594C381.4 122.52 383.252 127.668 385.168 133.039L369.86 127.163L246.733 79.8989C251.359 77.195 256.132 74.5928 261.034 72.0885L364.051 111.633C359.4 99.6644 354.959 89.5774 350.114 81.09C342.338 67.467 334.013 58.8719 323.01 53.6737C320.142 52.3186 316.997 51.1493 313.515 50.1857C319.569 48.1118 325.697 46.14 331.873 44.2654ZM238.346 85.0193C241.631 86.9147 245.002 88.8815 248.468 90.9131L232.965 96.2512L214.64 102.561C221.852 96.31 229.802 90.4718 238.346 85.0193ZM247.495 494.053L408.024 494.053L430.035 494.053C423.717 498.432 417.644 502.569 411.799 506.47C305.261 577.578 274.708 570.236 226.098 517.525C228.818 514.304 231.572 511.182 234.334 508.136C242.361 516.895 249.653 524.168 256.771 529.99C268.913 539.921 279.765 544.962 291.9 545.872C304.353 546.806 319.777 543.514 341.172 533.551C354.868 527.172 370.605 518.256 389.094 506.47L235.851 506.47C239.751 502.209 243.657 498.091 247.495 494.053ZM223.507 520.636L245.461 539.721L262.072 554.161C254.432 553.321 247.134 552.459 240.164 551.568C227.454 549.945 215.834 548.228 205.209 546.381C207.563 542.445 210.022 538.67 212.561 535.032C215.944 535.589 219.431 536.136 223.028 536.672L215.859 530.44C218.353 527.062 220.911 523.8 223.507 520.636ZM456.411 228.036L464.855 242.09C466.653 236.678 468.363 231.481 469.961 226.479C495.259 147.328 492.7 117.119 369.21 58.8009C362.856 55.8002 356.182 52.7252 349.175 49.5652L360.511 68.4319L456.411 228.036ZM380.904 78.2636L461.394 212.221C465.098 199.926 467.808 189.243 469.216 179.572C471.475 164.05 470.207 152.151 464.737 141.281C459.123 130.126 448.358 118.6 428.798 105.393C416.277 96.9383 400.529 88.0415 380.904 78.2636ZM448.005 390.314L450.852 374.167L483.186 190.797L487.008 169.121C490.223 176.103 493.242 182.802 496.069 189.235C551.008 314.265 533.121 338.744 462.1 381.883C457.612 384.609 452.912 387.409 448.005 390.314ZM464.989 365.501L492.126 211.596C500.522 231.851 506.571 248.897 510.474 263.492C516.571 286.293 517.134 302.054 514.052 314.155C511.049 325.948 504.2 335.76 492.311 345.993C484.904 352.368 475.85 358.652 464.989 365.501ZM363.232 472.162L350.672 482.701C356.298 483.63 361.699 484.506 366.889 485.302C449.023 497.907 478.46 490.653 516.742 359.561C518.712 352.815 520.705 345.742 522.73 338.327L505.869 352.476L363.232 472.162ZM499.348 374.156L379.632 474.61C392.354 476.345 403.33 477.351 413.102 477.228C428.787 477.032 440.34 473.917 450.221 466.814C460.361 459.524 470.06 447.089 480.045 425.704C486.437 412.014 492.761 395.068 499.348 374.156Z" fill="white"/>
</g>
<defs>
<filter id="filter0_d" x="0.687545" y="25.2896" width="352.765" height="544.321" filterUnits="userSpaceOnUse" color-interpolation-filters="sRGB">
<feFlood flood-opacity="0" result="BackgroundImageFix"/>
<feColorMatrix in="SourceAlpha" type="matrix" values="0 0 0 0 0 0 0 0 0 0 0 0 0 0 0 0 0 0 127 0"/>
<feOffset dx="6.2083" dy="6.2083"/>
<feGaussianBlur stdDeviation="7.76038"/>
<feColorMatrix type="matrix" values="0 0 0 0 0 0 0 0 0 0 0 0 0 0 0 0 0 0 0.25 0"/>
<feBlend mode="normal" in2="BackgroundImageFix" result="effect1_dropShadow"/>
<feBlend mode="normal" in="SourceGraphic" in2="effect1_dropShadow" result="shape"/>
</filter>
<filter id="filter1_d" x="179.667" y="34.9529" width="370.362" height="545.216" filterUnits="userSpaceOnUse" color-interpolation-filters="sRGB">
<feFlood flood-opacity="0" result="BackgroundImageFix"/>
<feColorMatrix in="SourceAlpha" type="matrix" values="0 0 0 0 0 0 0 0 0 0 0 0 0 0 0 0 0 0 127 0"/>
<feOffset dx="6.2083" dy="6.2083"/>
<feGaussianBlur stdDeviation="7.76038"/>
<feColorMatrix type="matrix" values="0 0 0 0 0 0 0 0 0 0 0 0 0 0 0 0 0 0 0.25 0"/>
<feBlend mode="normal" in2="BackgroundImageFix" result="effect1_dropShadow"/>
<feBlend mode="normal" in="SourceGraphic" in2="effect1_dropShadow" result="shape"/>
</filter>
</defs>
</svg>
