<svg width="45" height="46" viewBox="0 0 45 46" fill="none" xmlns="http://www.w3.org/2000/svg">
<circle cx="22.9686" cy="22.9691" r="7.43443" fill="#EB5625"/>
<path d="M18.4199 37.1723C23.2735 42.8299 24.9225 44.2014 35.0642 37.1723L18.4199 37.1723Z" fill="#4B6CB2"/>
<path d="M29.183 36.3308C36.5377 37.5449 38.6825 37.5356 41.9333 25.6321L29.183 36.3308Z" fill="#4B6CB2"/>
<path d="M36.3959 29.4845C42.8103 25.687 44.4474 24.3013 39.2861 13.0931L36.3959 29.4845Z" fill="#4B6CB2"/>
<path d="M37.6445 18.5004C39.9943 11.4262 40.3206 9.30634 29.0721 4.23349L37.6445 18.5004Z" fill="#4B6CB2"/>
<path d="M31.7393 10.4193C29.2356 3.39809 28.1877 1.5267 16.2006 4.45451L31.7393 10.4193Z" fill="#4B6CB2"/>
<path d="M21.6091 7.29753C15.178 3.52834 13.1723 2.76837 5.87162 12.7164L21.6091 7.29753Z" fill="#4B6CB2"/>
<path d="M12.6621 11.1122C5.31282 12.3587 3.28789 13.0657 4.08968 25.3791L12.6621 11.1122Z" fill="#4B6CB2"/>
<path d="M7.82003 20.9719C2.99135 26.6507 1.89465 28.494 10.4238 37.4112L7.82003 20.9719Z" fill="#4B6CB2"/>
<path d="M10.0561 30.7066C10.0074 38.1607 10.3521 40.2777 22.6176 41.6262L10.0561 30.7066Z" fill="#4B6CB2"/>
</svg>
